<svg width="300" height="180" xmlns="http://www.w3.org/2000/svg">
<defs>
<linearGradient y2="1" x2="1" y1="0" x1="0" id="bankdirectGradient">
<stop offset="0" stop-color="#c9daa7"/>
<stop offset="0.5" stop-color="#ebf1de"/>
<stop offset="1" stop-color="#c9daa7"/>
</linearGradient>
<linearGradient x2="1" x1="0" id="bankPillar">
<stop stop-color="#707070" offset="0"/>
<stop stop-color="#ffffff" offset="0.5"/>
<stop stop-color="#707070" offset="1"/>
</linearGradient>
<filter width="200%" height="200%" x="-50%" y="-50%" id="bankShaddow">
<feGaussianBlur stdDeviation="0.68"/>
</filter>
</defs>
<rect x="0" y="0" width="300" height="180" fill="url(#bankdirectGradient)"/>
<g aria-label="MyBank" fill="#558ed5">
<path d="m 194.32593,69.45966 -0.18667,1.040001 h -7.22668 l 0.10667,-1.093335 c 0.60445,-0.124445 1.10223,-0.391112 1.49334,-0.800001 V 56.952977 l -4.34668,13.546684 h -2.05333 l -4.77334,-12.826683 v 10.933347 c 0.40889,0.373334 1.07555,0.657779 2,0.853335 l -0.18667,1.040001 h -5.76 l 0.10666,-1.093335 c 0.58667,-0.106667 1.09333,-0.373334 1.52,-0.800001 V 54.606308 c -0.37333,-0.320001 -0.91555,-0.604446 -1.62666,-0.853335 l 0.10666,-1.040001 h 6.02668 l 4.34667,12.000015 3.73334,-12.000015 h 6.50667 l -0.16,1.040001 c -0.69333,0.213334 -1.23556,0.497779 -1.62667,0.853335 v 14.000017 c 0.40889,0.373334 1.07556,0.657779 2.00001,0.853335 z"/>
<path d="m 201.97924,73.246331 c -0.46223,1.120001 -0.97778,1.920002 -1.54667,2.400003 -0.56889,0.480001 -1.29778,0.720001 -2.18667,0.720001 -0.88889,0 -1.58223,-0.177778 -2.08,-0.533334 -0.49778,-0.355556 -0.74667,-0.835557 -0.74667,-1.440002 0,-0.586667 0.14222,-1.040001 0.42666,-1.360001 0.28445,-0.320001 0.66667,-0.480001 1.14667,-0.480001 0.49778,0 0.93334,0.213334 1.30667,0.640001 -0.19555,0.16 -0.29333,0.426667 -0.29333,0.800001 0,0.551111 0.24,0.826667 0.72,0.826667 0.30222,0 0.57778,-0.168889 0.82667,-0.506667 0.26667,-0.337778 0.56889,-0.933334 0.90666,-1.786669 l 0.8,-2.026669 h -0.90666 l -3.84001,-10.853347 c -0.21333,-0.586667 -0.76444,-0.960001 -1.65333,-1.120001 l 0.0533,-0.933335 h 6.98668 l -0.13334,0.933335 c -0.65778,0.01778 -1.16445,0.186669 -1.52,0.506667 l 2.64,7.440009 2.93334,-7.360009 c -0.40889,-0.266667 -0.98666,-0.462223 -1.73333,-0.586667 l 0.10666,-0.933335 h 4.96001 l -0.10667,0.933335 c -0.78222,0.03555 -1.24444,0.248887 -1.38667,0.64 z"/>
<path d="m 217.76588,52.712972 c 2.32889,0 4.10667,0.382223 5.33334,1.146668 1.22667,0.746667 1.84,1.840002 1.84,3.280004 0,1.955558 -1.08445,3.217782 -3.25334,3.786672 1.24445,0.373333 2.19556,0.960001 2.85334,1.760002 0.67555,0.782223 1.01333,1.715558 1.01333,2.800003 0,1.564447 -0.64,2.791115 -1.92,3.680005 -1.28,0.88889 -3.04017,1.306064 -5.28001,1.333335 h -8.21334 l 0.10667,-1.093335 c 0.60444,-0.124445 1.11111,-0.391112 1.52,-0.800001 V 54.606308 c -0.32,-0.320001 -0.86222,-0.604446 -1.62667,-0.853335 l 0.10667,-1.040001 z m -0.64001,9.253345 h -1.44 v 6.800008 c 0.69333,0.05333 1.29778,0.08 1.81334,0.08 1.29778,0 2.24889,-0.266667 2.85334,-0.800001 0.62222,-0.533334 0.93333,-1.37778 0.93333,-2.533337 0,-2.364447 -1.39333,-3.7388 -4.16001,-3.54667 z m 3.68001,-4.773339 c 0,-0.924446 -0.29333,-1.626669 -0.88,-2.10667 -0.58667,-0.497778 -1.32445,-0.746667 -2.21334,-0.746667 -0.87111,0 -1.54667,0.03556 -2.02667,0.106666 v 5.840008 h 1.46667 c 2.43556,0 3.65334,-1.031112 3.65334,-3.093337 z"/>
<path d="m 231.04587,70.686328 c -1.22667,0 -2.16889,-0.284445 -2.82667,-0.853335 -0.65778,-0.568889 -0.98667,-1.395557 -0.98667,-2.480003 0,-2.364447 1.75111,-3.671116 5.25334,-3.920005 l 2.34667,-0.16 v -1.546668 c 0,-1.244446 -0.15111,-2.106669 -0.45334,-2.58667 -0.28444,-0.480001 -0.73777,-0.720001 -1.36,-0.720001 -0.60444,0 -1.07555,0.133333 -1.41333,0.4 -0.32,0.248889 -0.48,0.586668 -0.48,1.013335 0,0.408889 0.19555,0.764445 0.58666,1.066668 -0.0889,0.444445 -0.30222,0.800001 -0.64,1.066668 -0.33777,0.266667 -0.77333,0.4 -1.30666,0.4 -0.53334,0 -0.99556,-0.186667 -1.38667,-0.56 -0.39111,-0.373334 -0.58667,-0.835557 -0.58667,-1.386669 0,-0.942223 0.44445,-1.680002 1.33334,-2.213336 0.90667,-0.551112 2.15111,-0.826668 3.73333,-0.826668 3.82223,0 5.73334,1.404446 5.73334,4.213339 v 7.253343 c 0.30223,0.337778 0.83556,0.577778 1.60001,0.72 l -0.10667,0.933335 h -4.80001 l -0.26666,-1.520002 c -1.13778,1.137779 -2.46223,1.706669 -3.97334,1.706669 z m 2.45333,-6.000008 c -0.97777,0.07111 -1.68,0.293334 -2.10667,0.666668 -0.42667,0.373334 -0.64,0.897779 -0.64,1.573335 0,1.351113 0.53334,2.026669 1.60001,2.026669 0.81777,0 1.64444,-0.488889 2.48,-1.466668 v -2.90667 z"/>
<path d="m 250.91255,61.726317 c 0,-1.706669 -0.55111,-2.560004 -1.65333,-2.560004 -0.46223,0 -0.91556,0.133334 -1.36,0.400001 -0.42667,0.266667 -0.76445,0.622223 -1.01334,1.066668 v 8.106677 c 0.40889,0.32 0.94222,0.56 1.6,0.720001 l -0.10666,1.040001 h -6.74668 l 0.08,-1.093335 c 0.56889,-0.106667 1.04001,-0.328889 1.41334,-0.666667 v -7.68001 c 0,-0.640001 -0.12445,-1.075557 -0.37334,-1.306668 -0.24889,-0.248889 -0.68444,-0.391112 -1.30667,-0.426667 l 0.08,-1.040002 c 2.66667,-0.497778 4.18668,-0.800001 4.56001,-0.906668 l 0.48,0.240001 0.21333,1.546668 c 1.01334,-1.191113 2.32001,-1.786669 3.92001,-1.786669 1.20889,0 2.16889,0.364445 2.88,1.093335 0.72889,0.72889 1.09334,1.733336 1.09334,3.013337 v 7.253343 c 0.44444,0.337778 1.01333,0.577778 1.70667,0.720001 l -0.10667,1.040001 h -6.74668 l 0.08,-1.040001 c 0.53334,-0.106667 0.9689,-0.346668 1.30667,-0.720001 z"/>
<path d="m 266.93919,59.406314 c 0,-0.515557 -0.45333,-0.773335 -1.36,-0.773335 l 0.21333,-1.040001 h 6.21334 l -0.21333,1.040001 c -0.99556,0.05333 -1.77778,0.400001 -2.34667,1.040002 l -2.53334,2.506669 4.02667,6.293342 c 0.49778,0.462223 1.12889,0.773334 1.89334,0.933334 l -0.18667,1.093335 h -5.01334 c -0.0178,-0.533334 -0.1778,-1.04889 -0.48,-1.546669 l -2.72,-4.293338 -1.44,1.440001 v 2.640004 c 0.40889,0.337778 0.96889,0.577778 1.68,0.720001 l -0.08,1.040001 h -6.88001 l 0.10667,-1.093335 c 0.60444,-0.124445 1.06666,-0.346667 1.38667,-0.666667 V 55.619642 c 0,-0.657779 -0.12445,-1.102224 -0.37334,-1.333335 -0.23111,-0.248889 -0.65778,-0.391112 -1.28,-0.426667 l 0.08,-1.040001 c 0.23111,-0.05333 0.71111,-0.133334 1.44,-0.240001 1.72445,-0.284445 2.87112,-0.506667 3.44001,-0.666667 l 0.48,0.266667 v 11.306681 l 3.73333,-3.600005 c 0.14223,-0.177778 0.21334,-0.337778 0.21334,-0.48 z"/>
<path d="m 271.33096,49.985665 h 4.03125 v 0.852539 h -1.4502 v 3.521484 h -1.12793 v -3.521484 h -1.45312 z"/>
<path d="m 276.41522,49.985665 h 1.43554 l 0.9961,2.34082 1.00195,-2.34082 h 1.43262 v 4.374023 h -1.06641 V 51.16047 l -1.00781,2.358398 h -0.71484 l -1.00782,-2.358398 v 3.199218 h -1.06933 z"/>
</g>
<rect x="14" y="14" width="138" height="98" stroke="#000000" stroke-width="1.2" fill="#ffffff"/>
<ellipse cx="83" cy="63" rx="60" ry="40" stroke="#f20707" stroke-width="2" fill="none"/>
<text x="83" y="69" font-family="Sans-serif" font-size="20" text-anchor="middle">BankNet2</text>
<rect x="25.08" y="30" width="25.84" height="10.47" fill="#ffffff"/>
<rect x="25.08" y="30" width="3.74" height="10.47" fill="url(#bankPillar)"/>
<rect x="32.44" y="30" width="3.74" height="10.47" fill="url(#bankPillar)"/>
<rect x="39.81" y="30" width="3.74" height="10.47" fill="url(#bankPillar)"/>
<rect x="47.18" y="30" width="3.74" height="10.47" fill="url(#bankPillar)"/>
<path stroke="#404040" stroke-width="0.5" fill="#e0e0e0" d="M 22.7,26.1 L 38,21 53.3,26.1" stroke-linecap="round"/>
<rect x="22.7" y="26.35" width="30.6" height="3.4" stroke="#404040" stroke-width="0.5" fill="#f2f2f2"/>
<rect x="21" y="42.76" width="34" height="2.04" stroke="#404040" stroke-width="0.5" fill="#f2f2f2"/>
<rect x="22.7" y="40.72" width="30.6" height="2.04" stroke="#404040" stroke-width="0.5" fill="#f2f2f2"/>
<rect x="25.08" y="90.2" width="25.84" height="10.47" fill="#ffffff"/>
<rect x="25.08" y="90.2" width="3.74" height="10.47" fill="url(#bankPillar)"/>
<rect x="32.44" y="90.2" width="3.74" height="10.47" fill="url(#bankPillar)"/>
<rect x="39.81" y="90.2" width="3.74" height="10.47" fill="url(#bankPillar)"/>
<rect x="47.18" y="90.2" width="3.74" height="10.47" fill="url(#bankPillar)"/>
<path stroke="#404040" stroke-width="0.5" fill="#e0e0e0" d="M 22.7,86.3 L 38,81.19 53.3,86.3" stroke-linecap="round"/>
<rect x="22.7" y="86.55" width="30.6" height="3.4" stroke="#404040" stroke-width="0.5" fill="#f2f2f2"/>
<rect x="21" y="102.96" width="34" height="2.04" stroke="#404040" stroke-width="0.5" fill="#f2f2f2"/>
<rect x="22.7" y="100.91" width="30.6" height="2.04" stroke="#404040" stroke-width="0.5" fill="#f2f2f2"/>
<rect x="115.08" y="30" width="25.84" height="10.47" fill="#ffffff"/>
<rect x="115.08" y="30" width="3.74" height="10.47" fill="url(#bankPillar)"/>
<rect x="122.44" y="30" width="3.74" height="10.47" fill="url(#bankPillar)"/>
<rect x="129.81" y="30" width="3.74" height="10.47" fill="url(#bankPillar)"/>
<rect x="137.18" y="30" width="3.74" height="10.47" fill="url(#bankPillar)"/>
<path stroke="#404040" stroke-width="0.5" fill="#e0e0e0" d="M 112.7,26.1 L 128,21 143.3,26.1" stroke-linecap="round"/>
<rect x="112.7" y="26.35" width="30.6" height="3.4" stroke="#404040" stroke-width="0.5" fill="#f2f2f2"/>
<rect x="111" y="42.76" width="34" height="2.04" stroke="#404040" stroke-width="0.5" fill="#f2f2f2"/>
<rect x="112.7" y="40.72" width="30.6" height="2.04" stroke="#404040" stroke-width="0.5" fill="#f2f2f2"/>
<rect x="115.08" y="90.2" width="25.84" height="10.47" fill="#ffffff"/>
<rect x="115.08" y="90.2" width="3.74" height="10.47" fill="url(#bankPillar)"/>
<rect x="122.44" y="90.2" width="3.74" height="10.47" fill="url(#bankPillar)"/>
<rect x="129.81" y="90.2" width="3.74" height="10.47" fill="url(#bankPillar)"/>
<rect x="137.18" y="90.2" width="3.74" height="10.47" fill="url(#bankPillar)"/>
<path stroke="#404040" stroke-width="0.5" fill="#e0e0e0" d="M 112.7,86.3 L 128,81.19 143.3,86.3" stroke-linecap="round"/>
<rect x="112.7" y="86.55" width="30.6" height="3.4" stroke="#404040" stroke-width="0.5" fill="#f2f2f2"/>
<rect x="111" y="102.96" width="34" height="2.04" stroke="#404040" stroke-width="0.5" fill="#f2f2f2"/>
<rect x="112.7" y="100.91" width="30.6" height="2.04" stroke="#404040" stroke-width="0.5" fill="#f2f2f2"/>
<text x="30" y="141.3" font-family="Sans-serif" font-size="20">Your Name</text>
<text x="30" y="165" font-family="Sans-serif" font-size="15" font-weight="500">ACCOUNT NUMBER</text>
</svg>