<?xml version="1.0" encoding="UTF-8" standalone="no"?>
<svg width="300" height="180" xmlns="http://www.w3.org/2000/svg">
<rect x="0" y="0" width="300" height="180" fill="white"/>
<g fill="#ff4040" stroke-width="0.5" stroke="black">
<path d="m 61.760949,41.121067 c 0,0.847223 -0.111111,1.631946 -0.333333,2.354169 -0.208333,0.708334 -0.506945,1.347223 -0.895834,1.916668 -0.388889,0.569445 -0.861112,1.069445 -1.416668,1.500001 -0.541667,0.430556 -1.159723,0.791666 -1.854168,1.083334 -0.680556,0.291666 -1.416668,0.513889 -2.208335,0.666666 -0.777778,0.138889 -1.673612,0.208334 -2.687502,0.208334 h -7.041672 c -0.319445,0 -0.625,-0.104166 -0.916667,-0.3125 -0.277778,-0.222223 -0.416667,-0.604168 -0.416667,-1.145834 V 23.350221 c 0,-0.541667 0.138889,-0.916668 0.416667,-1.125001 0.291667,-0.222223 0.597222,-0.333334 0.916667,-0.333334 h 6.125005 c 1.611112,0 2.930557,0.152778 3.958336,0.458334 1.027779,0.305556 1.881946,0.750001 2.562502,1.333334 0.694445,0.583334 1.215278,1.298611 1.562501,2.145834 0.347223,0.847223 0.520834,1.805557 0.520834,2.875003 0,0.63889 -0.07639,1.250002 -0.229167,1.833334 -0.152778,0.583334 -0.381945,1.125001 -0.687501,1.625001 -0.291667,0.486112 -0.666667,0.923612 -1.125,1.312501 -0.444445,0.388889 -0.958335,0.708334 -1.541668,0.958334 0.736111,0.138889 1.423612,0.395834 2.062501,0.770834 0.638889,0.361111 1.194445,0.82639 1.666668,1.395835 0.486111,0.569445 0.868056,1.236112 1.145834,2.000001 0.277778,0.763889 0.416667,1.604168 0.416667,2.520836 z M 56.365112,29.058558 c 0,-0.652778 -0.09028,-1.243056 -0.270833,-1.770834 C 55.913723,26.759945 55.629,26.3155 55.240111,25.954389 c -0.388889,-0.375 -0.895834,-0.659722 -1.520834,-0.854167 -0.625001,-0.194445 -1.45139,-0.291667 -2.479169,-0.291667 h -3.708336 v 8.729173 h 4.083336 c 0.930557,0 1.680557,-0.118056 2.250002,-0.354167 0.569445,-0.25 1.041667,-0.576389 1.416668,-0.979167 0.375,-0.416667 0.645834,-0.895834 0.812501,-1.437501 0.180555,-0.555556 0.270833,-1.125001 0.270833,-1.708335 z m 1.625001,12.270843 c 0,-0.805556 -0.131944,-1.51389 -0.395833,-2.125002 -0.250001,-0.611111 -0.625001,-1.125001 -1.125001,-1.541668 -0.486111,-0.416667 -1.104167,-0.729167 -1.854168,-0.9375 -0.736112,-0.222223 -1.666668,-0.333334 -2.791669,-0.333334 h -4.29167 v 9.500006 h 5.208337 c 0.819445,0 1.534724,-0.09722 2.145835,-0.291667 0.611112,-0.194445 1.145835,-0.479166 1.604168,-0.854166 0.472223,-0.388889 0.840279,-0.868056 1.104168,-1.437501 0.263889,-0.569445 0.395833,-1.229167 0.395833,-1.979168 z"/>
<path d="m 110.70548,47.371072 c 0,0.277778 -0.0486,0.513889 -0.14583,0.708334 -0.0833,0.194445 -0.20139,0.354167 -0.35417,0.479167 -0.13889,0.125 -0.29861,0.215278 -0.47917,0.270833 -0.18055,0.05555 -0.36111,0.08333 -0.54166,0.08333 h -1.14584 c -0.36111,0 -0.68055,-0.03472 -0.95833,-0.104167 -0.26389,-0.08333 -0.52083,-0.222222 -0.77083,-0.416667 -0.23611,-0.208333 -0.47917,-0.486111 -0.72917,-0.833334 -0.23611,-0.34722 -0.5,-0.791663 -0.79167,-1.33333 L 96.288793,30.891893 c -0.44444,-0.791667 -0.895827,-1.618057 -1.35416,-2.479168 -0.444447,-0.875001 -0.861113,-1.722224 -1.25,-2.541669 h -0.0417 c 0.0278,1.000001 0.04863,2.020835 0.0625,3.062502 0.01387,1.041667 0.0208,2.07639 0.0208,3.104169 v 16.270846 c 0,0.09722 -0.02777,0.194443 -0.0833,0.291666 -0.05553,0.08333 -0.152757,0.152778 -0.29167,0.208334 -0.125,0.04167 -0.29861,0.07639 -0.52083,0.104166 -0.208333,0.04167 -0.479167,0.0625 -0.8125,0.0625 -0.333335,0 -0.611114,-0.02083 -0.833336,-0.0625 -0.208333,-0.02778 -0.375,-0.0625 -0.500001,-0.104166 -0.125,-0.05555 -0.215278,-0.124998 -0.270833,-0.208334 -0.05555,-0.09722 -0.08333,-0.194445 -0.08333,-0.291666 V 23.433554 c 0,-0.555557 0.152778,-0.95139 0.458333,-1.187502 0.305556,-0.236111 0.63889,-0.354167 1.000001,-0.354167 h 1.708339 c 0.402772,0 0.736107,0.03472 1,0.104167 0.277772,0.06945 0.520826,0.1875 0.729159,0.354168 0.222227,0.152778 0.43056,0.375 0.625,0.666666 0.208333,0.277778 0.430557,0.631945 0.66667,1.062501 l 6.541675,11.833343 c 0.40278,0.722223 0.79167,1.430557 1.16666,2.125002 0.375,0.680556 0.73611,1.354168 1.08333,2.020835 0.34723,0.666667 0.68751,1.326389 1.02084,1.979168 0.34722,0.638889 0.6875,1.284723 1.02084,1.937501 h 0.0208 c -0.0278,-1.097223 -0.0486,-2.236112 -0.0625,-3.416669 V 37.121064 22.496053 c 0,-0.09722 0.0278,-0.1875 0.0833,-0.270833 0.0555,-0.08333 0.14581,-0.152778 0.27083,-0.208334 0.13891,-0.06944 0.31251,-0.118055 0.52085,-0.145833 0.22221,-0.02778 0.50694,-0.04167 0.85415,-0.04167 0.30556,0 0.56945,0.01389 0.79167,0.04167 0.22222,0.02778 0.39583,0.07639 0.52083,0.145833 0.125,0.05555 0.21529,0.124998 0.27085,0.208334 0.0555,0.08333 0.0833,0.173611 0.0833,0.270833 z"/>
<path d="m 74.921449,48.061666 c 0,0.07813 -0.01953,0.14844 -0.05859,0.21094 -0.03906,0.05467 -0.109373,0.101543 -0.210938,0.14063 -0.09375,0.03907 -0.222656,0.0664 -0.386718,0.082 -0.15625,0.02347 -0.355469,0.0352 -0.597657,0.0352 -0.257812,0 -0.468749,-0.01173 -0.632812,-0.0352 -0.15625,-0.0156 -0.28125,-0.04293 -0.375,-0.082 -0.09375,-0.03907 -0.160156,-0.08594 -0.199219,-0.14063 -0.03906,-0.06247 -0.05859,-0.13278 -0.05859,-0.21094 v -1.207031 c -0.578125,0.625 -1.167968,1.09375 -1.769531,1.40625 -0.59375,0.3125 -1.210937,0.46875 -1.851562,0.46875 -0.71875,0 -1.324219,-0.117187 -1.816407,-0.351559 -0.484375,-0.234375 -0.878906,-0.554688 -1.183593,-0.960941 -0.296875,-0.406246 -0.511719,-0.874996 -0.644532,-1.40625 -0.125,-0.539059 -0.1875,-1.207026 -0.1875,-2.0039 v -6.398442 c 0,-0.07813 0.01953,-0.144531 0.05859,-0.199218 0.04687,-0.0625 0.124998,-0.113282 0.234375,-0.152344 0.117187,-0.03906 0.269531,-0.0664 0.457031,-0.08203 0.195313,-0.02344 0.433594,-0.03516 0.714844,-0.03516 0.289063,0 0.527344,0.01172 0.714844,0.03516 0.1875,0.01563 0.335937,0.04297 0.445312,0.08203 0.117188,0.03906 0.199219,0.08984 0.246094,0.152344 0.04687,0.05469 0.07031,0.121092 0.07031,0.199218 v 5.906252 c 0,0.546873 0.03516,0.96484 0.105468,1.2539 0.07031,0.289066 0.175782,0.539066 0.316407,0.75 0.148437,0.203126 0.332031,0.363284 0.550781,0.48047 0.226563,0.10938 0.488281,0.16407 0.785156,0.16407 0.375,0 0.75,-0.136721 1.125,-0.410159 0.382813,-0.273441 0.789063,-0.671878 1.21875,-1.19531 v -6.949222 c 0,-0.07813 0.01953,-0.144531 0.05859,-0.199218 0.04687,-0.0625 0.124998,-0.113282 0.234375,-0.152344 0.117187,-0.03906 0.269531,-0.0664 0.457031,-0.08203 0.1875,-0.02344 0.425781,-0.03516 0.714844,-0.03516 0.289063,0 0.527344,0.01172 0.714844,0.03516 0.1875,0.01563 0.335937,0.04297 0.445312,0.08203 0.109375,0.03906 0.1875,0.08984 0.234375,0.152344 0.04687,0.05469 0.07031,0.121092 0.07031,0.199218 z m 9.023437,0.39844 -1.265625,3.70313 c -0.07031,0.195306 -0.261719,0.33593 -0.574219,0.42187 -0.3125,0.08594 -0.769531,0.12891 -1.371093,0.12891 -0.3125,0 -0.5625,-0.01563 -0.75,-0.0469 -0.1875,-0.02347 -0.328125,-0.06643 -0.421875,-0.128901 -0.09375,-0.06247 -0.144531,-0.140594 -0.152344,-0.234381 -0.0078,-0.09375 0.01562,-0.207025 0.07031,-0.339838 l 1.394532,-3.503912 c -0.101563,-0.04687 -0.195313,-0.117179 -0.28125,-0.210939 -0.07813,-0.101561 -0.136719,-0.207027 -0.175782,-0.3164 l -3.597656,-9.609378 c -0.101563,-0.273438 -0.152344,-0.480469 -0.152344,-0.621094 0,-0.148438 0.04687,-0.261719 0.140625,-0.339843 0.09375,-0.08594 0.25,-0.144532 0.46875,-0.175782 0.226563,-0.03125 0.523438,-0.04687 0.890625,-0.04687 0.335938,0 0.601563,0.0078 0.796875,0.02344 0.195313,0.0078 0.347657,0.03516 0.457032,0.08203 0.109375,0.04687 0.191406,0.121091 0.246093,0.222656 0.05469,0.09375 0.109374,0.230469 0.164063,0.410156 l 2.460937,6.996091 h 0.03516 l 2.25,-7.136716 c 0.04687,-0.203125 0.105467,-0.335937 0.175781,-0.398437 0.07813,-0.07031 0.203125,-0.121094 0.375,-0.152344 0.171875,-0.03125 0.472656,-0.04687 0.902344,-0.04687 0.335937,0 0.613281,0.01562 0.832031,0.04687 0.226563,0.03125 0.390625,0.08984 0.492187,0.175781 0.109375,0.08594 0.164063,0.203125 0.164063,0.351563 0,0.140625 -0.03125,0.308594 -0.09375,0.503906 z"/>
<path d="m 124.79789,43.130428 c 0,0.890627 -0.11718,1.703127 -0.35156,2.4375 -0.23437,0.734372 -0.58984,1.367187 -1.0664,1.89844 -0.47657,0.531247 -1.07422,0.941403 -1.79297,1.230469 -0.71875,0.28906 -1.55859,0.433591 -2.51953,0.433591 -0.92969,0 -1.73829,-0.128907 -2.42579,-0.38672 -0.6875,-0.257813 -1.25781,-0.632813 -1.71093,-1.125 -0.45313,-0.492187 -0.78907,-1.097653 -1.00782,-1.8164 -0.21875,-0.718753 -0.32813,-1.539067 -0.32813,-2.46094 0,-0.890625 0.11719,-1.703125 0.35157,-2.4375 0.24218,-0.742188 0.60156,-1.375001 1.07813,-1.898438 0.47656,-0.53125 1.07031,-0.941406 1.78125,-1.230469 0.71875,-0.289062 1.55858,-0.433593 2.51953,-0.433593 0.9375,0 1.75,0.128906 2.4375,0.386718 0.6875,0.25 1.25391,0.621094 1.69922,1.113282 0.45312,0.492187 0.78906,1.097656 1.00781,1.816406 0.21875,0.71875 0.32813,1.542968 0.32812,2.472654 z m -3.03516,0.11719 c 0,-0.515625 -0.043,-0.988282 -0.12891,-1.417969 -0.0781,-0.4375 -0.21484,-0.816406 -0.41015,-1.136719 -0.19531,-0.320313 -0.45703,-0.570313 -0.78516,-0.75 -0.32031,-0.179687 -0.72656,-0.269531 -1.21875,-0.269531 -0.4375,0 -0.82031,0.08203 -1.14844,0.246094 -0.32812,0.15625 -0.59765,0.390625 -0.80859,0.703125 -0.21094,0.304687 -0.37109,0.675781 -0.48047,1.113281 -0.10156,0.429687 -0.15233,0.921874 -0.15233,1.476559 0,0.515627 0.043,0.99219 0.1289,1.42969 0.0859,0.429687 0.22266,0.804687 0.41016,1.125 0.19531,0.320313 0.45703,0.570313 0.78516,0.75 0.32812,0.171873 0.73437,0.25781 1.21875,0.25781 0.44531,0 0.83203,-0.07812 1.16015,-0.23437 0.32813,-0.164067 0.59766,-0.398443 0.8086,-0.70313 0.21093,-0.304687 0.36718,-0.671873 0.46875,-1.10156 0.10156,-0.4375 0.15234,-0.933593 0.15233,-1.48828 z m 21.31641,-5.261719 c 0.0159,0.08446 -0.0117,0.191406 -0.0352,0.316406 -0.0235,0.125 -0.0664,0.304688 -0.1289,0.539063 l -2.78907,9.45703 c -0.0391,0.132813 -0.0899,0.24219 -0.15234,0.32813 -0.0625,0.07812 -0.16012,0.14062 -0.29297,0.1875 -0.125,0.04687 -0.30859,0.0781 -0.55078,0.0937 -0.23437,0.0156 -0.54297,0.0234 -0.92578,0.0234 -0.38281,0 -0.69531,-0.01173 -0.9375,-0.0352 -0.24219,-0.0156 -0.43359,-0.04683 -0.57422,-0.0937 -0.13281,-0.04687 -0.23047,-0.109367 -0.29297,-0.1875 -0.0625,-0.08594 -0.10934,-0.19141 -0.14062,-0.31641 l -1.75782,-6.351562 -0.0234,-0.105468 -0.0234,0.105468 -1.61719,6.351562 c -0.0312,0.132813 -0.0781,0.24219 -0.14063,0.32813 -0.0547,0.07812 -0.15234,0.14062 -0.29296,0.1875 -0.14063,0.04687 -0.33204,0.0781 -0.57422,0.0937 -0.24219,0.0156 -0.55469,0.0234 -0.9375,0.0234 -0.39063,0 -0.70703,-0.01173 -0.94922,-0.0352 -0.23438,-0.0156 -0.42188,-0.04683 -0.5625,-0.0937 -0.13281,-0.04687 -0.23047,-0.109367 -0.29297,-0.1875 -0.0625,-0.08594 -0.10938,-0.19141 -0.14063,-0.31641 l -2.76562,-9.45703 c -0.0703,-0.226563 -0.11719,-0.402344 -0.14063,-0.527344 -0.0156,-0.132813 -0.0234,-0.242188 -0.0234,-0.328125 0,-0.07813 0.0195,-0.144532 0.0586,-0.199219 0.0469,-0.0625 0.125,-0.109375 0.23438,-0.140625 0.11719,-0.03906 0.26953,-0.0664 0.45703,-0.08203 0.19531,-0.01563 0.4375,-0.02344 0.72656,-0.02344 0.3125,0 0.56642,0.0078 0.76172,0.02344 0.19531,0.01563 0.34766,0.04297 0.45703,0.08203 0.10938,0.03906 0.1836,0.09375 0.22266,0.164063 0.0469,0.0625 0.082,0.140625 0.10547,0.234375 l 2.07422,7.675785 0.0234,0.14062 0.0234,-0.14062 1.94531,-7.675785 c 0.0235,-0.09375 0.0586,-0.171875 0.10547,-0.234375 0.0547,-0.07031 0.13279,-0.125 0.23438,-0.164063 0.10156,-0.03906 0.24218,-0.0664 0.42187,-0.08203 0.1875,-0.01563 0.42578,-0.02344 0.71484,-0.02344 0.28906,0 0.52344,0.01172 0.70313,0.03516 0.17968,0.01563 0.32031,0.04297 0.42187,0.08203 0.10938,0.03125 0.1836,0.07812 0.22266,0.140625 0.0469,0.05469 0.082,0.121093 0.10547,0.199219 l 2.08594,7.73437 0.0352,0.12891 0.0234,-0.14062 1.99219,-7.675785 c 0.0156,-0.09375 0.0468,-0.171875 0.0937,-0.234375 0.0469,-0.07031 0.12499,-0.125 0.23437,-0.164063 0.10938,-0.03906 0.25782,-0.0664 0.44532,-0.08203 0.1875,-0.01563 0.42578,-0.02344 0.71485,-0.02344 0.28906,0 0.52342,0.0078 0.70312,0.02344 0.1875,0.01563 0.33203,0.04297 0.4336,0.08203 0.10937,0.03125 0.18359,0.07812 0.22265,0.140625 0.0391,0.05469 0.0441,0.1224 0.0586,0.199219 z"/>
</g>
<g fill="#00dd00" stroke-width="0.5" stroke="black">
<path d="m 188.3802,48.497427 c 0,0.109373 -0.0391,0.19531 -0.11719,0.25781 -0.0781,0.06247 -0.20312,0.105435 -0.375,0.128911 -0.16406,0.03127 -0.41015,0.0469 -0.73828,0.0469 -0.35157,0 -0.60937,-0.01563 -0.77343,-0.0469 -0.15625,-0.02347 -0.26954,-0.06644 -0.33985,-0.128911 -0.0625,-0.06247 -0.0937,-0.148404 -0.0937,-0.25781 v -0.83203 c -0.42968,0.460933 -0.92187,0.820306 -1.47656,1.078119 -0.54687,0.257813 -1.15625,0.38672 -1.82813,0.38672 -0.55468,0 -1.0664,-0.07422 -1.53514,-0.22265 -0.46094,-0.140627 -0.86329,-0.351567 -1.20703,-0.63282 -0.33594,-0.28906 -0.59766,-0.644526 -0.78516,-1.0664 -0.1875,-0.42188 -0.28125,-0.91407 -0.28125,-1.47657 0,-0.609374 0.11718,-1.136717 0.35156,-1.58203 0.24218,-0.45312 0.59765,-0.824214 1.06641,-1.11328 0.47656,-0.296874 1.0664,-0.515623 1.76953,-0.656248 0.70312,-0.140625 1.51953,-0.210937 2.44922,-0.210937 h 1.01953 v -0.632813 c 0,-0.328125 -0.0352,-0.613281 -0.10547,-0.855469 -0.0625,-0.25 -0.17185,-0.457031 -0.32812,-0.621093 -0.14845,-0.164063 -0.35157,-0.285157 -0.60938,-0.363282 -0.25,-0.07813 -0.5625,-0.117187 -0.9375,-0.117187 -0.49219,0 -0.9336,0.05469 -1.32422,0.164062 -0.38282,0.109375 -0.72266,0.230469 -1.01953,0.363282 -0.29688,0.132812 -0.54688,0.253905 -0.75,0.363281 -0.19532,0.109374 -0.35547,0.164062 -0.48047,0.164062 -0.0859,0 -0.16406,-0.02734 -0.23437,-0.08203 -0.0625,-0.05469 -0.11716,-0.132812 -0.16408,-0.234375 -0.0391,-0.101563 -0.0703,-0.226563 -0.0937,-0.375 -0.0235,-0.148438 -0.0352,-0.3125 -0.0352,-0.492187 0,-0.242188 0.0195,-0.433595 0.0586,-0.574219 0.0391,-0.140626 0.11329,-0.265626 0.22266,-0.375 0.10938,-0.117188 0.30078,-0.242188 0.57422,-0.375 0.27344,-0.140626 0.59375,-0.269532 0.96093,-0.386719 0.3672,-0.117188 0.76564,-0.210938 1.19532,-0.28125 0.43751,-0.07813 0.88672,-0.117187 1.34765,-0.117187 0.82032,0 1.51954,0.08203 2.09766,0.246093 0.58594,0.15625 1.06641,0.402344 1.44141,0.738282 0.375,0.328124 0.64844,0.753905 0.82031,1.277343 0.17188,0.523438 0.25781,1.144532 0.25781,1.863282 z m -2.89454,-4.476559 h -1.125 c -0.47656,0 -0.88281,0.03516 -1.21875,0.105469 -0.33593,0.07031 -0.60937,0.175773 -0.82031,0.3164 -0.21094,0.140626 -0.36719,0.312503 -0.46875,0.515631 -0.0937,0.195312 -0.14062,0.421872 -0.14062,0.679679 0,0.4375 0.13672,0.78125 0.41015,1.03125 0.28125,0.25 0.66797,0.375 1.16015,0.375 0.41407,0 0.79298,-0.105466 1.13672,-0.3164 0.35157,-0.21094 0.70704,-0.519534 1.06641,-0.92578 z m 11.46094,4.83984 -1.26562,3.70313 c -0.0703,0.195306 -0.26172,0.33593 -0.57422,0.42187 -0.3125,0.08594 -0.76953,0.12891 -1.3711,0.12891 -0.3125,0 -0.5625,-0.01563 -0.75,-0.0469 -0.1875,-0.02347 -0.32812,-0.06643 -0.42187,-0.1289 -0.0937,-0.06247 -0.14453,-0.140594 -0.15234,-0.23438 -0.008,-0.09375 0.0156,-0.207027 0.0703,-0.33984 l 1.39453,-3.50391 c -0.10156,-0.04687 -0.19531,-0.11718 -0.28125,-0.21094 -0.0781,-0.10156 -0.13672,-0.207027 -0.17578,-0.3164 L 189.8216,38.72397 c -0.10157,-0.273438 -0.15235,-0.480469 -0.15235,-0.621094 0,-0.148438 0.0469,-0.261719 0.14062,-0.339843 0.0937,-0.08594 0.25,-0.144532 0.46875,-0.175782 0.22656,-0.03125 0.52344,-0.04687 0.89063,-0.04687 0.33593,0 0.60156,0.0078 0.79687,0.02344 0.19532,0.0078 0.34766,0.03516 0.45703,0.08203 0.10938,0.04687 0.19141,0.121091 0.2461,0.222656 0.0547,0.09375 0.10935,0.230469 0.16407,0.410156 l 2.46093,6.996091 h 0.0352 l 2.25,-7.136716 c 0.0469,-0.203125 0.10545,-0.335937 0.17578,-0.398437 0.0781,-0.07031 0.20312,-0.121094 0.375,-0.152344 0.17187,-0.03125 0.47265,-0.04687 0.90234,-0.04687 0.33594,0 0.61328,0.01562 0.83204,0.04687 0.22656,0.03125 0.39063,0.08984 0.49218,0.175781 0.10938,0.08594 0.16407,0.203125 0.16407,0.351563 -1e-5,0.140625 -0.0312,0.308593 -0.0937,0.503906 z"/>
<path d="m 180.00847,29.988061 c 0,1.347223 -0.22222,2.5625 -0.66667,3.645836 -0.44445,1.083334 -1.08334,2.006946 -1.91667,2.770835 -0.81945,0.763889 -1.83334,1.354168 -3.04167,1.770835 -1.19445,0.416666 -2.625,0.625 -4.29167,0.625 h -3.0625 v 9.708341 c 0,0.111111 -0.0347,0.208334 -0.10417,0.291667 -0.0555,0.08333 -0.15275,0.152777 -0.29166,0.208333 -0.125,0.04167 -0.30556,0.07639 -0.54167,0.104167 -0.22222,0.04167 -0.50694,0.0625 -0.85417,0.0625 -0.34722,0 -0.63889,-0.02083 -0.875,-0.0625 -0.22222,-0.02778 -0.40278,-0.0625 -0.54167,-0.104167 -0.13889,-0.05555 -0.23611,-0.124998 -0.29166,-0.208333 -0.0555,-0.08333 -0.0833,-0.180557 -0.0833,-0.291667 V 23.633889 c 0,-0.555556 0.14583,-0.95139 0.4375,-1.187501 0.29167,-0.236111 0.61806,-0.354167 0.97917,-0.354167 h 5.77084 c 0.58333,0 1.13889,0.02778 1.66667,0.08333 0.54167,0.04167 1.17361,0.145833 1.89583,0.3125 0.73611,0.152778 1.47917,0.451389 2.22917,0.895833 0.76389,0.430557 1.40972,0.96528 1.9375,1.604169 0.52778,0.638888 0.93056,1.381945 1.20834,2.229168 0.29167,0.833334 0.4375,1.756946 0.4375,2.770836 z m -3.77084,0.291666 c 0,-1.097223 -0.20833,-2.01389 -0.625,-2.750003 -0.40278,-0.736111 -0.90972,-1.284723 -1.52083,-1.645834 -0.59723,-0.361111 -1.22223,-0.590277 -1.87501,-0.6875 -0.63889,-0.09722 -1.26389,-0.145834 -1.875,-0.145834 h -3.3125 v 10.812508 h 3.22918 c 1.08332,0 1.97917,-0.138889 2.6875,-0.416666 0.72222,-0.277778 1.32639,-0.659723 1.8125,-1.145834 0.4861,-0.500001 0.85417,-1.09028 1.10417,-1.770835 0.25,-0.694445 0.375,-1.444445 0.37499,-2.250002 z"/>
<path d="m 217.76164,47.488075 c 0,0.277778 -0.0139,0.513889 -0.0417,0.708334 -0.0278,0.180556 -0.0764,0.340279 -0.14582,0.479168 -0.0555,0.125 -0.13194,0.222222 -0.22918,0.291666 -0.0833,0.05555 -0.1875,0.08333 -0.3125,0.08333 h -11.91667 c -0.31944,0 -0.625,-0.104166 -0.91666,-0.3125 -0.27779,-0.222222 -0.41668,-0.604168 -0.41668,-1.145834 V 22.63389 c 0,-0.111111 0.0278,-0.208333 0.0833,-0.291666 0.0555,-0.08333 0.15274,-0.145834 0.29167,-0.187501 0.13888,-0.05555 0.32638,-0.09722 0.5625,-0.125 0.23611,-0.04167 0.52083,-0.0625 0.85417,-0.0625 0.34722,0 0.63194,0.02083 0.85416,0.0625 0.23611,0.02778 0.42361,0.06945 0.56251,0.125 0.13888,0.04167 0.2361,0.104167 0.29166,0.187501 0.0555,0.08333 0.0833,0.180555 0.0833,0.291666 v 23.312518 h 9.66667 c 0.125,0 0.22916,0.03472 0.3125,0.104167 0.0972,0.05555 0.17361,0.145831 0.22917,0.270833 0.0694,0.111111 0.11805,0.263889 0.14583,0.458334 0.0278,0.194445 0.0417,0.430556 0.0417,0.708334 z"/>
<path d="m 229.93889,48.596949 c 0,0.109373 -0.0391,0.19531 -0.11719,0.25781 -0.0781,0.06247 -0.20313,0.105437 -0.375,0.128909 -0.16406,0.03127 -0.41015,0.0469 -0.73828,0.0469 -0.35157,0 -0.60938,-0.01563 -0.77344,-0.0469 -0.15624,-0.02347 -0.26952,-0.06644 -0.33984,-0.128909 -0.0625,-0.06247 -0.0937,-0.148404 -0.0937,-0.25781 v -0.832031 c -0.42968,0.460933 -0.92187,0.820307 -1.47656,1.07812 -0.54688,0.257813 -1.15625,0.38672 -1.82813,0.38672 -0.55467,0 -1.06639,-0.07422 -1.53515,-0.22265 -0.46093,-0.140627 -0.86327,-0.351567 -1.20703,-0.63282 -0.33593,-0.28906 -0.59765,-0.644527 -0.78515,-1.0664 -0.1875,-0.42188 -0.28125,-0.91407 -0.28125,-1.47657 0,-0.609373 0.11719,-1.136717 0.35156,-1.58203 0.24219,-0.45312 0.59766,-0.824213 1.06641,-1.11328 0.47656,-0.296873 1.06641,-0.515623 1.76953,-0.656248 0.70312,-0.140625 1.51953,-0.210937 2.44922,-0.210937 h 1.01953 V 41.63601 c 0,-0.328125 -0.0352,-0.613281 -0.10547,-0.855469 -0.0625,-0.25 -0.17184,-0.457031 -0.32813,-0.621093 -0.14843,-0.164063 -0.35155,-0.285157 -0.60937,-0.363282 -0.25,-0.07813 -0.5625,-0.117187 -0.9375,-0.117187 -0.49218,0 -0.93359,0.05469 -1.32422,0.164062 -0.38281,0.109375 -0.72265,0.230469 -1.01953,0.363282 -0.29687,0.132812 -0.54687,0.253906 -0.75,0.363281 -0.19531,0.109375 -0.35547,0.164062 -0.48047,0.164062 -0.0859,0 -0.16406,-0.02734 -0.23438,-0.08203 -0.0625,-0.05469 -0.11715,-0.132812 -0.16406,-0.234375 -0.0391,-0.101563 -0.0703,-0.226563 -0.0937,-0.375 -0.0234,-0.148437 -0.0351,-0.3125 -0.0351,-0.492187 0,-0.242188 0.0195,-0.433594 0.0586,-0.574219 0.0391,-0.140625 0.11329,-0.265625 0.22266,-0.375 0.10938,-0.117187 0.30078,-0.242187 0.57421,-0.375 0.27344,-0.140625 0.59376,-0.269532 0.96094,-0.386719 0.36718,-0.117187 0.76562,-0.210937 1.19531,-0.28125 0.4375,-0.07813 0.88672,-0.117187 1.34766,-0.117187 0.82032,0 1.51954,0.08203 2.09765,0.246093 0.58594,0.15625 1.0664,0.402344 1.4414,0.738282 0.375,0.328125 0.64844,0.753906 0.82032,1.277343 0.17188,0.523438 0.25781,1.144532 0.25781,1.863282 z m -2.89454,-4.47656 h -1.125 c -0.47656,0 -0.88281,0.03516 -1.21875,0.105469 -0.33593,0.07031 -0.60937,0.175773 -0.82032,0.316401 -0.21093,0.140627 -0.36718,0.312503 -0.46875,0.51563 -0.0937,0.195313 -0.14062,0.421873 -0.14062,0.67968 0,0.4375 0.13672,0.78125 0.41016,1.03125 0.28125,0.25 0.66797,0.375 1.16015,0.375 0.41407,0 0.79298,-0.105467 1.13672,-0.316401 0.35156,-0.21094 0.70703,-0.519533 1.06641,-0.92578 z m 11.80079,3.41015 c 0,0.343753 -0.0234,0.60938 -0.0703,0.79688 -0.0391,0.179687 -0.0937,0.308593 -0.16407,0.38672 -0.0703,0.07031 -0.17578,0.136719 -0.31639,0.199219 -0.13282,0.05467 -0.29297,0.10154 -0.48047,0.14062 -0.17968,0.04687 -0.3789,0.08202 -0.59766,0.10547 -0.21093,0.02347 -0.42577,0.0352 -0.64453,0.0352 -0.58594,0 -1.09375,-0.07422 -1.52344,-0.222659 -0.42968,-0.148441 -0.78515,-0.375003 -1.0664,-0.679691 -0.28125,-0.3125 -0.48828,-0.703122 -0.6211,-1.171869 -0.13281,-0.468753 -0.19922,-1.023443 -0.19922,-1.664071 v -5.355463 h -1.2539 c -0.14844,0 -0.26172,-0.08984 -0.33985,-0.269531 -0.0781,-0.1875 -0.11718,-0.496094 -0.11718,-0.925782 0,-0.226562 0.008,-0.417968 0.0234,-0.574218 0.0235,-0.15625 0.0547,-0.277344 0.0937,-0.363282 0.0391,-0.09375 0.086,-0.160156 0.14063,-0.199218 0.0625,-0.03906 0.13278,-0.05859 0.21093,-0.05859 h 1.24219 v -2.332075 c 0,-0.07813 0.0195,-0.148438 0.0586,-0.210938 0.0469,-0.0625 0.12499,-0.113281 0.23437,-0.152344 0.11719,-0.04687 0.26953,-0.07812 0.45703,-0.09375 0.19531,-0.02344 0.4336,-0.03516 0.71485,-0.03516 0.28906,0 0.52734,0.01172 0.71484,0.03516 0.19531,0.01563 0.34766,0.04688 0.45702,0.09375 0.10938,0.03906 0.18751,0.08984 0.23438,0.152344 0.0469,0.0625 0.0703,0.132813 0.0703,0.210938 v 2.332031 h 2.27344 c 0.0781,0 0.14454,0.01953 0.19922,0.05859 0.0625,0.03906 0.11325,0.105466 0.15234,0.199218 0.0391,0.08594 0.0664,0.207032 0.082,0.363282 0.0235,0.15625 0.0352,0.347656 0.0352,0.574218 0,0.429688 -0.0391,0.738282 -0.11719,0.925782 -0.0781,0.179687 -0.1914,0.269531 -0.33984,0.269531 h -2.28516 v 4.910154 c 0,0.570313 0.0898,1 0.26953,1.28906 0.17969,0.281253 0.5,0.42188 0.96094,0.42188 0.15625,0 0.29687,-0.01173 0.42187,-0.0352 0.125,-0.03127 0.23438,-0.0625 0.32813,-0.0937 0.10156,-0.03907 0.18359,-0.0703 0.24609,-0.0937 0.0703,-0.03127 0.13282,-0.0469 0.1875,-0.0469 0.0469,0 0.0898,0.01563 0.12891,0.0469 0.0469,0.02347 0.082,0.07816 0.10547,0.164071 0.0234,0.07812 0.0429,0.187493 0.0586,0.328119 0.0235,0.140628 0.0352,0.320313 0.0352,0.53906 z m 11.49609,-4.5 c 0,0.35938 -0.082,0.625007 -0.24609,0.79688 -0.15625,0.171873 -0.375,0.25781 -0.65625,0.25781 h -6.36329 c 0,0.445313 0.0508,0.851563 0.15235,1.21875 0.10937,0.359373 0.27735,0.667967 0.5039,0.92578 0.23438,0.25 0.53125,0.441407 0.89063,0.57422 0.36719,0.132813 0.80469,0.19922 1.3125,0.19922 0.51562,0 0.96876,-0.03516 1.35937,-0.10547 0.39063,-0.07813 0.72657,-0.160157 1.00782,-0.24609 0.28906,-0.09375 0.52734,-0.175787 0.71484,-0.2461 0.1875,-0.07812 0.33985,-0.11718 0.45703,-0.11718 0.0703,0 0.12891,0.01563 0.17579,0.0469 0.0469,0.02347 0.0859,0.07034 0.11718,0.14063 0.0313,0.07031 0.0508,0.171867 0.0586,0.30468 0.0156,0.125 0.0234,0.285157 0.0234,0.48047 0,0.171873 -0.004,0.32031 -0.0117,0.44531 -0.008,0.117193 -0.0195,0.218756 -0.0352,0.30469 -0.0156,0.08594 -0.039,0.16016 -0.0703,0.22266 -0.0313,0.05467 -0.0742,0.109353 -0.12891,0.16406 -0.0469,0.05467 -0.18358,0.128886 -0.41016,0.222659 -0.22656,0.09375 -0.51562,0.187497 -0.86718,0.28125 -0.35157,0.08593 -0.75392,0.16015 -1.20703,0.22265 -0.45312,0.07031 -0.9375,0.10547 -1.45313,0.10547 -0.92968,0 -1.74609,-0.117187 -2.44922,-0.35156 -0.69531,-0.234373 -1.27734,-0.589843 -1.74609,-1.06641 -0.46875,-0.476559 -0.82031,-1.078119 -1.05469,-1.804679 -0.22656,-0.726568 -0.33984,-1.57813 -0.33984,-2.55469 0,-0.92969 0.1211,-1.765628 0.36328,-2.507815 0.24219,-0.75 0.59375,-1.382813 1.05469,-1.898438 0.46094,-0.523437 1.01953,-0.921875 1.67578,-1.195312 0.66406,-0.273437 1.41016,-0.410156 2.23827,-0.410156 0.875,0 1.6211,0.128906 2.23828,0.386718 0.625,0.257813 1.13672,0.617188 1.53516,1.078125 0.39844,0.453125 0.6914,0.992188 0.8789,1.617188 0.1875,0.625 0.28125,1.304687 0.28125,2.039062 z m -2.85938,-0.843747 c 0.0234,-0.828125 -0.14456,-1.476562 -0.50391,-1.945312 -0.35156,-0.476563 -0.89843,-0.714844 -1.64062,-0.714844 -0.375,0 -0.70312,0.07031 -0.98438,0.210938 -0.27344,0.140625 -0.50391,0.332031 -0.69141,0.574218 -0.17968,0.234375 -0.32031,0.515625 -0.42187,0.84375 -0.0937,0.320313 -0.14844,0.664063 -0.16406,1.03125 z m 11.99999,-3.105468 c 0,0.28125 -0.008,0.511719 -0.0234,0.691406 -0.0156,0.179687 -0.039,0.320312 -0.0703,0.421875 -0.0313,0.101563 -0.0742,0.171875 -0.12892,0.210937 -0.0469,0.03906 -0.10936,0.05859 -0.1875,0.05859 -0.0625,0 -0.13279,-0.01172 -0.21094,-0.03516 -0.0781,-0.03125 -0.16796,-0.0625 -0.26952,-0.09375 -0.0937,-0.03125 -0.19922,-0.05859 -0.31641,-0.08203 -0.11718,-0.03125 -0.24609,-0.04687 -0.38671,-0.04687 -0.16407,0 -0.32813,0.03516 -0.4922,0.105468 -0.16405,0.0625 -0.33593,0.164063 -0.51563,0.304688 -0.17187,0.140625 -0.35546,0.328125 -0.55077,0.5625 -0.1875,0.234375 -0.39062,0.523437 -0.60937,0.867187 v 6.515622 c 0,0.07813 -0.0234,0.14844 -0.0703,0.21094 -0.0469,0.05467 -0.1289,0.101543 -0.24611,0.14063 -0.10937,0.03907 -0.25781,0.0664 -0.44531,0.082 -0.18749,0.02347 -0.42577,0.0352 -0.71483,0.0352 -0.28906,0 -0.52736,-0.01173 -0.71486,-0.0352 -0.1875,-0.0156 -0.33984,-0.04293 -0.45703,-0.082 -0.10937,-0.03907 -0.18749,-0.08594 -0.23437,-0.14063 -0.0469,-0.06247 -0.0703,-0.13278 -0.0703,-0.21094 v -10.45312 c 0,-0.07813 0.0195,-0.144531 0.0586,-0.199218 0.0391,-0.0625 0.10938,-0.113281 0.21093,-0.152344 0.10157,-0.03906 0.23048,-0.0664 0.38672,-0.08203 0.16407,-0.02344 0.3672,-0.03516 0.60938,-0.03516 0.25,0 0.45703,0.01172 0.62109,0.03516 0.16407,0.01563 0.28907,0.04297 0.37501,0.08203 0.0938,0.03906 0.16015,0.08984 0.19921,0.152344 0.0391,0.05469 0.0586,0.121093 0.0586,0.199218 v 1.300782 c 0.27344,-0.390625 0.53126,-0.710938 0.77344,-0.960938 0.24219,-0.257813 0.47266,-0.460938 0.69141,-0.609375 0.21875,-0.148437 0.4375,-0.25 0.65625,-0.304687 0.21875,-0.0625 0.4375,-0.09375 0.65625,-0.09375 0.10156,0 0.21094,0.0078 0.32812,0.02344 0.11719,0.0078 0.23828,0.02734 0.36328,0.05859 0.125,0.02344 0.23438,0.05469 0.32813,0.09375 0.0937,0.03125 0.16016,0.0664 0.19922,0.105469 0.0469,0.03906 0.0781,0.08203 0.0937,0.128906 0.0234,0.04687 0.0429,0.11328 0.0586,0.199219 0.0156,0.07813 0.0273,0.199218 0.0352,0.363281 0.008,0.164063 0.0117,0.386719 0.0117,0.667969 z"/>
</g>
<path d="m 66.957031,60.833984 v 1.250489 q -0.72998,-0.349121 -1.377441,-0.520508 -0.647461,-0.171387 -1.250488,-0.171387 -1.047364,0 -1.618653,0.40625 -0.564941,0.40625 -0.564941,1.155274 0,0.628418 0.374512,0.952148 0.380859,0.317383 1.43457,0.51416 l 0.774414,0.158692 q 1.43457,0.272949 2.113769,0.964843 0.685547,0.685547 0.685547,1.840821 0,1.377441 -0.926758,2.088379 -0.92041,0.710937 -2.704101,0.710937 -0.672852,0 -1.43457,-0.152344 -0.755371,-0.152343 -1.567871,-0.450683 v -1.320313 q 0.780761,0.437988 1.529785,0.660156 0.749023,0.222168 1.472656,0.222168 1.098144,0 1.694824,-0.43164 0.59668,-0.431641 0.59668,-1.231446 0,-0.698242 -0.431641,-1.091796 -0.425293,-0.393555 -1.402832,-0.590332 L 63.57373,65.645508 q -1.43457,-0.285645 -2.075683,-0.89502 -0.641113,-0.609375 -0.641113,-1.694824 0,-1.256836 0.882324,-1.980469 0.888672,-0.723633 2.443847,-0.723633 0.666504,0 1.358399,0.120606 0.691894,0.120605 1.415527,0.361816 z m 3.649903,8.09961 v 3.770508 h -1.174317 v -9.813477 h 1.174317 v 1.079102 q 0.368164,-0.634766 0.926757,-0.939454 0.564942,-0.311035 1.345704,-0.311035 1.294921,0 2.101074,1.028321 0.8125,1.02832 0.8125,2.704101 0,1.675781 -0.8125,2.704102 -0.806153,1.02832 -2.101074,1.02832 -0.780762,0 -1.345704,-0.304687 -0.558593,-0.311036 -0.926757,-0.945801 z m 3.973632,-2.481934 q 0,-1.288574 -0.533203,-2.018555 -0.526855,-0.736328 -1.453613,-0.736328 -0.926758,0 -1.459961,0.736328 -0.526855,0.729981 -0.526855,2.018555 0,1.288574 0.526855,2.024902 0.533203,0.729981 1.459961,0.729981 0.926758,0 1.453613,-0.729981 0.533203,-0.736328 0.533203,-2.024902 z m 3.148438,-6.328613 h 1.167969 V 70 h -1.167969 z m 3.611816,2.767578 h 1.167969 V 70 H 81.34082 Z m 0,-2.767578 h 1.167969 v 1.479004 H 81.34082 Z m 4.76709,0.749023 v 2.018555 h 2.405762 V 63.79834 H 86.10791 v 3.859375 q 0,0.869629 0.234863,1.117187 0.241211,0.247559 0.971192,0.247559 h 1.199707 V 70 h -1.199707 q -1.352051,0 -1.866211,-0.501465 -0.51416,-0.507812 -0.51416,-1.84082 V 63.79834 H 84.07666 v -0.907715 h 0.856934 V 60.87207 Z m 11.305176,5.5542 q -1.415527,0 -1.961426,0.32373 -0.545898,0.32373 -0.545898,1.104492 0,0.62207 0.40625,0.990235 0.412597,0.361816 1.117187,0.361816 0.971192,0 1.555176,-0.685547 0.590332,-0.691894 0.590332,-1.834473 V 66.42627 Z m 2.32959,-0.482422 V 70 h -1.167969 v -1.079102 q -0.399902,0.647461 -0.996582,0.958497 -0.59668,0.304687 -1.459961,0.304687 -1.091797,0 -1.739258,-0.609375 -0.641113,-0.615723 -0.641113,-1.644043 0,-1.199707 0.799805,-1.809082 0.806152,-0.609375 2.399414,-0.609375 h 1.637695 v -0.114258 q 0,-0.806152 -0.533203,-1.24414 -0.526856,-0.444336 -1.485352,-0.444336 -0.609375,0 -1.187011,0.145996 -0.577637,0.145996 -1.11084,0.437988 v -1.079102 q 0.641113,-0.247558 1.24414,-0.368164 0.603028,-0.126953 1.174317,-0.126953 1.54248,0 2.304199,0.799805 0.761719,0.799805 0.761719,2.424805 z m 7.667964,2.989746 v 3.770508 h -1.17431 v -9.813477 h 1.17431 v 1.079102 q 0.36817,-0.634766 0.92676,-0.939454 0.56494,-0.311035 1.34571,-0.311035 1.29492,0 2.10107,1.028321 0.8125,1.02832 0.8125,2.704101 0,1.675781 -0.8125,2.704102 -0.80615,1.02832 -2.10107,1.02832 -0.78077,0 -1.34571,-0.304687 -0.55859,-0.311036 -0.92676,-0.945801 z m 3.97364,-2.481934 q 0,-1.288574 -0.53321,-2.018555 -0.52685,-0.736328 -1.45361,-0.736328 -0.92676,0 -1.45996,0.736328 -0.52686,0.729981 -0.52686,2.018555 0,1.288574 0.52686,2.024902 0.5332,0.729981 1.45996,0.729981 0.92676,0 1.45361,-0.729981 0.53321,-0.736328 0.53321,-2.024902 z m 6.37939,-0.02539 q -1.41553,0 -1.96142,0.32373 -0.5459,0.32373 -0.5459,1.104492 0,0.62207 0.40625,0.990235 0.4126,0.361816 1.11719,0.361816 0.97119,0 1.55517,-0.685547 0.59033,-0.691894 0.59033,-1.834473 V 66.42627 Z m 2.32959,-0.482422 V 70 h -1.16797 v -1.079102 q -0.3999,0.647461 -0.99658,0.958497 -0.59668,0.304687 -1.45996,0.304687 -1.0918,0 -1.73926,-0.609375 -0.64111,-0.615723 -0.64111,-1.644043 0,-1.199707 0.7998,-1.809082 0.80616,-0.609375 2.39942,-0.609375 h 1.63769 v -0.114258 q 0,-0.806152 -0.5332,-1.24414 -0.52686,-0.444336 -1.48535,-0.444336 -0.60938,0 -1.18701,0.145996 -0.57764,0.145996 -1.11084,0.437988 v -1.079102 q 0.64111,-0.247558 1.24414,-0.368164 0.60302,-0.126953 1.17431,-0.126953 1.54248,0 2.3042,0.799805 0.76172,0.799805 0.76172,2.424805 z m 5.36377,4.716308 q -0.49512,1.269531 -0.96484,1.656739 -0.46973,0.387207 -1.25684,0.387207 h -0.9331 v -0.97754 h 0.68554 q 0.48242,0 0.74903,-0.228515 0.2666,-0.228516 0.59033,-1.079102 l 0.20947,-0.533203 -2.87549,-6.995117 h 1.2378 l 2.22168,5.560547 2.22168,-5.560547 h 1.23779 z m 10.27051,-6.404785 q 0.43799,-0.787109 1.04736,-1.161621 0.60938,-0.374512 1.43457,-0.374512 1.11084,0 1.71387,0.780762 0.60303,0.774414 0.60303,2.208984 V 70 h -1.17432 v -4.25293 q 0,-1.021972 -0.36182,-1.51709 -0.36181,-0.495117 -1.10449,-0.495117 -0.90771,0 -1.43457,0.603028 -0.52685,0.603027 -0.52685,1.644043 V 70 H 134.75 v -4.25293 q 0,-1.02832 -0.36182,-1.51709 -0.36181,-0.495117 -1.11718,-0.495117 -0.89502,0 -1.42188,0.609375 -0.52685,0.603028 -0.52685,1.637696 V 70 h -1.17432 v -7.109375 h 1.17432 v 1.104492 q 0.3999,-0.653808 0.95849,-0.964844 0.5586,-0.311035 1.32666,-0.311035 0.77442,0 1.31397,0.393555 0.5459,0.393555 0.80615,1.142578 z m 13.20947,1.897949 v 0.571289 h -5.37012 q 0.0762,1.206055 0.72364,1.840821 0.65381,0.628418 1.81543,0.628418 0.67285,0 1.30127,-0.165039 0.63476,-0.165039 1.25683,-0.495118 v 1.104493 q -0.62842,0.266601 -1.28857,0.40625 -0.66016,0.139648 -1.33936,0.139648 -1.70117,0 -2.69775,-0.990234 -0.99024,-0.990235 -0.99024,-2.678711 0,-1.745606 0.93946,-2.767578 0.9458,-1.028321 2.54541,-1.028321 1.43457,0 2.26611,0.926758 0.83789,0.92041 0.83789,2.507324 z m -1.16797,-0.342773 q -0.0127,-0.958496 -0.53955,-1.529785 -0.52051,-0.571289 -1.38379,-0.571289 -0.97754,0 -1.56787,0.552246 -0.58398,0.552246 -0.67285,1.555176 z m 8.99463,-0.101563 V 70 h -1.16797 v -4.25293 q 0,-1.009277 -0.39355,-1.510742 -0.39356,-0.501465 -1.18067,-0.501465 -0.9458,0 -1.49169,0.603028 -0.5459,0.603027 -0.5459,1.644043 V 70 h -1.17432 v -7.109375 h 1.17432 v 1.104492 q 0.41894,-0.641113 0.98388,-0.958496 0.57129,-0.317383 1.31397,-0.317383 1.2251,0 1.85351,0.761719 0.62842,0.755371 0.62842,2.228027 z m 3.48487,-4.836914 v 2.018555 h 2.40576 v 0.907715 h -2.40576 v 3.859375 q 0,0.869629 0.23486,1.117187 0.24121,0.247559 0.97119,0.247559 h 1.19971 V 70 h -1.19971 q -1.35205,0 -1.86621,-0.501465 -0.51416,-0.507812 -0.51416,-1.84082 V 63.79834 h -0.85693 v -0.907715 h 0.85693 V 60.87207 Z m 8.07421,2.018555 h 1.16797 V 70 h -1.16797 z m 0,-2.767578 h 1.16797 v 1.479004 h -1.16797 z m 9.52149,5.585937 V 70 h -1.16797 v -4.25293 q 0,-1.009277 -0.39356,-1.510742 -0.39355,-0.501465 -1.18066,-0.501465 -0.9458,0 -1.4917,0.603028 -0.5459,0.603027 -0.5459,1.644043 V 70 h -1.17431 v -7.109375 h 1.17431 v 1.104492 q 0.41895,-0.641113 0.98389,-0.958496 0.57129,-0.317383 1.31396,-0.317383 1.2251,0 1.85352,0.761719 0.62842,0.755371 0.62842,2.228027 z m 3.48486,-4.836914 v 2.018555 h 2.40576 v 0.907715 h -2.40576 v 3.859375 q 0,0.869629 0.23486,1.117187 0.24122,0.247559 0.9712,0.247559 h 1.1997 V 70 h -1.1997 q -1.35205,0 -1.86621,-0.501465 -0.51416,-0.507812 -0.51416,-1.84082 V 63.79834 h -0.85694 v -0.907715 h 0.85694 V 60.87207 Z m 6.69678,2.837403 q -0.93945,0 -1.48535,0.736328 -0.5459,0.72998 -0.5459,2.005859 0,1.275879 0.53955,2.012207 0.5459,0.729981 1.4917,0.729981 0.9331,0 1.479,-0.736328 0.5459,-0.736329 0.5459,-2.00586 0,-1.263183 -0.5459,-1.999512 -0.5459,-0.742675 -1.479,-0.742675 z m 0,-0.990235 q 1.52344,0 2.39307,0.990235 0.86962,0.990234 0.86962,2.742187 0,1.745606 -0.86962,2.742188 -0.86963,0.990234 -2.39307,0.990234 -1.52979,0 -2.39942,-0.990234 -0.86328,-0.996582 -0.86328,-2.742188 0,-1.751953 0.86328,-2.742187 0.86963,-0.990235 2.39942,-0.990235 z m 13.01904,-1.079101 -3.2373,5.059082 h 3.2373 z m -0.33642,-1.117188 h 1.6123 v 6.17627 h 1.35205 v 1.066406 H 202.3208 V 70 h -1.27588 v -2.234375 h -4.27832 v -1.237793 z m 10.18164,8.410645 v 3.770508 h -1.17432 v -9.813477 h 1.17432 v 1.079102 q 0.36816,-0.634766 0.92675,-0.939454 0.56495,-0.311035 1.34571,-0.311035 1.29492,0 2.10107,1.028321 0.8125,1.02832 0.8125,2.704101 0,1.675781 -0.8125,2.704102 -0.80615,1.02832 -2.10107,1.02832 -0.78076,0 -1.34571,-0.304687 -0.55859,-0.311036 -0.92675,-0.945801 z m 3.97363,-2.481934 q 0,-1.288574 -0.5332,-2.018555 -0.52686,-0.736328 -1.45362,-0.736328 -0.92675,0 -1.45996,0.736328 -0.52685,0.729981 -0.52685,2.018555 0,1.288574 0.52685,2.024902 0.53321,0.729981 1.45996,0.729981 0.92676,0 1.45362,-0.729981 0.5332,-0.736328 0.5332,-2.024902 z m 6.37939,-0.02539 q -1.41552,0 -1.96142,0.32373 -0.5459,0.32373 -0.5459,1.104492 0,0.62207 0.40625,0.990235 0.4126,0.361816 1.11719,0.361816 0.97119,0 1.55517,-0.685547 0.59034,-0.691894 0.59034,-1.834473 V 66.42627 Z m 2.32959,-0.482422 V 70 h -1.16796 v -1.079102 q -0.39991,0.647461 -0.99659,0.958497 -0.59668,0.304687 -1.45996,0.304687 -1.09179,0 -1.73926,-0.609375 -0.64111,-0.615723 -0.64111,-1.644043 0,-1.199707 0.79981,-1.809082 0.80615,-0.609375 2.39941,-0.609375 h 1.6377 v -0.114258 q 0,-0.806152 -0.53321,-1.24414 -0.52685,-0.444336 -1.48535,-0.444336 -0.60937,0 -1.18701,0.145996 -0.57764,0.145996 -1.11084,0.437988 v -1.079102 q 0.64111,-0.247558 1.24414,-0.368164 0.60303,-0.126953 1.17432,-0.126953 1.54248,0 2.3042,0.799805 0.76171,0.799805 0.76171,2.424805 z m 6.52539,-1.961426 q -0.19677,-0.114258 -0.43164,-0.165039 -0.22851,-0.05713 -0.50781,-0.05713 -0.99023,0 -1.52344,0.647461 -0.52685,0.641113 -0.52685,1.847168 V 70 h -1.17432 v -7.109375 h 1.17432 v 1.104492 q 0.36816,-0.647461 0.95849,-0.958496 0.59034,-0.317383 1.43457,-0.317383 0.12061,0 0.26661,0.01904 0.14599,0.0127 0.32373,0.04443 z m 2.38038,-3.110352 v 2.018555 h 2.40576 v 0.907715 h -2.40576 v 3.859375 q 0,0.869629 0.23486,1.117187 0.24121,0.247559 0.97119,0.247559 h 1.19971 V 70 h -1.19971 q -1.35205,0 -1.86621,-0.501465 -0.51416,-0.507812 -0.51416,-1.84082 V 63.79834 h -0.85693 v -0.907715 h 0.85693 V 60.87207 Z m 8.47412,2.228028 v 1.104492 q -0.49512,-0.253906 -1.02832,-0.38086 -0.53321,-0.126953 -1.1045,-0.126953 -0.86962,0 -1.30761,0.266602 -0.43164,0.266601 -0.43164,0.799805 0,0.40625 0.31103,0.641113 0.31104,0.228515 1.25049,0.437988 l 0.3999,0.08887 q 1.24414,0.266602 1.76465,0.755371 0.52686,0.482422 0.52686,1.352051 0,0.990235 -0.78711,1.567871 -0.78077,0.577637 -2.15186,0.577637 -0.57129,0 -1.19336,-0.114258 -0.61572,-0.10791 -1.30127,-0.330078 v -1.206055 q 0.64746,0.336426 1.27588,0.507813 0.62842,0.165039 1.24414,0.165039 0.8252,0 1.26953,-0.279297 0.44434,-0.285644 0.44434,-0.799805 0,-0.476074 -0.32373,-0.72998 -0.31738,-0.253906 -1.40283,-0.48877 l -0.40625,-0.09521 q -1.08545,-0.228516 -1.56787,-0.698243 -0.48243,-0.476074 -0.48243,-1.301269 0,-1.00293 0.71094,-1.548828 0.71094,-0.545899 2.01856,-0.545899 0.64746,0 1.21875,0.09522 0.57128,0.09522 1.05371,0.285645 z m 2.40576,5.287597 h 1.33935 V 70 h -1.33935 z"/>
<path d="m 62.558105,77.576614 v 3.561036 h 1.612305 q 0.89502,0 1.383789,-0.463379 0.48877,-0.463379 0.48877,-1.320313 0,-0.850586 -0.48877,-1.313965 -0.488769,-0.463379 -1.383789,-0.463379 z m -1.282226,-1.053711 h 2.894531 q 1.593262,0 2.405762,0.723633 0.818848,0.717285 0.818848,2.107422 0,1.402832 -0.818848,2.120117 -0.8125,0.717285 -2.405762,0.717285 h -1.612305 v 3.808594 h -1.282226 z m 10.435547,5.903321 q -1.415528,0 -1.961426,0.32373 -0.545898,0.323731 -0.545898,1.104492 0,0.622071 0.40625,0.990235 0.412597,0.361816 1.117187,0.361816 0.971191,0 1.555176,-0.685547 0.590332,-0.691894 0.590332,-1.834472 v -0.260254 z m 2.32959,-0.482422 v 4.056152 h -1.167969 v -1.079101 q -0.399902,0.647461 -0.996582,0.958496 -0.59668,0.304687 -1.459961,0.304687 -1.091797,0 -1.739258,-0.609375 -0.641113,-0.615722 -0.641113,-1.644043 0,-1.199707 0.799804,-1.809082 0.806153,-0.609375 2.399415,-0.609375 h 1.637695 v -0.114258 q 0,-0.806152 -0.533203,-1.24414 -0.526856,-0.444336 -1.485352,-0.444336 -0.609375,0 -1.187012,0.145996 -0.577636,0.145996 -1.110839,0.437988 V 79.21431 q 0.641113,-0.247559 1.24414,-0.368164 0.603028,-0.126953 1.174317,-0.126953 1.54248,0 2.304199,0.799804 0.761719,0.799805 0.761719,2.424805 z m 5.363769,4.716308 q -0.495117,1.269532 -0.964844,1.656739 -0.469726,0.387207 -1.256836,0.387207 H 76.25 v -0.977539 h 0.685547 q 0.482422,0 0.749023,-0.228516 0.266602,-0.228516 0.590332,-1.079101 l 0.209473,-0.533204 -2.875488,-6.995117 h 1.237793 l 2.221679,5.560547 2.22168,-5.560547 h 1.237793 z M 94.01709,78.890579 v 7.109375 h -1.174317 v -6.20166 h -3.205566 v 6.20166 h -1.174316 v -6.20166 h -1.117188 v -0.907715 h 1.117188 v -0.495117 q 0,-1.161621 0.545898,-1.713867 0.552246,-0.558594 1.688477,-0.558594 h 1.174316 v 0.971192 h -1.117187 q -0.628418,0 -0.875977,0.253906 -0.241211,0.253906 -0.241211,0.914062 v 0.628418 z M 92.842773,76.135696 H 94.01709 V 77.6147 h -1.174317 z m 7.737797,3.84668 q -0.19678,-0.114258 -0.43164,-0.165039 -0.22852,-0.05713 -0.507817,-0.05713 -0.990234,0 -1.523437,0.647461 -0.526856,0.641113 -0.526856,1.847168 v 3.745117 h -1.174316 v -7.109375 h 1.174316 v 1.104492 q 0.368164,-0.647461 0.958496,-0.958496 0.590332,-0.317382 1.434571,-0.317382 0.120603,0 0.266603,0.01904 0.14599,0.0127 0.32373,0.04443 z m 5.75732,-0.882324 v 1.104492 q -0.49512,-0.253906 -1.02832,-0.380859 -0.5332,-0.126953 -1.10449,-0.126953 -0.86963,0 -1.30762,0.266601 -0.43164,0.266602 -0.43164,0.799805 0,0.40625 0.31104,0.641113 0.31103,0.228516 1.25048,0.437988 l 0.39991,0.08887 q 1.24414,0.266601 1.76464,0.755371 0.52686,0.482422 0.52686,1.35205 0,0.990235 -0.78711,1.567872 -0.78076,0.577636 -2.15185,0.577636 -0.57129,0 -1.19336,-0.114258 -0.61573,-0.10791 -1.30127,-0.330078 v -1.206054 q 0.64746,0.336425 1.27588,0.507812 0.62841,0.165039 1.24414,0.165039 0.82519,0 1.26953,-0.279297 0.44433,-0.285644 0.44433,-0.799804 0,-0.476075 -0.32373,-0.729981 -0.31738,-0.253906 -1.40283,-0.488769 l -0.40625,-0.09522 q -1.08545,-0.228516 -1.56787,-0.698242 -0.48242,-0.476075 -0.48242,-1.30127 0,-1.00293 0.71094,-1.548828 0.71093,-0.545898 2.01855,-0.545898 0.64746,0 1.21875,0.09521 0.57129,0.09521 1.05371,0.285645 z m 3.396,-2.228027 v 2.018554 h 2.40576 v 0.907715 h -2.40576 v 3.859375 q 0,0.869629 0.23486,1.117188 0.24121,0.247558 0.97119,0.247558 h 1.19971 v 0.977539 h -1.19971 q -1.35205,0 -1.86621,-0.501465 -0.51416,-0.507812 -0.51416,-1.84082 v -3.859375 h -0.85693 v -0.907715 h 0.85693 v -2.018554 z m 9.2041,8.061523 v 3.770508 h -1.17432 v -9.813477 h 1.17432 v 1.079102 q 0.36816,-0.634766 0.92676,-0.939453 0.56494,-0.311035 1.3457,-0.311035 1.29492,0 2.10107,1.02832 0.8125,1.02832 0.8125,2.704101 0,1.675782 -0.8125,2.704102 -0.80615,1.02832 -2.10107,1.02832 -0.78076,0 -1.3457,-0.304687 -0.5586,-0.311035 -0.92676,-0.945801 z m 3.97363,-2.481934 q 0,-1.288574 -0.5332,-2.018554 -0.52686,-0.736328 -1.45362,-0.736328 -0.92675,0 -1.45996,0.736328 -0.52685,0.72998 -0.52685,2.018554 0,1.288575 0.52685,2.024903 0.53321,0.72998 1.45996,0.72998 0.92676,0 1.45362,-0.72998 0.5332,-0.736328 0.5332,-2.024903 z m 6.3794,-0.02539 q -1.41553,0 -1.96143,0.32373 -0.5459,0.323731 -0.5459,1.104492 0,0.622071 0.40625,0.990235 0.4126,0.361816 1.11719,0.361816 0.97119,0 1.55517,-0.685547 0.59034,-0.691894 0.59034,-1.834472 v -0.260254 z m 2.32959,-0.482422 v 4.056152 h -1.16797 v -1.079101 q -0.39991,0.647461 -0.99659,0.958496 -0.59668,0.304687 -1.45996,0.304687 -1.09179,0 -1.73925,-0.609375 -0.64112,-0.615722 -0.64112,-1.644043 0,-1.199707 0.79981,-1.809082 0.80615,-0.609375 2.39941,-0.609375 h 1.6377 v -0.114258 q 0,-0.806152 -0.53321,-1.24414 -0.52685,-0.444336 -1.48535,-0.444336 -0.60937,0 -1.18701,0.145996 -0.57764,0.145996 -1.11084,0.437988 V 79.21431 q 0.64111,-0.247559 1.24414,-0.368164 0.60303,-0.126953 1.17432,-0.126953 1.54248,0 2.3042,0.799804 0.76172,0.799805 0.76172,2.424805 z m 6.52539,-1.961426 q -0.19678,-0.114258 -0.43164,-0.165039 -0.22852,-0.05713 -0.50782,-0.05713 -0.99023,0 -1.52343,0.647461 -0.52686,0.641113 -0.52686,1.847168 v 3.745117 h -1.17432 v -7.109375 h 1.17432 v 1.104492 q 0.36816,-0.647461 0.9585,-0.958496 0.59033,-0.317382 1.43457,-0.317382 0.1206,0 0.2666,0.01904 0.14599,0.0127 0.32373,0.04443 z m 2.38037,-3.110351 v 2.018554 h 2.40576 v 0.907715 h -2.40576 v 3.859375 q 0,0.869629 0.23486,1.117188 0.24121,0.247558 0.97119,0.247558 h 1.19971 v 0.977539 h -1.19971 q -1.35205,0 -1.86621,-0.501465 -0.51416,-0.507812 -0.51416,-1.84082 v -3.859375 h -0.85693 v -0.907715 h 0.85693 v -2.018554 z m 13.98388,4.836914 v 4.291015 h -1.16796 v -4.252929 q 0,-1.009278 -0.39356,-1.510743 -0.39355,-0.501464 -1.18066,-0.501464 -0.9458,0 -1.4917,0.603027 -0.5459,0.603027 -0.5459,1.644043 v 4.018066 h -1.17432 v -7.109375 h 1.17432 v 1.104492 q 0.41894,-0.641113 0.98389,-0.958496 0.57128,-0.317382 1.31396,-0.317382 1.2251,0 1.85352,0.761718 0.62841,0.755371 0.62841,2.228028 z m 5.08448,-1.999512 q -0.93946,0 -1.48536,0.736328 -0.54589,0.72998 -0.54589,2.005859 0,1.275879 0.53955,2.012207 0.5459,0.729981 1.4917,0.729981 0.9331,0 1.479,-0.736328 0.5459,-0.736328 0.5459,-2.00586 0,-1.263183 -0.5459,-1.999511 -0.5459,-0.742676 -1.479,-0.742676 z m 0,-0.990234 q 1.52343,0 2.39306,0.990234 0.86963,0.990234 0.86963,2.742187 0,1.745606 -0.86963,2.742188 -0.86963,0.990234 -2.39306,0.990234 -1.52979,0 -2.39942,-0.990234 -0.86328,-0.996582 -0.86328,-2.742188 0,-1.751953 0.86328,-2.742187 0.86963,-0.990234 2.39942,-0.990234 z m 4.51953,0.171386 h 1.16797 l 1.45996,5.547852 1.45361,-5.547852 h 1.37744 l 1.45996,5.547852 1.45362,-5.547852 h 1.16797 l -1.85987,7.109375 h -1.37744 l -1.52978,-5.827148 -1.53614,5.827148 h -1.37744 z m 11.60986,5.497071 h 1.33936 v 1.091796 l -1.04102,2.03125 h -0.81885 l 0.52051,-2.03125 z m 9.12158,-7.515625 v 2.018554 h 2.40576 v 0.907715 h -2.40576 v 3.859375 q 0,0.869629 0.23487,1.117188 0.24121,0.247558 0.97119,0.247558 h 1.1997 v 0.977539 h -1.1997 q -1.35205,0 -1.86621,-0.501465 -0.51416,-0.507812 -0.51416,-1.84082 v -3.859375 h -0.85694 v -0.907715 h 0.85694 v -2.018554 z m 9.85157,4.836914 v 4.291015 h -1.16797 v -4.252929 q 0,-1.009278 -0.39356,-1.510743 -0.39355,-0.501464 -1.18066,-0.501464 -0.9458,0 -1.4917,0.603027 -0.5459,0.603027 -0.5459,1.644043 v 4.018066 h -1.17432 v -9.876953 h 1.17432 v 3.87207 q 0.41895,-0.641113 0.98389,-0.958496 0.57129,-0.317382 1.31396,-0.317382 1.2251,0 1.85352,0.761718 0.62842,0.755371 0.62842,2.228028 z m 8.41064,0.444336 v 0.571289 h -5.37012 q 0.0762,1.206054 0.72364,1.84082 0.6538,0.628418 1.81543,0.628418 0.67285,0 1.30126,-0.165039 0.63477,-0.165039 1.25684,-0.495117 v 1.104492 q -0.62842,0.266601 -1.28857,0.40625 -0.66016,0.139648 -1.33936,0.139648 -1.70117,0 -2.69775,-0.990234 -0.99024,-0.990234 -0.99024,-2.678711 0,-1.745606 0.93946,-2.767578 0.9458,-1.02832 2.54541,-1.02832 1.43457,0 2.26611,0.926757 0.83789,0.92041 0.83789,2.507325 z m -1.16797,-0.342774 q -0.0127,-0.958496 -0.53955,-1.529785 -0.52051,-0.571289 -1.38379,-0.571289 -0.97754,0 -1.56787,0.552246 -0.58398,0.552246 -0.67285,1.555176 z m 11.33692,-1.828125 q -0.19678,-0.114258 -0.43165,-0.165039 -0.22851,-0.05713 -0.50781,-0.05713 -0.99023,0 -1.52344,0.647461 -0.52685,0.641113 -0.52685,1.847168 v 3.745117 h -1.17432 v -7.109375 h 1.17432 v 1.104492 q 0.36816,-0.647461 0.9585,-0.958496 0.59033,-0.317382 1.43457,-0.317382 0.1206,0 0.2666,0.01904 0.14599,0.0127 0.32373,0.04443 z m 7.0205,2.170899 v 0.571289 h -5.37011 q 0.0762,1.206054 0.72363,1.84082 0.65381,0.628418 1.81543,0.628418 0.67285,0 1.30127,-0.165039 0.63476,-0.165039 1.25683,-0.495117 v 1.104492 q -0.62841,0.266601 -1.28857,0.40625 -0.66016,0.139648 -1.33936,0.139648 -1.70117,0 -2.69775,-0.990234 -0.99023,-0.990234 -0.99023,-2.678711 0,-1.745606 0.93945,-2.767578 0.9458,-1.02832 2.54541,-1.02832 1.43457,0 2.26611,0.926757 0.83789,0.92041 0.83789,2.507325 z m -1.16797,-0.342774 q -0.0127,-0.958496 -0.53955,-1.529785 -0.5205,-0.571289 -1.38379,-0.571289 -0.97753,0 -1.56787,0.552246 -0.58398,0.552246 -0.67285,1.555176 z m 7.61719,-2.710449 v 1.104492 q -0.49512,-0.253906 -1.02832,-0.380859 -0.5332,-0.126953 -1.10449,-0.126953 -0.86963,0 -1.30762,0.266601 -0.43164,0.266602 -0.43164,0.799805 0,0.40625 0.31104,0.641113 0.31103,0.228516 1.25049,0.437988 l 0.3999,0.08887 q 1.24414,0.266601 1.76465,0.755371 0.52685,0.482422 0.52685,1.35205 0,0.990235 -0.78711,1.567872 -0.78076,0.577636 -2.15185,0.577636 -0.57129,0 -1.19336,-0.114258 -0.61573,-0.10791 -1.30127,-0.330078 v -1.206054 q 0.64746,0.336425 1.27588,0.507812 0.62841,0.165039 1.24414,0.165039 0.82519,0 1.26953,-0.279297 0.44433,-0.285644 0.44433,-0.799804 0,-0.476075 -0.32373,-0.729981 -0.31738,-0.253906 -1.40283,-0.488769 l -0.40625,-0.09522 q -1.08545,-0.228516 -1.56787,-0.698242 -0.48242,-0.476075 -0.48242,-1.30127 0,-1.00293 0.71094,-1.548828 0.71093,-0.545898 2.01855,-0.545898 0.64746,0 1.21875,0.09521 0.57129,0.09521 1.05371,0.285645 z m 3.396,-2.228027 v 2.018554 h 2.40576 v 0.907715 h -2.40576 v 3.859375 q 0,0.869629 0.23486,1.117188 0.24121,0.247558 0.97119,0.247558 h 1.19971 v 0.977539 h -1.19971 q -1.35205,0 -1.86621,-0.501465 -0.51416,-0.507812 -0.51416,-1.84082 v -3.859375 h -0.85693 v -0.907715 h 0.85693 v -2.018554 z"/>
<path d="m 67.306152,98.153267 v 0.571289 h -5.370117 q 0.07617,1.206055 0.723633,1.840824 0.653809,0.62841 1.81543,0.62841 0.672851,0 1.301269,-0.16503 0.634766,-0.16504 1.256836,-0.49512 v 1.10449 q -0.628418,0.2666 -1.288574,0.40625 -0.660156,0.13965 -1.339356,0.13965 -1.701171,0 -2.697753,-0.99024 -0.990235,-0.99023 -0.990235,-2.678707 0,-1.745605 0.939453,-2.767578 0.945801,-1.02832 2.54541,-1.02832 1.434571,0 2.266114,0.926758 0.83789,0.92041 0.83789,2.507324 z m -1.167968,-0.342774 q -0.0127,-0.958496 -0.539551,-1.529785 -0.520508,-0.571289 -1.383789,-0.571289 -0.977539,0 -1.567871,0.552246 -0.583985,0.552246 -0.672852,1.555176 z m 2.24707,-2.919921 h 1.237793 l 2.22168,5.966798 2.221679,-5.966798 h 1.237793 l -2.666015,7.109378 H 71.05127 Z m 14.612305,3.262695 v 0.571289 h -5.370118 q 0.07617,1.206055 0.723633,1.840824 0.653809,0.62841 1.81543,0.62841 0.672851,0 1.301269,-0.16503 0.634766,-0.16504 1.256836,-0.49512 v 1.10449 q -0.628418,0.2666 -1.288574,0.40625 -0.660156,0.13965 -1.339355,0.13965 -1.701172,0 -2.697754,-0.99024 -0.990235,-0.99023 -0.990235,-2.678707 0,-1.745605 0.939454,-2.767578 0.9458,-1.02832 2.54541,-1.02832 1.43457,0 2.266113,0.926758 0.837891,0.92041 0.837891,2.507324 z M 81.82959,97.810493 q -0.01269,-0.958496 -0.539551,-1.529785 -0.520508,-0.571289 -1.383789,-0.571289 -0.977539,0 -1.567871,0.552246 -0.583984,0.552246 -0.672852,1.555176 z m 7.20459,-1.828125 q -0.196778,-0.114257 -0.431641,-0.165039 -0.228516,-0.05713 -0.507812,-0.05713 -0.990235,0 -1.523438,0.64746 -0.526855,0.641114 -0.526855,1.847168 v 3.745121 h -1.174317 v -7.109378 h 1.174317 v 1.104492 q 0.368164,-0.647461 0.958496,-0.958496 0.590332,-0.317383 1.43457,-0.317383 0.120605,0 0.266602,0.01904 0.145996,0.01269 0.32373,0.04443 z m 4.183105,6.677732 q -0.495117,1.26953 -0.964844,1.65674 -0.469726,0.38721 -1.256836,0.38721 H 90.0625 v -0.97754 h 0.685547 q 0.482422,0 0.749023,-0.22852 0.266602,-0.22851 0.590332,-1.0791 l 0.209473,-0.5332 -2.875488,-6.995118 h 1.237793 l 2.221679,5.560548 2.22168,-5.560548 h 1.237793 z m 10.137205,-1.73925 h 4.4751 v 1.0791 h -6.01758 v -1.0791 q 0.72998,-0.75538 1.98682,-2.024907 1.26318,-1.275879 1.58691,-1.644043 0.61572,-0.691895 0.85694,-1.167969 0.24755,-0.482422 0.24755,-0.945801 0,-0.755371 -0.5332,-1.231445 -0.52685,-0.476074 -1.37744,-0.476074 -0.60303,0 -1.27588,0.209472 -0.6665,0.209473 -1.42822,0.634766 v -1.294922 q 0.77441,-0.311035 1.44726,-0.469726 0.67286,-0.158692 1.23145,-0.158692 1.47266,0 2.34863,0.736328 0.87598,0.736328 0.87598,1.967774 0,0.583984 -0.22217,1.11084 -0.21582,0.520507 -0.79346,1.231445 -0.15869,0.184082 -1.00927,1.066406 -0.85059,0.875977 -2.39942,2.456548 z m 10.45459,-6.030278 h 1.16797 l 1.45996,5.547848 1.45362,-5.547848 h 1.37744 l 1.45996,5.547848 1.45361,-5.547848 h 1.16797 l -1.85986,7.109378 h -1.37745 l -1.52978,-5.827152 -1.53613,5.827152 h -1.37744 z m 17.39258,3.262695 v 0.571289 h -5.37012 q 0.0762,1.206055 0.72364,1.840824 0.6538,0.62841 1.81543,0.62841 0.67285,0 1.30126,-0.16503 0.63477,-0.16504 1.25684,-0.49512 v 1.10449 q -0.62842,0.2666 -1.28857,0.40625 -0.66016,0.13965 -1.33936,0.13965 -1.70117,0 -2.69775,-0.99024 -0.99024,-0.99023 -0.99024,-2.678707 0,-1.745605 0.93946,-2.767578 0.9458,-1.02832 2.54541,-1.02832 1.43457,0 2.26611,0.926758 0.83789,0.92041 0.83789,2.507324 z m -1.16797,-0.342774 q -0.0127,-0.958496 -0.53955,-1.529785 -0.52051,-0.571289 -1.38379,-0.571289 -0.97754,0 -1.56787,0.552246 -0.58398,0.552246 -0.67285,1.555176 z m 9.16602,0.342774 v 0.571289 h -5.37012 q 0.0762,1.206055 0.72363,1.840824 0.65381,0.62841 1.81543,0.62841 0.67285,0 1.30127,-0.16503 0.63477,-0.16504 1.25684,-0.49512 v 1.10449 q -0.62842,0.2666 -1.28858,0.40625 -0.66015,0.13965 -1.33935,0.13965 -1.70117,0 -2.69776,-0.99024 -0.99023,-0.99023 -0.99023,-2.678707 0,-1.745605 0.93945,-2.767578 0.9458,-1.02832 2.54541,-1.02832 1.43457,0 2.26612,0.926758 0.83789,0.92041 0.83789,2.507324 z m -1.16797,-0.342774 q -0.0127,-0.958496 -0.53955,-1.529785 -0.52051,-0.571289 -1.38379,-0.571289 -0.97754,0 -1.56787,0.552246 -0.58399,0.552246 -0.67285,1.555176 z m 3.04053,-5.6875 h 1.17431 v 5.833497 l 3.48487,-3.065918 h 1.49169 l -3.7705,3.326171 3.9292,3.783207 h -1.52344 l -3.61182,-3.472171 v 3.472171 h -1.17431 z m 12.10498,2.977051 v 1.104492 q -0.49512,-0.253906 -1.02832,-0.380859 -0.53321,-0.126953 -1.1045,-0.126953 -0.86963,0 -1.30761,0.266602 -0.43164,0.266601 -0.43164,0.799804 0,0.40625 0.31103,0.641113 0.31104,0.228516 1.25049,0.437989 l 0.3999,0.08887 q 1.24414,0.266602 1.76465,0.755371 0.52686,0.482422 0.52686,1.35205 0,0.99024 -0.78711,1.56787 -0.78077,0.57764 -2.15186,0.57764 -0.57129,0 -1.19336,-0.11426 -0.61572,-0.10791 -1.30127,-0.33008 v -1.20605 q 0.64746,0.33642 1.27588,0.50781 0.62842,0.16504 1.24414,0.16504 0.8252,0 1.26953,-0.2793 0.44434,-0.28564 0.44434,-0.7998 0,-0.476076 -0.32373,-0.729982 -0.31738,-0.253907 -1.40283,-0.48877 l -0.40625,-0.09521 q -1.08545,-0.228515 -1.56788,-0.698242 -0.48242,-0.476074 -0.48242,-1.30127 0,-1.002929 0.71094,-1.548828 0.71094,-0.545898 2.01856,-0.545898 0.64746,0 1.21875,0.09522 0.57128,0.09521 1.05371,0.285644 z m 2.40576,5.287596 h 1.33935 v 1.61231 h -1.33935 z m 8.15039,-7.864744 h 1.72656 l 4.20215,7.928224 v -7.928224 h 1.24414 v 9.477054 h -1.72656 l -4.20215,-7.928226 v 7.928226 h -1.24414 z m 12.42871,3.186523 q -0.93945,0 -1.48535,0.736328 -0.5459,0.729981 -0.5459,2.00586 0,1.275879 0.53955,2.012203 0.5459,0.72998 1.4917,0.72998 0.9331,0 1.479,-0.73632 0.5459,-0.736332 0.5459,-2.005863 0,-1.263184 -0.5459,-1.999512 -0.5459,-0.742676 -1.479,-0.742676 z m 0,-0.990234 q 1.52344,0 2.39307,0.990234 0.86962,0.990235 0.86962,2.742188 0,1.745603 -0.86962,2.742183 -0.86963,0.99024 -2.39307,0.99024 -1.52979,0 -2.39941,-0.99024 -0.86329,-0.99658 -0.86329,-2.742183 0,-1.751953 0.86329,-2.742188 0.86962,-0.990234 2.39941,-0.990234 z m 12.93018,-2.596192 v 0.971192 h -1.11719 q -0.62842,0 -0.87598,0.253906 -0.24121,0.253906 -0.24121,0.914063 v 0.628418 h 1.92334 v 0.907714 h -1.92334 v 6.201664 h -1.17432 v -6.201664 h -1.11718 v -0.907714 h 1.11718 v -0.495118 q 0,-1.187011 0.55225,-1.726562 0.55225,-0.545899 1.75195,-0.545899 z m 7.05859,6.030274 v 0.571289 h -5.37012 q 0.0762,1.206055 0.72363,1.840824 0.65381,0.62841 1.81543,0.62841 0.67286,0 1.30127,-0.16503 0.63477,-0.16504 1.25684,-0.49512 v 1.10449 q -0.62842,0.2666 -1.28857,0.40625 -0.66016,0.13965 -1.33936,0.13965 -1.70117,0 -2.69775,-0.99024 -0.99024,-0.99023 -0.99024,-2.678707 0,-1.745605 0.93945,-2.767578 0.94581,-1.02832 2.54541,-1.02832 1.43458,0 2.26612,0.926758 0.83789,0.92041 0.83789,2.507324 z m -1.16797,-0.342774 q -0.0127,-0.958496 -0.53955,-1.529785 -0.52051,-0.571289 -1.38379,-0.571289 -0.97754,0 -1.56787,0.552246 -0.58399,0.552246 -0.67285,1.555176 z m 9.16602,0.342774 v 0.571289 h -5.37012 q 0.0762,1.206055 0.72363,1.840824 0.65381,0.62841 1.81543,0.62841 0.67285,0 1.30127,-0.16503 0.63477,-0.16504 1.25684,-0.49512 v 1.10449 q -0.62842,0.2666 -1.28858,0.40625 -0.66015,0.13965 -1.33935,0.13965 -1.70118,0 -2.69776,-0.99024 -0.99023,-0.99023 -0.99023,-2.678707 0,-1.745605 0.93945,-2.767578 0.9458,-1.02832 2.54541,-1.02832 1.43457,0 2.26612,0.926758 0.83789,0.92041 0.83789,2.507324 z m -1.16797,-0.342774 q -0.0127,-0.958496 -0.53955,-1.529785 -0.52051,-0.571289 -1.38379,-0.571289 -0.97754,0 -1.56787,0.552246 -0.58399,0.552246 -0.67286,1.555176 z m 7.61718,-2.710449 v 1.104492 q -0.49511,-0.253906 -1.02832,-0.380859 -0.5332,-0.126953 -1.10449,-0.126953 -0.86963,0 -1.30762,0.266602 -0.43164,0.266601 -0.43164,0.799804 0,0.40625 0.31104,0.641113 0.31103,0.228516 1.25049,0.437989 l 0.3999,0.08887 q 1.24414,0.266602 1.76465,0.755371 0.52685,0.482422 0.52685,1.35205 0,0.99024 -0.78711,1.56787 -0.78076,0.57764 -2.15185,0.57764 -0.57129,0 -1.19336,-0.11426 -0.61572,-0.10791 -1.30127,-0.33008 v -1.20605 q 0.64746,0.33642 1.27588,0.50781 0.62842,0.16504 1.24414,0.16504 0.82519,0 1.26953,-0.2793 0.44434,-0.28564 0.44434,-0.7998 0,-0.476076 -0.32373,-0.729982 -0.31739,-0.253907 -1.40284,-0.48877 l -0.40625,-0.09521 q -1.08544,-0.228515 -1.56787,-0.698242 -0.48242,-0.476074 -0.48242,-1.30127 0,-1.002929 0.71094,-1.548828 0.71094,-0.545898 2.01855,-0.545898 0.64746,0 1.21875,0.09522 0.57129,0.09521 1.05371,0.285644 z m 2.97706,5.287596 h 1.28857 v 1.61231 h -1.28857 z m 0,-7.864744 h 1.28857 v 4.157715 l -0.12695,2.266113 h -1.02832 l -0.1333,-2.266113 z"/>
<text x="30" y="141.3" font-family="Sans-serif" font-size="20">Your Name</text>
<text x="30" y="165" font-family="Sans-serif" font-size="15" font-weight="500">ACCOUNT NUMBER</text>
</svg>
