<?xml version="1.0" encoding="UTF-8" standalone="no"?>
<svg
   width="300"
   height="180"
   version="1.1"
   id="svg2"
   xmlns="http://www.w3.org/2000/svg">
  <rect
     x="0"
     y="0"
     width="300"
     height="180"
     fill="white"
     id="rect1" />
  <text
     x="30"
     y="141.3"
     font-family="Sans-serif"
     font-size="20"
     id="text1">Your Name</text>
  <text
     x="30"
     y="165"
     font-family="Sans-serif"
     font-size="15"
     font-weight="500"
     id="text2">ACCOUNT NUMBER</text>
<g fill="red" stroke-width="0.5" stroke="black">
  <path
     d="m 62.960941,70.421067 c 0,0.847223 -0.111111,1.631946 -0.333333,2.354169 -0.208333,0.708334 -0.506945,1.347223 -0.895834,1.916668 -0.388889,0.569445 -0.861112,1.069445 -1.416668,1.500001 -0.541667,0.430556 -1.159723,0.791667 -1.854168,1.083334 -0.680556,0.291667 -1.416668,0.513889 -2.208335,0.666667 -0.777778,0.138889 -1.673612,0.208334 -2.687502,0.208334 h -7.041672 c -0.319445,0 -0.625,-0.104167 -0.916667,-0.3125 -0.277778,-0.222223 -0.416667,-0.604168 -0.416667,-1.145835 V 52.650221 c 0,-0.541667 0.138889,-0.916668 0.416667,-1.125001 0.291667,-0.222223 0.597222,-0.333334 0.916667,-0.333334 h 6.125005 c 1.611112,0 2.930557,0.152778 3.958336,0.458334 1.027779,0.305556 1.881946,0.750001 2.562502,1.333334 0.694445,0.583334 1.215278,1.298612 1.562501,2.145835 0.347223,0.847223 0.520834,1.805557 0.520834,2.875002 0,0.63889 -0.07639,1.250002 -0.229167,1.833335 -0.152778,0.583334 -0.381945,1.125001 -0.687501,1.625001 -0.291667,0.486112 -0.666667,0.923612 -1.125,1.312501 -0.444445,0.388889 -0.958335,0.708334 -1.541668,0.958334 0.736111,0.138889 1.423612,0.395834 2.062501,0.770834 0.638889,0.361111 1.194445,0.82639 1.666668,1.395835 0.486111,0.569445 0.868056,1.236112 1.145834,2.000001 0.277778,0.763889 0.416667,1.604168 0.416667,2.520835 z M 57.565104,58.358558 c 0,-0.652778 -0.09028,-1.243056 -0.270833,-1.770834 -0.180556,-0.527779 -0.465279,-0.972224 -0.854168,-1.333335 -0.388889,-0.375 -0.895834,-0.659722 -1.520834,-0.854167 -0.625001,-0.194445 -1.45139,-0.291667 -2.479169,-0.291667 h -3.708336 v 8.729173 H 52.8151 c 0.930557,0 1.680557,-0.118056 2.250002,-0.354167 0.569445,-0.25 1.041667,-0.576389 1.416668,-0.979167 0.375,-0.416667 0.645834,-0.895834 0.812501,-1.437501 0.180555,-0.555556 0.270833,-1.125001 0.270833,-1.708335 z m 1.625001,12.270843 c 0,-0.805556 -0.131944,-1.51389 -0.395833,-2.125002 -0.250001,-0.611111 -0.625001,-1.125001 -1.125001,-1.541668 -0.486111,-0.416667 -1.104167,-0.729167 -1.854168,-0.9375 -0.736112,-0.222223 -1.666668,-0.333334 -2.791669,-0.333334 h -4.29167 v 9.500007 h 5.208337 c 0.819445,0 1.534724,-0.09722 2.145835,-0.291667 0.611112,-0.194445 1.145835,-0.479167 1.604168,-0.854167 0.472223,-0.388889 0.840279,-0.868056 1.104168,-1.437501 0.263889,-0.569445 0.395833,-1.229167 0.395833,-1.979168 z"
/>

  <path
     d="m 111.90547,76.671072 c 0,0.277778 -0.0486,0.513889 -0.14583,0.708334 -0.0833,0.194445 -0.20139,0.354167 -0.35417,0.479167 -0.13889,0.125 -0.29861,0.215278 -0.47917,0.270833 -0.18055,0.05555 -0.36111,0.08333 -0.54166,0.08333 h -1.14584 c -0.36111,0 -0.68055,-0.03472 -0.95833,-0.104167 -0.26389,-0.08333 -0.52083,-0.222222 -0.77083,-0.416667 -0.23611,-0.208333 -0.47917,-0.486111 -0.72917,-0.833334 -0.23611,-0.34722 -0.5,-0.791663 -0.79167,-1.33333 L 97.488785,60.191893 c -0.44444,-0.791667 -0.895827,-1.618057 -1.35416,-2.479168 -0.444447,-0.875001 -0.861113,-1.722224 -1.25,-2.541669 h -0.0417 c 0.0278,1.000001 0.04863,2.020835 0.0625,3.062502 0.01387,1.041667 0.0208,2.07639 0.0208,3.104169 v 16.270846 c 0,0.09722 -0.02777,0.194444 -0.0833,0.291667 -0.05553,0.08333 -0.152757,0.152778 -0.29167,0.208333 -0.125,0.04167 -0.29861,0.07639 -0.52083,0.104167 -0.208333,0.04167 -0.479167,0.0625 -0.8125,0.0625 -0.333335,0 -0.611114,-0.02083 -0.833336,-0.0625 -0.208333,-0.02778 -0.375,-0.0625 -0.500001,-0.104167 -0.125,-0.05555 -0.215278,-0.124998 -0.270833,-0.208333 -0.05555,-0.09722 -0.08333,-0.194445 -0.08333,-0.291667 V 52.733554 c 0,-0.555556 0.152778,-0.95139 0.458333,-1.187501 0.305556,-0.236111 0.63889,-0.354167 1.000001,-0.354167 h 1.708339 c 0.402773,0 0.736107,0.03472 1,0.104167 0.277773,0.06945 0.520827,0.1875 0.72916,0.354167 0.222227,0.152778 0.43056,0.375 0.625,0.666667 0.208333,0.277778 0.430557,0.631945 0.66667,1.062501 L 104.2596,65.21273 c 0.40278,0.722223 0.79167,1.430557 1.16666,2.125002 0.375,0.680556 0.73611,1.354168 1.08333,2.020835 0.34723,0.666667 0.68751,1.326389 1.02084,1.979168 0.34722,0.638889 0.6875,1.284723 1.02084,1.937501 h 0.0208 c -0.0278,-1.097223 -0.0486,-2.236112 -0.0625,-3.416669 V 66.421064 51.796053 c 0,-0.09722 0.0278,-0.1875 0.0833,-0.270833 0.0555,-0.08333 0.14581,-0.152778 0.27083,-0.208334 0.13891,-0.06944 0.31251,-0.118055 0.52085,-0.145833 0.22221,-0.02778 0.50694,-0.04167 0.85415,-0.04167 0.30556,0 0.56945,0.01389 0.79167,0.04167 0.22222,0.02778 0.39583,0.07639 0.52083,0.145833 0.125,0.05555 0.21529,0.124998 0.27085,0.208334 0.0555,0.08333 0.0833,0.173611 0.0833,0.270833 z"
/>
  <path
     d="m 76.121441,77.361666 c 0,0.07813 -0.01953,0.14844 -0.05859,0.21094 -0.03906,0.05467 -0.109373,0.101543 -0.210938,0.14063 -0.09375,0.03907 -0.222656,0.0664 -0.386718,0.082 -0.15625,0.02347 -0.355469,0.0352 -0.597657,0.0352 -0.257812,0 -0.468749,-0.01173 -0.632812,-0.0352 -0.15625,-0.0156 -0.28125,-0.04293 -0.375,-0.082 -0.09375,-0.03907 -0.160156,-0.08594 -0.199219,-0.14063 -0.03906,-0.06247 -0.05859,-0.13278 -0.05859,-0.21094 v -1.20703 c -0.578125,0.625 -1.167968,1.09375 -1.769531,1.40625 -0.59375,0.3125 -1.210937,0.46875 -1.851562,0.46875 -0.71875,0 -1.324219,-0.117187 -1.816407,-0.35156 -0.484375,-0.234374 -0.878906,-0.554687 -1.183593,-0.96094 -0.296875,-0.406246 -0.511719,-0.874996 -0.644532,-1.40625 -0.125,-0.53906 -0.1875,-1.207027 -0.1875,-2.0039 v -6.398442 c 0,-0.07813 0.01953,-0.144531 0.05859,-0.199218 0.04687,-0.0625 0.124998,-0.113282 0.234375,-0.152344 0.117187,-0.03906 0.269531,-0.0664 0.457031,-0.08203 0.195313,-0.02344 0.433594,-0.03516 0.714844,-0.03516 0.289063,0 0.527344,0.01172 0.714844,0.03516 0.1875,0.01563 0.335937,0.04297 0.445312,0.08203 0.117188,0.03906 0.199219,0.08984 0.246094,0.152344 0.04687,0.05469 0.07031,0.121092 0.07031,0.199218 v 5.906252 c 0,0.546873 0.03516,0.96484 0.105468,1.2539 0.07031,0.289066 0.175782,0.539066 0.316407,0.75 0.148437,0.203126 0.332031,0.363283 0.550781,0.48047 0.226563,0.10938 0.488281,0.16407 0.785156,0.16407 0.375,-10e-7 0.75,-0.136721 1.125,-0.41016 0.382813,-0.27344 0.789063,-0.671877 1.21875,-1.19531 v -6.949222 c 0,-0.07813 0.01953,-0.144531 0.05859,-0.199218 0.04687,-0.0625 0.124998,-0.113282 0.234375,-0.152344 0.117187,-0.03906 0.269531,-0.0664 0.457031,-0.08203 0.1875,-0.02344 0.425781,-0.03516 0.714844,-0.03516 0.289063,0 0.527344,0.01172 0.714844,0.03516 0.1875,0.01563 0.335937,0.04297 0.445312,0.08203 0.109375,0.03906 0.1875,0.08984 0.234375,0.152344 0.04687,0.05469 0.07031,0.121092 0.07031,0.199218 z m 9.023437,0.39844 -1.265625,3.70313 c -0.07031,0.195306 -0.261719,0.33593 -0.574219,0.42187 -0.3125,0.08594 -0.769531,0.12891 -1.371093,0.12891 -0.3125,0 -0.5625,-0.01563 -0.75,-0.0469 -0.1875,-0.02347 -0.328125,-0.06643 -0.421875,-0.1289 -0.09375,-0.06247 -0.144531,-0.140594 -0.152344,-0.234381 -0.0078,-0.09375 0.01562,-0.207026 0.07031,-0.339839 l 1.394532,-3.503911 c -0.101563,-0.04687 -0.195313,-0.11718 -0.28125,-0.210939 -0.07813,-0.101561 -0.136719,-0.207027 -0.175782,-0.3164 l -3.597656,-9.609378 c -0.101563,-0.273438 -0.152344,-0.480469 -0.152344,-0.621094 0,-0.148438 0.04687,-0.261719 0.140625,-0.339843 0.09375,-0.08594 0.25,-0.144532 0.46875,-0.175782 0.226563,-0.03125 0.523438,-0.04687 0.890625,-0.04687 0.335938,0 0.601563,0.0078 0.796875,0.02344 0.195313,0.0078 0.347657,0.03516 0.457032,0.08203 0.109375,0.04687 0.191406,0.121092 0.246093,0.222656 0.05469,0.09375 0.109374,0.230469 0.164063,0.410157 l 2.460937,6.99609 h 0.03516 l 2.25,-7.136715 c 0.04687,-0.203126 0.105467,-0.335938 0.175781,-0.398438 0.07813,-0.07031 0.203125,-0.121094 0.375,-0.152344 0.171875,-0.03125 0.472656,-0.04687 0.902344,-0.04687 0.335937,0 0.613281,0.01562 0.832031,0.04687 0.226563,0.03125 0.390625,0.08984 0.492187,0.175782 0.109375,0.08594 0.164063,0.203124 0.164063,0.351562 0,0.140625 -0.03125,0.308594 -0.09375,0.503906 z"
/>
  <path
     d="m 125.99788,72.430428 c 0,0.890627 -0.11718,1.703127 -0.35156,2.4375 -0.23437,0.734373 -0.58984,1.367187 -1.0664,1.89844 -0.47657,0.531247 -1.07422,0.941403 -1.79297,1.23047 -0.71875,0.28906 -1.55859,0.43359 -2.51953,0.43359 -0.92969,0 -1.73829,-0.128907 -2.42579,-0.38672 -0.6875,-0.257813 -1.25781,-0.632813 -1.71093,-1.125 -0.45313,-0.492187 -0.78907,-1.097653 -1.00782,-1.8164 -0.21875,-0.718753 -0.32813,-1.539067 -0.32813,-2.46094 0,-0.890625 0.11719,-1.703125 0.35157,-2.4375 0.24218,-0.742188 0.60156,-1.375001 1.07813,-1.898438 0.47656,-0.53125 1.07031,-0.941406 1.78125,-1.230469 0.71875,-0.289062 1.55858,-0.433593 2.51953,-0.433593 0.9375,0 1.75,0.128906 2.4375,0.386718 0.6875,0.25 1.25391,0.621094 1.69922,1.113282 0.45312,0.492187 0.78906,1.097656 1.00781,1.816406 0.21875,0.71875 0.32813,1.542968 0.32812,2.472654 z m -3.03516,0.11719 c 0,-0.515625 -0.043,-0.988282 -0.12891,-1.417969 -0.0781,-0.4375 -0.21484,-0.816406 -0.41015,-1.136719 -0.19531,-0.320313 -0.45703,-0.570313 -0.78516,-0.75 -0.32031,-0.179687 -0.72656,-0.269531 -1.21875,-0.269531 -0.4375,0 -0.82031,0.08203 -1.14844,0.246094 -0.32812,0.15625 -0.59765,0.390625 -0.80859,0.703125 -0.21094,0.304687 -0.37109,0.675781 -0.48047,1.113281 -0.10156,0.429687 -0.15233,0.921874 -0.15233,1.476559 0,0.515627 0.043,0.99219 0.1289,1.42969 0.0859,0.429687 0.22266,0.804687 0.41016,1.125 0.19531,0.320313 0.45703,0.570313 0.78516,0.75 0.32812,0.171873 0.73437,0.25781 1.21875,0.25781 0.44531,0 0.83203,-0.07812 1.16015,-0.23437 0.32813,-0.164067 0.59766,-0.398443 0.8086,-0.70313 0.21093,-0.304687 0.36718,-0.671873 0.46875,-1.10156 0.10156,-0.4375 0.15234,-0.933593 0.15233,-1.48828 z m 21.31641,-5.261719 c 0.0159,0.08449 -0.0117,0.191406 -0.0352,0.316406 -0.0235,0.125 -0.0664,0.304688 -0.1289,0.539063 l -2.78907,9.45703 c -0.0391,0.132813 -0.0899,0.24219 -0.15234,0.32813 -0.0625,0.07812 -0.16012,0.14062 -0.29297,0.1875 -0.125,0.04687 -0.30859,0.0781 -0.55078,0.0937 -0.23437,0.0156 -0.54297,0.0234 -0.92578,0.0234 -0.38281,0 -0.69531,-0.01173 -0.9375,-0.0352 -0.24219,-0.0156 -0.43359,-0.04683 -0.57422,-0.0937 -0.13281,-0.04687 -0.23047,-0.109367 -0.29297,-0.1875 -0.0625,-0.08594 -0.10934,-0.19141 -0.14062,-0.31641 l -1.75782,-6.351562 -0.0234,-0.105468 -0.0234,0.105468 -1.61719,6.351562 c -0.0312,0.132813 -0.0781,0.24219 -0.14063,0.32813 -0.0547,0.07812 -0.15234,0.14062 -0.29296,0.1875 -0.14063,0.04687 -0.33204,0.0781 -0.57422,0.0937 -0.24219,0.0156 -0.55469,0.0234 -0.9375,0.0234 -0.39063,0 -0.70703,-0.01173 -0.94922,-0.0352 -0.23438,-0.0156 -0.42188,-0.04683 -0.5625,-0.0937 -0.13281,-0.04687 -0.23047,-0.109367 -0.29297,-0.1875 -0.0625,-0.08594 -0.10938,-0.19141 -0.14063,-0.31641 l -2.76562,-9.45703 c -0.0703,-0.226563 -0.11719,-0.402344 -0.14063,-0.527344 -0.0156,-0.132813 -0.0234,-0.242188 -0.0234,-0.328125 0,-0.07813 0.0195,-0.144532 0.0586,-0.199219 0.0469,-0.0625 0.125,-0.109375 0.23438,-0.140625 0.11719,-0.03906 0.26953,-0.0664 0.45703,-0.08203 0.19531,-0.01563 0.4375,-0.02344 0.72656,-0.02344 0.3125,0 0.56642,0.0078 0.76172,0.02344 0.19531,0.01563 0.34766,0.04297 0.45703,0.08203 0.10938,0.03906 0.1836,0.09375 0.22266,0.164063 0.0469,0.0625 0.082,0.140625 0.10547,0.234375 l 2.07422,7.675785 0.0234,0.14062 0.0234,-0.14062 1.94531,-7.675785 c 0.0235,-0.09375 0.0586,-0.171875 0.10547,-0.234375 0.0547,-0.07031 0.13279,-0.125 0.23438,-0.164063 0.10156,-0.03906 0.24218,-0.0664 0.42187,-0.08203 0.1875,-0.01563 0.42578,-0.02344 0.71484,-0.02344 0.28906,0 0.52344,0.01172 0.70313,0.03516 0.17968,0.01563 0.32031,0.04297 0.42187,0.08203 0.10938,0.03125 0.1836,0.07812 0.22266,0.140625 0.0469,0.05469 0.082,0.121093 0.10547,0.199219 l 2.08594,7.73437 0.0352,0.12891 0.0234,-0.14062 1.99219,-7.675785 c 0.0156,-0.09375 0.0468,-0.171875 0.0937,-0.234375 0.0469,-0.07031 0.12499,-0.125 0.23437,-0.164063 0.10938,-0.03906 0.25782,-0.0664 0.44532,-0.08203 0.1875,-0.01563 0.42578,-0.02344 0.71485,-0.02344 0.28906,0 0.52342,0.0078 0.70312,0.02344 0.1875,0.01563 0.33203,0.04297 0.4336,0.08203 0.10937,0.03125 0.18359,0.07812 0.22265,0.140625 0.0391,0.05469 0.0441,0.122404 0.0586,0.199219 z"
/>

</g>
<g fill="green" stroke-width="0.5" stroke="black">

  <path
     d="m 189.58019,77.797428 c 0,0.109373 -0.0391,0.19531 -0.11719,0.257809 -0.0781,0.06247 -0.20312,0.105436 -0.375,0.128911 -0.16406,0.03127 -0.41015,0.0469 -0.73828,0.0469 -0.35157,0 -0.60937,-0.01563 -0.77343,-0.0469 -0.15625,-0.02347 -0.26954,-0.06644 -0.33985,-0.128911 -0.0625,-0.06247 -0.0937,-0.148403 -0.0937,-0.257809 v -0.83203 c -0.42968,0.460933 -0.92187,0.820306 -1.47656,1.078119 -0.54687,0.257813 -1.15625,0.38672 -1.82813,0.38672 -0.55468,0 -1.0664,-0.07422 -1.53514,-0.22265 -0.46094,-0.140627 -0.86329,-0.351567 -1.20703,-0.63282 -0.33594,-0.28906 -0.59766,-0.644526 -0.78516,-1.0664 -0.1875,-0.42188 -0.28125,-0.91407 -0.28125,-1.47657 0,-0.609374 0.11718,-1.136717 0.35156,-1.58203 0.24218,-0.45312 0.59765,-0.824214 1.06641,-1.11328 0.47656,-0.296874 1.0664,-0.515623 1.76953,-0.656248 0.70312,-0.140625 1.51953,-0.210937 2.44922,-0.210937 h 1.01953 v -0.632813 c 0,-0.328125 -0.0352,-0.613281 -0.10547,-0.855469 -0.0625,-0.25 -0.17185,-0.457031 -0.32812,-0.621093 -0.14845,-0.164063 -0.35157,-0.285157 -0.60938,-0.363282 -0.25,-0.07813 -0.5625,-0.117187 -0.9375,-0.117187 -0.49219,0 -0.9336,0.05469 -1.32422,0.164062 -0.38282,0.109375 -0.72266,0.230469 -1.01953,0.363282 -0.29688,0.132812 -0.54688,0.253905 -0.75,0.363281 -0.19532,0.109374 -0.35547,0.164062 -0.48047,0.164062 -0.0859,0 -0.16406,-0.02734 -0.23437,-0.08203 -0.0625,-0.05469 -0.11716,-0.132812 -0.16408,-0.234375 -0.0391,-0.101563 -0.0703,-0.226563 -0.0937,-0.375 -0.0235,-0.148438 -0.0352,-0.3125 -0.0352,-0.492187 0,-0.242188 0.0195,-0.433595 0.0586,-0.574219 0.0391,-0.140626 0.11329,-0.265626 0.22266,-0.375 0.10938,-0.117188 0.30078,-0.242188 0.57422,-0.375 0.27344,-0.140626 0.59375,-0.269532 0.96093,-0.386719 0.3672,-0.117188 0.76564,-0.210938 1.19532,-0.28125 0.43751,-0.07813 0.88672,-0.117187 1.34765,-0.117187 0.82032,0 1.51954,0.08203 2.09766,0.246093 0.58594,0.15625 1.06641,0.402344 1.44141,0.738282 0.375,0.328124 0.64844,0.753905 0.82031,1.277343 0.17188,0.523438 0.25781,1.144532 0.25781,1.863282 z m -2.89454,-4.47656 h -1.125 c -0.47656,0 -0.88281,0.03516 -1.21875,0.10547 -0.33593,0.07031 -0.60937,0.175773 -0.82031,0.3164 -0.21094,0.140626 -0.36719,0.312503 -0.46875,0.51563 -0.0937,0.195313 -0.14062,0.421873 -0.14062,0.67968 0,0.4375 0.13672,0.78125 0.41015,1.03125 0.28125,0.25 0.66797,0.375 1.16015,0.375 0.41407,0 0.79298,-0.105467 1.13672,-0.3164 0.35157,-0.21094 0.70704,-0.519534 1.06641,-0.92578 z m 11.46094,4.83984 -1.26562,3.70313 c -0.0703,0.195306 -0.26172,0.33593 -0.57422,0.42187 -0.3125,0.08594 -0.76953,0.12891 -1.3711,0.12891 -0.3125,0 -0.5625,-0.01563 -0.75,-0.0469 -0.1875,-0.02347 -0.32812,-0.06643 -0.42187,-0.1289 -0.0937,-0.06247 -0.14453,-0.140594 -0.15234,-0.23438 -0.008,-0.09375 0.0156,-0.207027 0.0703,-0.33984 l 1.39453,-3.50391 c -0.10156,-0.04687 -0.19531,-0.11718 -0.28125,-0.21094 -0.0781,-0.10156 -0.13672,-0.207027 -0.17578,-0.3164 l -3.59765,-9.609378 c -0.10157,-0.273438 -0.15235,-0.480469 -0.15235,-0.621094 0,-0.148438 0.0469,-0.261719 0.14062,-0.339843 0.0937,-0.08594 0.25,-0.144532 0.46875,-0.175782 0.22656,-0.03125 0.52344,-0.04687 0.89063,-0.04687 0.33593,0 0.60156,0.0078 0.79687,0.02344 0.19532,0.0078 0.34766,0.03516 0.45703,0.08203 0.10938,0.04687 0.19141,0.121092 0.2461,0.222656 0.0547,0.09375 0.10935,0.230469 0.16407,0.410157 l 2.46093,6.99609 h 0.0352 l 2.25,-7.136715 c 0.0469,-0.203126 0.10545,-0.335938 0.17578,-0.398438 0.0781,-0.07031 0.20312,-0.121094 0.375,-0.152344 0.17187,-0.03125 0.47265,-0.04687 0.90234,-0.04687 0.33594,0 0.61328,0.01562 0.83204,0.04687 0.22656,0.03125 0.39063,0.08984 0.49218,0.175782 0.10938,0.08594 0.16407,0.203124 0.16407,0.351562 -1e-5,0.140625 -0.0312,0.308594 -0.0937,0.503906 z"
/>
  <path
     d="m 181.20846,59.288061 c 0,1.347223 -0.22222,2.562501 -0.66667,3.645836 -0.44445,1.083334 -1.08334,2.006946 -1.91667,2.770835 -0.81945,0.763889 -1.83334,1.354168 -3.04167,1.770835 -1.19445,0.416667 -2.625,0.625 -4.29167,0.625 h -3.0625 v 9.708341 c 0,0.111111 -0.0347,0.208334 -0.10417,0.291667 -0.0555,0.08333 -0.15275,0.152778 -0.29166,0.208333 -0.125,0.04167 -0.30556,0.07639 -0.54167,0.104167 -0.22222,0.04167 -0.50694,0.0625 -0.85417,0.0625 -0.34722,0 -0.63889,-0.02083 -0.875,-0.0625 -0.22222,-0.02778 -0.40278,-0.0625 -0.54167,-0.104167 -0.13889,-0.05555 -0.23611,-0.124998 -0.29166,-0.208333 -0.0555,-0.08333 -0.0833,-0.180556 -0.0833,-0.291667 V 52.933889 c 0,-0.555556 0.14583,-0.95139 0.4375,-1.187501 0.29167,-0.236111 0.61806,-0.354167 0.97917,-0.354167 h 5.77084 c 0.58333,0 1.13889,0.02778 1.66667,0.08333 0.54167,0.04167 1.17361,0.145833 1.89583,0.3125 0.73611,0.152778 1.47917,0.451389 2.22917,0.895834 0.76389,0.430556 1.40972,0.965279 1.9375,1.604168 0.52778,0.638889 0.93056,1.381945 1.20834,2.229168 0.29167,0.833334 0.4375,1.756946 0.4375,2.770836 z m -3.77084,0.291666 c 0,-1.097223 -0.20833,-2.01389 -0.625,-2.750002 -0.40278,-0.736111 -0.90972,-1.284723 -1.52083,-1.645834 -0.59723,-0.361111 -1.22223,-0.590278 -1.87501,-0.687501 -0.63889,-0.09722 -1.26389,-0.145833 -1.875,-0.145833 h -3.3125 v 10.812508 h 3.22918 c 1.08332,0 1.97917,-0.138889 2.6875,-0.416667 0.72222,-0.277778 1.32639,-0.659723 1.8125,-1.145834 0.4861,-0.500001 0.85417,-1.090279 1.10417,-1.770835 0.25,-0.694445 0.375,-1.444445 0.37499,-2.250002 z"
/>
  <path
     d="m 218.96163,76.788076 c 0,0.277778 -0.0139,0.513889 -0.0417,0.708333 -0.0278,0.180556 -0.0764,0.340279 -0.14582,0.479168 -0.0555,0.125 -0.13194,0.222222 -0.22918,0.291666 -0.0833,0.05555 -0.1875,0.08333 -0.3125,0.08333 h -11.91667 c -0.31944,0 -0.625,-0.104167 -0.91666,-0.3125 -0.27779,-0.222223 -0.41668,-0.604168 -0.41668,-1.145835 V 51.93389 c 0,-0.111111 0.0278,-0.208333 0.0833,-0.291666 0.0555,-0.08333 0.15274,-0.145834 0.29167,-0.187501 0.13888,-0.05555 0.32638,-0.09722 0.5625,-0.125 0.23611,-0.04167 0.52083,-0.0625 0.85417,-0.0625 0.34722,0 0.63194,0.02083 0.85416,0.0625 0.23611,0.02778 0.42361,0.06945 0.56251,0.125 0.13888,0.04167 0.2361,0.104167 0.29166,0.187501 0.0555,0.08333 0.0833,0.180555 0.0833,0.291666 v 23.312518 h 9.66667 c 0.125,0 0.22916,0.03472 0.3125,0.104167 0.0972,0.05555 0.17361,0.145831 0.22917,0.270833 0.0694,0.111111 0.11805,0.263889 0.14583,0.458334 0.0278,0.194445 0.0417,0.430556 0.0417,0.708334 z"
/>
  <path
     d="m 231.13888,77.896949 c 0,0.109373 -0.0391,0.19531 -0.11719,0.25781 -0.0781,0.06247 -0.20313,0.105437 -0.375,0.12891 -0.16406,0.03127 -0.41015,0.0469 -0.73828,0.0469 -0.35157,0 -0.60938,-0.01563 -0.77344,-0.0469 -0.15624,-0.02347 -0.26952,-0.06644 -0.33984,-0.12891 -0.0625,-0.06247 -0.0937,-0.148403 -0.0937,-0.25781 v -0.83203 c -0.42968,0.460933 -0.92187,0.820307 -1.47656,1.07812 -0.54688,0.257813 -1.15625,0.38672 -1.82813,0.38672 -0.55467,0 -1.06639,-0.07422 -1.53515,-0.22265 -0.46093,-0.140627 -0.86327,-0.351567 -1.20703,-0.63282 -0.33593,-0.28906 -0.59765,-0.644527 -0.78515,-1.0664 -0.1875,-0.42188 -0.28125,-0.91407 -0.28125,-1.47657 0,-0.609373 0.11719,-1.136717 0.35156,-1.58203 0.24219,-0.45312 0.59766,-0.824213 1.06641,-1.11328 0.47656,-0.296873 1.06641,-0.515623 1.76953,-0.656248 0.70312,-0.140625 1.51953,-0.210937 2.44922,-0.210937 h 1.01953 v -0.632813 c 0,-0.328125 -0.0352,-0.613281 -0.10547,-0.855469 -0.0625,-0.25 -0.17184,-0.457031 -0.32813,-0.621093 -0.14843,-0.164063 -0.35155,-0.285157 -0.60937,-0.363282 -0.25,-0.07813 -0.5625,-0.117187 -0.9375,-0.117187 -0.49218,0 -0.93359,0.05469 -1.32422,0.164062 -0.38281,0.109375 -0.72265,0.230469 -1.01953,0.363282 -0.29687,0.132812 -0.54687,0.253906 -0.75,0.363281 -0.19531,0.109375 -0.35547,0.164062 -0.48047,0.164062 -0.0859,0 -0.16406,-0.02734 -0.23438,-0.08203 -0.0625,-0.05469 -0.11715,-0.132812 -0.16406,-0.234375 -0.0391,-0.101563 -0.0703,-0.226563 -0.0937,-0.375 -0.0234,-0.148437 -0.0351,-0.3125 -0.0351,-0.492187 0,-0.242188 0.0195,-0.433594 0.0586,-0.574219 0.0391,-0.140625 0.11329,-0.265625 0.22266,-0.375 0.10938,-0.117187 0.30078,-0.242187 0.57421,-0.375 0.27344,-0.140625 0.59376,-0.269532 0.96094,-0.386719 0.36718,-0.117187 0.76562,-0.210937 1.19531,-0.28125 0.4375,-0.07813 0.88672,-0.117187 1.34766,-0.117187 0.82032,0 1.51954,0.08203 2.09765,0.246093 0.58594,0.15625 1.0664,0.402344 1.4414,0.738282 0.375,0.328125 0.64844,0.753906 0.82032,1.277343 0.17188,0.523438 0.25781,1.144532 0.25781,1.863282 z m -2.89454,-4.47656 h -1.125 c -0.47656,0 -0.88281,0.03516 -1.21875,0.10547 -0.33593,0.07031 -0.60937,0.175773 -0.82032,0.3164 -0.21093,0.140627 -0.36718,0.312503 -0.46875,0.51563 -0.0937,0.195313 -0.14062,0.421873 -0.14062,0.67968 0,0.4375 0.13672,0.78125 0.41016,1.03125 0.28125,0.25 0.66797,0.375 1.16015,0.375 0.41407,0 0.79298,-0.105467 1.13672,-0.3164 0.35156,-0.21094 0.70703,-0.519533 1.06641,-0.92578 z m 11.80079,3.41015 c 0,0.343753 -0.0234,0.60938 -0.0703,0.79688 -0.0391,0.179687 -0.0937,0.308593 -0.16407,0.38672 -0.0703,0.07031 -0.17578,0.13672 -0.31639,0.19922 -0.13282,0.05467 -0.29297,0.10154 -0.48047,0.14062 -0.17968,0.04687 -0.3789,0.08202 -0.59766,0.10547 -0.21093,0.02347 -0.42577,0.0352 -0.64453,0.0352 -0.58594,0 -1.09375,-0.07422 -1.52344,-0.22266 -0.42968,-0.14844 -0.78515,-0.375003 -1.0664,-0.67969 -0.28125,-0.3125 -0.48828,-0.703123 -0.6211,-1.17187 -0.13281,-0.468753 -0.19922,-1.023443 -0.19922,-1.66407 v -5.355464 h -1.2539 c -0.14844,0 -0.26172,-0.08984 -0.33985,-0.269531 -0.0781,-0.1875 -0.11718,-0.496094 -0.11718,-0.925782 0,-0.226562 0.008,-0.417968 0.0234,-0.574218 0.0235,-0.15625 0.0547,-0.277344 0.0937,-0.363282 0.0391,-0.09375 0.086,-0.160156 0.14063,-0.199218 0.0625,-0.03906 0.13278,-0.05859 0.21093,-0.05859 h 1.24219 v -2.332075 c 0,-0.07813 0.0195,-0.148438 0.0586,-0.210938 0.0469,-0.0625 0.12499,-0.113281 0.23437,-0.152344 0.11719,-0.04687 0.26953,-0.07812 0.45703,-0.09375 0.19531,-0.02344 0.4336,-0.03516 0.71485,-0.03516 0.28906,0 0.52734,0.01172 0.71484,0.03516 0.19531,0.01563 0.34766,0.04688 0.45702,0.09375 0.10938,0.03906 0.18751,0.08984 0.23438,0.152344 0.0469,0.0625 0.0703,0.132813 0.0703,0.210938 v 2.332031 h 2.27344 c 0.0781,0 0.14454,0.01953 0.19922,0.05859 0.0625,0.03906 0.11325,0.105466 0.15234,0.199218 0.0391,0.08594 0.0664,0.207032 0.082,0.363282 0.0235,0.15625 0.0352,0.347656 0.0352,0.574218 0,0.429688 -0.0391,0.738282 -0.11719,0.925782 -0.0781,0.179687 -0.1914,0.269531 -0.33984,0.269531 h -2.28516 v 4.910154 c 0,0.570313 0.0898,1 0.26953,1.28906 0.17969,0.281253 0.5,0.42188 0.96094,0.42188 0.15625,0 0.29687,-0.01173 0.42187,-0.0352 0.125,-0.03127 0.23438,-0.0625 0.32813,-0.0937 0.10156,-0.03907 0.18359,-0.0703 0.24609,-0.0937 0.0703,-0.03127 0.13282,-0.0469 0.1875,-0.0469 0.0469,0 0.0898,0.01563 0.12891,0.0469 0.0469,0.02347 0.082,0.07816 0.10547,0.16407 0.0234,0.07812 0.0429,0.187493 0.0586,0.32812 0.0235,0.140627 0.0352,0.320313 0.0352,0.53906 z m 11.49609,-4.5 c 0,0.35938 -0.082,0.625007 -0.24609,0.79688 -0.15625,0.171873 -0.375,0.25781 -0.65625,0.25781 h -6.36329 c 0,0.445313 0.0508,0.851563 0.15235,1.21875 0.10937,0.359373 0.27735,0.667967 0.5039,0.92578 0.23438,0.25 0.53125,0.441407 0.89063,0.57422 0.36719,0.132813 0.80469,0.19922 1.3125,0.19922 0.51562,0 0.96876,-0.03516 1.35937,-0.10547 0.39063,-0.07813 0.72657,-0.160157 1.00782,-0.24609 0.28906,-0.09375 0.52734,-0.175787 0.71484,-0.2461 0.1875,-0.07812 0.33985,-0.11718 0.45703,-0.11718 0.0703,0 0.12891,0.01563 0.17579,0.0469 0.0469,0.02347 0.0859,0.07034 0.11718,0.14063 0.0313,0.07031 0.0508,0.171867 0.0586,0.30468 0.0156,0.125 0.0234,0.285157 0.0234,0.48047 0,0.171873 -0.004,0.32031 -0.0117,0.44531 -0.008,0.117193 -0.0195,0.218757 -0.0352,0.30469 -0.0156,0.08594 -0.039,0.16016 -0.0703,0.22266 -0.0313,0.05467 -0.0742,0.109353 -0.12891,0.16406 -0.0469,0.05467 -0.18358,0.128887 -0.41016,0.22266 -0.22656,0.09375 -0.51562,0.187497 -0.86718,0.28125 -0.35157,0.08593 -0.75392,0.16015 -1.20703,0.22265 -0.45312,0.07031 -0.9375,0.10547 -1.45313,0.10547 -0.92968,0 -1.74609,-0.117187 -2.44922,-0.35156 -0.69531,-0.234373 -1.27734,-0.589843 -1.74609,-1.06641 -0.46875,-0.47656 -0.82031,-1.07812 -1.05469,-1.80468 -0.22656,-0.726567 -0.33984,-1.57813 -0.33984,-2.55469 0,-0.929689 0.1211,-1.765627 0.36328,-2.507814 0.24219,-0.75 0.59375,-1.382813 1.05469,-1.898438 0.46094,-0.523437 1.01953,-0.921875 1.67578,-1.195312 0.66406,-0.273437 1.41016,-0.410156 2.23827,-0.410156 0.875,0 1.6211,0.128906 2.23828,0.386718 0.625,0.257813 1.13672,0.617188 1.53516,1.078125 0.39844,0.453125 0.6914,0.992188 0.8789,1.617188 0.1875,0.625 0.28125,1.304687 0.28125,2.039062 z m -2.85938,-0.843747 c 0.0234,-0.828125 -0.14456,-1.476562 -0.50391,-1.945312 -0.35156,-0.476563 -0.89843,-0.714844 -1.64062,-0.714844 -0.375,0 -0.70312,0.07031 -0.98438,0.210938 -0.27344,0.140625 -0.50391,0.332031 -0.69141,0.574218 -0.17968,0.234375 -0.32031,0.515625 -0.42187,0.84375 -0.0937,0.320313 -0.14844,0.664063 -0.16406,1.03125 z m 11.99999,-3.105468 c 0,0.28125 -0.008,0.511719 -0.0234,0.691406 -0.0156,0.179687 -0.039,0.320312 -0.0703,0.421875 -0.0313,0.101563 -0.0742,0.171875 -0.12892,0.210937 -0.0469,0.03906 -0.10936,0.05859 -0.1875,0.05859 -0.0625,0 -0.13279,-0.01172 -0.21094,-0.03516 -0.0781,-0.03125 -0.16796,-0.0625 -0.26952,-0.09375 -0.0937,-0.03125 -0.19922,-0.05859 -0.31641,-0.08203 -0.11718,-0.03125 -0.24609,-0.04687 -0.38671,-0.04687 -0.16407,0 -0.32813,0.03516 -0.4922,0.105468 -0.16405,0.0625 -0.33593,0.164063 -0.51563,0.304688 -0.17187,0.140625 -0.35546,0.328125 -0.55077,0.5625 -0.1875,0.234375 -0.39062,0.523437 -0.60937,0.867187 v 6.515622 c 0,0.07813 -0.0234,0.14844 -0.0703,0.21094 -0.0469,0.05467 -0.1289,0.101543 -0.24611,0.14063 -0.10937,0.03907 -0.25781,0.0664 -0.44531,0.082 -0.18749,0.02347 -0.42577,0.0352 -0.71483,0.0352 -0.28906,0 -0.52736,-0.01173 -0.71486,-0.0352 -0.1875,-0.0156 -0.33984,-0.04293 -0.45703,-0.082 -0.10937,-0.03907 -0.18749,-0.08594 -0.23437,-0.14063 -0.0469,-0.06247 -0.0703,-0.13278 -0.0703,-0.21094 v -10.45312 c 0,-0.07813 0.0195,-0.144531 0.0586,-0.199218 0.0391,-0.0625 0.10938,-0.113281 0.21093,-0.152344 0.10157,-0.03906 0.23048,-0.0664 0.38672,-0.08203 0.16407,-0.02344 0.3672,-0.03516 0.60938,-0.03516 0.25,0 0.45703,0.01172 0.62109,0.03516 0.16407,0.01563 0.28907,0.04297 0.37501,0.08203 0.0938,0.03906 0.16015,0.08984 0.19921,0.152344 0.0391,0.05469 0.0586,0.121093 0.0586,0.199218 v 1.300782 c 0.27344,-0.390625 0.53126,-0.710938 0.77344,-0.960938 0.24219,-0.257813 0.47266,-0.460938 0.69141,-0.609375 0.21875,-0.148437 0.4375,-0.25 0.65625,-0.304687 0.21875,-0.0625 0.4375,-0.09375 0.65625,-0.09375 0.10156,0 0.21094,0.0078 0.32812,0.02344 0.11719,0.0078 0.23828,0.02734 0.36328,0.05859 0.125,0.02344 0.23438,0.05469 0.32813,0.09375 0.0937,0.03125 0.16016,0.0664 0.19922,0.105469 0.0469,0.03906 0.0781,0.08203 0.0937,0.128906 0.0234,0.04687 0.0429,0.11328 0.0586,0.199219 0.0156,0.07813 0.0273,0.199218 0.0352,0.363281 0.008,0.164063 0.0117,0.386719 0.0117,0.667969 z"
/>
</g>
</svg>
