<svg width="300" height="180" xmlns="http://www.w3.org/2000/svg">
<defs>
  <linearGradient id="supercardGradient" x1="0" y1="0" x2="1" y2="1">
  <stop stop-color="#ffb115" offset="0"/>
  <stop stop-color="#ffff00" offset="0.5"/>
  <stop stop-color="#ffb115" offset="1"/>
  </linearGradient>
</defs>
<rect x="0" y="0" width="300" height="180" fill="url(#supercardGradient)"/>
<path fill="#9e0a11" d="m 52.999555,47.94 c -0.55,0 -0.83,-0.22 -0.83,-0.67 l -1.11,-6.25 c 0,0.06 0.02,0.11 0.08,0.11 -1.53,-0.66 -3.17,-1 -4.94,-1 -1.78,0 -3.31,0.48 -4.56,1.42 -1.33,1 -2,2.36 -2,4.03 0,1.67 0.61,3.05 1.81,4.19 0.83,0.78 2.25,1.64 4.19,2.53 l 3.64,1.67 c 2.89,1.33 5.03,2.69 6.36,4.08 1.72,1.81 2.58,4.03 2.58,6.7 0,3.91 -1.52,6.97 -4.55,9.16 -2.67,1.92 -5.97,2.86 -9.97,2.86 -2.06,0 -4.37,-0.27 -6.98,-0.86 -0.75,-0.16 -1.44,-0.39 -2.05,-0.64 -0.42,-0.16 -0.64,-0.41 -0.64,-0.77 v -8.42 c 0,-0.56 0.28,-0.83 0.83,-0.83 h 2.36 c 0.53,0.16 0.78,0.38 0.78,0.72 l 1.11,6.25 c -0.03,-0.11 -0.05,-0.17 -0.05,-0.2 l 0.11,0.14 c 1.14,0.59 2.83,0.86 5.05,0.86 2.2,0 4,-0.5 5.45,-1.5 1.61,-1.11 2.39,-2.66 2.39,-4.66 0,-2.81 -1.92,-5.11 -5.78,-6.92 l -3.67,-1.72 c -2.75,-1.28 -4.8,-2.59 -6.16,-3.95 -1.84,-1.83 -2.73,-4 -2.73,-6.5 0,-2.47 0.75,-4.66 2.25,-6.58 1.48,-1.83 3.39,-3.17 5.78,-3.94 1.53,-0.5 3.11,-0.73 4.78,-0.73 2.19,0 4.44,0.25 6.78,0.81 0.64,0.14 1.33,0.33 2.05,0.55 0.45,0.09 0.67,0.34 0.67,0.78 v 8.45 c 0,0.55 -0.28,0.83 -0.83,0.83 z"/>
<rect x="27" y="30.52" width="37.52" height="51.42" stroke="#31859c" stroke-width="2.25" fill="none"/>
<g fill="#6d8838">
<path d="m 89.089555,71.35 c -1.56,1.64 -3.46,2.44 -5.68,2.44 -1.64,0 -2.98,-0.46 -4.02,-1.42 -1.08,-1 -1.62,-2.32 -1.62,-3.96 V 57.69 c 0,0.14 0.04,0.2 0.14,0.2 l -2.9,-0.32 c -0.36,0 -0.54,-0.2 -0.54,-0.6 v -0.92 c 0,-0.4 0.18,-0.6 0.52,-0.6 l 4.78,-0.8 c 0.04,0 0.12,-0.02 0.26,-0.04 h 1.2 c 0.4,0 0.6,0.2 0.6,0.6 v 11.8 c 0,2.22 1.12,3.34 3.36,3.34 1.22,0 2.48,-0.4 3.76,-1.2 0,0 0.02,0.04 0.02,0.12 V 57.69 c 0,0.14 0.04,0.2 0.14,0.2 l -2.88,-0.32 c -0.38,0 -0.56,-0.2 -0.56,-0.6 v -0.92 c 0,-0.4 0.18,-0.6 0.54,-0.6 l 4.74,-0.8 c 0.06,0 0.18,-0.02 0.36,-0.04 h 1.12 c 0.4,0 0.6,0.2 0.6,0.6 v 15.7 c 0,-0.14 -0.08,-0.2 -0.24,-0.2 l 2.9,0.3 c 0.42,0 0.64,0.22 0.64,0.62 v 0.92 c 0,0.36 -0.16,0.56 -0.5,0.6 l -5.98,0.4 c -0.42,0 -0.64,-0.18 -0.68,-0.54 z"/>
<path d="m 108.81956,70.53 c 0.44,0.44 1.38,0.66 2.84,0.66 2.6,0 4.28,-1.38 5.06,-4.18 0.24,-0.86 0.36,-1.8 0.36,-2.8 0,-1.8 -0.34,-3.26 -1.02,-4.36 -0.78,-1.3 -1.98,-1.96 -3.6,-1.96 -1.32,0 -2.54,0.36 -3.66,1.04 0.02,0 0.02,-0.04 0.02,-0.12 z m -2.08,-15.88 c 0.06,0 0.16,-0.02 0.36,-0.04 h 1.1 c 0.42,0 0.62,0.2 0.62,0.6 v 1.48 c 1.48,-1.5 3.26,-2.26 5.36,-2.26 2.3,0 4.12,0.92 5.5,2.74 1.24,1.64 1.84,3.6 1.84,5.9 0,3.06 -1.1,5.64 -3.28,7.74 -1.54,2 -3.82,2.98 -6.9,2.98 -0.84,0 -1.68001,-0.12 -2.52,-0.36 v 7.36 c 0,-0.14 -0.08,-0.2 -0.24,-0.2 l 3.08,0.28 c 0.44,0 0.68,0.2 0.68,0.58 v 1.02 c 0,0.4 -0.22,0.6 -0.64,0.6 h -9.56 c -0.4,0 -0.6,-0.2 -0.6,-0.6 v -1.02 c 0,-0.38 0.22,-0.58 0.62,-0.58 l 2.8,-0.28 c -0.14,0 -0.22,0.06 -0.22,0.2 v -23.1 c 0,0.14 0.06,0.2 0.16,0.2 l -2.88,-0.32 c -0.36,0 -0.54,-0.2 -0.54,-0.6 v -1 c 0.1,-0.34 0.28,-0.52 0.52,-0.52 z"/>
<path d="m 135.17955,57.01 c -1.88,0 -3.1,1.06 -3.66,3.2 -0.18,0.66 -0.3,1.18 -0.34,1.54 h 7.4 c 0.1,-3.16 -1.04,-4.74 -3.4,-4.74 z m -4.04,7.1 c 0.04,1.82 0.52,3.36 1.44,4.58 1.04,1.36 2.52,2.06 4.48,2.06 1.6,0 3.08,-0.44 4.44,-1.28 0.2,-0.12 0.42,-0.12 0.7,-0.02 0.04,0.06 0.1,0.12 0.14,0.16 l 0.62,1.08 c 0.04,0.34 -0.04,0.58 -0.24,0.72 -2.38,1.6 -4.78,2.38 -7.22,2.38 -2.72,0 -4.88,-0.84 -6.46,-2.54 -1.56,-1.66 -2.32,-3.84 -2.32,-6.58 0,-2.78 0.74,-5.14 2.24,-7.04 1.64,-2.14 3.84,-3.2 6.58,-3.2 2.44,0 4.3,0.7 5.58,2.12 1.24,1.36 1.86,3.24 1.86,5.68 0,0.4 -0.02,0.84 -0.08,1.28 0,0.4 -0.2,0.6 -0.6,0.6 z"/>
<path d="m 158.94955,54.43 c 0.46,0 1.02001,0.14 1.68,0.4 0.66,0.28 1.14,0.56 1.44,0.88 0.1,0.06 0.18001,0.16 0.22,0.32 0.04,0.24 0,0.44 -0.12,0.6 l -1.94,2.78 c -0.18,0.24 -0.36,0.36 -0.56,0.36 -0.16,0 -0.28,-0.04 -0.4,-0.14 -0.5,-0.52 -1.06,-0.78 -1.64,-0.78 -0.74,0 -1.41999,0.34 -2,1.02 l -1.15999,1.34 c -0.04,0.06 -0.08,0.14 -0.08,0.2 v 9.54 c 0,-0.12 -0.04,-0.18 -0.13999,-0.2 l 3.36,0.28 c 0.42,0.04 0.62,0.24 0.62,0.6 v 1 c 0,0.4 -0.22,0.6 -0.64,0.6 h -9.86 c -0.42,0 -0.62,-0.2 -0.62,-0.6 v -1 c 0,-0.4 0.2,-0.62 0.64,-0.62 l 2.8,-0.26 c -0.16,0 -0.22,0.06 -0.22,0.2 V 57.69 c 0,0.14 0.04,0.2 0.14,0.2 l -2.88,-0.32 c -0.38,0 -0.56,-0.2 -0.56,-0.6 v -0.92 c 0,-0.4 0.18,-0.6 0.52,-0.6 l 4.78,-0.8 c 0.2,-0.02 0.3,-0.04 0.34,-0.04 h 1.12 c 0.4,0 0.61204,0.200177 0.6,0.6 v 3.32 l 1.42,-2.34 c 1,-1.18 2.03999,-1.76 3.13999,-1.76 z"/>
<path d="m 182.99956,44.81 c 0.47999,0 1.03999,0.02 1.69999,0.1 0.64,0.06 1.28,0.14 1.86001,0.24 0.59999,0.1 1.16,0.2 1.69999,0.32 0.52001,0.12 1.12,0.22 1.76,0.3 0.38,0.08 0.56,0.26 0.56,0.58 v 6.08 c 0,0.4 -0.2,0.6 -0.63999,0.6 h -1.54 c -0.16,0 -0.30001,-0.04 -0.42,-0.12 -0.14,-0.1 -0.2,-0.22 -0.2,-0.36 l -0.8,-4.5 c 0,0.04 0.04,0.06 0.1,0.1 -0.28,-0.06 -0.6,-0.14 -0.96,-0.22 -0.36001,-0.1 -0.72,-0.18 -1.06,-0.26 -0.34,-0.08 -0.72,-0.14 -1.12,-0.18 -0.42,-0.06 -0.78001,-0.08 -1.14,-0.08 -1.72,0 -3.26,0.26 -4.6,0.78 -1.34,0.54 -2.46,1.28 -3.38,2.24 -0.92,0.98 -1.6,2.14 -2.08,3.48 -0.48,1.36 -0.72,2.86 -0.72,4.5 0,1.74 0.24,3.38 0.76,4.92 0.5,1.52 1.22,2.88 2.16,4.04 0.91999,1.16 2.03999,2.06 3.36,2.74 1.3,0.66 2.76,0.98 4.36,0.98 0.32,0 0.68,0 1.04,-0.02 0.38,-0.04 0.76,-0.06 1.2,-0.12 0.41999,-0.06 0.82,-0.12 1.18,-0.2 0.38,-0.06 0.7,-0.18 0.96,-0.32 -0.04,0.04 -0.06,0.06 -0.06,0.08 l 0.8,-4.54 c 0,-0.08 0.06,-0.2 0.18,-0.3 0.12,-0.12 0.26,-0.18 0.44,-0.18 h 1.54 c 0.44,0 0.64,0.2 0.64,0.6 v 6.06 c 0,0.26 -0.16,0.44 -0.48,0.56 -0.5,0.14 -1.02,0.26 -1.58,0.38 -0.54,0.12 -1.12,0.24 -1.74,0.34 -0.6,0.1 -1.28,0.18 -2.04,0.26 -0.76,0.08 -1.58001,0.1 -2.5,0.1 -1.52,0 -2.92,-0.16 -4.24,-0.48 -1.30001,-0.32 -2.52001,-0.8 -3.64,-1.44 -1.12,-0.62 -2.12,-1.36 -2.98,-2.24 -0.88,-0.86 -1.6,-1.82 -2.2,-2.88 -0.58,-1.06 -1.04,-2.22 -1.38,-3.48 -0.32,-1.24 -0.5,-2.54 -0.5,-3.9 0,-1.54 0.2,-2.96 0.58,-4.28 0.38,-1.32 0.92,-2.52 1.64,-3.62 0.7,-1.08 1.54,-2.04 2.5,-2.88 0.98,-0.82 2.02,-1.52 3.18,-2.08 1.14,-0.56 2.4,-0.98 3.72,-1.28 1.34,-0.28 2.7,-0.42 4.08,-0.42 z"/>
<path d="m 204.27956,64.87 c -1.06,0.08 -1.94,0.24 -2.64,0.46 -0.14,0.04 -0.44,0.14 -0.88,0.3 -1.2,0.4 -1.8,1.3 -1.8,2.7 0,1.46 0.72,2.18 2.16,2.18 0.44,0 0.96,-0.1 1.53999,-0.3 0.40001,-0.16 0.96001,-0.4 1.64,-0.76 -0.02,0.02 -0.02,0.06 -0.02,0.12 z m 0.4,6.6 c -1.38,1.56 -3.12,2.32 -5.22,2.32 -2.22,0 -3.74,-0.92 -4.52,-2.76 -0.26,-0.6 -0.38,-1.24 -0.38,-1.92 0,-2.38 1.19999,-4.12 3.59999,-5.24 0.7,-0.32 1.32,-0.54 1.90001,-0.64 1.75999,-0.38 3.16,-0.6 4.22,-0.68 v -2.74 c 0,-1.82 -0.88,-2.72 -2.66,-2.72 -1.1,0 -2.02001,0.18 -2.80001,0.56 0,0 0,0.04 -0.02,0.1 l -0.56,2.88 c 0,0.38 -0.2,0.56 -0.62,0.56 h -1.26 c -0.38,0 -0.58,-0.2 -0.58,-0.58 v -4.44 c 0,-0.26 0.16,-0.46 0.48,-0.58 2.14,-0.78 4.18,-1.16 6.12,-1.16 2.86,0 4.72,0.88 5.6,2.64 0.32,0.66 0.5,1.48 0.5,2.46 v 10.84 c 0,-0.04 -0.04,-0.08 -0.1,-0.12 l 2.52,0.72 c 0.28,0.16 0.44,0.34 0.48,0.52 v 0.8 c -0.14,0.36 -0.32,0.54 -0.54,0.54 l -5.3,0.72 c -0.44,0 -0.64,-0.18 -0.64,-0.52 z"/>
<path d="m 227.24956,54.43 c 0.46,0 1.02,0.14 1.68,0.4 0.66,0.28 1.13999,0.56 1.44,0.88 0.1,0.06 0.18,0.16 0.22,0.32 0.04,0.24 0,0.44 -0.12,0.6 l -1.94,2.78 c -0.18001,0.24 -0.36001,0.36 -0.56,0.36 -0.16,0 -0.28,-0.04 -0.40001,-0.14 -0.5,-0.52 -1.06,-0.78 -1.63999,-0.78 -0.74,0 -1.42,0.34 -2,1.02 l -1.16,1.34 c -0.04,0.06 -0.08,0.14 -0.08,0.2 v 9.54 c 0,-0.12 -0.04,-0.18 -0.14,-0.2 l 3.36,0.28 c 0.42,0.04 0.62,0.24 0.62,0.6 v 1 c 0,0.4 -0.22,0.6 -0.64,0.6 h -9.86 c -0.42,0 -0.62,-0.2 -0.62,-0.6 v -1 c 0,-0.4 0.2,-0.62 0.64,-0.62 l 2.8,-0.26 c -0.16,0 -0.22,0.06 -0.22,0.2 V 57.69 c 0,0.14 0.04,0.2 0.14,0.2 l -2.88,-0.32 c -0.38,0 -0.56,-0.2 -0.56,-0.6 v -0.92 c 0,-0.4 0.18,-0.6 0.52,-0.6 l 4.78,-0.8 c 0.2,-0.02 0.3,-0.04 0.34,-0.04 h 1.12 c 0.4,0 0.61204,0.200177 0.6,0.6 v 3.32 l 1.42,-2.34 c 1,-1.18 2.04,-1.76 3.14,-1.76 z"/>
<path d="m 248.04955,57.71 c -0.16,-0.16 -0.48,-0.3 -0.96,-0.4 -0.74,-0.18 -1.38,-0.26 -1.9,-0.26 -1.78,0 -3.14,0.5 -4.04,1.52 -0.9,1.68 -1.36,3.5 -1.36,5.46 0,1.8 0.28,3.18 0.82,4.16 0.9,1.44 2.18,2.16 3.78,2.16 1.32,0 2.52,-0.34 3.62,-1.04 0.04,-0.04 0.06,-0.02 0.04,0.04 z m 2,-13.58 c 0.1,-0.04 0.2,-0.06 0.28,-0.06 h 1.16 c 0.42,0 0.64,0.2 0.64,0.6 v 26.24 c 0,-0.14 -0.08,-0.2 -0.24,-0.2 l 2.88,0.3 c 0.44,0 0.66,0.22 0.66,0.62 v 0.92 c 0,0.36 -0.18,0.56 -0.54,0.6 l -5.98,0.4 c -0.4,0 -0.62,-0.16 -0.66,-0.54 l -0.08,-1.54 c -1.58,1.56 -3.42,2.32 -5.5,2.32 -2.28,0 -4.1,-0.92 -5.46,-2.76 -1.24,-1.64 -1.84,-3.6 -1.84,-5.86 0,-3.04 1.08,-5.6 3.28,-7.72 1.56,-2.02 3.86,-3.02 6.86,-3.02 0.82,0 1.68,0.12 2.54,0.38 v -7.64 c 0,0.12 0.04,0.2 0.14,0.2 l -3.12,-0.32 c -0.38,0 -0.56,-0.2 -0.56,-0.62 v -0.92 c 0,-0.4 0.18,-0.6 0.54,-0.6 z"/>
</g>
<g fill="none" stroke="#6d8838" stroke-width="1">
<path d="m 260.75023,46.777779 h -0.696 v -7.944 h -2.76 v -0.624 h 6.216 v 0.624 h -2.76 z"/>
<path d="m 270.61379,46.777779 -3.072,-7.824 h -0.048 q 0.024,0.324 0.036,0.756 0.012,0.42 0.012,0.9 v 6.168 h -0.648 v -8.568 h 1.056 l 2.952,7.512 h 0.036 l 2.988,-7.512 h 1.032 v 8.568 h -0.696 v -6.24 q 0,-0.408 0.012,-0.828 0.012,-0.42 0.036,-0.756 h -0.036 l -3.096,7.824 z"/>
</g>
<text x="30" y="141.3" font-family="Sans-serif" font-size="20">Your Name</text>
<text x="30" y="165" font-family="Noto Sans" font-size="15" font-weight="500">ACCOUNT NUMBER</text>
</svg>
