<?xml version="1.0" encoding="UTF-8" standalone="no"?>
<svg
   xmlns:dc="http://purl.org/dc/elements/1.1/"
   xmlns:cc="http://creativecommons.org/ns#"
   xmlns:rdf="http://www.w3.org/1999/02/22-rdf-syntax-ns#"
   xmlns:svg="http://www.w3.org/2000/svg"
   xmlns="http://www.w3.org/2000/svg"
   height="160"
   width="840"
   xml:space="preserve"
   viewBox="0 0 840 160"
   y="0px"
   x="0px"
   id="layer"
   version="1.1"><metadata
   id="metadata31"><rdf:RDF><cc:Work
       rdf:about=""><dc:format>image/svg+xml</dc:format><dc:type
         rdf:resource="http://purl.org/dc/dcmitype/StillImage" /><dc:title></dc:title></cc:Work></rdf:RDF></metadata><defs
   id="defs29"><rect
     id="rect862"
     height="111.91045"
     width="402.27271"
     y="263.14078"
     x="208.69786" /></defs>
<style
   id="style2"
   type="text/css">
	.st0{fill:#AE295E;}
</style>
<polygon
   id="polygon4"
   points="168.3,344.3 113.7,344.3 146.8,402.2 201.5,402.2 "
   class="st0"
   transform="translate(-20,-244)" />
<polygon
   id="polygon6"
   points="113.5,249.9 25.8,402.2 80.3,402.2 140.9,297 "
   class="st0"
   transform="translate(-22,-244)" />




<g
   style="color:#000000;font-style:normal;font-variant:normal;font-weight:normal;font-stretch:normal;font-size:130px;line-height:125%;font-family:'Kunstler Script';-inkscape-font-specification:'Kunstler Script';letter-spacing:0px;word-spacing:0px;clip-rule:nonzero;display:inline;overflow:visible;visibility:visible;opacity:1;isolation:auto;mix-blend-mode:normal;color-interpolation:sRGB;color-interpolation-filters:linearRGB;solid-color:#000000;solid-opacity:1;fill:#37c837;fill-opacity:1;fill-rule:nonzero;stroke:#000000;stroke-width:3;stroke-linecap:butt;stroke-linejoin:miter;stroke-miterlimit:4;stroke-dasharray:none;stroke-dashoffset:0;stroke-opacity:1;color-rendering:auto;image-rendering:auto;shape-rendering:auto;text-rendering:auto;enable-background:accumulate"
   id="text858"
   aria-label="ACQUIRER"><path
     id="path866"
     style="font-style:normal;font-variant:normal;font-weight:normal;font-stretch:normal;font-size:130px;font-family:Roboto;-inkscape-font-specification:Roboto;fill:#37c837;stroke-width:3;stroke-miterlimit:4;stroke-dasharray:none"
     d="m 259.41026,107.69489 h -38.7207 l -8.75977,23.80371 h -12.75878 l 35.7373,-92.421879 h 10.72754 L 280.80186,131.4986 H 268.04308 Z M 224.56163,97.221252 h 31.10352 l -15.23438,-42.08496 h -0.38086 z" /><path
     id="path868"
     style="font-style:normal;font-variant:normal;font-weight:normal;font-stretch:normal;font-size:130px;font-family:Roboto;-inkscape-font-specification:Roboto;fill:#37c837;stroke-width:3;stroke-miterlimit:4;stroke-dasharray:none"
     d="m 358.94151,101.91852 0.12696,0.38086 q 0.2539,13.01269 -9.14063,21.77246 -9.39453,8.75976 -24.81933,8.75976 -15.67872,0 -25.58106,-11.10839 -9.83887,-11.1084 -9.83887,-28.183598 v -16.44043 q 0,-17.075195 9.83887,-28.183594 9.90234,-11.171875 25.58106,-11.171875 15.67871,0 24.94628,8.378907 9.26758,8.315429 9.01368,22.089843 l -0.12696,0.38086 h -11.99707 q 0,-9.711914 -5.71289,-15.361328 -5.71289,-5.649414 -16.12304,-5.649414 -10.47364,0 -16.69434,8.442382 -6.2207,8.442383 -6.2207,20.947266 v 16.567383 q 0,12.631838 6.2207,21.074218 6.2207,8.44238 16.69434,8.44238 10.41015,0 16.12304,-5.58593 5.71289,-5.64942 5.71289,-15.55176 z" /><path
     id="path870"
     style="font-style:normal;font-variant:normal;font-weight:normal;font-stretch:normal;font-size:130px;font-family:Roboto;-inkscape-font-specification:Roboto;fill:#37c837;stroke-width:3;stroke-miterlimit:4;stroke-dasharray:none"
     d="m 445.84093,93.539612 q 0,9.013668 -3.17383,16.694338 -3.17383,7.68066 -8.88672,13.01269 l 15.67871,14.79004 -8.56933,8.18848 -17.51954,-16.31348 q -3.55468,1.45996 -7.42675,2.15821 -3.8086,0.76171 -7.8711,0.76171 -16.18652,0 -26.34277,-11.17187 -10.09277,-11.17188 -10.09277,-28.120118 v -16.44043 q 0,-16.884765 10.09277,-28.120117 10.15625,-11.235352 26.34277,-11.235352 16.75781,0 27.23145,11.235352 10.53711,11.171875 10.53711,28.120117 z M 433.33604,76.972229 q 0,-12.695312 -6.85546,-20.820312 -6.85547,-8.125 -18.40821,-8.125 -10.91797,0 -17.45605,8.125 -6.47461,8.125 -6.47461,20.820312 v 16.567383 q 0,12.822268 6.47461,20.947268 6.53808,8.125 17.45605,8.125 11.61621,0 18.40821,-8.06153 6.85546,-8.125 6.85546,-21.010738 z" /><path
     id="path872"
     style="font-style:normal;font-variant:normal;font-weight:normal;font-stretch:normal;font-size:130px;font-family:Roboto;-inkscape-font-specification:Roboto;fill:#37c837;stroke-width:3;stroke-miterlimit:4;stroke-dasharray:none"
     d="m 532.0421,39.076721 v 62.651369 q 0,15.10742 -9.83887,23.10547 -9.77539,7.99804 -25.58105,7.99804 -15.23438,0 -24.75586,-7.99804 -9.45801,-8.06153 -9.45801,-23.10547 V 39.076721 h 12.50488 v 62.651369 q 0,10.47363 5.9668,15.93262 5.9668,5.3955 15.74219,5.3955 10.2832,0 16.56738,-5.3955 6.34766,-5.45899 6.34766,-15.93262 V 39.076721 Z" /><path
     id="path874"
     style="font-style:normal;font-variant:normal;font-weight:normal;font-stretch:normal;font-size:130px;font-family:Roboto;-inkscape-font-specification:Roboto;fill:#37c837;stroke-width:3;stroke-miterlimit:4;stroke-dasharray:none"
     d="M 565.81163,131.4986 H 553.24327 V 39.076721 h 12.56836 z" /><path
     id="path876"
     style="font-style:normal;font-variant:normal;font-weight:normal;font-stretch:normal;font-size:130px;font-family:Roboto;-inkscape-font-specification:Roboto;fill:#37c837;stroke-width:3;stroke-miterlimit:4;stroke-dasharray:none"
     d="M 601.92979,91.444885 V 131.4986 H 589.42491 V 39.140198 h 33.45215 q 15.1709,0 23.16895,6.728515 7.99804,6.728516 7.99804,19.550782 0,7.109375 -3.74512,12.377929 -3.68164,5.268555 -10.79101,8.378907 7.61719,2.475586 10.91797,8.061523 3.36426,5.522461 3.36426,13.710936 v 8.69629 q 0,4.31641 0.95214,7.74414 0.95215,3.42774 3.30079,5.58594 v 1.52344 h -12.88575 q -2.47558,-2.15821 -3.17382,-6.34766 -0.69825,-4.18945 -0.69825,-8.63281 v -8.44239 q 0,-7.49023 -4.37988,-12.060542 -4.37988,-4.570313 -11.74316,-4.570313 z m 0,-9.838867 h 19.67774 q 10.60058,0 15.23437,-3.999023 4.69727,-4.0625 4.69727,-12.314453 0,-7.807618 -4.57031,-12.060547 -4.50684,-4.316407 -14.0918,-4.316407 h -20.94727 z" /><path
     id="path878"
     style="font-style:normal;font-variant:normal;font-weight:normal;font-stretch:normal;font-size:130px;font-family:Roboto;-inkscape-font-specification:Roboto;fill:#37c837;stroke-width:3;stroke-miterlimit:4;stroke-dasharray:none"
     d="m 730.34288,88.651917 h -42.33887 v 33.071293 h 48.81348 v 9.77539 H 675.49913 V 39.076721 h 60.62012 v 9.838867 h -48.11524 v 29.897461 h 42.33887 z" /><path
     id="path880"
     style="font-style:normal;font-variant:normal;font-weight:normal;font-stretch:normal;font-size:130px;font-family:Roboto;-inkscape-font-specification:Roboto;fill:#37c837;stroke-width:3;stroke-miterlimit:4;stroke-dasharray:none"
     d="M 763.92198,91.444885 V 131.4986 H 751.4171 V 39.140198 h 33.45215 q 15.1709,0 23.16894,6.728515 7.99805,6.728516 7.99805,19.550782 0,7.109375 -3.74512,12.377929 -3.68164,5.268555 -10.79101,8.378907 7.61718,2.475586 10.91797,8.061523 3.36425,5.522461 3.36425,13.710936 v 8.69629 q 0,4.31641 0.95215,7.74414 0.95215,3.42774 3.30078,5.58594 v 1.52344 h -12.88574 q -2.47559,-2.15821 -3.17383,-6.34766 -0.69824,-4.18945 -0.69824,-8.63281 v -8.44239 q 0,-7.49023 -4.37988,-12.060542 -4.37989,-4.570313 -11.74317,-4.570313 z m 0,-9.838867 h 19.67774 q 10.60058,0 15.23437,-3.999023 4.69727,-4.0625 4.69727,-12.314453 0,-7.807618 -4.57032,-12.060547 -4.50683,-4.316407 -14.09179,-4.316407 h -20.94727 z" /></g><text
   style="color:#000000;font-style:normal;font-variant:normal;font-weight:normal;font-stretch:normal;font-size:16px;line-height:125%;font-family:'Kunstler Script';-inkscape-font-specification:'Kunstler Script';letter-spacing:0px;word-spacing:0px;white-space:pre;shape-inside:url(#rect862);clip-rule:nonzero;display:inline;overflow:visible;visibility:visible;opacity:1;isolation:auto;mix-blend-mode:normal;color-interpolation:sRGB;color-interpolation-filters:linearRGB;solid-color:#000000;solid-opacity:1;fill:#0000ff;fill-opacity:1;fill-rule:nonzero;stroke:#000000;stroke-width:1;stroke-linecap:butt;stroke-linejoin:miter;stroke-miterlimit:4;stroke-dasharray:none;stroke-dashoffset:0;stroke-opacity:1;color-rendering:auto;image-rendering:auto;shape-rendering:auto;text-rendering:auto;enable-background:accumulate;"
   id="text860"
   xml:space="preserve" /></svg>
