<?xml version="1.0" encoding="UTF-8" standalone="no"?>
<svg
   xmlns:dc="http://purl.org/dc/elements/1.1/"
   xmlns:cc="http://creativecommons.org/ns#"
   xmlns:rdf="http://www.w3.org/1999/02/22-rdf-syntax-ns#"
   xmlns:svg="http://www.w3.org/2000/svg"
   xmlns="http://www.w3.org/2000/svg"
   id="svg2286"
   version="1.1"
   height="75"
   width="280">
  <g
     style="color:#000000;font-style:normal;font-variant:normal;font-weight:normal;font-stretch:normal;font-size:16px;line-height:125%;font-family:'Kunstler Script';-inkscape-font-specification:'Kunstler Script';letter-spacing:0.34px;word-spacing:0px;clip-rule:nonzero;display:inline;overflow:visible;visibility:visible;opacity:1;isolation:auto;mix-blend-mode:normal;color-interpolation:sRGB;color-interpolation-filters:linearRGB;solid-color:#000000;solid-opacity:1;fill:#ac1d35;fill-opacity:1;fill-rule:nonzero;stroke:#ac1d35;stroke-width:1;stroke-linecap:butt;stroke-linejoin:miter;stroke-miterlimit:4;stroke-dasharray:none;stroke-dashoffset:0;stroke-opacity:1;color-rendering:auto;image-rendering:auto;shape-rendering:auto;text-rendering:auto;enable-background:accumulate"
     id="text858"
     aria-label="MyBank">
    <path
       id="path860"
       style="font-style:italic;font-variant:normal;font-weight:normal;font-stretch:normal;font-size:48px;font-family:'Baskerville Old Face';-inkscape-font-specification:'Baskerville Old Face Italic';fill:#ac1d35;fill-opacity:1;stroke:#ac1d35;stroke-opacity:1"
       d="m 156.14584,22.350174 q -1.33593,0.07031 -2.20312,0.375 -0.86719,0.28125 -1.6875,0.960937 -0.60938,0.492188 -0.98438,1.101563 -0.375,0.585937 -0.65625,1.5 -0.42187,1.21875 -0.75,2.882812 l -3.44531,17.273438 q -0.49219,2.414062 -0.44531,3.585937 0.0469,1.171875 0.63281,1.875 1.05469,1.242188 3.375,1.359375 l -0.11719,0.539063 h -14.97656 l 0.11719,-0.539063 q 1.35937,-0.07031 2.25,-0.375 0.91406,-0.328125 1.6875,-0.984375 0.89062,-0.75 1.38281,-1.898437 0.49219,-1.171875 0.98438,-3.5625 l 4.19531,-20.953125 -17.74219,28.3125 h -0.49219 l -6.42187,-27.890625 -4.10156,20.53125 q -0.49219,2.414062 -0.44532,3.5625 0.0469,1.148437 0.60938,1.898437 0.51562,0.679688 1.28906,0.984375 0.77344,0.304688 2.10938,0.375 l -0.11719,0.539063 h -10.80469 l 0.11719,-0.539063 q 1.33594,-0.07031 2.22656,-0.375 0.89063,-0.304687 1.6875,-0.984375 0.89063,-0.75 1.38281,-1.898437 0.49219,-1.171875 0.98438,-3.5625 l 3.44531,-17.273438 q 0.21094,-1.078125 0.35156,-2.039062 0.21094,-1.734375 -0.0469,-2.53125 -0.35156,-1.101563 -1.26563,-1.617188 -0.91406,-0.539062 -2.60156,-0.632812 l 0.11719,-0.539063 h 10.17187 l 5.13282,25.054688 15.53906,-25.054688 h 9.63281 z" />
    <path
       id="path862"
       style="font-style:italic;font-variant:normal;font-weight:normal;font-stretch:normal;font-size:48px;font-family:'Baskerville Old Face';-inkscape-font-specification:'Baskerville Old Face Italic';fill:#ac1d35;fill-opacity:1;stroke:#ac1d35;stroke-opacity:1"
       d="m 155.33741,33.881424 h 9.07031 l -0.0937,0.492187 q -0.98438,0.140625 -1.45313,0.375 -1.03125,0.515625 -1.24218,1.59375 -0.1875,0.9375 0.28125,3.351563 l 1.94531,10.054687 5.10937,-8.460937 q 1.89844,-3.164063 2.15625,-4.476563 0.21094,-1.054687 -0.25781,-1.664062 -0.44531,-0.632813 -1.54687,-0.773438 l 0.0937,-0.492187 h 6.70312 l -0.0937,0.492187 q -1.07812,0.28125 -1.61719,0.585938 -0.53906,0.304687 -1.10156,0.960937 -0.89062,1.03125 -3.09375,4.617188 l -10.10156,16.5 q -1.80469,2.953125 -2.71875,3.84375 -1.57031,1.476562 -3.51563,1.476562 -1.24218,0 -1.92187,-0.492187 -0.65625,-0.46875 -0.49219,-1.242188 0.11719,-0.609375 0.63281,-0.984375 0.51563,-0.351562 1.24219,-0.351562 0.60938,0 1.33594,0.328125 0.72656,0.304687 0.9375,0.375 0.21094,0.07031 0.51562,0.07031 1.45313,0 2.78907,-2.179687 l 1.07812,-1.78125 q 0.70313,-1.125 0.82031,-1.734375 0.1875,-0.867188 -0.28125,-3.023438 l -2.53125,-11.695312 -0.375,-1.6875 q -0.32812,-1.5 -0.5625,-2.132813 -0.21093,-0.632812 -0.51562,-0.914062 -0.49219,-0.445313 -1.28906,-0.539063 z" />
    <path
       id="path864"
       style="font-style:italic;font-variant:normal;font-weight:normal;font-stretch:normal;font-size:48px;font-family:'Baskerville Old Face';-inkscape-font-specification:'Baskerville Old Face Italic';fill:#ac1d35;fill-opacity:1;stroke:#ac1d35;stroke-opacity:1"
       d="m 172.97428,53.803299 0.11719,-0.539063 q 1.35937,-0.07031 2.25,-0.375 0.91406,-0.328125 1.66406,-0.984375 0.91406,-0.75 1.38281,-1.898437 0.49219,-1.148438 0.98438,-3.5625 l 3.44531,-17.273438 q 0.49219,-2.414062 0.44531,-3.5625 -0.0234,-1.148437 -0.60937,-1.898437 -0.49219,-0.679688 -1.28906,-0.984375 -0.77344,-0.304688 -2.10938,-0.375 l 0.11719,-0.539063 h 15.39844 q 2.34375,0 3.07031,0.04687 2.625,0.210938 4.17187,1.265625 1.33594,0.9375 1.85157,2.460938 0.53906,1.523437 0.16406,3.421875 -0.63281,3.070312 -2.90625,5.039062 -0.84375,0.726563 -1.80469,1.21875 -0.96094,0.46875 -2.71875,1.054688 2.17969,0.375 3.32813,0.820312 1.14843,0.445313 2.01562,1.242188 1.24219,1.21875 1.71094,3.046875 0.46875,1.804687 0.0469,3.914062 -0.42187,2.132813 -1.64062,3.914063 -1.19531,1.757812 -2.92969,2.835937 -1.59375,0.960938 -3.58594,1.335938 -1.96875,0.375 -5.4375,0.375 z m 16.3125,-31.265625 -2.78906,13.921875 h 1.89844 q 1.33593,0 2.8125,-0.1875 1.26562,-0.1875 2.08593,-0.445313 0.82032,-0.257812 1.52344,-0.703125 1.38281,-0.890625 2.29688,-2.273437 0.9375,-1.40625 1.26562,-3.09375 0.35156,-1.78125 0,-3.375 -0.32812,-1.617188 -1.26562,-2.507813 -0.79688,-0.773437 -1.96875,-1.054687 -1.17188,-0.28125 -3.67969,-0.28125 z m -2.92969,14.648437 -1.94531,9.65625 q -0.35156,1.757813 -0.32812,2.835938 0.0469,1.078125 0.46875,1.828125 0.86718,1.570312 3.77343,1.570312 3.77344,0 6.375,-2.0625 2.60157,-2.0625 3.32813,-5.625 0.39844,-2.039062 0.0703,-3.773437 -0.32812,-1.757813 -1.28906,-2.695313 -1.75781,-1.734375 -6.25781,-1.734375 z" />
    <path
       id="path866"
       style="font-style:italic;font-variant:normal;font-weight:normal;font-stretch:normal;font-size:48px;font-family:'Baskerville Old Face';-inkscape-font-specification:'Baskerville Old Face Italic';fill:#ac1d35;fill-opacity:1;stroke:#ac1d35;stroke-opacity:1"
       d="m 225.62678,51.529861 0.35156,0.234375 q -1.33594,2.460938 -4.35937,2.460938 -1.66407,0 -2.60157,-0.820313 -0.60937,-0.539062 -1.125,-1.875 -1.85156,1.40625 -2.71875,1.851563 -1.71093,0.84375 -3.72656,0.84375 -2.57812,0 -3.84375,-1.242188 -1.24219,-1.242187 -0.82031,-3.351562 0.375,-1.945313 1.875,-3.257813 0.86719,-0.726562 1.85156,-1.148437 1.00781,-0.445313 2.83594,-0.890625 2.13281,-0.515625 3.16406,-0.867188 1.05469,-0.351562 1.80469,-0.84375 0.86719,-0.539062 1.28906,-1.265625 0.42188,-0.726562 0.67969,-2.015625 0.5625,-2.742187 -0.21094,-4.007812 -0.35156,-0.585938 -1.03125,-0.9375 -0.65625,-0.351563 -1.45312,-0.351563 -0.96094,0 -1.82813,0.492188 -0.84375,0.492187 -1.38281,1.359375 l -0.86719,1.359375 q -0.67969,1.101562 -1.89844,1.101562 -0.79687,0 -1.24218,-0.515625 -0.42188,-0.539062 -0.25782,-1.335937 0.23438,-1.195313 2.08594,-2.015625 0.98438,-0.421875 2.39063,-0.679688 1.40625,-0.28125 2.69531,-0.28125 1.45312,0 2.95312,0.375 1.5,0.375 2.4375,0.960938 1.33594,0.867187 1.42969,2.25 0.0469,0.703125 -0.28125,2.367187 l -1.73437,8.671875 q -0.44532,2.203125 -0.39844,3 0.0469,1.664063 1.57031,1.664063 0.72656,0 1.19531,-0.257813 0.46875,-0.257812 1.17188,-1.03125 z m -5.88281,-9.234375 q -1.47657,1.054688 -3.16407,1.851563 -1.875,0.914062 -2.625,1.382812 -0.75,0.46875 -1.42968,1.125 -1.38282,1.359375 -1.73438,3.164063 -0.30469,1.546875 0.35156,2.554687 0.65625,1.007813 1.96875,1.007813 1.14844,0 2.29688,-0.703125 1.17187,-0.726563 1.92187,-1.921875 1.03125,-1.570313 1.64063,-4.546875 z" />
    <path
       id="path868"
       style="font-style:italic;font-variant:normal;font-weight:normal;font-stretch:normal;font-size:48px;font-family:'Baskerville Old Face';-inkscape-font-specification:'Baskerville Old Face Italic';fill:#ac1d35;fill-opacity:1;stroke:#ac1d35;stroke-opacity:1"
       d="m 236.72459,33.482986 q 0.0703,1.359375 -0.16406,2.53125 l -0.0703,0.375 q 3.46875,-2.859375 7.47656,-2.859375 3,0 4.54688,1.40625 1.52343,1.382813 1.00781,3.9375 l -1.96875,9.9375 q -0.32813,1.59375 -0.30469,2.34375 0.0469,0.726563 0.49219,1.21875 0.53906,0.632813 2.22656,0.960938 l -0.0937,0.46875 h -10.33594 l 0.0937,-0.46875 q 1.45313,-0.1875 2.10938,-0.515625 0.67969,-0.351563 1.21875,-1.171875 0.375,-0.539063 0.70312,-1.617188 0.32813,-1.101562 0.72657,-3.140625 l 0.98437,-4.96875 q 0.51563,-2.554687 0.58594,-3.75 0.0703,-1.195312 -0.28125,-1.921875 -0.375,-0.820312 -1.28906,-1.265625 -0.91407,-0.46875 -2.13282,-0.46875 -1.3125,0 -2.55468,0.515625 -1.24219,0.515625 -2.08594,1.40625 -0.89063,0.9375 -1.35938,2.132813 -0.44531,1.171875 -0.98437,3.914062 l -0.9375,4.59375 -0.30469,1.734375 q -0.32812,1.59375 -0.30469,2.34375 0.0469,0.726563 0.49219,1.21875 0.53906,0.632813 2.22656,0.960938 l -0.0937,0.46875 h -10.33593 l 0.0937,-0.46875 q 1.45312,-0.1875 2.10937,-0.515625 0.67969,-0.351563 1.21875,-1.171875 0.375,-0.539063 0.70313,-1.617188 0.32812,-1.101562 0.72656,-3.164062 l 1.17187,-5.789063 q 0.46875,-2.414062 0.53907,-3.375 0.0937,-0.984375 -0.1875,-1.59375 -0.25782,-0.65625 -0.77344,-0.9375 -0.49219,-0.304687 -1.54688,-0.375 l 0.0937,-0.46875 z" />
    <path
       id="path870"
       style="font-style:italic;font-variant:normal;font-weight:normal;font-stretch:normal;font-size:48px;font-family:'Baskerville Old Face';-inkscape-font-specification:'Baskerville Old Face Italic';fill:#ac1d35;fill-opacity:1;stroke:#ac1d35;stroke-opacity:1"
       d="m 260.26772,44.334549 5.20312,-4.664063 q 1.59375,-1.476562 2.17969,-2.179687 0.58594,-0.726563 0.75,-1.453125 0.1875,-1.007813 -0.75,-1.40625 -0.42188,-0.1875 -1.61719,-0.257813 l 0.0937,-0.492187 h 9.02344 l -0.0937,0.492187 q -1.71094,0 -2.88281,0.585938 -1.17188,0.585937 -3.25782,2.4375 l -1.14843,1.054687 -3.09375,2.742188 4.6875,6.796875 q 0.58593,0.820312 0.77343,1.054687 l 0.82032,1.078125 q 1.03125,1.265625 1.5,1.734375 0.46875,0.46875 1.14843,0.890625 0.79688,0.46875 2.17969,0.585938 l -0.0937,0.46875 H 264.6974 l 0.0937,-0.46875 q 1.00782,-0.09375 1.45313,-0.328125 0.63281,-0.351563 0.75,-0.984375 0.14062,-0.679688 -0.39844,-1.429688 l -0.375,-0.5625 -4.40625,-6.28125 -1.75781,1.570313 -0.32813,1.710937 -0.32812,1.78125 q -0.32813,1.59375 -0.30469,2.34375 0.0469,0.726563 0.49219,1.21875 0.53906,0.632813 2.22656,0.960938 l -0.0937,0.46875 H 251.3849 l 0.0937,-0.46875 q 1.45313,-0.1875 2.10938,-0.515625 0.67969,-0.351563 1.21875,-1.171875 0.375,-0.539063 0.70312,-1.617188 0.32813,-1.101562 0.72657,-3.164062 l 3.67968,-18.398438 q 0.49219,-2.390625 0.5625,-3.375 0.0703,-0.984375 -0.1875,-1.59375 -0.28125,-0.65625 -0.79687,-0.9375 -0.49219,-0.28125 -1.52344,-0.351562 l 0.0937,-0.492188 6.89063,-0.84375 z" />
  </g>
  <metadata
     id="metadata2290">
    <rdf:RDF>
      <cc:Work
         rdf:about="">
        <dc:format>image/svg+xml</dc:format>
        <dc:type
           rdf:resource="http://purl.org/dc/dcmitype/StillImage" />
        <dc:title></dc:title>
      </cc:Work>
    </rdf:RDF>
  </metadata>
  <defs
     id="defs2258">
    <linearGradient
       id="bankPillar"
       x1="0"
       x2="1">
      <stop
         id="stop2246"
         offset="0"
         stop-color="#606060" />
      <stop
         id="stop2248"
         offset="0.4"
         stop-color="#ffffff" />
      <stop
         id="stop2250"
         offset="0.6"
         stop-color="#ffffff" />
      <stop
         id="stop2252"
         offset="1"
         stop-color="#606060" />
    </linearGradient>
    <filter
       id="bankShaddow"
       y="-0.5"
       x="-0.5"
       height="2"
       width="2">
      <feGaussianBlur
         id="feGaussianBlur2255"
         stdDeviation="2.0" />
    </filter>
  </defs>
  <path
     id="path2260"
     filter="url(#bankShaddow)"
     d="m 8.2,17.1 45.5,-15 45.5,15 v 11.5 h -7.5 v 31.5 h 7.5 v 6 h 5 v 7 H 3.2 v -7 h 5 v -6 h 7.5 V 28.6 H 8.2"
     fill="#a0a0a0" />
  <rect
     id="rect2262"
     fill="#ffffff"
     height="31.5"
     width="76"
     y="27"
     x="13.499989" />
  <path
     id="path2264"
     filter="url(#bankShaddow)"
     d="m 15.3,17.8 h 21.66 v 11 H 26.3 L 28,66 H 17"
     fill="#a0a0a0" />
  <rect
     id="rect2266"
     fill="url(#bankPillar)"
     height="31.5"
     width="11"
     y="27"
     x="13.499989" />
  <path
     id="path2268"
     filter="url(#bankShaddow)"
     d="m 36.96,17.8 h 21.67 v 11 H 47.96 l 1.7,37.2 h -11"
     fill="#a0a0a0" />
  <rect
     id="rect2270"
     fill="url(#bankPillar)"
     height="31.5"
     width="11"
     y="27"
     x="35.160053" />
  <path
     id="path2272"
     filter="url(#bankShaddow)"
     d="M 58.63,17.8 H 80.3 v 11 H 69.63 l 1.7,37.2 h -11"
     fill="#a0a0a0" />
  <rect
     id="rect2274"
     fill="url(#bankPillar)"
     height="31.5"
     width="11"
     y="27"
     x="56.830055" />
  <rect
     id="rect2276"
     fill="url(#bankPillar)"
     height="31.5"
     width="11"
     y="27"
     x="78.500053" />
  <path
     id="path2278"
     stroke-linecap="round"
     d="m 6.5,16 45,-15 45,15"
     fill="#e0e0e0"
     stroke-width="1"
     stroke="#404040" />
  <rect
     id="rect2280"
     fill="#f2f2f2"
     stroke-width="1"
     stroke="#404040"
     height="10"
     width="90"
     y="16.5"
     x="6.4999943" />
  <rect
     id="rect2282"
     fill="#f2f2f2"
     stroke-width="1"
     stroke="#404040"
     height="6"
     width="100"
     y="65"
     x="1.5000027" />
  <rect
     id="rect2284"
     fill="#f2f2f2"
     stroke-width="1"
     stroke="#404040"
     height="6"
     width="90"
     y="59"
     x="6.4999943" />
</svg>
