<?xml version="1.0" encoding="UTF-8" standalone="no"?>
<svg
   xmlns:dc="http://purl.org/dc/elements/1.1/"
   xmlns:cc="http://creativecommons.org/ns#"
   xmlns:rdf="http://www.w3.org/1999/02/22-rdf-syntax-ns#"
   xmlns:svg="http://www.w3.org/2000/svg"
   xmlns="http://www.w3.org/2000/svg"
   width="375"
   height="75"
   version="1.1"
   id="svg2286">
  <metadata
     id="metadata2290">
    <rdf:RDF>
      <cc:Work
         rdf:about="">
        <dc:format>image/svg+xml</dc:format>
        <dc:type
           rdf:resource="http://purl.org/dc/dcmitype/StillImage" />
        <dc:title></dc:title>
      </cc:Work>
    </rdf:RDF>
  </metadata>
  <defs
     id="defs2258">
    <linearGradient
       x2="1"
       x1="0"
       id="bankPillar">
      <stop
         stop-color="#606060"
         offset="0"
         id="stop2246" />
      <stop
         stop-color="#ffffff"
         offset="0.4"
         id="stop2248" />
      <stop
         stop-color="#ffffff"
         offset="0.6"
         id="stop2250" />
      <stop
         stop-color="#606060"
         offset="1"
         id="stop2252" />
    </linearGradient>
    <filter
       width="2"
       height="2"
       x="-0.5"
       y="-0.5"
       id="bankShaddow">
      <feGaussianBlur
         stdDeviation="2.0"
         id="feGaussianBlur2255" />
    </filter>
  </defs>
  <path
     fill="#a0a0a0"
     d="m 8.2,17.1 45.5,-15 45.5,15 v 11.5 h -7.5 v 31.5 h 7.5 v 6 h 5 v 7 H 3.2 v -7 h 5 v -6 h 7.5 V 28.6 H 8.2"
     filter="url(#bankShaddow)"
     id="path2260" />
  <rect
     x="13.499989"
     y="27"
     width="76"
     height="31.5"
     fill="#ffffff"
     id="rect2262" />
  <path
     fill="#a0a0a0"
     d="m 15.3,17.8 h 21.66 v 11 H 26.3 L 28,66 H 17"
     filter="url(#bankShaddow)"
     id="path2264" />
  <rect
     x="13.499989"
     y="27"
     width="11"
     height="31.5"
     fill="url(#bankPillar)"
     id="rect2266" />
  <path
     fill="#a0a0a0"
     d="m 36.96,17.8 h 21.67 v 11 H 47.96 l 1.7,37.2 h -11"
     filter="url(#bankShaddow)"
     id="path2268" />
  <rect
     x="35.160053"
     y="27"
     width="11"
     height="31.5"
     fill="url(#bankPillar)"
     id="rect2270" />
  <path
     fill="#a0a0a0"
     d="M 58.63,17.8 H 80.3 v 11 H 69.63 l 1.7,37.2 h -11"
     filter="url(#bankShaddow)"
     id="path2272" />
  <rect
     x="56.830055"
     y="27"
     width="11"
     height="31.5"
     fill="url(#bankPillar)"
     id="rect2274" />
  <rect
     x="78.500053"
     y="27"
     width="11"
     height="31.5"
     fill="url(#bankPillar)"
     id="rect2276" />
  <path
     stroke="#404040"
     stroke-width="1"
     fill="#e0e0e0"
     d="m 6.5,16 45,-15 45,15"
     stroke-linecap="round"
     id="path2278" />
  <rect
     x="6.4999943"
     y="16.5"
     width="90"
     height="10"
     stroke="#404040"
     stroke-width="1"
     fill="#f2f2f2"
     id="rect2280" />
  <rect
     x="1.5000027"
     y="65"
     width="100"
     height="6"
     stroke="#404040"
     stroke-width="1"
     fill="#f2f2f2"
     id="rect2282" />
  <rect
     x="6.4999943"
     y="59"
     width="90"
     height="6"
     stroke="#404040"
     stroke-width="1"
     fill="#f2f2f2"
     id="rect2284" />
  <g
     style="color:#000000;font-style:normal;font-variant:normal;font-weight:normal;font-stretch:normal;font-size:56px;line-height:125%;font-family:'High Tower Text';-inkscape-font-specification:'High Tower Text';letter-spacing:0px;word-spacing:0px;clip-rule:nonzero;display:inline;overflow:visible;visibility:visible;opacity:1;isolation:auto;mix-blend-mode:normal;color-interpolation:sRGB;color-interpolation-filters:linearRGB;solid-color:#000000;solid-opacity:1;fill:#ce0001;fill-opacity:1;fill-rule:nonzero;stroke:#000000;stroke-width:1;stroke-linecap:butt;stroke-linejoin:miter;stroke-miterlimit:4;stroke-dasharray:none;stroke-dashoffset:0;stroke-opacity:1;color-rendering:auto;image-rendering:auto;shape-rendering:auto;text-rendering:auto;enable-background:accumulate"
     id="text852"
     aria-label="BigBank">
    <g
       aria-label="BIGBANK"
       id="text861"
       style="color:#000000;font-style:normal;font-variant:normal;font-weight:normal;font-stretch:normal;font-size:64px;line-height:125%;font-family:Corbel;-inkscape-font-specification:Corbel;letter-spacing:0px;word-spacing:0px;clip-rule:nonzero;display:inline;overflow:visible;visibility:visible;opacity:1;isolation:auto;mix-blend-mode:normal;color-interpolation:sRGB;color-interpolation-filters:linearRGB;solid-color:#000000;solid-opacity:1;fill:#bdff07;fill-opacity:1;fill-rule:nonzero;stroke:#04009d;stroke-width:1.4;stroke-linecap:butt;stroke-linejoin:miter;stroke-miterlimit:4;stroke-dasharray:none;stroke-dashoffset:0;stroke-opacity:1;color-rendering:auto;image-rendering:auto;shape-rendering:auto;text-rendering:auto;enable-background:accumulate">
      <path
         style="stroke-width:1.4;stroke-miterlimit:4;stroke-dasharray:none;fill:#bdff07;fill-opacity:1"
         d="m 139.01559,38.798023 q 1.9375,0.28125 3.46875,1.03125 1.5625,0.75 2.65625,1.9375 1.125,1.15625 1.71875,2.78125 0.59375,1.59375 0.59375,3.65625 0,1.46875 -0.4375,3.09375 -0.4375,1.59375 -1.46875,3.125 -1,1.5 -2.65625,2.78125 -1.625,1.28125 -4.0625,2.09375 -1.875,0.625 -4.15625,0.875 -2.28125,0.25 -5.46875,0.25 h -10.8125 v -41.8125 h 10.4375 q 1.4375,0 2.59375,0.0625 1.1875,0.03125 2.15625,0.125 1,0.09375 1.84375,0.25 0.84375,0.125 1.59375,0.3125 1.96875,0.53125 3.5625,1.46875 1.625,0.90625 2.75,2.1875 1.125,1.28125 1.71875,2.90625 0.625,1.625 0.625,3.53125 0,1.53125 -0.375,2.9375 -0.34375,1.40625 -1.15625,2.59375 -0.78125,1.1875 -2.0625,2.125 -1.25,0.9375 -3.0625,1.5625 z m -7.78125,-2.09375 q 1.5,0 2.59375,-0.125 1.09375,-0.15625 1.96875,-0.4375 2.34375,-0.78125 3.40625,-2.4375 1.09375,-1.65625 1.09375,-3.90625 0,-2.3125 -1.125,-3.78125 -1.125,-1.46875 -3.53125,-2.1875 -1.1875,-0.34375 -2.75,-0.46875 -1.5625,-0.15625 -3.6875,-0.15625 h -5.71875 v 13.5 z m -7.75,4.59375 v 14.53125 h 6.15625 q 2.1875,0 4.0625,-0.1875 1.875,-0.21875 3.1875,-0.65625 1.4375,-0.46875 2.4375,-1.1875 1,-0.75 1.59375,-1.625 0.625,-0.90625 0.875,-1.90625 0.28125,-1 0.28125,-2.03125 0,-1.1875 -0.28125,-2.21875 -0.28125,-1.0625 -0.9375,-1.875 -0.625,-0.84375 -1.6875,-1.46875 -1.03125,-0.625 -2.59375,-0.96875 -0.9375,-0.21875 -2.15625,-0.3125 -1.1875,-0.09375 -2.96875,-0.09375 z"
         id="path867" />
      <path
         style="stroke-width:1.4;stroke-miterlimit:4;stroke-dasharray:none;fill:#bdff07;fill-opacity:1"
         d="m 156.39059,60.423023 v -41.8125 h 5.09375 v 41.8125 z"
         id="path869" />
      <path
         style="stroke-width:1.4;stroke-miterlimit:4;stroke-dasharray:none;fill:#bdff07;fill-opacity:1"
         d="m 199.48434,43.516773 h -9.53125 v -4.59375 h 14.625 v 20.21875 q -0.65625,0.34375 -1.9375,0.71875 -1.25,0.34375 -2.875,0.65625 -1.625,0.3125 -3.5,0.5 -1.84375,0.1875 -3.65625,0.1875 -5.375,0 -9.5,-1.46875 -4.09375,-1.46875 -6.875,-4.15625 -2.78125,-2.6875 -4.21875,-6.53125 -1.4375,-3.84375 -1.4375,-8.5625 0,-5.125 1.65625,-9.3125 1.6875,-4.1875 4.71875,-7.15625 3.0625,-2.96875 7.28125,-4.5625 4.25,-1.625 9.34375,-1.625 1.375,0 2.75,0.125 1.375,0.09375 2.625,0.3125 1.25,0.1875 2.3125,0.46875 1.0625,0.28125 1.78125,0.59375 v 4.5 q -1.875,-0.625 -4.3125,-1.03125 -2.4375,-0.4375 -4.875,-0.4375 -3.5625,0 -6.8125,1.09375 -3.21875,1.0625 -5.6875,3.25 -2.46875,2.1875 -3.9375,5.5 -1.46875,3.28125 -1.46875,7.71875 0,4.34375 1.1875,7.5 1.21875,3.15625 3.40625,5.21875 2.21875,2.0625 5.34375,3.0625 3.15625,0.96875 7,0.96875 1.78125,0 3.5,-0.1875 1.75,-0.1875 3.09375,-0.53125 z"
         id="path871" />
      <path
         style="stroke-width:1.4;stroke-miterlimit:4;stroke-dasharray:none;fill:#bdff07;fill-opacity:1"
         d="m 235.51559,38.798023 q 1.9375,0.28125 3.46875,1.03125 1.5625,0.75 2.65625,1.9375 1.125,1.15625 1.71875,2.78125 0.59375,1.59375 0.59375,3.65625 0,1.46875 -0.4375,3.09375 -0.4375,1.59375 -1.46875,3.125 -1,1.5 -2.65625,2.78125 -1.625,1.28125 -4.0625,2.09375 -1.875,0.625 -4.15625,0.875 -2.28125,0.25 -5.46875,0.25 h -10.8125 v -41.8125 h 10.4375 q 1.4375,0 2.59375,0.0625 1.1875,0.03125 2.15625,0.125 1,0.09375 1.84375,0.25 0.84375,0.125 1.59375,0.3125 1.96875,0.53125 3.5625,1.46875 1.625,0.90625 2.75,2.1875 1.125,1.28125 1.71875,2.90625 0.625,1.625 0.625,3.53125 0,1.53125 -0.375,2.9375 -0.34375,1.40625 -1.15625,2.59375 -0.78125,1.1875 -2.0625,2.125 -1.25,0.9375 -3.0625,1.5625 z m -7.78125,-2.09375 q 1.5,0 2.59375,-0.125 1.09375,-0.15625 1.96875,-0.4375 2.34375,-0.78125 3.40625,-2.4375 1.09375,-1.65625 1.09375,-3.90625 0,-2.3125 -1.125,-3.78125 -1.125,-1.46875 -3.53125,-2.1875 -1.1875,-0.34375 -2.75,-0.46875 -1.5625,-0.15625 -3.6875,-0.15625 h -5.71875 v 13.5 z m -7.75,4.59375 v 14.53125 h 6.15625 q 2.1875,0 4.0625,-0.1875 1.875,-0.21875 3.1875,-0.65625 1.4375,-0.46875 2.4375,-1.1875 1,-0.75 1.59375,-1.625 0.625,-0.90625 0.875,-1.90625 0.28125,-1 0.28125,-2.03125 0,-1.1875 -0.28125,-2.21875 -0.28125,-1.0625 -0.9375,-1.875 -0.625,-0.84375 -1.6875,-1.46875 -1.03125,-0.625 -2.59375,-0.96875 -0.9375,-0.21875 -2.15625,-0.3125 -1.1875,-0.09375 -2.96875,-0.09375 z"
         id="path873" />
      <path
         style="stroke-width:1.4;stroke-miterlimit:4;stroke-dasharray:none;fill:#bdff07;fill-opacity:1"
         d="m 248.67184,60.423023 17.03125,-41.8125 h 4.40625 l 17.03125,41.8125 h -5.53125 l -5,-12.59375 h -17.46875 l -5,12.59375 z m 19.1875,-35.3125 q -2.78125,7.8125 -5.34375,14.1875 l -1.5625,3.9375 h 13.84375 l -1.5625,-3.9375 q -2.5625,-6.5 -5.25,-14.1875 z"
         id="path875" />
      <path
         style="stroke-width:1.4;stroke-miterlimit:4;stroke-dasharray:none;fill:#bdff07;fill-opacity:1"
         d="m 314.98434,41.923023 q 3.84375,5.53125 7.59375,11.375 h 0.1875 q -0.40625,-6.09375 -0.40625,-12.4375 v -22.25 h 5.09375 v 41.8125 h -5.0625 l -16.40625,-23.3125 q -4.25,-6.09375 -7.59375,-11.375 h -0.1875 q 0.40625,5.71875 0.40625,13.34375 v 21.34375 h -5.09375 v -41.8125 h 5.0625 z"
         id="path877" />
      <path
         style="stroke-width:1.4;stroke-miterlimit:4;stroke-dasharray:none;fill:#bdff07;fill-opacity:1"
         d="m 338.14059,60.423023 v -41.8125 h 5.09375 v 20.65625 h 0.0625 l 19.21875,-20.65625 h 6.28125 l -19.5,20.8125 21,21 h -6.625 l -20.375,-20.46875 h -0.0625 v 20.46875 z"
         id="path879" />
    </g>
    <text
       xml:space="preserve"
       style="color:#000000;font-style:normal;font-variant:normal;font-weight:normal;font-stretch:normal;font-size:16px;line-height:125%;font-family:'Kunstler Script';-inkscape-font-specification:'Kunstler Script';letter-spacing:0px;word-spacing:0px;clip-rule:nonzero;display:inline;overflow:visible;visibility:visible;opacity:1;isolation:auto;mix-blend-mode:normal;color-interpolation:sRGB;color-interpolation-filters:linearRGB;solid-color:#000000;solid-opacity:1;fill:#0000ff;fill-opacity:1;fill-rule:nonzero;stroke:#000000;stroke-width:1;stroke-linecap:butt;stroke-linejoin:miter;stroke-miterlimit:4;stroke-dasharray:none;stroke-dashoffset:0;stroke-opacity:1;color-rendering:auto;image-rendering:auto;shape-rendering:auto;text-rendering:auto;enable-background:accumulate"
       x="571.41095"
       y="368.70862"
       id="text865"><tspan
         id="tspan863"
         x="571.41095"
         y="368.70862">+</tspan></text>
  </g>
  <text
     id="text856"
     y="-31.512062"
     x="364.44385"
     style="color:#000000;font-style:normal;font-variant:normal;font-weight:normal;font-stretch:normal;font-size:56px;line-height:125%;font-family:Alef;-inkscape-font-specification:Alef;letter-spacing:0px;word-spacing:0px;clip-rule:nonzero;display:inline;overflow:visible;visibility:visible;opacity:1;isolation:auto;mix-blend-mode:normal;color-interpolation:sRGB;color-interpolation-filters:linearRGB;solid-color:#000000;solid-opacity:1;fill:#0000ff;fill-opacity:1;fill-rule:nonzero;stroke:#000000;stroke-width:1;stroke-linecap:butt;stroke-linejoin:miter;stroke-miterlimit:4;stroke-dasharray:none;stroke-dashoffset:0;stroke-opacity:1;color-rendering:auto;image-rendering:auto;shape-rendering:auto;text-rendering:auto;enable-background:accumulate"
     xml:space="preserve"><tspan
       y="-31.512062"
       x="364.44385"
       id="tspan854">+</tspan></text>
</svg>
