<?xml version="1.0" encoding="UTF-8" standalone="no"?>
<svg xmlns="http://www.w3.org/2000/svg" width="256" height="46">
<g aria-label="BIGBANK" fill="#bdff07" stroke="#04009d" stroke-width="1.4">
<path d="m 22.671875,22.28125 c 1.291667,0.1875 2.447917,0.53125 3.46875,1.03125 1.041667,0.5 1.927083,1.145833 2.65625,1.9375 0.75,0.770833 1.322917,1.697917 1.71875,2.78125 0.395833,1.0625 0.59375,2.28125 0.59375,3.65625 0,0.979167 -0.145833,2.010417 -0.4375,3.09375 -0.291667,1.0625 -0.78125,2.104167 -1.46875,3.125 -0.666667,1 -1.552083,1.927083 -2.65625,2.78125 -1.083333,0.854167 -2.4375,1.552083 -4.0625,2.09375 -1.25,0.416667 -2.635417,0.708333 -4.15625,0.875 -1.520833,0.166667 -3.35278,0.445697 -5.46875,0.25 H 2.046875 V 2.09375 h 10.4375 c 0.958333,0 1.822917,0.020833 2.59375,0.0625 0.791667,0.020833 1.510417,0.0625 2.15625,0.125 0.666667,0.0625 1.28125,0.1458333 1.84375,0.25 0.5625,0.083333 1.09375,0.1875 1.59375,0.3125 1.3125,0.3541667 2.5,0.84375 3.5625,1.46875 1.083333,0.6041667 2,1.3333333 2.75,2.1875 0.75,0.8541667 1.322917,1.8229167 1.71875,2.90625 0.416667,1.083333 0.625,2.260417 0.625,3.53125 0,1.020833 -0.125,2 -0.375,2.9375 -0.229167,0.9375 -0.614583,1.802083 -1.15625,2.59375 -0.520833,0.791667 -1.208333,1.5 -2.0625,2.125 -0.833333,0.625 -1.854167,1.145833 -3.0625,1.5625 z m -7.78125,-2.09375 c 1,0 1.864583,-0.04167 2.59375,-0.125 0.729167,-0.104167 1.385417,-0.25 1.96875,-0.4375 1.5625,-0.520833 2.697917,-1.333333 3.40625,-2.4375 0.729167,-1.104167 1.09375,-2.40625 1.09375,-3.90625 0,-1.541667 -0.375,-2.802083 -1.125,-3.78125 -0.75,-0.9791667 -1.927083,-1.7083333 -3.53125,-2.1875 -0.791667,-0.2291667 -1.708333,-0.3854167 -2.75,-0.46875 C 15.505208,6.7395833 14.276042,6.6875 12.859375,6.6875 h -5.71875 v 13.5 z m -7.75,4.59375 V 39.3125 h 6.15625 c 1.458333,0 2.8125,-0.0625 4.0625,-0.1875 1.25,-0.145833 2.3125,-0.364583 3.1875,-0.65625 0.958333,-0.3125 1.770833,-0.708333 2.4375,-1.1875 0.666667,-0.5 1.197917,-1.041667 1.59375,-1.625 0.416667,-0.604167 0.708333,-1.239583 0.875,-1.90625 0.1875,-0.666667 0.28125,-1.34375 0.28125,-2.03125 0,-0.791667 -0.09375,-1.53125 -0.28125,-2.21875 -0.1875,-0.708333 -0.5,-1.333333 -0.9375,-1.875 -0.416667,-0.5625 -0.979167,-1.052083 -1.6875,-1.46875 -0.6875,-0.416667 -1.552083,-0.739583 -2.59375,-0.96875 -0.625,-0.145833 -1.34375,-0.25 -2.15625,-0.3125 -0.791667,-0.0625 -1.790491,0.05411 -2.96875,-0.09375 z"/>
<path d="M 40.046875,43.90625 V 2.09375 h 5.09375 v 41.8125 z"/>
<path d="m 83.140625,27 h -9.53125 v -4.59375 h 14.625 V 42.625 c -0.4375,0.229167 -1.083333,0.46875 -1.9375,0.71875 -0.833333,0.229167 -1.791667,0.447917 -2.875,0.65625 -1.083333,0.208333 -2.25,0.375 -3.5,0.5 -1.229167,0.125 -2.447917,0.1875 -3.65625,0.1875 -3.583333,0 -6.75,-0.489583 -9.5,-1.46875 -2.729167,-0.979167 -5.020833,-2.364583 -6.875,-4.15625 -1.854167,-1.791667 -3.260417,-3.96875 -4.21875,-6.53125 -0.958333,-2.5625 -1.4375,-5.416667 -1.4375,-8.5625 0,-3.416667 0.552083,-6.520833 1.65625,-9.3125 1.125,-2.791667 2.697917,-5.1770833 4.71875,-7.15625 2.041667,-1.9791667 4.46875,-3.5 7.28125,-4.5625 2.833333,-1.0833333 5.947917,-1.625 9.34375,-1.625 0.916667,0 1.833333,0.041667 2.75,0.125 0.916667,0.0625 1.791667,0.1666667 2.625,0.3125 0.833333,0.125 1.604167,0.28125 2.3125,0.46875 0.708333,0.1875 1.302083,0.3854167 1.78125,0.59375 v 4.5 c -1.25,-0.4166667 -2.6875,-0.7604167 -4.3125,-1.03125 -1.625,-0.2916667 -3.25,-0.4375 -4.875,-0.4375 -2.375,0 -4.645833,0.3645833 -6.8125,1.09375 -2.145833,0.7083333 -4.041667,1.7916667 -5.6875,3.25 -1.645833,1.458333 -2.958333,3.291667 -3.9375,5.5 -0.979167,2.1875 -1.46875,4.760417 -1.46875,7.71875 0,2.895833 0.395833,5.395833 1.1875,7.5 0.8125,2.104167 1.947917,3.84375 3.40625,5.21875 1.479167,1.375 3.260417,2.395833 5.34375,3.0625 2.104167,0.645833 4.4375,0.96875 7,0.96875 1.1875,0 2.354167,-0.0625 3.5,-0.1875 1.166667,-0.125 2.197917,-0.302083 3.09375,-0.53125 z"/>
<path d="m 119.17188,22.28125 c 1.29166,0.1875 2.44791,0.53125 3.46875,1.03125 1.04166,0.5 1.92708,1.145833 2.65625,1.9375 0.75,0.770833 1.32291,1.697917 1.71875,2.78125 0.39583,1.0625 0.59375,2.28125 0.59375,3.65625 0,0.979167 -0.14584,2.010417 -0.4375,3.09375 -0.29167,1.0625 -0.78125,2.104167 -1.46875,3.125 -0.66667,1 -1.55209,1.927083 -2.65625,2.78125 -1.08334,0.854167 -2.4375,1.552083 -4.0625,2.09375 -1.25,0.416667 -2.63542,0.708333 -4.15625,0.875 -1.52084,0.166667 -3.34375,0.25 -5.46875,0.25 H 98.546875 V 2.09375 h 10.437505 c 0.95833,0 1.82291,0.020833 2.59375,0.0625 0.79166,0.020833 1.51041,0.0625 2.15625,0.125 0.66666,0.0625 1.28125,0.1458333 1.84375,0.25 0.5625,0.083333 1.09375,0.1875 1.59375,0.3125 1.3125,0.3541667 2.5,0.84375 3.5625,1.46875 1.08333,0.6041667 2,1.3333333 2.75,2.1875 0.75,0.8541667 1.32291,1.8229167 1.71875,2.90625 0.41666,1.083333 0.625,2.260417 0.625,3.53125 0,1.020833 -0.125,2 -0.375,2.9375 -0.22917,0.9375 -0.61459,1.802083 -1.15625,2.59375 -0.52084,0.791667 -1.20834,1.5 -2.0625,2.125 -0.83334,0.625 -1.85417,1.145833 -3.0625,1.5625 z m -7.78125,-2.09375 c 1,0 1.86458,-0.04167 2.59375,-0.125 0.72916,-0.104167 1.38541,-0.25 1.96875,-0.4375 1.5625,-0.520833 2.69791,-1.333333 3.40625,-2.4375 0.72916,-1.104167 1.09375,-2.40625 1.09375,-3.90625 0,-1.541667 -0.375,-2.802083 -1.125,-3.78125 -0.75,-0.9791667 -1.92709,-1.7083333 -3.53125,-2.1875 -0.79167,-0.2291667 -1.70834,-0.3854167 -2.75,-0.46875 -1.04167,-0.1041667 -2.27084,-0.15625 -3.6875,-0.15625 h -5.71875 v 13.5 z m -7.75,4.59375 V 39.3125 h 6.15625 c 1.45833,0 2.8125,-0.0625 4.0625,-0.1875 1.25,-0.145833 2.3125,-0.364583 3.1875,-0.65625 0.95833,-0.3125 1.77083,-0.708333 2.4375,-1.1875 0.66666,-0.5 1.19791,-1.041667 1.59375,-1.625 0.41666,-0.604167 0.70833,-1.239583 0.875,-1.90625 0.1875,-0.666667 0.28125,-1.34375 0.28125,-2.03125 0,-0.791667 -0.0937,-1.53125 -0.28125,-2.21875 -0.1875,-0.708333 -0.5,-1.333333 -0.9375,-1.875 -0.41667,-0.5625 -0.97917,-1.052083 -1.6875,-1.46875 -0.6875,-0.416667 -1.55209,-0.739583 -2.59375,-0.96875 -0.625,-0.145833 -1.34375,-0.25 -2.15625,-0.3125 -0.79167,-0.0625 -1.7905,0.05411 -2.96875,-0.09375 z"/>
<path d="m 132.32812,43.90625 17.03125,-41.8125 h 4.40625 l 17.03125,41.8125 h -5.53125 l -5,-12.59375 h -17.46875 l -5,12.59375 z m 19.1875,-35.3125 c -1.85416,5.208333 -3.63541,9.9375 -5.34375,14.1875 l -1.5625,3.9375 h 13.84375 l -1.5625,-3.9375 c -1.70833,-4.333333 -3.45833,-9.0625 -5.25,-14.1875 z"/>
<path d="m 198.64062,25.40625 c 2.5625,3.6875 5.09375,7.479167 7.59375,11.375 h 0.1875 c -0.27083,-4.0625 -0.40625,-8.208333 -0.40625,-12.4375 v -22.25 h 5.09375 v 41.8125 h -5.0625 l -16.40625,-23.3125 c -2.83333,-4.0625 -5.36458,-7.854167 -7.59375,-11.375 h -0.1875 c 0.27084,3.8125 0.40625,8.260417 0.40625,13.34375 v 21.34375 h -5.09375 V 2.09375 h 5.0625 z"/>
<path d="M 221.79687,43.90625 V 2.09375 h 5.09375 V 22.75 h 0.0625 L 246.17187,2.09375 h 6.28126 l -19.50001,20.8125 21.00001,21 h -6.62501 l -20.375,-20.46875 h -0.0625 v 20.46875 z"/>
</g>
</svg>
