<?xml version="1.0" encoding="UTF-8" standalone="no"?>
<svg
   xmlns:dc="http://purl.org/dc/elements/1.1/"
   xmlns:cc="http://creativecommons.org/ns#"
   xmlns:rdf="http://www.w3.org/1999/02/22-rdf-syntax-ns#"
   xmlns:svg="http://www.w3.org/2000/svg"
   xmlns="http://www.w3.org/2000/svg"
   version="1.1"
   id="layer"
   x="0px"
   y="0px"
   viewBox="0 0 680 160"
   xml:space="preserve"
   width="680"
   height="160"><metadata
   id="metadata31"><rdf:RDF><cc:Work
       rdf:about=""><dc:format>image/svg+xml</dc:format><dc:type
         rdf:resource="http://purl.org/dc/dcmitype/StillImage" /><dc:title></dc:title></cc:Work></rdf:RDF></metadata><defs
   id="defs29"><rect
     id="rect885"
     height="37.162804"
     width="317.81854"
     y="76.239525"
     x="157.09465" /><rect
     x="208.69786"
     y="263.14078"
     width="402.27271"
     height="111.91045"
     id="rect862" /></defs>
<style
   type="text/css"
   id="style2">
	.st0{fill:#AE295E;}
</style>






<text
   xml:space="preserve"
   id="text860"
   style="color:#000000;font-style:normal;font-variant:normal;font-weight:normal;font-stretch:normal;font-size:16px;line-height:125%;font-family:'Kunstler Script';-inkscape-font-specification:'Kunstler Script';letter-spacing:0px;word-spacing:0px;white-space:pre;shape-inside:url(#rect862);clip-rule:nonzero;display:inline;overflow:visible;visibility:visible;opacity:1;isolation:auto;mix-blend-mode:normal;color-interpolation:sRGB;color-interpolation-filters:linearRGB;solid-color:#000000;solid-opacity:1;fill:#0000ff;fill-opacity:1;fill-rule:nonzero;stroke:#000000;stroke-width:1;stroke-linecap:butt;stroke-linejoin:miter;stroke-miterlimit:4;stroke-dasharray:none;stroke-dashoffset:0;stroke-opacity:1;color-rendering:auto;image-rendering:auto;shape-rendering:auto;text-rendering:auto;enable-background:accumulate;" /><path
   d="M 89.890262,95.482138 88.177679,155.70146 77.966011,96.329569 34.173538,137.70008 68.935068,88.497074 8.7157414,86.784491 68.087637,76.572822 26.717122,32.780349 75.920132,67.541879 77.632715,7.3225529 87.844384,66.694449 131.63686,25.323933 96.875327,74.526944 157.09465,76.239526 97.722757,86.451195 139.09327,130.24367 Z"
   id="path871"
   style="opacity:0.719355;fill:#ffff07;fill-opacity:1;stroke:#040000;stroke-width:4;stroke-linejoin:round;stroke-miterlimit:4;stroke-dasharray:none;stroke-opacity:1;paint-order:stroke fill markers" /><g
   style="color:#000000;font-style:normal;font-variant:normal;font-weight:normal;font-stretch:normal;font-size:140px;line-height:125%;font-family:Roboto;-inkscape-font-specification:Roboto;letter-spacing:0px;word-spacing:0px;clip-rule:nonzero;display:inline;overflow:visible;visibility:visible;opacity:1;isolation:auto;mix-blend-mode:normal;color-interpolation:sRGB;color-interpolation-filters:linearRGB;solid-color:#000000;solid-opacity:1;fill:#37c837;fill-opacity:1;fill-rule:nonzero;stroke:#000000;stroke-width:3;stroke-linecap:butt;stroke-linejoin:miter;stroke-miterlimit:4;stroke-dasharray:none;stroke-dashoffset:0;stroke-opacity:1;color-rendering:auto;image-rendering:auto;shape-rendering:auto;text-rendering:auto;enable-background:accumulate"
   id="text875"
   aria-label="Hosting"><path
     id="path897"
     style="font-style:normal;font-variant:normal;font-weight:normal;font-stretch:normal;font-size:140px;font-family:Roboto;-inkscape-font-specification:Roboto;fill:#37c837;fill-opacity:1;stroke-width:3;stroke-miterlimit:4;stroke-dasharray:none"
     d="M 266.12823,126.82294 H 252.66144 V 82.867859 h -48.33008 v 43.955081 h -13.4668 V 27.291687 h 13.4668 v 44.980469 h 48.33008 V 27.291687 h 13.46679 z" /><path
     id="path899"
     style="font-style:normal;font-variant:normal;font-weight:normal;font-stretch:normal;font-size:140px;font-family:Roboto;-inkscape-font-specification:Roboto;fill:#37c837;fill-opacity:1;stroke-width:3;stroke-miterlimit:4;stroke-dasharray:none"
     d="m 284.99542,89.156921 q 0,-16.40625 8.88672,-27.001953 8.88672,-10.664062 24.13086,-10.664062 15.38086,0 24.26758,10.595703 8.95508,10.595703 8.95508,27.070312 v 1.503907 q 0,16.542972 -8.88672,27.070312 -8.88672,10.52734 -24.19922,10.52734 -15.3125,0 -24.26758,-10.52734 -8.88672,-10.5957 -8.88672,-27.070312 z m 13.4668,1.503907 q 0,11.757812 4.92187,19.414062 4.99024,7.65625 14.76563,7.65625 9.63867,0 14.62891,-7.65625 4.99023,-7.65625 4.99023,-19.414062 v -1.503907 q 0,-11.621093 -5.05859,-19.345703 -4.99024,-7.724609 -14.69727,-7.724609 -9.63867,0 -14.62891,7.724609 -4.92187,7.72461 -4.92187,19.345703 z" /><path
     id="path901"
     style="font-style:normal;font-variant:normal;font-weight:normal;font-stretch:normal;font-size:140px;font-family:Roboto;-inkscape-font-specification:Roboto;fill:#37c837;fill-opacity:1;stroke-width:3;stroke-miterlimit:4;stroke-dasharray:none"
     d="m 410.70831,107.2038 q 0,-4.44336 -3.41797,-7.314457 -3.34961,-2.871093 -12.7832,-4.990234 -13.4668,-2.939453 -20.30273,-7.929688 -6.76758,-5.058593 -6.76758,-13.740234 0,-9.023437 7.65625,-15.380859 7.65625,-6.357422 19.96094,-6.357422 12.91992,0 20.50781,6.630859 7.65625,6.63086 7.31445,16.132813 l -0.13672,0.410156 H 409.888 q 0,-4.853516 -4.10156,-8.681641 -4.03321,-3.896484 -10.73242,-3.896484 -7.17774,0 -10.66407,3.144531 -3.48632,3.144531 -3.48632,7.587891 0,4.375 3.07617,6.904297 3.07617,2.529297 12.50976,4.511718 14.01367,3.007813 20.84961,8.203125 6.83594,5.126954 6.83594,13.808599 0,9.84375 -7.99805,15.92773 -7.92968,6.08398 -20.78125,6.08398 -14.15039,0 -22.28515,-7.17773 -8.13477,-7.17773 -7.72461,-16.74805 l 0.13672,-0.41015 h 12.85156 q 0.3418,7.17773 5.33203,10.52734 4.99023,3.28125 11.68945,3.28125 7.17774,0 11.21094,-2.87109 4.10156,-2.93946 4.10156,-7.65625 z" /><path
     id="path903"
     style="font-style:normal;font-variant:normal;font-weight:normal;font-stretch:normal;font-size:140px;font-family:Roboto;-inkscape-font-specification:Roboto;fill:#37c837;fill-opacity:1;stroke-width:3;stroke-miterlimit:4;stroke-dasharray:none"
     d="m 458.76495,35.016296 v 17.841797 h 14.01368 v 9.980469 h -14.01368 v 44.912108 q 0,5.19531 2.11914,7.31445 2.1875,2.11915 5.74219,2.11915 1.16211,0 2.5293,-0.27344 1.43555,-0.27344 2.5293,-0.6836 l 1.77734,9.22852 q -1.50391,1.23047 -4.44336,1.98242 -2.87109,0.82031 -5.81055,0.82031 -8.20312,0 -13.05664,-4.92187 -4.85351,-4.99024 -4.85351,-15.58594 V 62.838562 h -11.75782 v -9.980469 h 11.75782 V 35.016296 Z" /><path
     id="path905"
     style="font-style:normal;font-variant:normal;font-weight:normal;font-stretch:normal;font-size:140px;font-family:Roboto;-inkscape-font-specification:Roboto;fill:#37c837;fill-opacity:1;stroke-width:3;stroke-miterlimit:4;stroke-dasharray:none"
     d="M 503.9505,126.82294 H 490.4837 V 52.858093 h 13.4668 z m 0,-92.900394 H 490.4837 V 20.182312 h 13.4668 z" /><path
     id="path907"
     style="font-style:normal;font-variant:normal;font-weight:normal;font-stretch:normal;font-size:140px;font-family:Roboto;-inkscape-font-specification:Roboto;fill:#37c837;fill-opacity:1;stroke-width:3;stroke-miterlimit:4;stroke-dasharray:none"
     d="m 536.69464,52.858093 0.95703,11.00586 q 3.69141,-5.878907 9.22852,-9.091797 5.60547,-3.28125 12.71484,-3.28125 11.96289,0 18.52539,7.041015 6.5625,6.972657 6.5625,21.601563 V 126.82294 H 571.21613 V 80.406921 q 0,-9.77539 -3.89649,-13.876953 -3.82812,-4.101562 -11.75781,-4.101562 -5.81055,0 -10.32227,2.802734 -4.44336,2.802735 -7.10937,7.65625 v 53.93555 h -13.4668 V 52.858093 Z" /><path
     id="path909"
     style="font-style:normal;font-variant:normal;font-weight:normal;font-stretch:normal;font-size:140px;font-family:Roboto;-inkscape-font-specification:Roboto;fill:#37c837;fill-opacity:1;stroke-width:3;stroke-miterlimit:4;stroke-dasharray:none"
     d="m 601.29425,91.207703 q 0,-17.841797 7.79297,-28.779297 7.79297,-10.9375 21.5332,-10.9375 7.04102,0 12.37305,2.871094 5.33203,2.802734 8.88672,8.134765 l 1.64062,-9.638672 h 10.73242 v 74.374997 q 0,14.21875 -8.27148,21.80664 -8.27148,7.65625 -23.85742,7.65625 -5.33203,0 -11.55274,-1.5039 -6.15234,-1.43555 -10.86914,-3.96485 l 3.41797,-10.45898 q 3.62305,2.05078 8.75,3.28125 5.12696,1.29883 10.11719,1.29883 9.84375,0 14.28711,-4.51172 4.51172,-4.44336 4.51172,-13.60352 v -8.33984 q -3.62305,4.64844 -8.68164,7.04102 -5.0586,2.32421 -11.6211,2.32421 -13.60351,0 -21.39648,-9.84375 -7.79297,-9.84375 -7.79297,-25.77148 z m 13.4668,1.435547 q 0,11.14258 4.71679,17.91016 4.7168,6.76757 14.35547,6.76757 6.08399,0 10.18555,-2.73437 4.10156,-2.80274 6.76758,-7.86133 V 72.682312 q -2.59766,-4.716797 -6.76758,-7.451172 -4.16992,-2.802734 -10.04883,-2.802734 -9.63867,0 -14.42383,8.066406 -4.78515,8.066406 -4.78515,20.712891 z" /></g><text
   style="color:#000000;font-style:normal;font-variant:normal;font-weight:normal;font-stretch:normal;font-size:16px;line-height:125%;font-family:'Kunstler Script';-inkscape-font-specification:'Kunstler Script';letter-spacing:0px;word-spacing:0px;white-space:pre;shape-inside:url(#rect885);clip-rule:nonzero;display:inline;overflow:visible;visibility:visible;opacity:1;isolation:auto;mix-blend-mode:normal;color-interpolation:sRGB;color-interpolation-filters:linearRGB;solid-color:#000000;solid-opacity:1;fill:#0000ff;fill-opacity:1;fill-rule:nonzero;stroke:#000000;stroke-width:1;stroke-linecap:butt;stroke-linejoin:miter;stroke-miterlimit:4;stroke-dasharray:none;stroke-dashoffset:0;stroke-opacity:1;color-rendering:auto;image-rendering:auto;shape-rendering:auto;text-rendering:auto;enable-background:accumulate;"
   id="text883"
   xml:space="preserve" /><text
   id="text891"
   y="-100.33727"
   x="1220.1012"
   style="color:#000000;font-style:normal;font-variant:normal;font-weight:normal;font-stretch:normal;font-size:16px;line-height:125%;font-family:sans-serif;-inkscape-font-specification:sans-serif;letter-spacing:0px;word-spacing:0px;clip-rule:nonzero;display:inline;overflow:visible;visibility:visible;opacity:1;isolation:auto;mix-blend-mode:normal;color-interpolation:sRGB;color-interpolation-filters:linearRGB;solid-color:#000000;solid-opacity:1;fill:#0000ff;fill-opacity:1;fill-rule:nonzero;stroke:#000000;stroke-width:1;stroke-linecap:butt;stroke-linejoin:miter;stroke-miterlimit:4;stroke-dasharray:none;stroke-dashoffset:0;stroke-opacity:1;color-rendering:auto;image-rendering:auto;shape-rendering:auto;text-rendering:auto;enable-background:accumulate"
   xml:space="preserve"><tspan
     y="-100.33727"
     x="1220.1012"
     id="tspan889">+</tspan></text><text
   id="text895"
   y="132.44521"
   x="1147.8584"
   style="color:#000000;font-style:normal;font-variant:normal;font-weight:normal;font-stretch:normal;font-size:16px;line-height:125%;font-family:'Kunstler Script';-inkscape-font-specification:'Kunstler Script';letter-spacing:0px;word-spacing:0px;clip-rule:nonzero;display:inline;overflow:visible;visibility:visible;opacity:1;isolation:auto;mix-blend-mode:normal;color-interpolation:sRGB;color-interpolation-filters:linearRGB;solid-color:#000000;solid-opacity:1;fill:#0000ff;fill-opacity:1;fill-rule:nonzero;stroke:#000000;stroke-width:1;stroke-linecap:butt;stroke-linejoin:miter;stroke-miterlimit:4;stroke-dasharray:none;stroke-dashoffset:0;stroke-opacity:1;color-rendering:auto;image-rendering:auto;shape-rendering:auto;text-rendering:auto;enable-background:accumulate"
   xml:space="preserve"><tspan
     y="132.44521"
     x="1147.8584"
     id="tspan893">+</tspan></text></svg>
