<svg width="300" height="180" xmlns="http://www.w3.org/2000/svg">
<defs>
<linearGradient y2="1" x2="1" y1="0" x1="0" id="bankdirectGradient">
<stop offset="0" stop-color="#c9daa7"/>
<stop offset="0.5" stop-color="#ebf1de"/>
<stop offset="1" stop-color="#c9daa7"/>
</linearGradient>
<linearGradient x2="1" x1="0" id="bankPillar">
<stop stop-color="#707070" offset="0"/>
<stop stop-color="#ffffff" offset="0.5"/>
<stop stop-color="#707070" offset="1"/>
</linearGradient>
<filter width="200%" height="200%" x="-50%" y="-50%" id="bankShaddow">
<feGaussianBlur stdDeviation="0.68"/>
</filter>
</defs>
<rect x="0" y="0" width="300" height="180" fill="url(#bankdirectGradient)"/>
<text x="150" y="154.8" font-family="Sans-serif" font-size="26" text-anchor="middle">Luke Skywalker</text>
<text x="226" y="73" font-family="Serif" font-size="28" text-anchor="middle" fill="#558ed5" font-weight="bold">MyBank</text>
<rect x="14" y="14" width="138" height="98" stroke="#000000" stroke-width="1.2" fill="#ffffff"/>
<ellipse cx="83" cy="63" rx="60" ry="40" stroke="#f20707" stroke-width="2" fill="none"/>
<text x="83" y="59" font-family="Sans-serif" font-size="18" text-anchor="middle">BANK</text>
<text x="83" y="77" font-family="Sans-serif" font-size="18" text-anchor="middle">DIRECT</text>
<rect x="25.08" y="29.83" width="25.84" height="10.71" fill="#ffffff"/>
<rect x="25.08" y="29.83" width="3.74" height="10.71" fill="url(#bankPillar)"/>
<rect x="32.44" y="29.83" width="3.74" height="10.71" fill="url(#bankPillar)"/>
<rect x="39.81" y="29.83" width="3.74" height="10.71" fill="url(#bankPillar)"/>
<rect x="47.18" y="29.83" width="3.74" height="10.71" fill="url(#bankPillar)"/>
<path stroke="#404040" stroke-width="0.34" fill="#e0e0e0" d="M 22.7,26.1 L 38,21 53.3,26.1" stroke-linecap="round"/>
<rect x="22.7" y="26.27" width="30.6" height="3.4" stroke="#404040" stroke-width="0.34" fill="#f2f2f2"/>
<rect x="21" y="42.76" width="34" height="2.04" stroke="#404040" stroke-width="0.34" fill="#f2f2f2"/>
<rect x="22.7" y="40.72" width="30.6" height="2.04" stroke="#404040" stroke-width="0.34" fill="#f2f2f2"/>
<rect x="25.08" y="90.04" width="25.84" height="10.71" fill="#ffffff"/>
<rect x="25.08" y="90.04" width="3.74" height="10.71" fill="url(#bankPillar)"/>
<rect x="32.44" y="90.04" width="3.74" height="10.71" fill="url(#bankPillar)"/>
<rect x="39.81" y="90.04" width="3.74" height="10.71" fill="url(#bankPillar)"/>
<rect x="47.18" y="90.04" width="3.74" height="10.71" fill="url(#bankPillar)"/>
<path stroke="#404040" stroke-width="0.34" fill="#e0e0e0" d="M 22.7,86.3 L 38,81.19 53.3,86.3" stroke-linecap="round"/>
<rect x="22.7" y="86.47" width="30.6" height="3.4" stroke="#404040" stroke-width="0.34" fill="#f2f2f2"/>
<rect x="21" y="102.96" width="34" height="2.04" stroke="#404040" stroke-width="0.34" fill="#f2f2f2"/>
<rect x="22.7" y="100.91" width="30.6" height="2.04" stroke="#404040" stroke-width="0.34" fill="#f2f2f2"/>
<rect x="115.08" y="29.83" width="25.84" height="10.71" fill="#ffffff"/>
<rect x="115.08" y="29.83" width="3.74" height="10.71" fill="url(#bankPillar)"/>
<rect x="122.44" y="29.83" width="3.74" height="10.71" fill="url(#bankPillar)"/>
<rect x="129.81" y="29.83" width="3.74" height="10.71" fill="url(#bankPillar)"/>
<rect x="137.18" y="29.83" width="3.74" height="10.71" fill="url(#bankPillar)"/>
<path stroke="#404040" stroke-width="0.34" fill="#e0e0e0" d="M 112.7,26.1 L 128,21 143.3,26.1" stroke-linecap="round"/>
<rect x="112.7" y="26.27" width="30.6" height="3.4" stroke="#404040" stroke-width="0.34" fill="#f2f2f2"/>
<rect x="111" y="42.76" width="34" height="2.04" stroke="#404040" stroke-width="0.34" fill="#f2f2f2"/>
<rect x="112.7" y="40.72" width="30.6" height="2.04" stroke="#404040" stroke-width="0.34" fill="#f2f2f2"/>
<rect x="115.08" y="90.04" width="25.84" height="10.71" fill="#ffffff"/>
<rect x="115.08" y="90.04" width="3.74" height="10.71" fill="url(#bankPillar)"/>
<rect x="122.44" y="90.04" width="3.74" height="10.71" fill="url(#bankPillar)"/>
<rect x="129.81" y="90.04" width="3.74" height="10.71" fill="url(#bankPillar)"/>
<rect x="137.18" y="90.04" width="3.74" height="10.71" fill="url(#bankPillar)"/>
<path stroke="#404040" stroke-width="0.34" fill="#e0e0e0" d="M 112.7,86.3 L 128,81.19 143.3,86.3" stroke-linecap="round"/>
<rect x="112.7" y="86.47" width="30.6" height="3.4" stroke="#404040" stroke-width="0.34" fill="#f2f2f2"/>
<rect x="111" y="102.96" width="34" height="2.04" stroke="#404040" stroke-width="0.34" fill="#f2f2f2"/>
<rect x="112.7" y="100.91" width="30.6" height="2.04" stroke="#404040" stroke-width="0.34" fill="#f2f2f2"/>
</svg>