<svg width="614" height="584" xmlns="http://www.w3.org/2000/svg">
<defs>
<radialGradient id="super" spreadMethod="pad" cx="0.5" cy="0.5" r="1">
<stop stop-color="#ffe100" offset="0"/>
<stop stop-color="#ff005d" offset="1"/>
</radialGradient>
<linearGradient x2="1" x1="0" id="bankPillar">
<stop stop-color="#606060" offset="0"/>
<stop stop-color="#ffffff" offset="0.4"/>
<stop stop-color="#ffffff" offset="0.6"/>
<stop stop-color="#606060" offset="1"/>
</linearGradient>
<filter width="200%" height="200%" x="-50%" y="-50%" id="bankShaddow">
<feGaussianBlur stdDeviation="2.0"/>
</filter>
</defs>
<line x1="555" y1="290" x2="305" y2="290" stroke-width="1" stroke="#0000ff"/>
<line x1="521.5" y1="415" x2="305" y2="290" stroke-width="1" stroke="#0000ff"/>
<line x1="430" y1="506.5" x2="305" y2="290" stroke-width="1" stroke="#0000ff"/>
<line x1="305" y1="540" x2="305" y2="290" stroke-width="1" stroke="#0000ff"/>
<line x1="180" y1="506.5" x2="305" y2="290" stroke-width="1" stroke="#0000ff"/>
<line x1="88.49" y1="415" x2="305" y2="290" stroke-width="1" stroke="#0000ff"/>
<line x1="55" y1="290" x2="305" y2="290" stroke-width="1" stroke="#0000ff"/>
<line x1="88.49" y1="165" x2="305" y2="290" stroke-width="1" stroke="#0000ff"/>
<line x1="179.99" y1="73.49" x2="305" y2="290" stroke-width="1" stroke="#0000ff"/>
<line x1="304.99" y1="40" x2="305" y2="290" stroke-width="1" stroke="#0000ff"/>
<line x1="429.99" y1="73.49" x2="305" y2="290" stroke-width="1" stroke="#0000ff"/>
<line x1="521.5" y1="164.99" x2="305" y2="290" stroke-width="1" stroke="#0000ff"/>
<path fill="#a0a0a0" d="M 513,273 L 558.5,258 604,273 604,284.5 596.5,284.5 596.5,316 604,316 604,322 609,322 609,329 508,329 508,322 513,322 513,316 520.5,316 520.5,284.5 513,284.5" filter="url(#bankShaddow)"/>
<rect x="517" y="281" width="76" height="31.5" fill="#ffffff"/>
<path fill="#a0a0a0" d="M 520.5,273.5 L 542.16,273.5 542.16,284.5 531.5,284.5 531.5,316 520.5,316" filter="url(#bankShaddow)"/>
<rect x="517" y="281" width="11" height="31.5" fill="url(#bankPillar)"/>
<path fill="#a0a0a0" d="M 542.16,273.5 L 563.83,273.5 563.83,284.5 553.16,284.5 553.16,316 542.16,316" filter="url(#bankShaddow)"/>
<rect x="538.66" y="281" width="11" height="31.5" fill="url(#bankPillar)"/>
<path fill="#a0a0a0" d="M 563.83,273.5 L 585.5,273.5 585.5,284.5 574.83,284.5 574.83,316 563.83,316" filter="url(#bankShaddow)"/>
<rect x="560.33" y="281" width="11" height="31.5" fill="url(#bankPillar)"/>
<rect x="581.99" y="281" width="11" height="31.5" fill="url(#bankPillar)"/>
<path stroke="#404040" stroke-width="1" fill="#e0e0e0" d="M 510,270 L 555,255 600,270" stroke-linecap="round"/>
<rect x="510" y="270.5" width="90" height="10" stroke="#404040" stroke-width="1" fill="#f2f2f2"/>
<rect x="505" y="319" width="100" height="6" stroke="#404040" stroke-width="1" fill="#f2f2f2"/>
<rect x="510" y="313" width="90" height="6" stroke="#404040" stroke-width="1" fill="#f2f2f2"/>
<path fill="#a0a0a0" d="M 479.5,398 L 525,383 570.5,398 570.5,409.5 563,409.5 563,441 570.5,441 570.5,447 575.5,447 575.5,454 474.5,454 474.5,447 479.5,447 479.5,441 487,441 487,409.5 479.5,409.5" filter="url(#bankShaddow)"/>
<rect x="483.5" y="406" width="76" height="31.5" fill="#ffffff"/>
<path fill="#a0a0a0" d="M 487,398.5 L 508.67,398.5 508.67,409.5 498,409.5 498,441 487,441" filter="url(#bankShaddow)"/>
<rect x="483.5" y="406" width="11" height="31.5" fill="url(#bankPillar)"/>
<path fill="#a0a0a0" d="M 508.67,398.5 L 530.33,398.5 530.33,409.5 519.67,409.5 519.67,441 508.67,441" filter="url(#bankShaddow)"/>
<rect x="505.17" y="406" width="11" height="31.5" fill="url(#bankPillar)"/>
<path fill="#a0a0a0" d="M 530.33,398.5 L 552,398.5 552,409.5 541.33,409.5 541.33,441 530.33,441" filter="url(#bankShaddow)"/>
<rect x="526.83" y="406" width="11" height="31.5" fill="url(#bankPillar)"/>
<rect x="548.5" y="406" width="11" height="31.5" fill="url(#bankPillar)"/>
<path stroke="#404040" stroke-width="1" fill="#e0e0e0" d="M 476.5,395 L 521.5,380 566.5,395" stroke-linecap="round"/>
<rect x="476.5" y="395.5" width="90" height="10" stroke="#404040" stroke-width="1" fill="#f2f2f2"/>
<rect x="471.5" y="444" width="100" height="6" stroke="#404040" stroke-width="1" fill="#f2f2f2"/>
<rect x="476.5" y="438" width="90" height="6" stroke="#404040" stroke-width="1" fill="#f2f2f2"/>
<path fill="#a0a0a0" d="M 388,489.5 L 433.5,474.5 479,489.5 479,501 471.5,501 471.5,532.5 479,532.5 479,538.5 484,538.5 484,545.5 383,545.5 383,538.5 388,538.5 388,532.5 395.5,532.5 395.5,501 388,501" filter="url(#bankShaddow)"/>
<rect x="392" y="497.5" width="76" height="31.5" fill="#ffffff"/>
<path fill="#a0a0a0" d="M 395.5,490 L 417.16,490 417.16,501 406.5,501 406.5,532.5 395.5,532.5" filter="url(#bankShaddow)"/>
<rect x="392" y="497.5" width="11" height="31.5" fill="url(#bankPillar)"/>
<path fill="#a0a0a0" d="M 417.16,490 L 438.83,490 438.83,501 428.16,501 428.16,532.5 417.16,532.5" filter="url(#bankShaddow)"/>
<rect x="413.66" y="497.5" width="11" height="31.5" fill="url(#bankPillar)"/>
<path fill="#a0a0a0" d="M 438.83,490 L 460.5,490 460.5,501 449.83,501 449.83,532.5 438.83,532.5" filter="url(#bankShaddow)"/>
<rect x="435.33" y="497.5" width="11" height="31.5" fill="url(#bankPillar)"/>
<rect x="457" y="497.5" width="11" height="31.5" fill="url(#bankPillar)"/>
<path stroke="#404040" stroke-width="1" fill="#e0e0e0" d="M 385,486.5 L 430,471.5 475,486.5" stroke-linecap="round"/>
<rect x="385" y="487" width="90" height="10" stroke="#404040" stroke-width="1" fill="#f2f2f2"/>
<rect x="380" y="535.5" width="100" height="6" stroke="#404040" stroke-width="1" fill="#f2f2f2"/>
<rect x="385" y="529.5" width="90" height="6" stroke="#404040" stroke-width="1" fill="#f2f2f2"/>
<path fill="#a0a0a0" d="M 263,523 L 308.5,508 354,523 354,534.5 346.5,534.5 346.5,566 354,566 354,572 359,572 359,579 258,579 258,572 263,572 263,566 270.5,566 270.5,534.5 263,534.5" filter="url(#bankShaddow)"/>
<rect x="267" y="531" width="76" height="31.5" fill="#ffffff"/>
<path fill="#a0a0a0" d="M 270.5,523.5 L 292.16,523.5 292.16,534.5 281.5,534.5 281.5,566 270.5,566" filter="url(#bankShaddow)"/>
<rect x="267" y="531" width="11" height="31.5" fill="url(#bankPillar)"/>
<path fill="#a0a0a0" d="M 292.16,523.5 L 313.83,523.5 313.83,534.5 303.16,534.5 303.16,566 292.16,566" filter="url(#bankShaddow)"/>
<rect x="288.66" y="531" width="11" height="31.5" fill="url(#bankPillar)"/>
<path fill="#a0a0a0" d="M 313.83,523.5 L 335.5,523.5 335.5,534.5 324.83,534.5 324.83,566 313.83,566" filter="url(#bankShaddow)"/>
<rect x="310.33" y="531" width="11" height="31.5" fill="url(#bankPillar)"/>
<rect x="332" y="531" width="11" height="31.5" fill="url(#bankPillar)"/>
<path stroke="#404040" stroke-width="1" fill="#e0e0e0" d="M 260,520 L 305,505 350,520" stroke-linecap="round"/>
<rect x="260" y="520.5" width="90" height="10" stroke="#404040" stroke-width="1" fill="#f2f2f2"/>
<rect x="255" y="569" width="100" height="6" stroke="#404040" stroke-width="1" fill="#f2f2f2"/>
<rect x="260" y="563" width="90" height="6" stroke="#404040" stroke-width="1" fill="#f2f2f2"/>
<path fill="#a0a0a0" d="M 138,489.5 L 183.5,474.5 229,489.5 229,501 221.5,501 221.5,532.5 229,532.5 229,538.5 234,538.5 234,545.5 133,545.5 133,538.5 138,538.5 138,532.5 145.5,532.5 145.5,501 138,501" filter="url(#bankShaddow)"/>
<rect x="142" y="497.5" width="76" height="31.5" fill="#ffffff"/>
<path fill="#a0a0a0" d="M 145.5,490 L 167.16,490 167.16,501 156.5,501 156.5,532.5 145.5,532.5" filter="url(#bankShaddow)"/>
<rect x="142" y="497.5" width="11" height="31.5" fill="url(#bankPillar)"/>
<path fill="#a0a0a0" d="M 167.16,490 L 188.83,490 188.83,501 178.16,501 178.16,532.5 167.16,532.5" filter="url(#bankShaddow)"/>
<rect x="163.66" y="497.5" width="11" height="31.5" fill="url(#bankPillar)"/>
<path fill="#a0a0a0" d="M 188.83,490 L 210.5,490 210.5,501 199.83,501 199.83,532.5 188.83,532.5" filter="url(#bankShaddow)"/>
<rect x="185.33" y="497.5" width="11" height="31.5" fill="url(#bankPillar)"/>
<rect x="207" y="497.5" width="11" height="31.5" fill="url(#bankPillar)"/>
<path stroke="#404040" stroke-width="1" fill="#e0e0e0" d="M 135,486.5 L 180,471.5 225,486.5" stroke-linecap="round"/>
<rect x="135" y="487" width="90" height="10" stroke="#404040" stroke-width="1" fill="#f2f2f2"/>
<rect x="130" y="535.5" width="100" height="6" stroke="#404040" stroke-width="1" fill="#f2f2f2"/>
<rect x="135" y="529.5" width="90" height="6" stroke="#404040" stroke-width="1" fill="#f2f2f2"/>
<path fill="#a0a0a0" d="M 46.49,398 L 91.99,383 137.49,398 137.49,409.5 129.99,409.5 129.99,441 137.49,441 137.49,447 142.49,447 142.49,454 41.49,454 41.49,447 46.49,447 46.49,441 53.99,441 53.99,409.5 46.49,409.5" filter="url(#bankShaddow)"/>
<rect x="50.49" y="406" width="76" height="31.5" fill="#ffffff"/>
<path fill="#a0a0a0" d="M 53.99,398.5 L 75.66,398.5 75.66,409.5 64.99,409.5 64.99,441 53.99,441" filter="url(#bankShaddow)"/>
<rect x="50.49" y="406" width="11" height="31.5" fill="url(#bankPillar)"/>
<path fill="#a0a0a0" d="M 75.66,398.5 L 97.32,398.5 97.32,409.5 86.66,409.5 86.66,441 75.66,441" filter="url(#bankShaddow)"/>
<rect x="72.16" y="406" width="11" height="31.5" fill="url(#bankPillar)"/>
<path fill="#a0a0a0" d="M 97.32,398.5 L 118.99,398.5 118.99,409.5 108.32,409.5 108.32,441 97.32,441" filter="url(#bankShaddow)"/>
<rect x="93.82" y="406" width="11" height="31.5" fill="url(#bankPillar)"/>
<rect x="115.49" y="406" width="11" height="31.5" fill="url(#bankPillar)"/>
<path stroke="#404040" stroke-width="1" fill="#e0e0e0" d="M 43.49,395 L 88.49,380 133.49,395" stroke-linecap="round"/>
<rect x="43.49" y="395.5" width="90" height="10" stroke="#404040" stroke-width="1" fill="#f2f2f2"/>
<rect x="38.49" y="444" width="100" height="6" stroke="#404040" stroke-width="1" fill="#f2f2f2"/>
<rect x="43.49" y="438" width="90" height="6" stroke="#404040" stroke-width="1" fill="#f2f2f2"/>
<path fill="#a0a0a0" d="M 13,273 L 58.5,258 104,273 104,284.5 96.5,284.5 96.5,316 104,316 104,322 109,322 109,329 8,329 8,322 13,322 13,316 20.5,316 20.5,284.5 13,284.5" filter="url(#bankShaddow)"/>
<rect x="17" y="281" width="76" height="31.5" fill="#ffffff"/>
<path fill="#a0a0a0" d="M 20.5,273.5 L 42.16,273.5 42.16,284.5 31.5,284.5 31.5,316 20.5,316" filter="url(#bankShaddow)"/>
<rect x="17" y="281" width="11" height="31.5" fill="url(#bankPillar)"/>
<path fill="#a0a0a0" d="M 42.16,273.5 L 63.83,273.5 63.83,284.5 53.16,284.5 53.16,316 42.16,316" filter="url(#bankShaddow)"/>
<rect x="38.66" y="281" width="11" height="31.5" fill="url(#bankPillar)"/>
<path fill="#a0a0a0" d="M 63.83,273.5 L 85.5,273.5 85.5,284.5 74.83,284.5 74.83,316 63.83,316" filter="url(#bankShaddow)"/>
<rect x="60.33" y="281" width="11" height="31.5" fill="url(#bankPillar)"/>
<rect x="82" y="281" width="11" height="31.5" fill="url(#bankPillar)"/>
<path stroke="#404040" stroke-width="1" fill="#e0e0e0" d="M 10,270 L 55,255 100,270" stroke-linecap="round"/>
<rect x="10" y="270.5" width="90" height="10" stroke="#404040" stroke-width="1" fill="#f2f2f2"/>
<rect x="5" y="319" width="100" height="6" stroke="#404040" stroke-width="1" fill="#f2f2f2"/>
<rect x="10" y="313" width="90" height="6" stroke="#404040" stroke-width="1" fill="#f2f2f2"/>
<path fill="#a0a0a0" d="M 46.49,148 L 91.99,133 137.49,148 137.49,159.5 129.99,159.5 129.99,191 137.49,191 137.49,197 142.49,197 142.49,204 41.49,204 41.49,197 46.49,197 46.49,191 53.99,191 53.99,159.5 46.49,159.5" filter="url(#bankShaddow)"/>
<rect x="50.49" y="156" width="76" height="31.5" fill="#ffffff"/>
<path fill="#a0a0a0" d="M 53.99,148.5 L 75.66,148.5 75.66,159.5 64.99,159.5 64.99,191 53.99,191" filter="url(#bankShaddow)"/>
<rect x="50.49" y="156" width="11" height="31.5" fill="url(#bankPillar)"/>
<path fill="#a0a0a0" d="M 75.66,148.5 L 97.32,148.5 97.32,159.5 86.66,159.5 86.66,191 75.66,191" filter="url(#bankShaddow)"/>
<rect x="72.16" y="156" width="11" height="31.5" fill="url(#bankPillar)"/>
<path fill="#a0a0a0" d="M 97.32,148.5 L 118.99,148.5 118.99,159.5 108.32,159.5 108.32,191 97.32,191" filter="url(#bankShaddow)"/>
<rect x="93.82" y="156" width="11" height="31.5" fill="url(#bankPillar)"/>
<rect x="115.49" y="156" width="11" height="31.5" fill="url(#bankPillar)"/>
<path stroke="#404040" stroke-width="1" fill="#e0e0e0" d="M 43.49,145 L 88.49,130 133.49,145" stroke-linecap="round"/>
<rect x="43.49" y="145.5" width="90" height="10" stroke="#404040" stroke-width="1" fill="#f2f2f2"/>
<rect x="38.49" y="194" width="100" height="6" stroke="#404040" stroke-width="1" fill="#f2f2f2"/>
<rect x="43.49" y="188" width="90" height="6" stroke="#404040" stroke-width="1" fill="#f2f2f2"/>
<path fill="#a0a0a0" d="M 137.99,56.49 L 183.49,41.49 228.99,56.49 228.99,67.99 221.49,67.99 221.49,99.49 228.99,99.49 228.99,105.49 233.99,105.49 233.99,112.49 132.99,112.49 132.99,105.49 137.99,105.49 137.99,99.49 145.49,99.49 145.49,67.99 137.99,67.99" filter="url(#bankShaddow)"/>
<rect x="141.99" y="64.49" width="76" height="31.5" fill="#ffffff"/>
<path fill="#a0a0a0" d="M 145.49,56.99 L 167.16,56.99 167.16,67.99 156.49,67.99 156.49,99.49 145.49,99.49" filter="url(#bankShaddow)"/>
<rect x="141.99" y="64.49" width="11" height="31.5" fill="url(#bankPillar)"/>
<path fill="#a0a0a0" d="M 167.16,56.99 L 188.83,56.99 188.83,67.99 178.16,67.99 178.16,99.49 167.16,99.49" filter="url(#bankShaddow)"/>
<rect x="163.66" y="64.49" width="11" height="31.5" fill="url(#bankPillar)"/>
<path fill="#a0a0a0" d="M 188.83,56.99 L 210.49,56.99 210.49,67.99 199.83,67.99 199.83,99.49 188.83,99.49" filter="url(#bankShaddow)"/>
<rect x="185.33" y="64.49" width="11" height="31.5" fill="url(#bankPillar)"/>
<rect x="206.99" y="64.49" width="11" height="31.5" fill="url(#bankPillar)"/>
<path stroke="#404040" stroke-width="1" fill="#e0e0e0" d="M 134.99,53.49 L 179.99,38.49 224.99,53.49" stroke-linecap="round"/>
<rect x="134.99" y="53.99" width="90" height="10" stroke="#404040" stroke-width="1" fill="#f2f2f2"/>
<rect x="129.99" y="102.49" width="100" height="6" stroke="#404040" stroke-width="1" fill="#f2f2f2"/>
<rect x="134.99" y="96.49" width="90" height="6" stroke="#404040" stroke-width="1" fill="#f2f2f2"/>
<path fill="#a0a0a0" d="M 262.99,23 L 308.49,8 353.99,23 353.99,34.5 346.49,34.5 346.49,66 353.99,66 353.99,72 358.99,72 358.99,79 257.99,79 257.99,72 262.99,72 262.99,66 270.49,66 270.49,34.5 262.99,34.5" filter="url(#bankShaddow)"/>
<rect x="266.99" y="31" width="76" height="31.5" fill="#ffffff"/>
<path fill="#a0a0a0" d="M 270.49,23.5 L 292.16,23.5 292.16,34.5 281.49,34.5 281.49,66 270.49,66" filter="url(#bankShaddow)"/>
<rect x="266.99" y="31" width="11" height="31.5" fill="url(#bankPillar)"/>
<path fill="#a0a0a0" d="M 292.16,23.5 L 313.83,23.5 313.83,34.5 303.16,34.5 303.16,66 292.16,66" filter="url(#bankShaddow)"/>
<rect x="288.66" y="31" width="11" height="31.5" fill="url(#bankPillar)"/>
<path fill="#a0a0a0" d="M 313.83,23.5 L 335.49,23.5 335.49,34.5 324.83,34.5 324.83,66 313.83,66" filter="url(#bankShaddow)"/>
<rect x="310.33" y="31" width="11" height="31.5" fill="url(#bankPillar)"/>
<rect x="332" y="31" width="11" height="31.5" fill="url(#bankPillar)"/>
<path stroke="#404040" stroke-width="1" fill="#e0e0e0" d="M 259.99,20 L 304.99,5 349.99,20" stroke-linecap="round"/>
<rect x="259.99" y="20.5" width="90" height="10" stroke="#404040" stroke-width="1" fill="#f2f2f2"/>
<rect x="254.99" y="69" width="100" height="6" stroke="#404040" stroke-width="1" fill="#f2f2f2"/>
<rect x="259.99" y="63" width="90" height="6" stroke="#404040" stroke-width="1" fill="#f2f2f2"/>
<path fill="#a0a0a0" d="M 387.99,56.49 L 433.49,41.49 478.99,56.49 478.99,67.99 471.49,67.99 471.49,99.49 478.99,99.49 478.99,105.49 483.99,105.49 483.99,112.49 382.99,112.49 382.99,105.49 387.99,105.49 387.99,99.49 395.49,99.49 395.49,67.99 387.99,67.99" filter="url(#bankShaddow)"/>
<rect x="391.99" y="64.49" width="76" height="31.5" fill="#ffffff"/>
<path fill="#a0a0a0" d="M 395.49,56.99 L 417.16,56.99 417.16,67.99 406.49,67.99 406.49,99.49 395.49,99.49" filter="url(#bankShaddow)"/>
<rect x="391.99" y="64.49" width="11" height="31.5" fill="url(#bankPillar)"/>
<path fill="#a0a0a0" d="M 417.16,56.99 L 438.83,56.99 438.83,67.99 428.16,67.99 428.16,99.49 417.16,99.49" filter="url(#bankShaddow)"/>
<rect x="413.66" y="64.49" width="11" height="31.5" fill="url(#bankPillar)"/>
<path fill="#a0a0a0" d="M 438.83,56.99 L 460.49,56.99 460.49,67.99 449.83,67.99 449.83,99.49 438.83,99.49" filter="url(#bankShaddow)"/>
<rect x="435.33" y="64.49" width="11" height="31.5" fill="url(#bankPillar)"/>
<rect x="456.99" y="64.49" width="11" height="31.5" fill="url(#bankPillar)"/>
<path stroke="#404040" stroke-width="1" fill="#e0e0e0" d="M 384.99,53.49 L 429.99,38.49 474.99,53.49" stroke-linecap="round"/>
<rect x="384.99" y="53.99" width="90" height="10" stroke="#404040" stroke-width="1" fill="#f2f2f2"/>
<rect x="379.99" y="102.49" width="100" height="6" stroke="#404040" stroke-width="1" fill="#f2f2f2"/>
<rect x="384.99" y="96.49" width="90" height="6" stroke="#404040" stroke-width="1" fill="#f2f2f2"/>
<path fill="#a0a0a0" d="M 479.5,147.99 L 525,132.99 570.5,147.99 570.5,159.49 563,159.49 563,190.99 570.5,190.99 570.5,196.99 575.5,196.99 575.5,203.99 474.5,203.99 474.5,196.99 479.5,196.99 479.5,190.99 487,190.99 487,159.49 479.5,159.49" filter="url(#bankShaddow)"/>
<rect x="483.5" y="155.99" width="76" height="31.5" fill="#ffffff"/>
<path fill="#a0a0a0" d="M 487,148.49 L 508.67,148.49 508.67,159.49 498,159.49 498,190.99 487,190.99" filter="url(#bankShaddow)"/>
<rect x="483.5" y="155.99" width="11" height="31.5" fill="url(#bankPillar)"/>
<path fill="#a0a0a0" d="M 508.67,148.49 L 530.33,148.49 530.33,159.49 519.67,159.49 519.67,190.99 508.67,190.99" filter="url(#bankShaddow)"/>
<rect x="505.17" y="155.99" width="11" height="31.5" fill="url(#bankPillar)"/>
<path fill="#a0a0a0" d="M 530.33,148.49 L 552,148.49 552,159.49 541.33,159.49 541.33,190.99 530.33,190.99" filter="url(#bankShaddow)"/>
<rect x="526.83" y="155.99" width="11" height="31.5" fill="url(#bankPillar)"/>
<rect x="548.5" y="155.99" width="11" height="31.5" fill="url(#bankPillar)"/>
<path stroke="#404040" stroke-width="1" fill="#e0e0e0" d="M 476.5,144.99 L 521.5,129.99 566.5,144.99" stroke-linecap="round"/>
<rect x="476.5" y="145.49" width="90" height="10" stroke="#404040" stroke-width="1" fill="#f2f2f2"/>
<rect x="471.5" y="193.99" width="100" height="6" stroke="#404040" stroke-width="1" fill="#f2f2f2"/>
<rect x="476.5" y="187.99" width="90" height="6" stroke="#404040" stroke-width="1" fill="#f2f2f2"/>
<circle cx="309.75" cy="294.75" r="100.5" fill="#a0a0a0" filter="url(#bankShaddow)"/>
<circle cx="305" cy="290" r="100" stroke="#404040" stroke-width="1" fill="url(#super)"/>
<text x="309" y="274" font-family="Sans-serif" font-size="34" text-anchor="middle">
<tspan>Super</tspan>
<tspan x="309" dy="1.2em">Provider</tspan>
</text>
</svg>
