<svg width="300" height="180" xmlns="http://www.w3.org/2000/svg">
<defs>
  <linearGradient id="supercardGradient" x1="0" y1="0" x2="1" y2="1">
  <stop stop-color="#ffb115" offset="0"/>
  <stop stop-color="#ffff00" offset="0.5"/>
  <stop stop-color="#ffb115" offset="1"/>
  </linearGradient>
</defs>
<rect x="0" y="0" width="300" height="180" fill="url(#supercardGradient)"/>
<path fill="#9e0a11" d="M 52.88,47.89 C 52.32,47.89 52.05,47.67 52.05,47.22 L 50.94,40.97 C 50.94,41.03 50.96,41.08 51.02,41.08 49.49,40.42 47.85,40.08 46.07,40.08 44.3,40.08 42.77,40.56 41.52,41.5 40.19,42.5 39.52,43.86 39.52,45.53 39.52,47.19 40.13,48.58 41.32,49.72 42.16,50.5 43.57,51.36 45.52,52.25 L 49.16,53.92 C 52.05,55.25 54.19,56.61 55.52,58 57.24,59.81 58.1,62.03 58.1,64.69 58.1,68.61 56.57,71.67 53.55,73.86 50.88,75.78 47.57,76.72 43.57,76.72 41.52,76.72 39.21,76.44 36.6,75.86 35.85,75.69 35.16,75.47 34.55,75.22 34.13,75.06 33.91,74.81 33.91,74.44 L 33.91,66.03 C 33.91,65.47 34.19,65.19 34.74,65.19 L 37.1,65.19 C 37.63,65.36 37.88,65.58 37.88,65.92 L 38.99,72.17 C 38.96,72.06 38.94,72 38.94,71.97 L 39.05,72.11 C 40.19,72.69 41.88,72.97 44.1,72.97 46.3,72.97 48.1,72.47 49.55,71.47 51.16,70.36 51.94,68.81 51.94,66.81 51.94,64 50.02,61.69 46.16,59.89 L 42.49,58.17 C 39.74,56.89 37.69,55.58 36.32,54.22 34.49,52.39 33.6,50.22 33.6,47.72 33.6,45.25 34.35,43.06 35.85,41.14 37.32,39.31 39.24,37.97 41.63,37.19 43.16,36.69 44.74,36.47 46.41,36.47 48.6,36.47 50.85,36.72 53.19,37.28 53.82,37.42 54.52,37.61 55.24,37.83 55.69,37.92 55.91,38.17 55.91,38.61 L 55.91,47.06 C 55.91,47.61 55.63,47.89 55.07,47.89 L 52.88,47.89 z"/>
<rect x="27.07" y="30.47" width="37.52" height="51.42" stroke="#31859c" stroke-width="2.25" fill="none"/>
<path fill="#6d8838" d="M 88.97,71.58 C 87.41,73.22 85.51,74.02 83.29,74.02 81.65,74.02 80.31,73.56 79.27,72.6 78.19,71.6 77.65,70.28 77.65,68.64 L 77.65,57.92 C 77.65,58.06 77.69,58.12 77.79,58.12 L 74.89,57.8 C 74.53,57.8 74.35,57.6 74.35,57.2 L 74.35,56.28 C 74.35,55.88 74.53,55.68 74.87,55.68 L 79.65,54.88 C 79.69,54.88 79.77,54.86 79.91,54.84 L 81.11,54.84 C 81.51,54.84 81.71,55.04 81.71,55.44 L 81.71,67.24 C 81.71,69.46 82.83,70.58 85.07,70.58 86.29,70.58 87.55,70.18 88.83,69.38 88.83,69.38 88.85,69.42 88.85,69.5 L 88.85,57.92 C 88.85,58.06 88.89,58.12 88.99,58.12 L 86.11,57.8 C 85.73,57.8 85.55,57.6 85.55,57.2 L 85.55,56.28 C 85.55,55.88 85.73,55.68 86.09,55.68 L 90.83,54.88 C 90.89,54.88 91.01,54.86 91.19,54.84 L 92.31,54.84 C 92.71,54.84 92.91,55.04 92.91,55.44 L 92.91,71.14 C 92.91,71 92.83,70.94 92.67,70.94 L 95.57,71.24 C 95.99,71.24 96.21,71.46 96.21,71.86 L 96.21,72.78 C 96.21,73.14 96.05,73.34 95.71,73.38 L 89.73,73.78 C 89.31,73.78 89.09,73.6 89.05,73.24 L 88.97,71.58 z"/>
<path fill="#6d8838" d="M 108.7,70.76 C 109.14,71.2 110.08,71.42 111.54,71.42 114.14,71.42 115.82,70.04 116.6,67.24 116.84,66.38 116.96,65.44 116.96,64.44 116.96,62.64 116.62,61.18 115.94,60.08 115.16,58.78 113.96,58.12 112.34,58.12 111.02,58.12 109.8,58.48 108.68,59.16 108.7,59.16 108.7,59.12 108.7,59.04 L 108.7,70.76 z M 106.62,54.88 C 106.68,54.88 106.78,54.86 106.98,54.84 L 108.08,54.84 C 108.5,54.84 108.7,55.04 108.7,55.44 L 108.7,56.92 C 110.18,55.42 111.96,54.66 114.06,54.66 116.36,54.66 118.18,55.58 119.56,57.4 120.8,59.04 121.4,61 121.4,63.3 121.4,66.36 120.3,68.94 118.12,71.04 116.58,73.04 114.3,74.02 111.22,74.02 110.38,74.02 109.54,73.9 108.7,73.66 L 108.7,81.02 C 108.7,80.88 108.62,80.82 108.46,80.82 L 111.54,81.1 C 111.98,81.1 112.22,81.3 112.22,81.68 L 112.22,82.7 C 112.22,83.1 112,83.3 111.58,83.3 L 102.02,83.3 C 101.62,83.3 101.42,83.1 101.42,82.7 L 101.42,81.68 C 101.42,81.3 101.64,81.1 102.04,81.1 L 104.84,80.82 C 104.7,80.82 104.62,80.88 104.62,81.02 L 104.62,57.92 C 104.62,58.06 104.68,58.12 104.78,58.12 L 101.9,57.8 C 101.54,57.8 101.36,57.6 101.36,57.2 L 101.36,56.2 C 101.46,55.86 101.64,55.68 101.88,55.68 L 106.62,54.88 z"/>
<path fill="#6d8838" d="M 135.06,57.24 C 133.18,57.24 131.96,58.3 131.4,60.44 131.22,61.1 131.1,61.62 131.06,61.98 L 138.46,61.98 C 138.56,58.82 137.42,57.24 135.06,57.24 z M 131.02,64.34 C 131.06,66.16 131.54,67.7 132.46,68.92 133.5,70.28 134.98,70.98 136.94,70.98 138.54,70.98 140.02,70.54 141.38,69.7 141.58,69.58 141.8,69.58 142.08,69.68 142.12,69.74 142.18,69.8 142.22,69.84 L 142.84,70.92 C 142.88,71.26 142.8,71.5 142.6,71.64 140.22,73.24 137.82,74.02 135.38,74.02 132.66,74.02 130.5,73.18 128.92,71.48 127.36,69.82 126.6,67.64 126.6,64.9 126.6,62.12 127.34,59.76 128.84,57.86 130.48,55.72 132.68,54.66 135.42,54.66 137.86,54.66 139.72,55.36 141,56.78 142.24,58.14 142.86,60.02 142.86,62.46 142.86,62.86 142.84,63.3 142.78,63.74 142.78,64.14 142.58,64.34 142.18,64.34 L 131.02,64.34 z"/>
<path fill="#6d8838" d="M 158.83,54.66 C 159.29,54.66 159.85,54.8 160.51,55.06 161.17,55.34 161.65,55.62 161.95,55.94 162.05,56 162.13,56.1 162.17,56.26 162.21,56.5 162.17,56.7 162.05,56.86 L 160.11,59.64 C 159.93,59.88 159.75,60 159.55,60 159.39,60 159.27,59.96 159.15,59.86 158.65,59.34 158.09,59.08 157.51,59.08 156.77,59.08 156.09,59.42 155.51,60.1 L 154.35,61.44 C 154.31,61.5 154.27,61.58 154.27,61.64 L 154.27,71.18 C 154.27,71.06 154.23,71 154.13,70.98 L 157.49,71.26 C 157.91,71.3 158.11,71.5 158.11,71.86 L 158.11,72.86 C 158.11,73.26 157.89,73.46 157.47,73.46 L 147.61,73.46 C 147.19,73.46 146.99,73.26 146.99,72.86 L 146.99,71.86 C 146.99,71.46 147.19,71.24 147.63,71.24 L 150.43,70.98 C 150.27,70.98 150.21,71.04 150.21,71.18 L 150.21,57.92 C 150.21,58.06 150.25,58.12 150.35,58.12 L 147.47,57.8 C 147.09,57.8 146.91,57.6 146.91,57.2 L 146.91,56.28 C 146.91,55.88 147.09,55.68 147.43,55.68 L 152.21,54.88 C 152.41,54.86 152.51,54.84 152.55,54.84 L 153.67,54.84 C 154.07,54.84 154.27,55.04 154.27,55.44 L 154.27,58.76 155.69,56.42 C 156.69,55.24 157.73,54.66 158.83,54.66 z"/>
<path fill="#6d8838" d="M 182.87,45.04 C 183.35,45.04 183.91,45.06 184.57,45.14 185.21,45.2 185.85,45.28 186.43,45.38 187.03,45.48 187.59,45.58 188.13,45.7 188.65,45.82 189.25,45.92 189.89,46 190.27,46.08 190.45,46.26 190.45,46.58 L 190.45,52.66 C 190.45,53.06 190.25,53.26 189.81,53.26 L 188.27,53.26 C 188.11,53.26 187.97,53.22 187.85,53.14 187.71,53.04 187.65,52.92 187.65,52.78 L 186.85,48.28 C 186.85,48.32 186.89,48.34 186.95,48.38 186.67,48.32 186.35,48.24 185.99,48.16 185.63,48.06 185.27,47.98 184.93,47.9 184.59,47.82 184.21,47.76 183.81,47.72 183.39,47.66 183.03,47.64 182.67,47.64 180.95,47.64 179.41,47.9 178.07,48.42 176.73,48.96 175.61,49.7 174.69,50.66 173.77,51.64 173.09,52.8 172.61,54.14 172.13,55.5 171.89,57 171.89,58.64 171.89,60.38 172.13,62.02 172.65,63.56 173.15,65.08 173.87,66.44 174.81,67.6 175.73,68.76 176.85,69.66 178.17,70.34 179.47,71 180.93,71.32 182.53,71.32 182.85,71.32 183.21,71.32 183.57,71.3 183.95,71.26 184.33,71.24 184.77,71.18 185.19,71.12 185.59,71.06 185.95,70.98 186.33,70.92 186.65,70.8 186.91,70.66 186.87,70.7 186.85,70.72 186.85,70.74 L 187.65,66.2 C 187.65,66.12 187.71,66 187.83,65.9 187.95,65.78 188.09,65.72 188.27,65.72 L 189.81,65.72 C 190.25,65.72 190.45,65.92 190.45,66.32 L 190.45,72.38 C 190.45,72.64 190.29,72.82 189.97,72.94 189.47,73.08 188.95,73.2 188.39,73.32 187.85,73.44 187.27,73.56 186.65,73.66 186.05,73.76 185.37,73.84 184.61,73.92 183.85,74 183.03,74.02 182.11,74.02 180.59,74.02 179.19,73.86 177.87,73.54 176.57,73.22 175.35,72.74 174.23,72.1 173.11,71.48 172.11,70.74 171.25,69.86 170.37,69 169.65,68.04 169.05,66.98 168.47,65.92 168.01,64.76 167.67,63.5 167.35,62.26 167.17,60.96 167.17,59.6 167.17,58.06 167.37,56.64 167.75,55.32 168.13,54 168.67,52.8 169.39,51.7 170.09,50.62 170.93,49.66 171.89,48.82 172.87,48 173.91,47.3 175.07,46.74 176.21,46.18 177.47,45.76 178.79,45.46 180.13,45.18 181.49,45.04 182.87,45.04 z"/>
<path fill="#6d8838" d="M 204.16,65.1 C 203.1,65.18 202.22,65.34 201.52,65.56 201.38,65.6 201.08,65.7 200.64,65.86 199.44,66.26 198.84,67.16 198.84,68.56 198.84,70.02 199.56,70.74 201,70.74 201.44,70.74 201.96,70.64 202.54,70.44 202.94,70.28 203.5,70.04 204.18,69.68 204.16,69.7 204.16,69.74 204.16,69.8 L 204.16,65.1 z M 204.56,71.7 C 203.18,73.26 201.44,74.02 199.34,74.02 197.12,74.02 195.6,73.1 194.82,71.26 194.56,70.66 194.44,70.02 194.44,69.34 194.44,66.96 195.64,65.22 198.04,64.1 198.74,63.78 199.36,63.56 199.94,63.46 201.7,63.08 203.1,62.86 204.16,62.78 L 204.16,60.04 C 204.16,58.22 203.28,57.32 201.5,57.32 200.4,57.32 199.48,57.5 198.7,57.88 198.7,57.88 198.7,57.92 198.68,57.98 L 198.12,60.86 C 198.12,61.24 197.92,61.42 197.5,61.42 L 196.24,61.42 C 195.86,61.42 195.66,61.22 195.66,60.84 L 195.66,56.4 C 195.66,56.14 195.82,55.94 196.14,55.82 198.28,55.04 200.32,54.66 202.26,54.66 205.12,54.66 206.98,55.54 207.86,57.3 208.18,57.96 208.36,58.78 208.36,59.76 L 208.36,70.6 C 208.36,70.56 208.32,70.52 208.26,70.48 L 210.78,71.2 C 211.06,71.36 211.22,71.54 211.26,71.72 L 211.26,72.52 C 211.12,72.88 210.94,73.06 210.72,73.06 L 205.42,73.78 C 204.98,73.78 204.78,73.6 204.78,73.26 L 204.56,71.7 z"/>
<path fill="#6d8838" d="M 227.13,54.66 C 227.59,54.66 228.15,54.8 228.81,55.06 229.47,55.34 229.95,55.62 230.25,55.94 230.35,56 230.43,56.1 230.47,56.26 230.51,56.5 230.47,56.7 230.35,56.86 L 228.41,59.64 C 228.23,59.88 228.05,60 227.85,60 227.69,60 227.57,59.96 227.45,59.86 226.95,59.34 226.39,59.08 225.81,59.08 225.07,59.08 224.39,59.42 223.81,60.1 L 222.65,61.44 C 222.61,61.5 222.57,61.58 222.57,61.64 L 222.57,71.18 C 222.57,71.06 222.53,71 222.43,70.98 L 225.79,71.26 C 226.21,71.3 226.41,71.5 226.41,71.86 L 226.41,72.86 C 226.41,73.26 226.19,73.46 225.77,73.46 L 215.91,73.46 C 215.49,73.46 215.29,73.26 215.29,72.86 L 215.29,71.86 C 215.29,71.46 215.49,71.24 215.93,71.24 L 218.73,70.98 C 218.57,70.98 218.51,71.04 218.51,71.18 L 218.51,57.92 C 218.51,58.06 218.55,58.12 218.65,58.12 L 215.77,57.8 C 215.39,57.8 215.21,57.6 215.21,57.2 L 215.21,56.28 C 215.21,55.88 215.39,55.68 215.73,55.68 L 220.51,54.88 C 220.71,54.86 220.81,54.84 220.85,54.84 L 221.97,54.84 C 222.37,54.84 222.57,55.04 222.57,55.44 L 222.57,58.76 223.99,56.42 C 224.99,55.24 226.03,54.66 227.13,54.66 z"/>
<path fill="#6d8838" d="M 247.93,57.94 C 247.77,57.78 247.45,57.64 246.97,57.54 246.23,57.36 245.59,57.28 245.07,57.28 243.29,57.28 241.93,57.78 241.03,58.8 240.13,60.48 239.67,62.3 239.67,64.26 239.67,66.06 239.95,67.44 240.49,68.42 241.39,69.86 242.67,70.58 244.27,70.58 245.59,70.58 246.79,70.24 247.89,69.54 247.93,69.5 247.95,69.52 247.93,69.58 L 247.93,57.94 z M 249.93,44.36 C 250.03,44.32 250.13,44.3 250.21,44.3 L 251.37,44.3 C 251.79,44.3 252.01,44.5 252.01,44.9 L 252.01,71.14 C 252.01,71 251.93,70.94 251.77,70.94 L 254.65,71.24 C 255.09,71.24 255.31,71.46 255.31,71.86 L 255.31,72.78 C 255.31,73.14 255.13,73.34 254.77,73.38 L 248.79,73.78 C 248.39,73.78 248.17,73.62 248.13,73.24 L 248.05,71.7 C 246.47,73.26 244.63,74.02 242.55,74.02 240.27,74.02 238.45,73.1 237.09,71.26 235.85,69.62 235.25,67.66 235.25,65.4 235.25,62.36 236.33,59.8 238.53,57.68 240.09,55.66 242.39,54.66 245.39,54.66 246.21,54.66 247.07,54.78 247.93,55.04 L 247.93,47.4 C 247.93,47.52 247.97,47.6 248.07,47.6 L 244.95,47.28 C 244.57,47.28 244.39,47.08 244.39,46.66 L 244.39,45.74 C 244.39,45.34 244.57,45.14 244.93,45.14 L 249.93,44.36 z"/>
<text x="258.36" y="47.75" font-family="Sans-serif" font-size="12" text-anchor="start" font-weight="bold" fill="#6d8838" letter-spacing="2">TM</text>
<text x="30" y="141.3" font-family="Sans-serif" font-size="20">Your Name</text>
<text x="30" y="165" font-family="Noto Sans" font-size="15" font-weight="500">ACCOUNT NUMBER</text>
</svg>