<svg width="300" height="180" xmlns="http://www.w3.org/2000/svg">
<defs>
  <linearGradient id="supercardGradient" x1="0" y1="0" x2="1" y2="1">
  <stop stop-color="#ffb115" offset="0"/>
  <stop stop-color="#ffff00" offset="0.5"/>
  <stop stop-color="#ffb115" offset="1"/>
  </linearGradient>
</defs>
<rect x="0" y="0" width="300" height="180" fill="url(#supercardGradient)"/>
<text x="30" y="136.8" font-family="Sans-serif" font-size="20">Luke Skywalker</text>
<text x="30" y="158.8" font-family="Noto Sans" font-size="15" font-weight="500">1234 1234 1234 1234</text>
<path fill="#9e0a11" d="M 46.3,43.94 C 45.75,43.94 45.47,43.72 45.47,43.27 L 44.36,37.02 C 44.36,37.08 44.38,37.13 44.44,37.13 42.91,36.47 41.27,36.13 39.5,36.13 37.72,36.13 36.19,36.61 34.94,37.55 33.61,38.55 32.94,39.91 32.94,41.58 32.94,43.25 33.55,44.63 34.75,45.77 35.58,46.55 37,47.41 38.94,48.3 L 42.58,49.97 C 45.47,51.3 47.61,52.66 48.94,54.05 50.66,55.86 51.52,58.08 51.52,60.75 51.52,64.66 50,67.72 46.97,69.91 44.3,71.83 41,72.77 37,72.77 34.94,72.77 32.63,72.5 30.02,71.91 29.27,71.75 28.58,71.52 27.97,71.27 27.55,71.11 27.33,70.86 27.33,70.5 L 27.33,62.08 C 27.33,61.52 27.61,61.25 28.16,61.25 L 30.52,61.25 C 31.05,61.41 31.3,61.63 31.3,61.97 L 32.41,68.22 C 32.38,68.11 32.36,68.05 32.36,68.02 L 32.47,68.16 C 33.61,68.75 35.3,69.02 37.52,69.02 39.72,69.02 41.52,68.52 42.97,67.52 44.58,66.41 45.36,64.86 45.36,62.86 45.36,60.05 43.44,57.75 39.58,55.94 L 35.91,54.22 C 33.16,52.94 31.11,51.63 29.75,50.27 27.91,48.44 27.02,46.27 27.02,43.77 27.02,41.3 27.77,39.11 29.27,37.19 30.75,35.36 32.66,34.02 35.05,33.25 36.58,32.75 38.16,32.52 39.83,32.52 42.02,32.52 44.27,32.77 46.61,33.33 47.25,33.47 47.94,33.66 48.66,33.88 49.11,33.97 49.33,34.22 49.33,34.66 L 49.33,43.11 C 49.33,43.66 49.05,43.94 48.5,43.94 L 46.3,43.94 z"/>
<rect x="20.5" y="26.52" width="37.52" height="51.42" stroke="#31859c" stroke-width="2.25" fill="none"/>
<path fill="#6d8838" d="M 82.39,67.35 C 80.83,68.99 78.93,69.79 76.71,69.79 75.07,69.79 73.73,69.33 72.69,68.37 71.61,67.37 71.07,66.05 71.07,64.41 L 71.07,53.69 C 71.07,53.83 71.11,53.89 71.21,53.89 L 68.31,53.57 C 67.95,53.57 67.77,53.37 67.77,52.97 L 67.77,52.05 C 67.77,51.65 67.95,51.45 68.29,51.45 L 73.07,50.65 C 73.11,50.65 73.19,50.63 73.33,50.61 L 74.53,50.61 C 74.93,50.61 75.13,50.81 75.13,51.21 L 75.13,63.01 C 75.13,65.23 76.25,66.35 78.49,66.35 79.71,66.35 80.97,65.95 82.25,65.15 82.25,65.15 82.27,65.19 82.27,65.27 L 82.27,53.69 C 82.27,53.83 82.31,53.89 82.41,53.89 L 79.53,53.57 C 79.15,53.57 78.97,53.37 78.97,52.97 L 78.97,52.05 C 78.97,51.65 79.15,51.45 79.51,51.45 L 84.25,50.65 C 84.31,50.65 84.43,50.63 84.61,50.61 L 85.73,50.61 C 86.13,50.61 86.33,50.81 86.33,51.21 L 86.33,66.91 C 86.33,66.77 86.25,66.71 86.09,66.71 L 88.99,67.01 C 89.41,67.01 89.63,67.23 89.63,67.63 L 89.63,68.55 C 89.63,68.91 89.47,69.11 89.13,69.15 L 83.15,69.55 C 82.73,69.55 82.51,69.37 82.47,69.01 L 82.39,67.35 z"/>
<path fill="#6d8838" d="M 102.12,66.53 C 102.56,66.97 103.5,67.19 104.96,67.19 107.56,67.19 109.24,65.81 110.02,63.01 110.26,62.15 110.38,61.21 110.38,60.21 110.38,58.41 110.04,56.95 109.36,55.85 108.58,54.55 107.38,53.89 105.76,53.89 104.44,53.89 103.22,54.25 102.1,54.93 102.12,54.93 102.12,54.89 102.12,54.81 L 102.12,66.53 z M 100.04,50.65 C 100.1,50.65 100.2,50.63 100.4,50.61 L 101.5,50.61 C 101.92,50.61 102.12,50.81 102.12,51.21 L 102.12,52.69 C 103.6,51.19 105.38,50.43 107.48,50.43 109.78,50.43 111.6,51.35 112.98,53.17 114.22,54.81 114.82,56.77 114.82,59.07 114.82,62.13 113.72,64.71 111.54,66.81 110,68.81 107.72,69.79 104.64,69.79 103.8,69.79 102.96,69.67 102.12,69.43 L 102.12,76.79 C 102.12,76.65 102.04,76.59 101.88,76.59 L 104.96,76.87 C 105.4,76.87 105.64,77.07 105.64,77.45 L 105.64,78.47 C 105.64,78.87 105.42,79.07 105,79.07 L 95.44,79.07 C 95.04,79.07 94.84,78.87 94.84,78.47 L 94.84,77.45 C 94.84,77.07 95.06,76.87 95.46,76.87 L 98.26,76.59 C 98.12,76.59 98.04,76.65 98.04,76.79 L 98.04,53.69 C 98.04,53.83 98.1,53.89 98.2,53.89 L 95.32,53.57 C 94.96,53.57 94.78,53.37 94.78,52.97 L 94.78,51.97 C 94.88,51.63 95.06,51.45 95.3,51.45 L 100.04,50.65 z"/>
<path fill="#6d8838" d="M 128.48,53.01 C 126.6,53.01 125.38,54.07 124.82,56.21 124.64,56.87 124.52,57.39 124.48,57.75 L 131.88,57.75 C 131.98,54.59 130.84,53.01 128.48,53.01 z M 124.44,60.11 C 124.48,61.93 124.96,63.47 125.88,64.69 126.92,66.05 128.4,66.75 130.36,66.75 131.96,66.75 133.44,66.31 134.8,65.47 135,65.35 135.22,65.35 135.5,65.45 135.54,65.51 135.6,65.57 135.64,65.61 L 136.26,66.69 C 136.3,67.03 136.22,67.27 136.02,67.41 133.64,69.01 131.24,69.79 128.8,69.79 126.08,69.79 123.92,68.95 122.34,67.25 120.78,65.59 120.02,63.41 120.02,60.67 120.02,57.89 120.76,55.53 122.26,53.63 123.9,51.49 126.1,50.43 128.84,50.43 131.28,50.43 133.14,51.13 134.42,52.55 135.66,53.91 136.28,55.79 136.28,58.23 136.28,58.63 136.26,59.07 136.2,59.51 136.2,59.91 136,60.11 135.6,60.11 L 124.44,60.11 z"/>
<path fill="#6d8838" d="M 152.25,50.43 C 152.71,50.43 153.27,50.57 153.93,50.83 154.59,51.11 155.07,51.39 155.37,51.71 155.47,51.77 155.55,51.87 155.59,52.03 155.63,52.27 155.59,52.47 155.47,52.63 L 153.53,55.41 C 153.35,55.65 153.17,55.77 152.97,55.77 152.81,55.77 152.69,55.73 152.57,55.63 152.07,55.11 151.51,54.85 150.93,54.85 150.19,54.85 149.51,55.19 148.93,55.87 L 147.77,57.21 C 147.73,57.27 147.69,57.35 147.69,57.41 L 147.69,66.95 C 147.69,66.83 147.65,66.77 147.55,66.75 L 150.91,67.03 C 151.33,67.07 151.53,67.27 151.53,67.63 L 151.53,68.63 C 151.53,69.03 151.31,69.23 150.89,69.23 L 141.03,69.23 C 140.61,69.23 140.41,69.03 140.41,68.63 L 140.41,67.63 C 140.41,67.23 140.61,67.01 141.05,67.01 L 143.85,66.75 C 143.69,66.75 143.63,66.81 143.63,66.95 L 143.63,53.69 C 143.63,53.83 143.67,53.89 143.77,53.89 L 140.89,53.57 C 140.51,53.57 140.33,53.37 140.33,52.97 L 140.33,52.05 C 140.33,51.65 140.51,51.45 140.85,51.45 L 145.63,50.65 C 145.83,50.63 145.93,50.61 145.97,50.61 L 147.09,50.61 C 147.49,50.61 147.69,50.81 147.69,51.21 L 147.69,54.53 149.11,52.19 C 150.11,51.01 151.15,50.43 152.25,50.43 z"/>
<path fill="#6d8838" d="M 176.3,40.81 C 176.78,40.81 177.34,40.83 178,40.91 178.64,40.97 179.28,41.05 179.86,41.15 180.46,41.25 181.02,41.35 181.56,41.47 182.08,41.59 182.68,41.69 183.32,41.77 183.7,41.85 183.88,42.03 183.88,42.35 L 183.88,48.43 C 183.88,48.83 183.68,49.03 183.24,49.03 L 181.7,49.03 C 181.54,49.03 181.4,48.99 181.28,48.91 181.14,48.81 181.08,48.69 181.08,48.55 L 180.28,44.05 C 180.28,44.09 180.32,44.11 180.38,44.15 180.1,44.09 179.78,44.01 179.42,43.93 179.06,43.83 178.7,43.75 178.36,43.67 178.02,43.59 177.64,43.53 177.24,43.49 176.82,43.43 176.46,43.41 176.1,43.41 174.38,43.41 172.84,43.67 171.5,44.19 170.16,44.73 169.04,45.47 168.12,46.43 167.2,47.41 166.52,48.57 166.04,49.91 165.56,51.27 165.32,52.77 165.32,54.41 165.32,56.15 165.56,57.79 166.08,59.33 166.58,60.85 167.3,62.21 168.24,63.37 169.16,64.53 170.28,65.43 171.6,66.11 172.9,66.77 174.36,67.09 175.96,67.09 176.28,67.09 176.64,67.09 177,67.07 177.38,67.03 177.76,67.01 178.2,66.95 178.62,66.89 179.02,66.83 179.38,66.75 179.76,66.69 180.08,66.57 180.34,66.43 180.3,66.47 180.28,66.49 180.28,66.51 L 181.08,61.97 C 181.08,61.89 181.14,61.77 181.26,61.67 181.38,61.55 181.52,61.49 181.7,61.49 L 183.24,61.49 C 183.68,61.49 183.88,61.69 183.88,62.09 L 183.88,68.15 C 183.88,68.41 183.72,68.59 183.4,68.71 182.9,68.85 182.38,68.97 181.82,69.09 181.28,69.21 180.7,69.33 180.08,69.43 179.48,69.53 178.8,69.61 178.04,69.69 177.28,69.77 176.46,69.79 175.54,69.79 174.02,69.79 172.62,69.63 171.3,69.31 170,68.99 168.78,68.51 167.66,67.87 166.54,67.25 165.54,66.51 164.68,65.63 163.8,64.77 163.08,63.81 162.48,62.75 161.9,61.69 161.44,60.53 161.1,59.27 160.78,58.03 160.6,56.73 160.6,55.37 160.6,53.83 160.8,52.41 161.18,51.09 161.56,49.77 162.1,48.57 162.82,47.47 163.52,46.39 164.36,45.43 165.32,44.59 166.3,43.77 167.34,43.07 168.5,42.51 169.64,41.95 170.9,41.53 172.22,41.23 173.56,40.95 174.92,40.81 176.3,40.81 z"/>
<path fill="#6d8838" d="M 197.58,60.87 C 196.52,60.95 195.64,61.11 194.94,61.33 194.8,61.37 194.5,61.47 194.06,61.63 192.86,62.03 192.26,62.93 192.26,64.33 192.26,65.79 192.98,66.51 194.42,66.51 194.86,66.51 195.38,66.41 195.96,66.21 196.36,66.05 196.92,65.81 197.6,65.45 197.58,65.47 197.58,65.51 197.58,65.57 L 197.58,60.87 z M 197.98,67.47 C 196.6,69.03 194.86,69.79 192.76,69.79 190.54,69.79 189.02,68.87 188.24,67.03 187.98,66.43 187.86,65.79 187.86,65.11 187.86,62.73 189.06,60.99 191.46,59.87 192.16,59.55 192.78,59.33 193.36,59.23 195.12,58.85 196.52,58.63 197.58,58.55 L 197.58,55.81 C 197.58,53.99 196.7,53.09 194.92,53.09 193.82,53.09 192.9,53.27 192.12,53.65 192.12,53.65 192.12,53.69 192.1,53.75 L 191.54,56.63 C 191.54,57.01 191.34,57.19 190.92,57.19 L 189.66,57.19 C 189.28,57.19 189.08,56.99 189.08,56.61 L 189.08,52.17 C 189.08,51.91 189.24,51.71 189.56,51.59 191.7,50.81 193.74,50.43 195.68,50.43 198.54,50.43 200.4,51.31 201.28,53.07 201.6,53.73 201.78,54.55 201.78,55.53 L 201.78,66.37 C 201.78,66.33 201.74,66.29 201.68,66.25 L 204.2,66.97 C 204.48,67.13 204.64,67.31 204.68,67.49 L 204.68,68.29 C 204.54,68.65 204.36,68.83 204.14,68.83 L 198.84,69.55 C 198.4,69.55 198.2,69.37 198.2,69.03 L 197.98,67.47 z"/>
<path fill="#6d8838" d="M 220.55,50.43 C 221.01,50.43 221.57,50.57 222.23,50.83 222.89,51.11 223.37,51.39 223.67,51.71 223.77,51.77 223.85,51.87 223.89,52.03 223.93,52.27 223.89,52.47 223.77,52.63 L 221.83,55.41 C 221.65,55.65 221.47,55.77 221.27,55.77 221.11,55.77 220.99,55.73 220.87,55.63 220.37,55.11 219.81,54.85 219.23,54.85 218.49,54.85 217.81,55.19 217.23,55.87 L 216.07,57.21 C 216.03,57.27 215.99,57.35 215.99,57.41 L 215.99,66.95 C 215.99,66.83 215.95,66.77 215.85,66.75 L 219.21,67.03 C 219.63,67.07 219.83,67.27 219.83,67.63 L 219.83,68.63 C 219.83,69.03 219.61,69.23 219.19,69.23 L 209.33,69.23 C 208.91,69.23 208.71,69.03 208.71,68.63 L 208.71,67.63 C 208.71,67.23 208.91,67.01 209.35,67.01 L 212.15,66.75 C 211.99,66.75 211.93,66.81 211.93,66.95 L 211.93,53.69 C 211.93,53.83 211.97,53.89 212.07,53.89 L 209.19,53.57 C 208.81,53.57 208.63,53.37 208.63,52.97 L 208.63,52.05 C 208.63,51.65 208.81,51.45 209.15,51.45 L 213.93,50.65 C 214.13,50.63 214.23,50.61 214.27,50.61 L 215.39,50.61 C 215.79,50.61 215.99,50.81 215.99,51.21 L 215.99,54.53 217.41,52.19 C 218.41,51.01 219.45,50.43 220.55,50.43 z"/>
<path fill="#6d8838" d="M 241.35,53.71 C 241.19,53.55 240.87,53.41 240.39,53.31 239.65,53.13 239.01,53.05 238.49,53.05 236.71,53.05 235.35,53.55 234.45,54.57 233.55,56.25 233.09,58.07 233.09,60.03 233.09,61.83 233.37,63.21 233.91,64.19 234.81,65.63 236.09,66.35 237.69,66.35 239.01,66.35 240.21,66.01 241.31,65.31 241.35,65.27 241.37,65.29 241.35,65.35 L 241.35,53.71 z M 243.35,40.13 C 243.45,40.09 243.55,40.07 243.63,40.07 L 244.79,40.07 C 245.21,40.07 245.43,40.27 245.43,40.67 L 245.43,66.91 C 245.43,66.77 245.35,66.71 245.19,66.71 L 248.07,67.01 C 248.51,67.01 248.73,67.23 248.73,67.63 L 248.73,68.55 C 248.73,68.91 248.55,69.11 248.19,69.15 L 242.21,69.55 C 241.81,69.55 241.59,69.39 241.55,69.01 L 241.47,67.47 C 239.89,69.03 238.05,69.79 235.97,69.79 233.69,69.79 231.87,68.87 230.51,67.03 229.27,65.39 228.67,63.43 228.67,61.17 228.67,58.13 229.75,55.57 231.95,53.45 233.51,51.43 235.81,50.43 238.81,50.43 239.63,50.43 240.49,50.55 241.35,50.81 L 241.35,43.17 C 241.35,43.29 241.39,43.37 241.49,43.37 L 238.37,43.05 C 237.99,43.05 237.81,42.85 237.81,42.43 L 237.81,41.51 C 237.81,41.11 237.99,40.91 238.35,40.91 L 243.35,40.13 z"/>
<text x="251.78" y="51.23" font-family="Sans-serif" font-size="18" text-anchor="start" font-weight="bold" fill="#6d8838" letter-spacing="2">TM</text>
</svg>