<svg width="316" height="196" xmlns="http://www.w3.org/2000/svg">
<defs>
  <linearGradient id="supercardGradient" x1="0" y1="0" x2="1" y2="1">
  <stop stop-color="#ffb115" offset="0"/>
  <stop stop-color="#ffff00" offset="0.5"/>
  <stop stop-color="#ffb115" stop-opacity="0.99219" offset="1"/>
  </linearGradient>
  <filter width="200%" height="200%" x="-50%" y="-50%" id="messageBlur">
  <feGaussianBlur stdDeviation="2"/>
  </filter>
</defs>
<g>
<rect x="10.4" y="10.4" width="301.2" height="181.2" fill="#afafaf" rx="20" ry="20" filter="url(#messageBlur)"/>
<rect x="5" y="5" width="300" height="180" stroke="#A0A0A0" stroke-width="1.2" fill="url(#supercardGradient)" rx="20" ry="20"/>
<text x="155" y="149" font-family="Sans-serif" font-size="26" text-anchor="middle">Luke Skywalker</text>
<path fill="#9e0a11" d="M 51.3,48.94 C 50.75,48.94 50.47,48.72 50.47,48.27 L 49.36,42.02 C 49.36,42.08 49.38,42.13 49.44,42.13  47.91,41.47 46.27,41.13 44.5,41.13  42.72,41.13 41.19,41.61 39.94,42.55  38.61,43.55 37.94,44.91 37.94,46.58  37.94,48.25 38.55,49.63 39.75,50.77  40.58,51.55 42,52.41 43.94,53.3 L 47.58,54.97 C 50.47,56.3 52.61,57.66 53.94,59.05  55.66,60.86 56.52,63.08 56.52,65.75  56.52,69.66 55,72.72 51.97,74.91  49.3,76.83 46,77.77 42,77.77  39.94,77.77 37.63,77.5 35.02,76.91  34.27,76.75 33.58,76.52 32.97,76.27  32.55,76.11 32.33,75.86 32.33,75.5 L 32.33,67.08 C 32.33,66.52 32.61,66.25 33.16,66.25 L 35.52,66.25 C 36.05,66.41 36.3,66.63 36.3,66.97 L 37.41,73.22 C 37.38,73.11 37.36,73.05 37.36,73.02 L 37.47,73.16 C 38.61,73.75 40.3,74.02 42.52,74.02  44.72,74.02 46.52,73.52 47.97,72.52  49.58,71.41 50.36,69.86 50.36,67.86  50.36,65.05 48.44,62.75 44.58,60.94 L 40.91,59.22 C 38.16,57.94 36.11,56.63 34.75,55.27  32.91,53.44 32.02,51.27 32.02,48.77  32.02,46.3 32.77,44.11 34.27,42.19  35.75,40.36 37.66,39.02 40.05,38.25  41.58,37.75 43.16,37.52 44.83,37.52  47.02,37.52 49.27,37.77 51.61,38.33  52.25,38.47 52.94,38.66 53.66,38.88  54.11,38.97 54.33,39.22 54.33,39.66 L 54.33,48.11 C 54.33,48.66 54.05,48.94 53.5,48.94 L 51.3,48.94 z"/>
<rect x="25.5" y="31.52" width="37.52" height="51.42" stroke="#31859c" stroke-width="2.25" fill="none"/>
<path fill="#6d8838" d="M 87.39,72.35 C 85.83,73.99 83.93,74.79 81.71,74.79  80.07,74.79 78.73,74.33 77.69,73.37  76.61,72.37 76.07,71.05 76.07,69.41 L 76.07,58.69 C 76.07,58.83 76.11,58.89 76.21,58.89 L 73.31,58.57 C 72.95,58.57 72.77,58.37 72.77,57.97 L 72.77,57.05 C 72.77,56.65 72.95,56.45 73.29,56.45 L 78.07,55.65 C 78.11,55.65 78.19,55.63 78.33,55.61 L 79.53,55.61 C 79.93,55.61 80.13,55.81 80.13,56.21 L 80.13,68.01 C 80.13,70.23 81.25,71.35 83.49,71.35  84.71,71.35 85.97,70.95 87.25,70.15  87.25,70.15 87.27,70.19 87.27,70.27 L 87.27,58.69 C 87.27,58.83 87.31,58.89 87.41,58.89 L 84.53,58.57 C 84.15,58.57 83.97,58.37 83.97,57.97 L 83.97,57.05 C 83.97,56.65 84.15,56.45 84.51,56.45 L 89.25,55.65 C 89.31,55.65 89.43,55.63 89.61,55.61 L 90.73,55.61 C 91.13,55.61 91.33,55.81 91.33,56.21 L 91.33,71.91 C 91.33,71.77 91.25,71.71 91.09,71.71 L 93.99,72.01 C 94.41,72.01 94.63,72.23 94.63,72.63 L 94.63,73.55 C 94.63,73.91 94.47,74.11 94.13,74.15 L 88.15,74.55 C 87.73,74.55 87.51,74.37 87.47,74.01 L 87.39,72.35 z"/>
<path fill="#6d8838" d="M 107.12,71.53 C 107.56,71.97 108.5,72.19 109.96,72.19  112.56,72.19 114.24,70.81 115.02,68.01  115.26,67.15 115.38,66.21 115.38,65.21  115.38,63.41 115.04,61.95 114.36,60.85  113.58,59.55 112.38,58.89 110.76,58.89  109.44,58.89 108.22,59.25 107.1,59.93  107.12,59.93 107.12,59.89 107.12,59.81 L 107.12,71.53 z M 105.04,55.65 C 105.1,55.65 105.2,55.63 105.4,55.61 L 106.5,55.61 C 106.92,55.61 107.12,55.81 107.12,56.21 L 107.12,57.69 C 108.6,56.19 110.38,55.43 112.48,55.43  114.78,55.43 116.6,56.35 117.98,58.17  119.22,59.81 119.82,61.77 119.82,64.07  119.82,67.13 118.72,69.71 116.54,71.81  115,73.81 112.72,74.79 109.64,74.79  108.8,74.79 107.96,74.67 107.12,74.43 L 107.12,81.79 C 107.12,81.65 107.04,81.59 106.88,81.59 L 109.96,81.87 C 110.4,81.87 110.64,82.07 110.64,82.45 L 110.64,83.47 C 110.64,83.87 110.42,84.07 110,84.07 L 100.44,84.07 C 100.04,84.07 99.84,83.87 99.84,83.47 L 99.84,82.45 C 99.84,82.07 100.06,81.87 100.46,81.87 L 103.26,81.59 C 103.12,81.59 103.04,81.65 103.04,81.79 L 103.04,58.69 C 103.04,58.83 103.1,58.89 103.2,58.89 L 100.32,58.57 C 99.96,58.57 99.78,58.37 99.78,57.97 L 99.78,56.97 C 99.88,56.63 100.06,56.45 100.3,56.45 L 105.04,55.65 z"/>
<path fill="#6d8838" d="M 133.48,58.01 C 131.6,58.01 130.38,59.07 129.82,61.21  129.64,61.87 129.52,62.39 129.48,62.75 L 136.88,62.75 C 136.98,59.59 135.84,58.01 133.48,58.01 z M 129.44,65.11 C 129.48,66.93 129.96,68.47 130.88,69.69  131.92,71.05 133.4,71.75 135.36,71.75  136.96,71.75 138.44,71.31 139.8,70.47  140,70.35 140.22,70.35 140.5,70.45  140.54,70.51 140.6,70.57 140.64,70.61 L 141.26,71.69 C 141.3,72.03 141.22,72.27 141.02,72.41  138.64,74.01 136.24,74.79 133.8,74.79  131.08,74.79 128.92,73.95 127.34,72.25  125.78,70.59 125.02,68.41 125.02,65.67  125.02,62.89 125.76,60.53 127.26,58.63  128.9,56.49 131.1,55.43 133.84,55.43  136.28,55.43 138.14,56.13 139.42,57.55  140.66,58.91 141.28,60.79 141.28,63.23  141.28,63.63 141.26,64.07 141.2,64.51  141.2,64.91 141,65.11 140.6,65.11 L 129.44,65.11 z"/>
<path fill="#6d8838" d="M 157.25,55.43 C 157.71,55.43 158.27,55.57 158.93,55.83  159.59,56.11 160.07,56.39 160.37,56.71  160.47,56.77 160.55,56.87 160.59,57.03  160.63,57.27 160.59,57.47 160.47,57.63 L 158.53,60.41 C 158.35,60.65 158.17,60.77 157.97,60.77  157.81,60.77 157.69,60.73 157.57,60.63  157.07,60.11 156.51,59.85 155.93,59.85  155.19,59.85 154.51,60.19 153.93,60.87 L 152.77,62.21 C 152.73,62.27 152.69,62.35 152.69,62.41 L 152.69,71.95 C 152.69,71.83 152.65,71.77 152.55,71.75 L 155.91,72.03 C 156.33,72.07 156.53,72.27 156.53,72.63 L 156.53,73.63 C 156.53,74.03 156.31,74.23 155.89,74.23 L 146.03,74.23 C 145.61,74.23 145.41,74.03 145.41,73.63 L 145.41,72.63 C 145.41,72.23 145.61,72.01 146.05,72.01 L 148.85,71.75 C 148.69,71.75 148.63,71.81 148.63,71.95 L 148.63,58.69 C 148.63,58.83 148.67,58.89 148.77,58.89 L 145.89,58.57 C 145.51,58.57 145.33,58.37 145.33,57.97 L 145.33,57.05 C 145.33,56.65 145.51,56.45 145.85,56.45 L 150.63,55.65 C 150.83,55.63 150.93,55.61 150.97,55.61 L 152.09,55.61 C 152.49,55.61 152.69,55.81 152.69,56.21 L 152.69,59.53  154.11,57.19 C 155.11,56.01 156.15,55.43 157.25,55.43 z"/>
<path fill="#6d8838" d="M 181.3,45.81 C 181.78,45.81 182.34,45.83 183,45.91  183.64,45.97 184.28,46.05 184.86,46.15  185.46,46.25 186.02,46.35 186.56,46.47  187.08,46.59 187.68,46.69 188.32,46.77  188.7,46.85 188.88,47.03 188.88,47.35 L 188.88,53.43 C 188.88,53.83 188.68,54.03 188.24,54.03 L 186.7,54.03 C 186.54,54.03 186.4,53.99 186.28,53.91  186.14,53.81 186.08,53.69 186.08,53.55 L 185.28,49.05 C 185.28,49.09 185.32,49.11 185.38,49.15  185.1,49.09 184.78,49.01 184.42,48.93  184.06,48.83 183.7,48.75 183.36,48.67  183.02,48.59 182.64,48.53 182.24,48.49  181.82,48.43 181.46,48.41 181.1,48.41  179.38,48.41 177.84,48.67 176.5,49.19  175.16,49.73 174.04,50.47 173.12,51.43  172.2,52.41 171.52,53.57 171.04,54.91  170.56,56.27 170.32,57.77 170.32,59.41  170.32,61.15 170.56,62.79 171.08,64.33  171.58,65.85 172.3,67.21 173.24,68.37  174.16,69.53 175.28,70.43 176.6,71.11  177.9,71.77 179.36,72.09 180.96,72.09  181.28,72.09 181.64,72.09 182,72.07  182.38,72.03 182.76,72.01 183.2,71.95  183.62,71.89 184.02,71.83 184.38,71.75  184.76,71.69 185.08,71.57 185.34,71.43  185.3,71.47 185.28,71.49 185.28,71.51 L 186.08,66.97 C 186.08,66.89 186.14,66.77 186.26,66.67  186.38,66.55 186.52,66.49 186.7,66.49 L 188.24,66.49 C 188.68,66.49 188.88,66.69 188.88,67.09 L 188.88,73.15 C 188.88,73.41 188.72,73.59 188.4,73.71  187.9,73.85 187.38,73.97 186.82,74.09  186.28,74.21 185.7,74.33 185.08,74.43  184.48,74.53 183.8,74.61 183.04,74.69  182.28,74.77 181.46,74.79 180.54,74.79  179.02,74.79 177.62,74.63 176.3,74.31  175,73.99 173.78,73.51 172.66,72.87  171.54,72.25 170.54,71.51 169.68,70.63  168.8,69.77 168.08,68.81 167.48,67.75  166.9,66.69 166.44,65.53 166.1,64.27  165.78,63.03 165.6,61.73 165.6,60.37  165.6,58.83 165.8,57.41 166.18,56.09  166.56,54.77 167.1,53.57 167.82,52.47  168.52,51.39 169.36,50.43 170.32,49.59  171.3,48.77 172.34,48.07 173.5,47.51  174.64,46.95 175.9,46.53 177.22,46.23  178.56,45.95 179.92,45.81 181.3,45.81 z"/>
<path fill="#6d8838" d="M 202.58,65.87 C 201.52,65.95 200.64,66.11 199.94,66.33  199.8,66.37 199.5,66.47 199.06,66.63  197.86,67.03 197.26,67.93 197.26,69.33  197.26,70.79 197.98,71.51 199.42,71.51  199.86,71.51 200.38,71.41 200.96,71.21  201.36,71.05 201.92,70.81 202.6,70.45  202.58,70.47 202.58,70.51 202.58,70.57 L 202.58,65.87 z M 202.98,72.47 C 201.6,74.03 199.86,74.79 197.76,74.79  195.54,74.79 194.02,73.87 193.24,72.03  192.98,71.43 192.86,70.79 192.86,70.11  192.86,67.73 194.06,65.99 196.46,64.87  197.16,64.55 197.78,64.33 198.36,64.23  200.12,63.85 201.52,63.63 202.58,63.55 L 202.58,60.81 C 202.58,58.99 201.7,58.09 199.92,58.09  198.82,58.09 197.9,58.27 197.12,58.65  197.12,58.65 197.12,58.69 197.1,58.75 L 196.54,61.63 C 196.54,62.01 196.34,62.19 195.92,62.19 L 194.66,62.19 C 194.28,62.19 194.08,61.99 194.08,61.61 L 194.08,57.17 C 194.08,56.91 194.24,56.71 194.56,56.59  196.7,55.81 198.74,55.43 200.68,55.43  203.54,55.43 205.4,56.31 206.28,58.07  206.6,58.73 206.78,59.55 206.78,60.53 L 206.78,71.37 C 206.78,71.33 206.74,71.29 206.68,71.25 L 209.2,71.97 C 209.48,72.13 209.64,72.31 209.68,72.49 L 209.68,73.29 C 209.54,73.65 209.36,73.83 209.14,73.83 L 203.84,74.55 C 203.4,74.55 203.2,74.37 203.2,74.03 L 202.98,72.47 z"/>
<path fill="#6d8838" d="M 225.55,55.43 C 226.01,55.43 226.57,55.57 227.23,55.83  227.89,56.11 228.37,56.39 228.67,56.71  228.77,56.77 228.85,56.87 228.89,57.03  228.93,57.27 228.89,57.47 228.77,57.63 L 226.83,60.41 C 226.65,60.65 226.47,60.77 226.27,60.77  226.11,60.77 225.99,60.73 225.87,60.63  225.37,60.11 224.81,59.85 224.23,59.85  223.49,59.85 222.81,60.19 222.23,60.87 L 221.07,62.21 C 221.03,62.27 220.99,62.35 220.99,62.41 L 220.99,71.95 C 220.99,71.83 220.95,71.77 220.85,71.75 L 224.21,72.03 C 224.63,72.07 224.83,72.27 224.83,72.63 L 224.83,73.63 C 224.83,74.03 224.61,74.23 224.19,74.23 L 214.33,74.23 C 213.91,74.23 213.71,74.03 213.71,73.63 L 213.71,72.63 C 213.71,72.23 213.91,72.01 214.35,72.01 L 217.15,71.75 C 216.99,71.75 216.93,71.81 216.93,71.95 L 216.93,58.69 C 216.93,58.83 216.97,58.89 217.07,58.89 L 214.19,58.57 C 213.81,58.57 213.63,58.37 213.63,57.97 L 213.63,57.05 C 213.63,56.65 213.81,56.45 214.15,56.45 L 218.93,55.65 C 219.13,55.63 219.23,55.61 219.27,55.61 L 220.39,55.61 C 220.79,55.61 220.99,55.81 220.99,56.21 L 220.99,59.53  222.41,57.19 C 223.41,56.01 224.45,55.43 225.55,55.43 z"/>
<path fill="#6d8838" d="M 246.35,58.71 C 246.19,58.55 245.87,58.41 245.39,58.31  244.65,58.13 244.01,58.05 243.49,58.05  241.71,58.05 240.35,58.55 239.45,59.57  238.55,61.25 238.09,63.07 238.09,65.03  238.09,66.83 238.37,68.21 238.91,69.19  239.81,70.63 241.09,71.35 242.69,71.35  244.01,71.35 245.21,71.01 246.31,70.31  246.35,70.27 246.37,70.29 246.35,70.35 L 246.35,58.71 z M 248.35,45.13 C 248.45,45.09 248.55,45.07 248.63,45.07 L 249.79,45.07 C 250.21,45.07 250.43,45.27 250.43,45.67 L 250.43,71.91 C 250.43,71.77 250.35,71.71 250.19,71.71 L 253.07,72.01 C 253.51,72.01 253.73,72.23 253.73,72.63 L 253.73,73.55 C 253.73,73.91 253.55,74.11 253.19,74.15 L 247.21,74.55 C 246.81,74.55 246.59,74.39 246.55,74.01 L 246.47,72.47 C 244.89,74.03 243.05,74.79 240.97,74.79  238.69,74.79 236.87,73.87 235.51,72.03  234.27,70.39 233.67,68.43 233.67,66.17  233.67,63.13 234.75,60.57 236.95,58.45  238.51,56.43 240.81,55.43 243.81,55.43  244.63,55.43 245.49,55.55 246.35,55.81 L 246.35,48.17 C 246.35,48.29 246.39,48.37 246.49,48.37 L 243.37,48.05 C 242.99,48.05 242.81,47.85 242.81,47.43 L 242.81,46.51 C 242.81,46.11 242.99,45.91 243.35,45.91 L 248.35,45.13 z"/>
<text x="256.78" y="56.23" font-family="Sans-serif" font-size="18" text-anchor="start" font-weight="bold" fill="#6d8838" letter-spacing="2">TM</text>
</g>
</svg>
