<?xml version="1.0" encoding="UTF-8" standalone="no"?>
<svg
   xmlns:dc="http://purl.org/dc/elements/1.1/"
   xmlns:cc="http://creativecommons.org/ns#"
   xmlns:rdf="http://www.w3.org/1999/02/22-rdf-syntax-ns#"
   xmlns:svg="http://www.w3.org/2000/svg"
   xmlns="http://www.w3.org/2000/svg"
   id="svg8"
   version="1.1"
   viewBox="0 0 101.42757 15.367708"
   height="58.082672"
   width="383.34827">
  <defs
     id="defs2">
    <rect
       id="rect843"
       height="5.5214362"
       width="22.913961"
       y="120.64338"
       x="25.95075" />
  </defs>
  <metadata
     id="metadata5">
    <rdf:RDF>
      <cc:Work
         rdf:about="">
        <dc:format>image/svg+xml</dc:format>
        <dc:type
           rdf:resource="http://purl.org/dc/dcmitype/StillImage" />
        <dc:title></dc:title>
      </cc:Work>
    </rdf:RDF>
  </metadata>
  <g
     transform="translate(-26.32778,-112.77748)"
     id="layer1">
    <g
       style="color:#000000;font-style:normal;font-variant:normal;font-weight:normal;font-stretch:normal;font-size:4.23333px;line-height:125%;font-family:'Courier New';-inkscape-font-specification:'Courier New';letter-spacing:0px;word-spacing:0px;clip-rule:nonzero;display:inline;overflow:visible;visibility:visible;opacity:1;isolation:auto;mix-blend-mode:normal;color-interpolation:sRGB;color-interpolation-filters:linearRGB;solid-color:#000000;solid-opacity:1;fill:#000000;fill-opacity:1;fill-rule:nonzero;stroke:#000000;stroke-width:0.365;stroke-linecap:butt;stroke-linejoin:miter;stroke-miterlimit:4;stroke-dasharray:none;stroke-dashoffset:0;stroke-opacity:1;color-rendering:auto;image-rendering:auto;shape-rendering:auto;text-rendering:auto;enable-background:accumulate"
       id="text835"
       aria-label="BuyerZone">
      <path
         id="path851"
         style="font-style:normal;font-variant:normal;font-weight:normal;font-stretch:normal;font-size:19.05px;font-family:'Courier New';-inkscape-font-specification:'Courier New';fill:#000000;fill-opacity:1;stroke:#000000;stroke-width:0.365;stroke-miterlimit:4;stroke-dasharray:none;stroke-opacity:1"
         d="m 28.34686,123.32627 v -9.32036 h -1.051098 q -0.279053,0 -0.399976,-0.10232 -0.120923,-0.11162 -0.120923,-0.28835 0,-0.17674 0.120923,-0.27905 0.120923,-0.11163 0.399976,-0.11163 h 4.911328 q 1.460376,0 2.371948,0.84646 0.920874,0.83716 0.920874,1.97198 0,1.43247 -1.53479,2.31613 1.21853,0.43719 1.785937,1.16272 0.567408,0.72554 0.567408,1.59991 0,0.78134 -0.372071,1.43247 -0.37207,0.64182 -1.144116,1.0976 -0.762744,0.45579 -1.665015,0.45579 h -5.841503 q -0.279053,0 -0.399976,-0.11162 -0.120923,-0.11162 -0.120923,-0.27905 0,-0.17674 0.120923,-0.27906 0.120923,-0.11162 0.399976,-0.11162 z m 0.781348,-5.26479 h 2.762622 q 0.883667,0 1.618506,-0.32556 0.567407,-0.26045 0.883667,-0.75345 0.316259,-0.49299 0.316259,-1.00459 0,-0.73483 -0.68833,-1.34875 -0.68833,-0.62322 -1.795239,-0.62322 h -3.097485 z m 0,5.26479 h 3.953247 q 0.753442,0 1.311548,-0.33486 0.558105,-0.33486 0.84646,-0.82786 0.288354,-0.49299 0.288354,-1.02319 0,-0.59531 -0.418579,-1.15342 -0.409277,-0.5581 -1.144116,-0.84646 -0.734839,-0.28835 -2.027783,-0.28835 h -2.809131 z" />
      <path
         id="path853"
         style="font-style:normal;font-variant:normal;font-weight:normal;font-stretch:normal;font-size:19.05px;font-family:'Courier New';-inkscape-font-specification:'Courier New';fill:#000000;fill-opacity:1;stroke:#000000;stroke-width:0.365;stroke-miterlimit:4;stroke-dasharray:none;stroke-opacity:1"
         d="m 45.778354,124.10762 v -1.14412 q -1.599903,1.45108 -3.460254,1.45108 -1.144116,0 -1.739429,-0.62322 -0.772046,-0.81855 -0.772046,-1.90686 v -5.04155 h -1.051098 q -0.279053,0 -0.399976,-0.11162 -0.120923,-0.11162 -0.120923,-0.28836 0,-0.16743 0.120923,-0.27905 0.120923,-0.11162 0.399976,-0.11162 h 1.832446 v 5.8322 q 0,0.76274 0.483691,1.25574 0.483692,0.49299 1.209229,0.49299 1.90686,0 3.497461,-1.74873 v -5.04155 h -1.441773 q -0.279053,0 -0.399975,-0.11162 -0.120923,-0.11162 -0.120923,-0.28836 0,-0.16743 0.120923,-0.27905 0.120922,-0.11162 0.399975,-0.11162 h 2.22312 v 7.27397 h 0.660425 q 0.279053,0 0.399976,0.11162 0.120922,0.10232 0.120922,0.27906 0,0.16743 -0.120922,0.27905 -0.120923,0.11162 -0.399976,0.11162 z" />
      <path
         id="path855"
         style="font-style:normal;font-variant:normal;font-weight:normal;font-stretch:normal;font-size:19.05px;font-family:'Courier New';-inkscape-font-specification:'Courier New';fill:#000000;fill-opacity:1;stroke:#000000;stroke-width:0.365;stroke-miterlimit:4;stroke-dasharray:none;stroke-opacity:1"
         d="m 54.577816,124.10762 -3.627686,-7.26467 h -0.232544 q -0.279052,0 -0.399975,-0.11162 -0.120923,-0.11162 -0.120923,-0.27906 0,-0.12092 0.05581,-0.21394 0.06511,-0.10232 0.158129,-0.13952 0.10232,-0.0465 0.306958,-0.0465 h 2.139405 q 0.279052,0 0.399975,0.11162 0.120923,0.11162 0.120923,0.28835 0,0.16744 -0.120923,0.27906 -0.120923,0.11162 -0.399975,0.11162 h -1.051099 l 3.190503,6.40891 3.143994,-6.40891 H 57.08929 q -0.279052,0 -0.399975,-0.11162 -0.120923,-0.11162 -0.120923,-0.28836 0,-0.16743 0.120923,-0.27905 0.120923,-0.11162 0.399975,-0.11162 h 2.130103 q 0.288354,0 0.409277,0.11162 0.120923,0.11162 0.120923,0.28835 0,0.12093 -0.07441,0.22325 -0.07441,0.10232 -0.167432,0.13952 -0.09302,0.0279 -0.520898,0.0279 l -4.948535,10.0738 h 1.21853 q 0.279053,0 0.399976,0.10232 0.120922,0.11162 0.120922,0.28835 0,0.16744 -0.120922,0.27906 -0.120923,0.11162 -0.399976,0.11162 h -4.502051 q -0.279052,0 -0.399975,-0.11162 -0.120923,-0.10232 -0.120923,-0.27906 0,-0.17673 0.120923,-0.28835 0.120923,-0.10232 0.399975,-0.10232 h 2.446363 z" />
      <path
         id="path857"
         style="font-style:normal;font-variant:normal;font-weight:normal;font-stretch:normal;font-size:19.05px;font-family:'Courier New';-inkscape-font-specification:'Courier New';fill:#000000;fill-opacity:1;stroke:#000000;stroke-width:0.365;stroke-miterlimit:4;stroke-dasharray:none;stroke-opacity:1"
         d="m 70.176863,120.26599 h -7.962305 q 0.204639,1.51619 1.265039,2.44637 1.069702,0.92087 2.641699,0.92087 0.874366,0 1.832447,-0.28835 0.958081,-0.28836 1.562695,-0.76275 0.176733,-0.13952 0.306958,-0.13952 0.148828,0 0.260449,0.12092 0.111621,0.11162 0.111621,0.26975 0,0.15813 -0.148828,0.30696 -0.446484,0.46509 -1.5906,0.87436 -1.134815,0.39998 -2.334742,0.39998 -2.009179,0 -3.357934,-1.31155 -1.339453,-1.32085 -1.339453,-3.1905 0,-1.70222 1.255737,-2.92075 1.265039,-1.21853 3.125391,-1.21853 1.916162,0 3.153295,1.25573 1.237134,1.24644 1.218531,3.23701 z m -0.79065,-0.79064 q -0.232544,-1.29295 -1.227832,-2.1022 -0.985986,-0.80926 -2.353344,-0.80926 -1.367359,0 -2.353345,0.79996 -0.985986,0.79995 -1.227832,2.1115 z" />
      <path
         id="path859"
         style="font-style:normal;font-variant:normal;font-weight:normal;font-stretch:normal;font-size:19.05px;font-family:'Courier New';-inkscape-font-specification:'Courier New';fill:#000000;fill-opacity:1;stroke:#000000;stroke-width:0.365;stroke-miterlimit:4;stroke-dasharray:none;stroke-opacity:1"
         d="m 76.436945,116.0523 v 1.97197 q 1.525488,-1.37666 2.278931,-1.76733 0.762744,-0.39998 1.404565,-0.39998 0.697632,0 1.292944,0.47439 0.604615,0.46509 0.604615,0.70693 0,0.17674 -0.120923,0.29766 -0.111621,0.11162 -0.288355,0.11162 -0.09302,0 -0.15813,-0.0279 -0.06511,-0.0372 -0.241845,-0.21394 -0.325562,-0.32557 -0.567407,-0.44649 -0.241846,-0.12092 -0.47439,-0.12092 -0.511597,0 -1.237134,0.40928 -0.716235,0.40927 -2.492871,1.99987 v 4.27881 h 3.460254 q 0.288354,0 0.409277,0.11162 0.120923,0.10232 0.120923,0.27906 0,0.16743 -0.120923,0.27905 -0.120923,0.11162 -0.409277,0.11162 h -6.129858 q -0.279053,0 -0.399976,-0.10232 -0.120923,-0.11162 -0.120923,-0.27905 0,-0.15813 0.111621,-0.26045 0.120923,-0.11162 0.409278,-0.11162 h 1.888257 v -6.51123 h -1.441773 q -0.279053,0 -0.399975,-0.11162 -0.120923,-0.11162 -0.120923,-0.28836 0,-0.16743 0.111621,-0.27905 0.120923,-0.11162 0.409277,-0.11162 z" />
      <path
         id="path861"
         style="font-style:normal;font-variant:normal;font-weight:normal;font-stretch:normal;font-size:19.05px;font-family:'Courier New';-inkscape-font-specification:'Courier New';fill:#000000;fill-opacity:1;stroke:#000000;stroke-width:0.365;stroke-miterlimit:4;stroke-dasharray:none;stroke-opacity:1"
         d="m 92.584796,124.10762 h -7.525122 v -1.13481 l 6.343799,-8.90179 v -0.0651 H 86.20379 v 2.29754 q 0,0.28835 -0.111621,0.40927 -0.111621,0.12093 -0.288354,0.12093 -0.167432,0 -0.279053,-0.12093 -0.111621,-0.12092 -0.111621,-0.40927 v -3.07889 h 6.743774 v 1.10691 l -6.343799,8.91109 v 0.0837 h 5.990332 v -2.72541 q 0,-0.28836 0.102319,-0.40928 0.111622,-0.12092 0.288355,-0.12092 0.176733,0 0.279053,0.12092 0.111621,0.12092 0.111621,0.40928 z" />
      <path
         id="path863"
         style="font-style:normal;font-variant:normal;font-weight:normal;font-stretch:normal;font-size:19.05px;font-family:'Courier New';-inkscape-font-specification:'Courier New';fill:#000000;fill-opacity:1;stroke:#000000;stroke-width:0.365;stroke-miterlimit:4;stroke-dasharray:none;stroke-opacity:1"
         d="m 104.58406,120.09856 q 0,1.78594 -1.28364,3.05098 -1.27434,1.26504 -3.07888,1.26504 -1.823146,0 -3.097487,-1.26504 -1.274341,-1.27434 -1.274341,-3.05098 0,-1.78593 1.274341,-3.05097 1.274341,-1.27434 3.097487,-1.27434 1.80454,0 3.07888,1.26503 1.28364,1.26504 1.28364,3.06028 z m -0.79065,0 q 0,-1.46967 -1.0511,-2.50217 -1.04179,-1.0325 -2.53007,-1.0325 -1.488285,0 -2.539383,1.0418 -1.041797,1.0325 -1.041797,2.49287 0,1.45108 1.041797,2.49287 1.051098,1.0418 2.539383,1.0418 1.48828,0 2.53007,-1.03249 1.0511,-1.0418 1.0511,-2.50218 z" />
      <path
         id="path865"
         style="font-style:normal;font-variant:normal;font-weight:normal;font-stretch:normal;font-size:19.05px;font-family:'Courier New';-inkscape-font-specification:'Courier New';fill:#000000;fill-opacity:1;stroke:#000000;stroke-width:0.365;stroke-miterlimit:4;stroke-dasharray:none;stroke-opacity:1"
         d="m 109.11401,116.0523 v 1.18132 q 0.81856,-0.82785 1.47898,-1.14411 0.66043,-0.31626 1.48828,-0.31626 0.89297,0 1.62781,0.38137 0.5209,0.27905 0.93948,0.93017 0.42788,0.64182 0.42788,1.32085 v 4.92063 h 0.66043 q 0.27905,0 0.39997,0.11162 0.12092,0.10232 0.12092,0.27906 0,0.16743 -0.12092,0.27905 -0.12092,0.11162 -0.39997,0.11162 h -2.0929 q -0.28835,0 -0.40928,-0.11162 -0.12092,-0.11162 -0.12092,-0.27905 0,-0.17674 0.12092,-0.27906 0.12093,-0.11162 0.40928,-0.11162 h 0.65112 v -4.7904 q 0,-0.82786 -0.60461,-1.39527 -0.60462,-0.57671 -1.61851,-0.57671 -0.77204,0 -1.33945,0.31626 -0.56741,0.30696 -1.61851,1.5441 v 4.90202 h 0.88367 q 0.27905,0 0.39998,0.11162 0.12092,0.10232 0.12092,0.27906 0,0.16743 -0.12092,0.27905 -0.12093,0.11162 -0.39998,0.11162 H 107.449 q -0.27905,0 -0.39998,-0.11162 -0.12092,-0.11162 -0.12092,-0.27905 0,-0.17674 0.12092,-0.27906 0.12093,-0.11162 0.39998,-0.11162 h 0.88367 v -6.48332 h -0.66043 q -0.27905,0 -0.39997,-0.11162 -0.12093,-0.11162 -0.12093,-0.28836 0,-0.16743 0.12093,-0.27905 0.12092,-0.11162 0.39997,-0.11162 z" />
      <path
         id="path867"
         style="font-style:normal;font-variant:normal;font-weight:normal;font-stretch:normal;font-size:19.05px;font-family:'Courier New';-inkscape-font-specification:'Courier New';fill:#000000;fill-opacity:1;stroke:#000000;stroke-width:0.365;stroke-miterlimit:4;stroke-dasharray:none;stroke-opacity:1"
         d="m 127.28965,120.26599 h -7.9623 q 0.20464,1.51619 1.26504,2.44637 1.0697,0.92087 2.6417,0.92087 0.87436,0 1.83244,-0.28835 0.95808,-0.28836 1.5627,-0.76275 0.17673,-0.13952 0.30696,-0.13952 0.14882,0 0.26044,0.12092 0.11163,0.11162 0.11163,0.26975 0,0.15813 -0.14883,0.30696 -0.44649,0.46509 -1.5906,0.87436 -1.13482,0.39998 -2.33474,0.39998 -2.00918,0 -3.35794,-1.31155 -1.33945,-1.32085 -1.33945,-3.1905 0,-1.70222 1.25574,-2.92075 1.26503,-1.21853 3.12539,-1.21853 1.91616,0 3.15329,1.25573 1.23714,1.24644 1.21853,3.23701 z m -0.79065,-0.79064 q -0.23254,-1.29295 -1.22783,-2.1022 -0.98599,-0.80926 -2.35334,-0.80926 -1.36736,0 -2.35335,0.79996 -0.98599,0.79995 -1.22783,2.1115 z" />
    </g>
    <text
       id="text839"
       y="74.180656"
       x="165.53999"
       style="color:#000000;font-style:normal;font-variant:normal;font-weight:normal;font-stretch:normal;font-size:4.23333px;line-height:125%;font-family:'Kunstler Script';-inkscape-font-specification:'Kunstler Script';letter-spacing:0px;word-spacing:0px;clip-rule:nonzero;display:inline;overflow:visible;visibility:visible;opacity:1;isolation:auto;mix-blend-mode:normal;color-interpolation:sRGB;color-interpolation-filters:linearRGB;solid-color:#000000;solid-opacity:1;fill:#0000ff;fill-opacity:1;fill-rule:nonzero;stroke:#000000;stroke-width:0.264583;stroke-linecap:butt;stroke-linejoin:miter;stroke-miterlimit:4;stroke-dasharray:none;stroke-dashoffset:0;stroke-opacity:1;color-rendering:auto;image-rendering:auto;shape-rendering:auto;text-rendering:auto;enable-background:accumulate"
       xml:space="preserve"><tspan
         style="stroke-width:0.264583"
         y="74.180656"
         x="165.53999"
         id="tspan837">+++</tspan></text>
    <text
       style="color:#000000;font-style:normal;font-variant:normal;font-weight:normal;font-stretch:normal;font-size:4.23333px;line-height:125%;font-family:'Kunstler Script';-inkscape-font-specification:'Kunstler Script';letter-spacing:0px;word-spacing:0px;white-space:pre;shape-inside:url(#rect843);clip-rule:nonzero;display:inline;overflow:visible;visibility:visible;opacity:1;isolation:auto;mix-blend-mode:normal;color-interpolation:sRGB;color-interpolation-filters:linearRGB;solid-color:#000000;solid-opacity:1;fill:#0000ff;fill-opacity:1;fill-rule:nonzero;stroke:#000000;stroke-width:0.264583;stroke-linecap:butt;stroke-linejoin:miter;stroke-miterlimit:4;stroke-dasharray:none;stroke-dashoffset:0;stroke-opacity:1;color-rendering:auto;image-rendering:auto;shape-rendering:auto;text-rendering:auto;enable-background:accumulate;"
       id="text841"
       xml:space="preserve" />
    <text
       id="text849"
       y="163.98666"
       x="134.99911"
       style="color:#000000;font-style:normal;font-variant:normal;font-weight:normal;font-stretch:normal;font-size:4.23333px;line-height:125%;font-family:'Kunstler Script';-inkscape-font-specification:'Kunstler Script';letter-spacing:0px;word-spacing:0px;clip-rule:nonzero;display:inline;overflow:visible;visibility:visible;opacity:1;isolation:auto;mix-blend-mode:normal;color-interpolation:sRGB;color-interpolation-filters:linearRGB;solid-color:#000000;solid-opacity:1;fill:#0000ff;fill-opacity:1;fill-rule:nonzero;stroke:#000000;stroke-width:0.264583;stroke-linecap:butt;stroke-linejoin:miter;stroke-miterlimit:4;stroke-dasharray:none;stroke-dashoffset:0;stroke-opacity:1;color-rendering:auto;image-rendering:auto;shape-rendering:auto;text-rendering:auto;enable-background:accumulate"
       xml:space="preserve"><tspan
         style="stroke-width:0.264583"
         y="163.98666"
         x="134.99911"
         id="tspan847">+</tspan></text>
  </g>
</svg>
