<?xml version="1.0" encoding="UTF-8" standalone="no"?>
<svg
   xmlns:dc="http://purl.org/dc/elements/1.1/"
   xmlns:cc="http://creativecommons.org/ns#"
   xmlns:rdf="http://www.w3.org/1999/02/22-rdf-syntax-ns#"
   xmlns:svg="http://www.w3.org/2000/svg"
   xmlns="http://www.w3.org/2000/svg"
   viewBox="0 0 230 72"
   enable-background="new 0 0 64 64"
   version="1.1"
   id="svg62"
   width="230"
   height="72">
  <metadata
     id="metadata68">
    <rdf:RDF>
      <cc:Work
         rdf:about="">
        <dc:format>image/svg+xml</dc:format>
        <dc:type
           rdf:resource="http://purl.org/dc/dcmitype/StillImage" />
        <dc:title></dc:title>
      </cc:Work>
    </rdf:RDF>
  </metadata>
  <defs
     id="defs66" />
  <g
     fill="#ff9d27"
     id="g6"
     transform="translate(4,4)">
    <path
       d="m 10.9,48.7 c 4,-4 4.4,-5 6.9,-2.5 2.5,2.5 1.5,2.8 -2.5,6.9 -3,3 -6.8,2.4 -6.8,2.4 0,0 -0.6,-3.8 2.4,-6.8"
       id="path2" />
    <path
       d="m 18.5,52.8 c 1.6,-4.2 2.1,-4.7 -0.2,-6 -2.3,-1.3 -2.3,-0.4 -3.8,3.8 -1.2,3.1 0.2,5.9 0.2,5.9 0,0 2.7,-0.5 3.8,-3.7"
       id="path4" />
  </g>
  <path
     d="m 20.2,52.9 c 0.9,-2.3 0.9,-2.8 2.1,-2.1 1.3,0.7 1,1 0.1,3.3 -0.6,1.7 -2.1,2.1 -2.1,2.1 0,0 -0.7,-1.5 -0.1,-3.3"
     fill="#fdf516"
     id="path8" />
  <path
     d="m 21.1,49.7 c -1.3,-2.3 -1.8,-1.8 -6,-0.2 -3.1,1.2 -3.7,3.8 -3.7,3.8 0,0 2.8,1.4 5.9,0.2 4.2,-1.6 5.1,-1.6 3.8,-3.8"
     fill="#ff9d27"
     id="path10" />
  <g
     fill="#fdf516"
     id="g16"
     transform="translate(4,4)">
    <path
       d="m 15,47.8 c 2.3,-0.9 2.8,-0.9 2.1,-2.1 -0.7,-1.3 -1,-1 -3.3,-0.1 -1.7,0.6 -2.1,2.1 -2.1,2.1 0,0 1.6,0.7 3.3,0.1"
       id="path12" />
    <path
       d="m 13.9,47.6 c 2.2,-2.2 2.4,-2.8 3.8,-1.4 1.4,1.4 0.8,1.6 -1.4,3.8 -1.7,1.7 -3.8,1.3 -3.8,1.3 0,0 -0.2,-2 1.4,-3.7"
       id="path14" />
  </g>
  <path
     d="M 22.5,42 C 16.3,31.6 6,35.9 6,35.9 c 0,0 14.7,-14.7 24.6,-4.8 z"
     fill="#3baacf"
     id="path18" />
  <path
     d="m 27.3,34.3 3.2,-3.2 C 20.7,21.2 6,35.9 6,35.9 c 0,0 12.9,-9.2 21.3,-1.6"
     fill="#428bc1"
     id="path20" />
  <path
     d="m 30,49.5 c 10.4,6.2 6.1,16.5 6.1,16.5 0,0 14.7,-14.7 4.8,-24.6 z"
     fill="#3baacf"
     id="path22" />
  <path
     d="m 37.7,44.7 3.2,-3.2 c 9.9,9.9 -4.8,24.6 -4.8,24.6 0,0 9.2,-13 1.6,-21.4"
     fill="#428bc1"
     id="path24" />
  <path
     d="M 52.8,34.9 C 41.1,46.5 28.2,52.8 23.7,48.3 19.2,43.8 25.5,30.9 37.1,19.2 50.7,5.6 65.8,6.2 65.8,6.2 c 0,0 0.5,15.1 -13,28.7"
     fill="#c5d0d8"
     id="path26" />
  <path
     d="M 49.8,31.6 C 38.2,43.2 26.6,50.8 23.9,48.1 21.2,45.4 28.8,33.8 40.4,22.2 54,8.6 66,6 66,6 66,6 63.4,18 49.8,31.6 Z"
     fill="#dae3ea"
     id="path28" />
  <path
     d="M 28.3,51.5 C 27.8,52 27,52 26.5,51.5 l -6,-6 C 20,45 20,44.1 20.5,43.6 l 1.8,-1.8 7.8,7.8 -1.8,1.9"
     fill="#c94747"
     id="path30" />
  <path
     d="m 26.6,49.7 c -0.5,0.5 -1.1,0.7 -1.4,0.4 l -3.4,-3.4 c -0.3,-0.3 -0.1,-0.9 0.4,-1.4 l 1.8,-1.8 4.4,4.4 -1.8,1.8"
     fill="#f15744"
     id="path32" />
  <path
     d="m 24.9,52.2 c -0.3,0.3 -1,0.3 -1.3,0 L 19.7,48.3 C 19.4,48 19.5,47.4 19.8,47.1 l 1.2,-1.2 5.1,5.1 -1.2,1.2"
     fill="#3e4347"
     id="path34" />
  <path
     d="m 24.1,51.4 c -0.3,0.3 -0.9,0.4 -1.1,0.2 l -2.7,-2.7 c -0.2,-0.2 -0.1,-0.7 0.3,-1 l 1.2,-1.2 3.5,3.5 -1.2,1.2"
     fill="#62727a"
     id="path36" />
  <path
     d="m 65.8,6.2 c 0,0 -5.4,-0.2 -12.7,2.6 L 63.2,18.9 C 66,11.6 65.8,6.2 65.8,6.2"
     fill="#c94747"
     id="path38" />
  <path
     d="m 65.8,6.2 c 0,0 -4.3,0.9 -10.8,4.6 L 61.2,17 C 64.9,10.5 65.8,6.2 65.8,6.2"
     fill="#f15744"
     id="path40" />
  <circle
     cx="47.5"
     cy="24.5"
     r="5"
     fill="#edf4f9"
     id="circle42" />
  <circle
     cx="47.5"
     cy="24.5"
     r="3.3"
     fill="#3baacf"
     id="circle44" />
  <circle
     cx="37.5"
     cy="34.5"
     r="5"
     fill="#edf4f9"
     id="circle46" />
  <circle
     cx="37.5"
     cy="34.5"
     r="3.3"
     fill="#3baacf"
     id="circle48" />
  <g
     fill="#ffffff"
     id="g60"
     transform="translate(4,4)">
    <path
       d="m 48.9,6.9 c -0.3,0.3 -0.9,0.3 -1.2,0 -0.3,-0.3 -0.3,-0.9 0,-1.2 0.3,-0.3 0.9,-0.3 1.2,0 0.3,0.3 0.3,0.9 0,1.2"
       id="path50" />
    <circle
       cx="50.599998"
       cy="8.6000004"
       r="0.80000001"
       id="circle52" />
    <circle
       cx="53"
       cy="11"
       r="0.80000001"
       id="circle54" />
    <circle
       cx="55.299999"
       cy="13.4"
       r="0.80000001"
       id="circle56" />
    <circle
       cx="57.700001"
       cy="15.7"
       r="0.80000001"
       id="circle58" />
  </g>
  <text
     xml:space="preserve"
     style="color:#000000;font-style:normal;font-variant:normal;font-weight:normal;font-stretch:normal;font-size:20px;line-height:125%;font-family:'Kunstler Script';-inkscape-font-specification:'Kunstler Script';letter-spacing:0px;word-spacing:0px;clip-rule:nonzero;display:inline;overflow:visible;visibility:visible;opacity:1;isolation:auto;mix-blend-mode:normal;color-interpolation:sRGB;color-interpolation-filters:linearRGB;solid-color:#000000;solid-opacity:1;fill:#0000ff;fill-opacity:1;fill-rule:nonzero;stroke:#000000;stroke-width:1;stroke-linecap:butt;stroke-linejoin:miter;stroke-miterlimit:4;stroke-dasharray:none;stroke-dashoffset:0;stroke-opacity:1;color-rendering:auto;image-rendering:auto;shape-rendering:auto;text-rendering:auto;enable-background:accumulate"
     x="77.279297"
     y="30.450069"
     id="text895"><tspan
       id="tspan893"
       x="77.279297"
       y="30.450069"
       style="font-style:normal;font-variant:normal;font-weight:normal;font-stretch:normal;font-size:20px;font-family:Bahnschrift;-inkscape-font-specification:Bahnschrift;fill:#000000;fill-opacity:1;stroke:none;stroke-opacity:1">Demo Merchant</tspan></text>
  <text
     xml:space="preserve"
     style="color:#000000;font-style:normal;font-variant:normal;font-weight:normal;font-stretch:normal;font-size:10px;line-height:125%;font-family:'Kunstler Script';-inkscape-font-specification:'Kunstler Script';letter-spacing:0px;word-spacing:0px;clip-rule:nonzero;display:inline;overflow:visible;visibility:visible;opacity:1;isolation:auto;mix-blend-mode:normal;color-interpolation:sRGB;color-interpolation-filters:linearRGB;solid-color:#000000;solid-opacity:1;fill:#0000ff;fill-opacity:1;fill-rule:nonzero;stroke:#000000;stroke-width:1;stroke-linecap:butt;stroke-linejoin:miter;stroke-miterlimit:4;stroke-dasharray:none;stroke-dashoffset:0;stroke-opacity:1;color-rendering:auto;image-rendering:auto;shape-rendering:auto;text-rendering:auto;enable-background:accumulate"
     x="77.604195"
     y="52.367939"
     id="text899"><tspan
       id="tspan897"
       x="77.604195"
       y="52.367939"
       style="font-style:normal;font-variant:normal;font-weight:normal;font-stretch:normal;font-size:10px;font-family:Bahnschrift;-inkscape-font-specification:Bahnschrift;fill:#000000;fill-opacity:1;stroke:none">&quot;Rocket Science for Everybody&quot;</tspan></text>
  <text
     xml:space="preserve"
     style="color:#000000;font-style:normal;font-variant:normal;font-weight:normal;font-stretch:normal;font-size:16px;line-height:125%;font-family:'Kunstler Script';-inkscape-font-specification:'Kunstler Script';letter-spacing:0px;word-spacing:0px;clip-rule:nonzero;display:inline;overflow:visible;visibility:visible;opacity:1;isolation:auto;mix-blend-mode:normal;color-interpolation:sRGB;color-interpolation-filters:linearRGB;solid-color:#000000;solid-opacity:1;fill:#0000ff;fill-opacity:1;fill-rule:nonzero;stroke:#000000;stroke-width:1;stroke-linecap:butt;stroke-linejoin:miter;stroke-miterlimit:4;stroke-dasharray:none;stroke-dashoffset:0;stroke-opacity:1;color-rendering:auto;image-rendering:auto;shape-rendering:auto;text-rendering:auto;enable-background:accumulate"
     x="-7.2829223"
     y="-69.916054"
     id="text905"><tspan
       id="tspan903"
       x="-7.2829223"
       y="-69.916054" /></text>
  <rect
     style="opacity:0.719355;fill:none;fill-opacity:1;stroke:#000000;stroke-width:0.7;stroke-linejoin:round;stroke-miterlimit:4;stroke-dasharray:none;stroke-opacity:1;paint-order:stroke fill markers"
     id="rect907"
     width="225"
     height="68.526085"
     x="1.7369612"
     y="1.736962" />
</svg>
