<?xml version="1.0"?><svg width="640" height="480" xmlns="http://www.w3.org/2000/svg">
 <g>
  <title>Layer 1</title>
  <path stroke="#96b566" d="m327.751251,149.336273c0,5.951782 -4.706635,10.583679 -10.698212,10.583679h-111.947769c-6.031418,0 -10.698212,-4.631897 -10.698212,-10.583679v-94.401272c0,-5.951763 4.671753,-10.583675 10.698212,-10.583675h111.947769c5.991577,0 10.698212,4.631912 10.698212,10.583675v94.401272l0,0zm130.50531,12.057922c-14.164673,-3.112854 -19.299652,-10.389435 -19.299652,-17.083282v-24.394714c0,0 9.418213,2.101784 11.674377,2.684509c4.592072,1.205299 7.510712,8.247803 7.625275,14.398773c0.154388,6.145981 0,24.394714 0,24.394714zm28.518616,148.21109c0,-0.234039 -3.929688,-29.962952 -3.929688,-29.962952v-137.273834c0,-14.707558 -4.826172,-26.655891 -14.787262,-36.691689l-63.57666,-63.267895c-4.397827,0 -16.535431,12.102737 -16.535431,12.102737c0,4.397816 31.556732,35.720486 31.556732,35.720486l-0.93631,53.266945c0,18.911133 15.369965,34.241257 34.355774,34.241257l8.521759,0.114563l-3.033142,101.792435l4.243408,34.903687l19.105347,102.997711c0.702271,16.729614 -14.593018,26.690704 -26.655884,26.690704c-11.166351,0 -24.125732,-9.223938 -24.125732,-21.127441l0.23407,-180.50502c0,-21.94426 -17.820435,-39.764664 -39.764679,-39.764664c0,0 -38.170929,0 -38.365173,0c2.68454,-0.154404 2.799103,-118.208321 2.799103,-143.270443c0,-2.958431 0,-4.631893 0,-4.631893c0,-21.36158 -17.431946,-38.753635 -38.833374,-38.753635h-111.942764c-21.401413,0 -38.833328,17.392056 -38.833328,38.753635v409.141991l189.609467,3.15271l0.194183,-239.026428h35.800201c8.207947,0 14.901764,6.693832 14.901764,14.901794v180.001953c0,24.165619 22.566925,45.332916 48.326263,45.332916c24.320038,0 51.558624,-19.339447 51.558624,-45.332916c-0.428314,-5.996582 -19.887268,-113.506714 -19.887268,-113.506714z" fill="#96b566"/>
 </g>
</svg>