<?xml version="1.0"?>
<svg viewBox="0 0 68 91" xmlns="http://www.w3.org/2000/svg">
 <g>
   <path id="svg_3" fill="#96b566" d="m32.422,26.734c0,1.195 -0.945,2.125 -2.148,2.125l-22.477,0c-1.211,0 -2.148,-0.93 -2.148,-2.125l0,-18.954c0,-1.195 0.938,-2.125 2.148,-2.125l22.477,0c1.203,0 2.148,0.93 2.148,2.125l0,18.954zm26.203,2.421c-2.844,-0.625 -3.875,-2.086 -3.875,-3.43l0,-4.898c0,0 1.891,0.422 2.344,0.539c0.922,0.242 1.508,1.656 1.531,2.891c0.031,1.234 0,4.898 0,4.898zm5.726,29.758c0,-0.047 -0.789,-6.016 -0.789,-6.016l0,-27.562c0,-2.953 -0.969,-5.352 -2.969,-7.367l-12.765,-12.703c-0.883,0 -3.32,2.43 -3.32,2.43c0,0.883 6.336,7.172 6.336,7.172l-0.188,10.695c0,3.797 3.086,6.875 6.898,6.875l1.711,0.023l-0.609,20.438l0.852,7.008l3.836,20.68c0.141,3.359 -2.93,5.359 -5.352,5.359c-2.242,0 -4.844,-1.852 -4.844,-4.242l0.047,-36.242c0,-4.406 -3.578,-7.984 -7.984,-7.984c0,0 -7.664,0 -7.703,0c0.539,-0.031 0.562,-23.734 0.562,-28.766c0,-0.594 0,-0.93 0,-0.93c0,-4.289 -3.5,-7.781 -7.797,-7.781l-22.476,0c-4.297,0 -7.797,3.492 -7.797,7.781l0,82.148l38.07,0.633l0.039,-47.992l7.188,0c1.648,0 2.992,1.344 2.992,2.992l0,36.141c0,4.852 4.531,9.102 9.703,9.102c4.883,0 10.352,-3.883 10.352,-9.102c-0.086,-1.204 -3.993,-22.79 -3.993,-22.79z"/>
 </g>
</svg>
