<?xml version='1.0' encoding='utf-8'?>
<svg width='300' height='100' xmlns='http://www.w3.org/2000/svg'>
  <title>VISA/MC Legacy Payment</title>
  <!-- Anders Rundgren 2021-->
  <rect x='1' y='1' width='297' height='98' stroke='grey' stroke-width='2' fill='none'/>
  <line x1='150' y1='1' x2='150' y2='100' stroke='grey' stroke-width='2' fill='none'/>
<svg
   x="175"
   y="3"
   width="90"
   height="42"
   viewBox="0 0 1000.046 323.653"
   enable-background="new 0 0 258.381 161.154">
<g
   id="g4158"
   transform="matrix(4.4299631,0,0,4.4299631,-81.165783,-105.04783)"><polygon
     points="116.145,95.719 97.858,95.719 109.296,24.995 127.582,24.995 "
     id="polygon9"
     style="fill:#00579f" /><path
     d="m 182.437,26.724 c -3.607,-1.431 -9.328,-3.011 -16.402,-3.011 -18.059,0 -30.776,9.63 -30.854,23.398 -0.15,10.158 9.105,15.8 16.027,19.187 7.075,3.461 9.48,5.72 9.48,8.805 -0.072,4.738 -5.717,6.922 -10.982,6.922 -7.301,0 -11.213,-1.126 -17.158,-3.762 l -2.408,-1.13 -2.559,15.876 c 4.289,1.954 12.191,3.688 20.395,3.764 19.188,0 31.68,-9.481 31.828,-24.153 0.073,-8.051 -4.814,-14.22 -15.35,-19.261 -6.396,-3.236 -10.313,-5.418 -10.313,-8.729 0.075,-3.01 3.313,-6.093 10.533,-6.093 5.945,-0.151 10.313,1.278 13.622,2.708 l 1.654,0.751 2.487,-15.272 0,0 z"
     id="path11"
     style="fill:#00579f" /><path
     d="m 206.742,70.664 c 1.506,-4.063 7.301,-19.788 7.301,-19.788 -0.076,0.151 1.503,-4.138 2.406,-6.771 l 1.278,6.094 c 0,0 3.463,16.929 4.215,20.465 -2.858,0 -11.588,0 -15.2,0 l 0,0 z m 22.573,-45.669 -14.145,0 c -4.362,0 -7.676,1.278 -9.558,5.868 l -27.163,64.855 19.188,0 c 0,0 3.159,-8.729 3.838,-10.609 2.105,0 20.771,0 23.479,0 0.525,2.483 2.182,10.609 2.182,10.609 l 16.932,0 -14.753,-70.723 0,0 z"
     id="path13"
     style="fill:#00579f" /><path
     d="M 82.584,24.995 64.675,73.222 62.718,63.441 C 59.407,52.155 49.023,39.893 37.435,33.796 l 16.404,61.848 19.338,0 28.744,-70.649 -19.337,0 0,0 z"
     id="path15"
     style="fill:#00579f" /><path
     d="m 48.045,24.995 -29.422,0 -0.301,1.429 c 22.951,5.869 38.151,20.016 44.396,37.02 L 56.322,30.94 c -1.053,-4.517 -4.289,-5.796 -8.277,-5.945 l 0,0 z"
     id="path17"
     style="fill:#faa61a" /></g>
</svg>
<svg
   xmlns="http://www.w3.org/2000/svg"
   viewBox="0 0 1000.008 775.97201"
   x='195'
   y='20'
   width="60">
   height="40"
  <g
     transform="matrix(3.3557321,0,0,3.3557321,-1551.7864,-1849.1059)"
     id="layer1">
    <g
       transform="matrix(2.5579399,0,0,2.5579399,884.90115,-11.427398)">
      <g
         transform="translate(-502.86126,-41.013507)">
        <path
           d="m 358.9,351.1 0,-6 c 0,-2.3 -1.4,-3.8 -3.8,-3.8 -1.2,0 -2.5,0.4 -3.4,1.7 -0.7,-1.1 -1.7,-1.7 -3.2,-1.7 -1,0 -2,0.3 -2.8,1.4 l 0,-1.2 -2.1,0 0,9.6 2.1,0 0,-5.3 c 0,-1.7 0.9,-2.5 2.3,-2.5 1.4,0 2.1,0.9 2.1,2.5 l 0,5.3 2.1,0 0,-5.3 c 0,-1.7 1,-2.5 2.3,-2.5 1.4,0 2.1,0.9 2.1,2.5 l 0,5.3 2.3,0 z m 31.1,-9.6 -3.4,0 0,-2.9 -2.1,0 0,2.9 -1.9,0 0,1.9 1.9,0 0,4.4 c 0,2.2 0.9,3.5 3.3,3.5 0.9,0 1.9,-0.3 2.6,-0.7 l -0.6,-1.8 c -0.6,0.4 -1.3,0.5 -1.8,0.5 -1,0 -1.4,-0.6 -1.4,-1.6 l 0,-4.3 3.4,0 0,-1.9 z m 17.8,-0.2 c -1.2,0 -2,0.6 -2.5,1.4 l 0,-1.2 -2.1,0 0,9.6 2.1,0 0,-5.4 c 0,-1.6 0.7,-2.5 2,-2.5 0.4,0 0.9,0.1 1.3,0.2 l 0.6,-2 c -0.4,-0.1 -1,-0.1 -1.4,-0.1 l 0,0 z m -26.9,1 c -1,-0.7 -2.4,-1 -3.9,-1 -2.4,0 -4,1.2 -4,3.1 0,1.6 1.2,2.5 3.3,2.8 l 1,0.1 c 1.1,0.2 1.7,0.5 1.7,1 0,0.7 -0.8,1.2 -2.2,1.2 -1.4,0 -2.5,-0.5 -3.2,-1 l -1,1.6 c 1.1,0.8 2.6,1.2 4.1,1.2 2.8,0 4.4,-1.3 4.4,-3.1 0,-1.7 -1.3,-2.6 -3.3,-2.9 l -1,-0.1 c -0.9,-0.1 -1.6,-0.3 -1.6,-0.9 0,-0.7 0.7,-1.1 1.8,-1.1 1.2,0 2.4,0.5 3,0.8 l 0.9,-1.7 z m 55.8,-1 c -1.2,0 -2,0.6 -2.5,1.4 l 0,-1.2 -2.1,0 0,9.6 2.1,0 0,-5.4 c 0,-1.6 0.7,-2.5 2,-2.5 0.4,0 0.9,0.1 1.3,0.2 l 0.6,-2 c -0.4,-0.1 -1,-0.1 -1.4,-0.1 l 0,0 z m -26.8,5 c 0,2.9 2,5 5.1,5 1.4,0 2.4,-0.3 3.4,-1.1 l -1,-1.7 c -0.8,0.6 -1.6,0.9 -2.5,0.9 -1.7,0 -2.9,-1.2 -2.9,-3.1 0,-1.8 1.2,-3 2.9,-3.1 0.9,0 1.7,0.3 2.5,0.9 l 1,-1.7 c -1,-0.8 -2,-1.1 -3.4,-1.1 -3.1,0 -5.1,2.1 -5.1,5 l 0,0 z m 19.4,0 0,-4.8 -2.1,0 0,1.2 c -0.7,-0.9 -1.7,-1.4 -3,-1.4 -2.7,0 -4.8,2.1 -4.8,5 0,2.9 2.1,5 4.8,5 1.4,0 2.4,-0.5 3,-1.4 l 0,1.2 2.1,0 0,-4.8 z m -7.7,0 c 0,-1.7 1.1,-3.1 2.9,-3.1 1.7,0 2.9,1.3 2.9,3.1 0,1.7 -1.2,3.1 -2.9,3.1 -1.8,-0.1 -2.9,-1.4 -2.9,-3.1 l 0,0 z m -25.1,-5 c -2.8,0 -4.8,2 -4.8,5 0,3 2,5 4.9,5 1.4,0 2.8,-0.4 3.9,-1.3 l -1,-1.5 c -0.8,0.6 -1.8,1 -2.8,1 -1.3,0 -2.6,-0.6 -2.9,-2.3 l 7.1,0 c 0,-0.3 0,-0.5 0,-0.8 0.1,-3.1 -1.7,-5.1 -4.4,-5.1 l 0,0 z m 0,1.8 c 1.3,0 2.2,0.8 2.4,2.3 l -5,0 c 0.2,-1.3 1.1,-2.3 2.6,-2.3 l 0,0 z m 52.1,3.2 0,-8.6 -2.1,0 0,5 c -0.7,-0.9 -1.7,-1.4 -3,-1.4 -2.7,0 -4.8,2.1 -4.8,5 0,2.9 2.1,5 4.8,5 1.4,0 2.4,-0.5 3,-1.4 l 0,1.2 2.1,0 0,-4.8 z m -7.7,0 c 0,-1.7 1.1,-3.1 2.9,-3.1 1.7,0 2.9,1.3 2.9,3.1 0,1.7 -1.2,3.1 -2.9,3.1 -1.8,-0.1 -2.9,-1.4 -2.9,-3.1 l 0,0 z m -70.2,0 0,-4.8 -2.1,0 0,1.2 c -0.7,-0.9 -1.7,-1.4 -3,-1.4 -2.7,0 -4.8,2.1 -4.8,5 0,2.9 2.1,5 4.8,5 1.4,0 2.4,-0.5 3,-1.4 l 0,1.2 2.1,0 0,-4.8 z m -7.8,0 c 0,-1.7 1.1,-3.1 2.9,-3.1 1.7,0 2.9,1.3 2.9,3.1 0,1.7 -1.2,3.1 -2.9,3.1 -1.8,-0.1 -2.9,-1.4 -2.9,-3.1 z"/>
      </g>
      <g
         transform="translate(-502.86126,-41.013507)"
         id="XMLID_328_">
        <rect
           style="fill:#ff5f00"
           height="56.599998"
           width="31.5"
           y="268.60001"
           x="380.20001" />
        <path
           style="fill:#eb001b"
           d="m 382.2,296.9 c 0,-11.5 5.4,-21.7 13.7,-28.3 -6.1,-4.8 -13.8,-7.7 -22.2,-7.7 -19.9,0 -36,16.1 -36,36 0,19.9 16.1,36 36,36 8.4,0 16.1,-2.9 22.2,-7.7 -8.3,-6.5 -13.7,-16.8 -13.7,-28.3 z"/>
        <path
           style="fill:#f79e1b"
           d="m 454.2,296.9 c 0,19.9 -16.1,36 -36,36 -8.4,0 -16.1,-2.9 -22.2,-7.7 8.4,-6.6 13.7,-16.8 13.7,-28.3 0,-11.5 -5.4,-21.7 -13.7,-28.3 6.1,-4.8 13.8,-7.7 22.2,-7.7 19.9,0 36,16.2 36,36 z"/>
      </g>
    </g>
  </g>
</svg>

<text font-size='30' font-family='Roboto,sans-serif' text-anchor='middle'>
<tspan x='78' y='43'>Payment</tspan>
<tspan x='78' y='79'>Card</tspan>
</text>

</svg>
