<svg width="232" height="232" viewBox="32 32 168 168" xmlns="http://www.w3.org/2000/svg">
<rect x="32" y="32" width="168" height="168" fill="white"/>
<defs>
<rect id="p" width="8" height="8"/>
</defs>
<g fill="#000000">
<use href="#p" x="32" y="32"/>
<use href="#p" x="32" y="40"/>
<use href="#p" x="32" y="48"/>
<use href="#p" x="32" y="56"/>
<use href="#p" x="32" y="64"/>
<use href="#p" x="32" y="72"/>
<use href="#p" x="32" y="80"/>
<use href="#p" x="32" y="96"/>
<use href="#p" x="32" y="104"/>
<use href="#p" x="32" y="144"/>
<use href="#p" x="32" y="152"/>
<use href="#p" x="32" y="160"/>
<use href="#p" x="32" y="168"/>
<use href="#p" x="32" y="176"/>
<use href="#p" x="32" y="184"/>
<use href="#p" x="32" y="192"/>
<use href="#p" x="40" y="32"/>
<use href="#p" x="40" y="80"/>
<use href="#p" x="40" y="96"/>
<use href="#p" x="40" y="120"/>
<use href="#p" x="40" y="128"/>
<use href="#p" x="40" y="144"/>
<use href="#p" x="40" y="192"/>
<use href="#p" x="48" y="32"/>
<use href="#p" x="48" y="48"/>
<use href="#p" x="48" y="56"/>
<use href="#p" x="48" y="64"/>
<use href="#p" x="48" y="80"/>
<use href="#p" x="48" y="96"/>
<use href="#p" x="48" y="112"/>
<use href="#p" x="48" y="120"/>
<use href="#p" x="48" y="144"/>
<use href="#p" x="48" y="160"/>
<use href="#p" x="48" y="168"/>
<use href="#p" x="48" y="176"/>
<use href="#p" x="48" y="192"/>
<use href="#p" x="56" y="32"/>
<use href="#p" x="56" y="48"/>
<use href="#p" x="56" y="56"/>
<use href="#p" x="56" y="64"/>
<use href="#p" x="56" y="80"/>
<use href="#p" x="56" y="96"/>
<use href="#p" x="56" y="104"/>
<use href="#p" x="56" y="120"/>
<use href="#p" x="56" y="128"/>
<use href="#p" x="56" y="144"/>
<use href="#p" x="56" y="160"/>
<use href="#p" x="56" y="168"/>
<use href="#p" x="56" y="176"/>
<use href="#p" x="56" y="192"/>
<use href="#p" x="64" y="32"/>
<use href="#p" x="64" y="48"/>
<use href="#p" x="64" y="56"/>
<use href="#p" x="64" y="64"/>
<use href="#p" x="64" y="80"/>
<use href="#p" x="64" y="128"/>
<use href="#p" x="64" y="144"/>
<use href="#p" x="64" y="160"/>
<use href="#p" x="64" y="168"/>
<use href="#p" x="64" y="176"/>
<use href="#p" x="64" y="192"/>
<use href="#p" x="72" y="32"/>
<use href="#p" x="72" y="80"/>
<use href="#p" x="72" y="104"/>
<use href="#p" x="72" y="120"/>
<use href="#p" x="72" y="144"/>
<use href="#p" x="72" y="192"/>
<use href="#p" x="80" y="32"/>
<use href="#p" x="80" y="40"/>
<use href="#p" x="80" y="48"/>
<use href="#p" x="80" y="56"/>
<use href="#p" x="80" y="64"/>
<use href="#p" x="80" y="72"/>
<use href="#p" x="80" y="80"/>
<use href="#p" x="80" y="96"/>
<use href="#p" x="80" y="112"/>
<use href="#p" x="80" y="128"/>
<use href="#p" x="80" y="144"/>
<use href="#p" x="80" y="152"/>
<use href="#p" x="80" y="160"/>
<use href="#p" x="80" y="168"/>
<use href="#p" x="80" y="176"/>
<use href="#p" x="80" y="184"/>
<use href="#p" x="80" y="192"/>
<use href="#p" x="88" y="104"/>
<use href="#p" x="88" y="120"/>
<use href="#p" x="96" y="32"/>
<use href="#p" x="96" y="48"/>
<use href="#p" x="96" y="56"/>
<use href="#p" x="96" y="64"/>
<use href="#p" x="96" y="80"/>
<use href="#p" x="96" y="96"/>
<use href="#p" x="96" y="104"/>
<use href="#p" x="96" y="120"/>
<use href="#p" x="96" y="136"/>
<use href="#p" x="96" y="168"/>
<use href="#p" x="96" y="176"/>
<use href="#p" x="96" y="184"/>
<use href="#p" x="96" y="192"/>
<use href="#p" x="104" y="32"/>
<use href="#p" x="104" y="40"/>
<use href="#p" x="104" y="56"/>
<use href="#p" x="104" y="64"/>
<use href="#p" x="104" y="88"/>
<use href="#p" x="104" y="104"/>
<use href="#p" x="104" y="120"/>
<use href="#p" x="104" y="136"/>
<use href="#p" x="104" y="152"/>
<use href="#p" x="104" y="160"/>
<use href="#p" x="104" y="168"/>
<use href="#p" x="104" y="176"/>
<use href="#p" x="104" y="192"/>
<use href="#p" x="112" y="48"/>
<use href="#p" x="112" y="64"/>
<use href="#p" x="112" y="80"/>
<use href="#p" x="112" y="88"/>
<use href="#p" x="112" y="96"/>
<use href="#p" x="112" y="104"/>
<use href="#p" x="112" y="120"/>
<use href="#p" x="112" y="128"/>
<use href="#p" x="112" y="152"/>
<use href="#p" x="112" y="160"/>
<use href="#p" x="112" y="176"/>
<use href="#p" x="120" y="40"/>
<use href="#p" x="120" y="56"/>
<use href="#p" x="120" y="72"/>
<use href="#p" x="120" y="120"/>
<use href="#p" x="120" y="128"/>
<use href="#p" x="120" y="136"/>
<use href="#p" x="120" y="144"/>
<use href="#p" x="120" y="160"/>
<use href="#p" x="120" y="168"/>
<use href="#p" x="120" y="176"/>
<use href="#p" x="120" y="192"/>
<use href="#p" x="128" y="56"/>
<use href="#p" x="128" y="64"/>
<use href="#p" x="128" y="80"/>
<use href="#p" x="128" y="128"/>
<use href="#p" x="128" y="136"/>
<use href="#p" x="128" y="168"/>
<use href="#p" x="128" y="176"/>
<use href="#p" x="128" y="184"/>
<use href="#p" x="136" y="96"/>
<use href="#p" x="136" y="112"/>
<use href="#p" x="136" y="128"/>
<use href="#p" x="136" y="168"/>
<use href="#p" x="136" y="184"/>
<use href="#p" x="136" y="192"/>
<use href="#p" x="144" y="32"/>
<use href="#p" x="144" y="40"/>
<use href="#p" x="144" y="48"/>
<use href="#p" x="144" y="56"/>
<use href="#p" x="144" y="64"/>
<use href="#p" x="144" y="72"/>
<use href="#p" x="144" y="80"/>
<use href="#p" x="144" y="104"/>
<use href="#p" x="144" y="112"/>
<use href="#p" x="144" y="128"/>
<use href="#p" x="144" y="136"/>
<use href="#p" x="144" y="144"/>
<use href="#p" x="144" y="184"/>
<use href="#p" x="144" y="192"/>
<use href="#p" x="152" y="32"/>
<use href="#p" x="152" y="80"/>
<use href="#p" x="152" y="104"/>
<use href="#p" x="152" y="112"/>
<use href="#p" x="152" y="128"/>
<use href="#p" x="152" y="152"/>
<use href="#p" x="152" y="160"/>
<use href="#p" x="160" y="32"/>
<use href="#p" x="160" y="48"/>
<use href="#p" x="160" y="56"/>
<use href="#p" x="160" y="64"/>
<use href="#p" x="160" y="80"/>
<use href="#p" x="160" y="96"/>
<use href="#p" x="160" y="104"/>
<use href="#p" x="160" y="120"/>
<use href="#p" x="160" y="136"/>
<use href="#p" x="160" y="144"/>
<use href="#p" x="160" y="152"/>
<use href="#p" x="160" y="160"/>
<use href="#p" x="160" y="184"/>
<use href="#p" x="160" y="192"/>
<use href="#p" x="168" y="32"/>
<use href="#p" x="168" y="48"/>
<use href="#p" x="168" y="56"/>
<use href="#p" x="168" y="64"/>
<use href="#p" x="168" y="80"/>
<use href="#p" x="168" y="96"/>
<use href="#p" x="168" y="120"/>
<use href="#p" x="168" y="128"/>
<use href="#p" x="168" y="152"/>
<use href="#p" x="168" y="168"/>
<use href="#p" x="168" y="176"/>
<use href="#p" x="168" y="192"/>
<use href="#p" x="176" y="32"/>
<use href="#p" x="176" y="48"/>
<use href="#p" x="176" y="56"/>
<use href="#p" x="176" y="64"/>
<use href="#p" x="176" y="80"/>
<use href="#p" x="176" y="96"/>
<use href="#p" x="176" y="104"/>
<use href="#p" x="176" y="152"/>
<use href="#p" x="176" y="160"/>
<use href="#p" x="176" y="176"/>
<use href="#p" x="176" y="192"/>
<use href="#p" x="184" y="32"/>
<use href="#p" x="184" y="80"/>
<use href="#p" x="184" y="112"/>
<use href="#p" x="184" y="136"/>
<use href="#p" x="192" y="32"/>
<use href="#p" x="192" y="40"/>
<use href="#p" x="192" y="48"/>
<use href="#p" x="192" y="56"/>
<use href="#p" x="192" y="64"/>
<use href="#p" x="192" y="72"/>
<use href="#p" x="192" y="80"/>
<use href="#p" x="192" y="96"/>
<use href="#p" x="192" y="104"/>
<use href="#p" x="192" y="112"/>
<use href="#p" x="192" y="120"/>
<use href="#p" x="192" y="136"/>
<use href="#p" x="192" y="160"/>
<use href="#p" x="192" y="184"/>
</g>
</svg>