<?xml version="1.0" encoding="UTF-8" standalone="no"?>
<svg
   xmlns="http://www.w3.org/2000/svg"
   version="1.1"
   width="215"
   height="62"
   viewBox="5 5 215 62">
  <g stroke="none">
    <path d="m 94.877075,28.255821 q 0,2.094727 -1.643554,3.244141 -1.632813,1.149414 -4.608399,1.149414 -5.532226,0 -6.413086,-3.845703 l 1.987305,-0.397461 q 0.34375,1.364258 1.460937,2.008789 1.117188,0.633789 3.040039,0.633789 1.987305,0 3.061524,-0.676758 1.084961,-0.6875 1.084961,-2.008789 0,-0.741211 -0.34375,-1.203125 -0.333008,-0.461914 -0.945313,-0.762695 -0.612304,-0.300781 -1.460937,-0.504883 -0.848633,-0.204102 -1.879883,-0.44043 -1.793945,-0.397461 -2.728516,-0.794922 -0.923828,-0.397461 -1.460937,-0.880859 -0.53711,-0.494141 -0.827149,-1.149414 -0.279296,-0.655273 -0.279296,-1.503906 0,-1.944336 1.482421,-2.997071 1.493164,-1.052734 4.264649,-1.052734 2.578125,0 3.942383,0.794922 1.364257,0.78418 1.912109,2.685547 l -2.019531,0.354492 q -0.333008,-1.203125 -1.267578,-1.740234 -0.934571,-0.547852 -2.588868,-0.547852 -1.815429,0 -2.771484,0.601563 -0.956055,0.601562 -0.956055,1.793945 0,0.698242 0.365235,1.160156 0.375976,0.451172 1.074219,0.773438 0.698242,0.311523 2.782226,0.773437 0.698242,0.161133 1.385742,0.333008 0.698242,0.161133 1.332032,0.397461 0.633789,0.225586 1.18164,0.537109 0.558594,0.311524 0.966797,0.762696 0.408203,0.451171 0.633789,1.063476 0.236328,0.612305 0.236328,1.439453 z"/>
    <path d="m 107.21985,26.569298 q 0,6.080078 -4.27539,6.080078 -2.68555,0 -3.609377,-2.019531 h -0.05371 q 0.04297,0.08594 0.04297,1.826172 v 4.543945 H 97.390747 V 23.185509 q 0,-1.793946 -0.06445,-2.374024 h 1.869141 q 0.01074,0.04297 0.03223,0.311524 0.02148,0.257812 0.04297,0.805664 0.03223,0.547851 0.03223,0.751953 h 0.04297 q 0.515625,-1.074219 1.364255,-1.568359 0.84864,-0.504883 2.23438,-0.504883 2.14844,0 3.21191,1.439453 1.06348,1.439453 1.06348,4.522461 z m -2.03027,0.04297 q 0,-2.427735 -0.65528,-3.469727 -0.65527,-1.041992 -2.08398,-1.041992 -1.14942,0 -1.80469,0.483398 -0.64453,0.483399 -0.988281,1.514649 -0.333008,1.020507 -0.333008,2.664062 0,2.288086 0.730469,3.373047 0.73047,1.084961 2.37402,1.084961 1.43946,0 2.09473,-1.052734 0.66602,-1.063477 0.66602,-3.555664 z"/>
    <path d="m 112.60168,32.649376 q -1.75097,0 -2.63183,-0.923828 -0.88086,-0.923828 -0.88086,-2.535156 0,-1.804688 1.18164,-2.771485 1.19238,-0.966797 3.83496,-1.03125 l 2.61035,-0.04297 v -0.633789 q 0,-1.417968 -0.60156,-2.030273 -0.60156,-0.612305 -1.89063,-0.612305 -1.2998,0 -1.89062,0.44043 -0.59082,0.44043 -0.70898,1.407226 l -2.01954,-0.182617 q 0.49414,-3.136718 4.66211,-3.136718 2.19141,0 3.29786,1.009765 1.10644,0.999024 1.10644,2.900391 v 5.005859 q 0,0.859375 0.22559,1.299805 0.22558,0.429687 0.85937,0.429687 0.2793,0 0.63379,-0.0752 v 1.203125 q -0.73047,0.171875 -1.49316,0.171875 -1.07422,0 -1.56836,-0.558594 -0.4834,-0.569336 -0.54785,-1.772461 h -0.0645 q -0.74121,1.332032 -1.72949,1.890625 -0.97754,0.547852 -2.38477,0.547852 z m 0.44043,-1.450195 q 1.06348,0 1.89063,-0.483399 0.82715,-0.483398 1.2998,-1.321289 0.4834,-0.848633 0.4834,-1.740234 v -0.956055 l -2.11621,0.04297 q -1.36426,0.02148 -2.07324,0.279297 -0.69824,0.257812 -1.07422,0.794922 -0.37598,0.537109 -0.37598,1.407226 0,0.945313 0.50489,1.460938 0.51562,0.515625 1.46093,0.515625 z"/>
    <path d="m 123.35461,26.569298 q 0,2.320312 0.73047,3.4375 0.73047,1.117187 2.20215,1.117187 1.03125,0 1.71875,-0.558593 0.69824,-0.558594 0.85938,-1.71875 l 1.95507,0.128906 q -0.22558,1.675781 -1.42871,2.674804 -1.20312,0.999024 -3.05078,0.999024 -2.43847,0 -3.72754,-1.536133 -1.27832,-1.546875 -1.27832,-4.500976 0,-2.932618 1.28907,-4.46875 1.28906,-1.546875 3.69531,-1.546875 1.7832,0 2.9541,0.923828 1.18164,0.923828 1.48242,2.545898 l -1.9873,0.150391 q -0.15039,-0.966797 -0.7627,-1.536133 -0.6123,-0.569336 -1.74023,-0.569336 -1.53614,0 -2.22364,1.020508 -0.6875,1.020508 -0.6875,3.4375 z"/>
    <path d="m 134.36536,27.031212 q 0,1.998047 0.82714,3.083008 0.82715,1.084961 2.417,1.084961 1.25683,0 2.00879,-0.504883 0.76269,-0.504883 1.03125,-1.278321 l 1.69726,0.483399 q -1.04199,2.75 -4.7373,2.75 -2.57813,0 -3.93164,-1.536133 -1.34278,-1.536133 -1.34278,-4.56543 0,-2.878906 1.34278,-4.415039 1.35351,-1.536132 3.85644,-1.536132 5.12403,0 5.12403,6.176757 v 0.257813 z m 6.29492,-1.482422 q -0.16113,-1.836914 -0.93457,-2.674805 -0.77344,-0.848633 -2.22363,-0.848633 -1.40723,0 -2.23438,0.945313 -0.81641,0.93457 -0.88086,2.578125 z"/>
    <path d="m 163.41223,28.255821 q 0,2.094727 -1.64355,3.244141 -1.63282,1.149414 -4.6084,1.149414 -5.53223,0 -6.41309,-3.845703 l 1.98731,-0.397461 q 0.34375,1.364258 1.46093,2.008789 1.11719,0.633789 3.04004,0.633789 1.98731,0 3.06153,-0.676758 1.08496,-0.6875 1.08496,-2.008789 0,-0.741211 -0.34375,-1.203125 -0.33301,-0.461914 -0.94531,-0.762695 -0.61231,-0.300781 -1.46094,-0.504883 -0.84863,-0.204102 -1.87988,-0.44043 -1.79395,-0.397461 -2.72852,-0.794922 -0.92383,-0.397461 -1.46094,-0.880859 -0.53711,-0.494141 -0.82715,-1.149414 -0.27929,-0.655273 -0.27929,-1.503906 0,-1.944336 1.48242,-2.997071 1.49316,-1.052734 4.26465,-1.052734 2.57812,0 3.94238,0.794922 1.36426,0.78418 1.91211,2.685547 l -2.01953,0.354492 q -0.33301,-1.203125 -1.26758,-1.740234 -0.93457,-0.547852 -2.58887,-0.547852 -1.81543,0 -2.77148,0.601563 -0.95606,0.601562 -0.95606,1.793945 0,0.698242 0.36524,1.160156 0.37597,0.451172 1.07422,0.773438 0.69824,0.311523 2.78222,0.773437 0.69825,0.161133 1.38575,0.333008 0.69824,0.161133 1.33203,0.397461 0.63379,0.225586 1.18164,0.537109 0.55859,0.311524 0.96679,0.762696 0.40821,0.451171 0.63379,1.063476 0.23633,0.612305 0.23633,1.439453 z"/>
    <path d="m 167.84875,22.79879 q 0.62305,-1.138672 1.49317,-1.665039 0.88086,-0.537109 2.22363,-0.537109 1.89063,0 2.78223,0.945312 0.90234,0.93457 0.90234,3.147461 v 7.745117 h -1.94433 v -7.36914 q 0,-1.22461 -0.22559,-1.81543 -0.22559,-0.601563 -0.74121,-0.88086 -0.51563,-0.279296 -1.42871,-0.279296 -1.36426,0 -2.19141,0.945312 -0.8164,0.945313 -0.8164,2.545899 v 6.853515 h -1.9336 V 16.493126 h 1.9336 v 4.146484 q 0,0.655274 -0.043,1.353516 -0.0322,0.698242 -0.043,0.805664 z"/>
    <path d="m 188.0011,26.612267 q 0,3.050781 -1.34277,4.543945 -1.34278,1.493164 -3.89942,1.493164 -2.5459,0 -3.8457,-1.546875 -1.29981,-1.557617 -1.29981,-4.490234 0,-6.015625 5.20996,-6.015625 2.66407,0 3.9209,1.471679 1.25684,1.460938 1.25684,4.543946 z m -2.03027,0 q 0,-2.40625 -0.71973,-3.491211 -0.70899,-1.095704 -2.39551,-1.095704 -1.69726,0 -2.45996,1.117188 -0.75195,1.106445 -0.75195,3.469727 0,2.298828 0.74121,3.458984 0.75195,1.149414 2.35254,1.149414 1.74023,0 2.48144,-1.117188 0.75196,-1.117187 0.75196,-3.49121 z"/>
    <path d="m 200.24719,26.569298 q 0,6.080078 -4.27539,6.080078 -2.68555,0 -3.60937,-2.019531 h -0.0537 q 0.043,0.08594 0.043,1.826172 v 4.543945 h -1.93359 V 23.185509 q 0,-1.793946 -0.0644,-2.374024 h 1.86914 q 0.0107,0.04297 0.0322,0.311524 0.0215,0.257812 0.043,0.805664 0.0322,0.547851 0.0322,0.751953 h 0.043 q 0.51562,-1.074219 1.36426,-1.568359 0.84863,-0.504883 2.23437,-0.504883 2.14844,0 3.21192,1.439453 1.06347,1.439453 1.06347,4.522461 z m -2.03027,0.04297 q 0,-2.427735 -0.65527,-3.469727 -0.65528,-1.041992 -2.08399,-1.041992 -1.14941,0 -1.80469,0.483398 -0.64453,0.483399 -0.98828,1.514649 -0.33301,1.020507 -0.33301,2.664062 0,2.288086 0.73047,3.373047 0.73047,1.084961 2.37403,1.084961 1.43945,0 2.09472,-1.052734 0.66602,-1.063477 0.66602,-3.555664 z"/>
  </g>
  <g transform="translate(4,4)" fill="#ff9d27">
    <path d="m 10.9,48.7 c 4,-4 4.4,-5 6.9,-2.5 2.5,2.5 1.5,2.8 -2.5,6.9 -3,3 -6.8,2.4 -6.8,2.4 0,0 -0.6,-3.8 2.4,-6.8" />
    <path d="m 18.5,52.8 c 1.6,-4.2 2.1,-4.7 -0.2,-6 -2.3,-1.3 -2.3,-0.4 -3.8,3.8 -1.2,3.1 0.2,5.9 0.2,5.9 0,0 2.7,-0.5 3.8,-3.7" />
  </g>
  <path fill="#fdf516"
     d="m 20.2,52.9 c 0.9,-2.3 0.9,-2.8 2.1,-2.1 1.3,0.7 1,1 0.1,3.3 -0.6,1.7 -2.1,2.1 -2.1,2.1 0,0 -0.7,-1.5 -0.1,-3.3" />
  <path fill="#ff9d27"
     d="m 21.1,49.7 c -1.3,-2.3 -1.8,-1.8 -6,-0.2 -3.1,1.2 -3.7,3.8 -3.7,3.8 0,0 2.8,1.4 5.9,0.2 4.2,-1.6 5.1,-1.6 3.8,-3.8" />
  <g
     transform="translate(4,4)"     fill="#fdf516">
    <path d="m 15,47.8 c 2.3,-0.9 2.8,-0.9 2.1,-2.1 -0.7,-1.3 -1,-1 -3.3,-0.1 -1.7,0.6 -2.1,2.1 -2.1,2.1 0,0 1.6,0.7 3.3,0.1" />
    <path d="m 13.9,47.6 c 2.2,-2.2 2.4,-2.8 3.8,-1.4 1.4,1.4 0.8,1.6 -1.4,3.8 -1.7,1.7 -3.8,1.3 -3.8,1.3 0,0 -0.2,-2 1.4,-3.7" />
  </g>
  <path fill="#3baacf"
     d="M 22.5,42 C 16.3,31.6 6,35.9 6,35.9 c 0,0 14.7,-14.7 24.6,-4.8 z" />
  <path fill="#428bc1"
     d="m 27.3,34.3 3.2,-3.2 C 20.7,21.2 6,35.9 6,35.9 c 0,0 12.9,-9.2 21.3,-1.6" />
  <path fill="#3baacf"
     d="m 30,49.5 c 10.4,6.2 6.1,16.5 6.1,16.5 0,0 14.7,-14.7 4.8,-24.6 z" />
  <path fill="#428bc1"
     d="m 37.7,44.7 3.2,-3.2 c 9.9,9.9 -4.8,24.6 -4.8,24.6 0,0 9.2,-13 1.6,-21.4" />
  <path fill="#c5d0d8"
     d="M 52.8,34.9 C 41.1,46.5 28.2,52.8 23.7,48.3 19.2,43.8 25.5,30.9 37.1,19.2 50.7,5.6 65.8,6.2 65.8,6.2 c 0,0 0.5,15.1 -13,28.7" />
  <path fill="#dae3ea"
     d="M 49.8,31.6 C 38.2,43.2 26.6,50.8 23.9,48.1 21.2,45.4 28.8,33.8 40.4,22.2 54,8.6 66,6 66,6 66,6 63.4,18 49.8,31.6 Z" />
  <path fill="#c94747"
     d="M 28.3,51.5 C 27.8,52 27,52 26.5,51.5 l -6,-6 C 20,45 20,44.1 20.5,43.6 l 1.8,-1.8 7.8,7.8 -1.8,1.9" />
  <path fill="#f15744"
     d="m 26.6,49.7 c -0.5,0.5 -1.1,0.7 -1.4,0.4 l -3.4,-3.4 c -0.3,-0.3 -0.1,-0.9 0.4,-1.4 l 1.8,-1.8 4.4,4.4 -1.8,1.8" />
  <path fill="#3e4347"
     d="m 24.9,52.2 c -0.3,0.3 -1,0.3 -1.3,0 L 19.7,48.3 C 19.4,48 19.5,47.4 19.8,47.1 l 1.2,-1.2 5.1,5.1 -1.2,1.2" />
  <path fill="#62727a"
     d="m 24.1,51.4 c -0.3,0.3 -0.9,0.4 -1.1,0.2 l -2.7,-2.7 c -0.2,-0.2 -0.1,-0.7 0.3,-1 l 1.2,-1.2 3.5,3.5 -1.2,1.2" />
  <path fill="#c94747"
     d="m 65.8,6.2 c 0,0 -5.4,-0.2 -12.7,2.6 L 63.2,18.9 C 66,11.6 65.8,6.2 65.8,6.2" />
  <path fill="#f15744"
     d="m 65.8,6.2 c 0,0 -4.3,0.9 -10.8,4.6 L 61.2,17 C 64.9,10.5 65.8,6.2 65.8,6.2" />
  <circle      fill="#edf4f9"
     r="5"
     cy="24.5"
     cx="47.5" />
  <circle      fill="#3baacf"
     r="3.3"
     cy="24.5"
     cx="47.5" />
  <circle      fill="#edf4f9"
     r="5"
     cy="34.5"
     cx="37.5" />
  <circle      fill="#3baacf"
     r="3.3"
     cy="34.5"
     cx="37.5" />
  <g
     transform="translate(4,4)"      fill="#ffffff">
    <path d="m 48.9,6.9 c -0.3,0.3 -0.9,0.3 -1.2,0 -0.3,-0.3 -0.3,-0.9 0,-1.2 0.3,-0.3 0.9,-0.3 1.2,0 0.3,0.3 0.3,0.9 0,1.2" />
    <circle        r="0.80000001"
       cy="8.6000004"
       cx="50.599998" />
    <circle        r="0.80000001"
       cy="11"
       cx="53" />
    <circle        r="0.80000001"
       cy="13.4"
       cx="55.299999" />
    <circle        r="0.80000001"
       cy="15.7"
       cx="57.700001" />
  </g>
  <g stroke="none">
    <path d="m 64.302437,48.858713 h 1.095703 v 2.739257 h -1.095703 z m 1.67041,0 h 1.095703 v 2.739257 h -1.095703 z" />
    <path d="m 69.216988,52.323068 h 2.664062 c 0.207683,0 0.39209,-0.05013 0.553223,-0.15039 0.161133,-0.100261 0.284668,-0.2417 0.370605,-0.424317 0.08952,-0.186198 0.134278,-0.63916 0.134278,-0.63916 v 0 c 0,0 -0.04476,-0.451172 -0.134278,-0.633789 -0.08594,-0.186198 -0.209472,-0.329427 -0.370605,-0.429688 -0.157552,-0.10026 -0.342108,-0.142465 -0.553223,-0.15039 h -2.664062 v -1.041992 h 2.621093 c 0.451172,0 0.846843,0.0931 1.187012,0.279296 0.34375,0.186198 0.608724,0.451172 0.794922,0.794922 0.189779,0.340169 0.284668,1.181641 0.284668,1.181641 v 0 c 0,0 -0.09489,0.843262 -0.284668,1.187012 -0.189779,0.340169 -0.456543,0.603353 -0.800293,0.78955 -0.340169,0.186198 -0.734375,0.296361 -1.181641,0.279297 H 69.216988 Z M 68.73896,48.853342 h 1.095703 v 7.814941 H 68.73896 Z m 2.604981,4.270019 1.090332,-0.24707 1.998047,3.791992 h -1.299805 z" />
    <path d="m 77.730171,56.748849 c -0.483398,0 -0.896972,-0.09489 -1.240722,-0.284668 -0.34375,-0.189779 -0.606934,-0.465495 -0.789551,-0.827148 -0.179037,-0.365235 -0.268555,-0.803874 -0.268555,-1.315918 V 53.4134 c 0,-0.504883 0.08952,-0.93636 0.268555,-1.294433 0.182617,-0.361654 0.445801,-0.63558 0.789551,-0.821778 0.34375,-0.189779 0.757324,-0.284668 1.240722,-0.284668 0.483399,0 0.896973,0.09489 1.240723,0.284668 0.34375,0.186198 0.605143,0.460124 0.78418,0.821778 0.182617,0.358073 0.273925,0.78955 0.273925,1.294433 v 0.923828 c 0,0.508464 -0.09131,0.943523 -0.273925,1.305176 -0.179037,0.358073 -0.44043,0.631998 -0.78418,0.821777 -0.34375,0.189779 -0.757324,0.284668 -1.240723,0.284668 z m 0,-1.041992 c 0.383138,0 0.678548,-0.119954 0.886231,-0.359863 0.211263,-0.239909 0.316894,-0.576497 0.316894,-1.009766 V 53.4134 c 0,-0.433268 -0.105631,-0.768066 -0.316894,-1.004394 -0.207683,-0.236329 -0.503093,-0.354493 -0.886231,-0.354493 -0.383138,0 -0.680338,0.118164 -0.891601,0.354493 -0.207683,0.236328 -0.311524,0.571126 -0.311524,1.004394 v 0.923828 c 0,0.433269 0.103841,0.769857 0.311524,1.009766 0.211263,0.239909 0.508463,0.359863 0.891601,0.359863 z" />
    <path d="m 83.837105,56.748849 c -0.508464,0 -0.943523,-0.09489 -1.305176,-0.284668 -0.358073,-0.189779 -0.631998,-0.465495 -0.821777,-0.827148 -0.189779,-0.361653 -0.284668,-0.798502 -0.284668,-1.310547 v -0.918457 c 0,-0.504883 0.09489,-0.936361 0.284668,-1.294434 0.189779,-0.358073 0.463704,-0.630208 0.821777,-0.816406 0.361653,-0.189779 0.796712,-0.284668 1.305176,-0.284668 0.290039,0 0.562174,0.03581 0.816406,0.107422 0.257813,0.06803 0.48877,0.168294 0.692871,0.300781 0.204101,0.132487 0.510254,0.716917 0.510254,0.483399 v 0 l -0.789551,0.708984 v 0 c 0,0 -0.341959,-0.316894 -0.553222,-0.413574 -0.211263,-0.09668 -0.431478,-0.14502 -0.660645,-0.14502 -0.422526,0 -0.750163,0.118164 -0.98291,0.354493 -0.232747,0.236328 -0.349121,0.569336 -0.349121,0.999023 v 0.918457 c 0,0.44043 0.114583,0.780599 0.34375,1.020508 0.232747,0.239909 0.562174,0.359863 0.988281,0.359863 0.232747,0 0.454753,-0.05192 0.666016,-0.155762 0.211263,-0.103841 0.547851,-0.440429 0.547851,-0.440429 v 0 l 0.789551,0.762695 v 0 c 0,0 -0.311524,0.34554 -0.515625,0.478027 -0.204101,0.128907 -0.435058,0.227377 -0.692871,0.295411 -0.254232,0.06803 -0.524577,0.10205 -0.811035,0.10205 z" />
    <path d="m 87.537788,54.552072 2.868164,-3.458984 h 1.289063 l -4.227051,4.758789 z m -0.472656,-5.693359 h 1.095703 v 7.80957 h -1.095703 z m 1.76709,4.592285 0.703613,-0.730469 2.433106,3.947754 h -1.192383 z" />
    <path d="m 95.170113,56.748849 c -0.515625,0 -0.956055,-0.09668 -1.321289,-0.290039 -0.365235,-0.193359 -0.644532,-0.476237 -0.837891,-0.848632 -0.189779,-0.375977 -0.284668,-0.828939 -0.284668,-1.358887 v -0.628418 c 0,-0.551433 0.09131,-1.022299 0.273926,-1.412598 0.186198,-0.390299 0.454753,-0.6875 0.805664,-0.891601 0.350911,-0.204102 0.773437,-0.306153 1.267578,-0.306153 0.465495,0 0.862956,0.116374 1.192383,0.349121 0.329427,0.232747 0.580078,0.569336 0.751953,1.009766 0.175455,0.44043 0.263183,0.968588 0.263183,1.584473 v 0.365234 h -3.759765 v -0.880859 h 2.717773 v 0 c 0,0 -0.150391,-0.807455 -0.354492,-1.058106 -0.200521,-0.254231 -0.470866,-0.381347 -0.811035,-0.381347 -0.415365,0 -0.73763,0.136068 -0.966797,0.408203 -0.225586,0.272135 -0.338379,0.657064 -0.338379,1.154785 v 0.708984 c 0,0.461914 0.121745,0.816406 0.365235,1.063477 0.243489,0.24707 0.58903,0.370605 1.036621,0.370605 0.222005,0 0.442219,-0.04476 0.660644,-0.134277 0.218425,-0.08952 0.585449,-0.375977 0.585449,-0.375977 v 0 l 0.719727,0.719727 v 0 c 0,0 -0.585449,0.470866 -0.929199,0.617676 -0.34375,0.143229 -0.68929,0.214843 -1.036621,0.214843 z" />
    <path d="m 100.2458,56.695138 c -0.451175,0 -0.782393,-0.123535 -0.993656,-0.370605 -0.207683,-0.250651 -0.311524,-0.619466 -0.311524,-1.106445 v -5.747071 h 1.0957 v 5.757813 c 0,0.136067 0.0269,0.241699 0.0806,0.316894 0.0537,0.07162 0.13251,0.107422 0.23633,0.107422 h 0.52637 v 1.041992 z m -1.879887,-5.60205 h 2.513677 v 0.988281 h -2.513677 z" />
    <path d="m 107.80293,56.748849 c -0.37598,0 -0.73226,-0.03581 -1.06885,-0.107421 -0.33659,-0.07161 -0.6517,-0.179037 -0.94532,-0.322266 -0.29003,-0.143229 -0.8164,-0.204254 -0.8164,-0.537109 v 0 l 0.68213,-0.837891 v 0 c 0,0 0.62484,0.451172 0.98291,0.580078 0.35807,0.128906 0.74658,0.193359 1.16553,0.193359 0.56575,0 1.00439,-0.103841 1.31591,-0.311523 0.31153,-0.211263 0.46729,-0.508464 0.46729,-0.891602 v -0.0054 c 0,-0.272135 -0.0716,-0.486979 -0.21485,-0.644531 -0.13965,-0.161133 -0.32226,-0.279297 -0.54785,-0.354492 -0.222,-0.07878 -0.51025,-0.150391 -0.86474,-0.214844 -0.0107,-0.0036 -0.0233,-0.0054 -0.0376,-0.0054 -0.0107,0 -0.0215,-0.0018 -0.0322,-0.0054 l -0.0806,-0.01611 c -0.52279,-0.08952 -0.94889,-0.189779 -1.27832,-0.300782 -0.32585,-0.114583 -0.60514,-0.320475 -0.83789,-0.617675 -0.23275,-0.300781 -0.34913,-0.726888 -0.34913,-1.278321 v -0.0054 c 0,-0.483398 0.10742,-0.895182 0.32227,-1.235351 0.21843,-0.34375 0.53532,-0.605143 0.95068,-0.78418 0.41537,-0.179037 0.91488,-0.268555 1.49854,-0.268555 0.27929,0 0.55322,0.03044 0.82178,0.09131 0.27213,0.06087 0.5389,0.152182 0.80029,0.273926 0.26497,0.118164 0.77881,0.451172 0.77881,0.451172 v 0 l -0.62305,0.870117 v 0 c 0,0 -0.5944,-0.381348 -0.8916,-0.48877 -0.29362,-0.111003 -0.58903,-0.166504 -0.88623,-0.166504 -0.53353,0 -0.94889,0.107422 -1.2461,0.322266 -0.29361,0.211263 -0.44042,0.512044 -0.44042,0.902344 v 0.0054 c 0,0.268555 0.0752,0.479818 0.22558,0.633789 0.15397,0.153971 0.34375,0.268555 0.56934,0.34375 0.22917,0.07162 0.54606,0.14681 0.95068,0.225586 0.0143,0.0036 0.0269,0.0072 0.0376,0.01074 0.0143,0 0.0287,0.0018 0.043,0.0054 0.0179,0.0036 0.0376,0.0072 0.0591,0.01074 0.0215,0.0036 0.0412,0.0072 0.0591,0.01074 0.47266,0.09668 0.86654,0.211263 1.18164,0.34375 0.31869,0.132487 0.58366,0.347331 0.79492,0.644532 0.21485,0.293619 0.32227,0.696451 0.32227,1.208496 v 0.01074 c 0,0.476237 -0.11279,0.88444 -0.33838,1.224609 -0.22559,0.336589 -0.55322,0.594401 -0.98291,0.773438 -0.42611,0.175455 -0.94173,0.263183 -1.54687,0.263183 z" />
    <path d="m 114.3664,56.748849 c -0.50846,0 -0.94352,-0.09489 -1.30517,-0.284668 -0.35807,-0.189779 -0.632,-0.465495 -0.82178,-0.827148 -0.18978,-0.361653 -0.28467,-0.798502 -0.28467,-1.310547 v -0.918457 c 0,-0.504883 0.0949,-0.936361 0.28467,-1.294434 0.18978,-0.358073 0.46371,-0.630208 0.82178,-0.816406 0.36165,-0.189779 0.79671,-0.284668 1.30517,-0.284668 0.29004,0 0.56218,0.03581 0.81641,0.107422 0.25781,0.06803 0.48877,0.168294 0.69287,0.300781 0.2041,0.132487 0.51025,0.716916 0.51025,0.483399 v 0 l -0.78955,0.708984 v 0 c 0,0 -0.34196,-0.316894 -0.55322,-0.413574 -0.21127,-0.09668 -0.43148,-0.14502 -0.66065,-0.14502 -0.42252,0 -0.75016,0.118164 -0.98291,0.354493 -0.23275,0.236328 -0.34912,0.569336 -0.34912,0.999023 v 0.918457 c 0,0.44043 0.11458,0.780599 0.34375,1.020508 0.23275,0.239909 0.56217,0.359863 0.98828,0.359863 0.23275,0 0.45476,-0.05192 0.66602,-0.155762 0.21127,-0.103841 0.54785,-0.196049 0.54785,-0.440429 v 0 l 0.78955,0.762695 v 0 c 0,0 -0.31152,0.34554 -0.51562,0.478027 -0.2041,0.128907 -0.43506,0.227377 -0.69287,0.295411 -0.25423,0.06803 -0.52458,0.10205 -0.81104,0.10205 z" />
    <path d="m 117.59443,48.858713 h 1.0957 v 1.095703 h -1.0957 z m 0,2.234375 h 1.0957 v 5.575195 h -1.0957 z" />
    <path d="m 122.64863,56.748849 c -0.51563,0 -0.95606,-0.09668 -1.32129,-0.290039 -0.36523,-0.193359 -0.64453,-0.476237 -0.83789,-0.848632 -0.18978,-0.375977 -0.28467,-0.828939 -0.28467,-1.358887 v -0.628418 c 0,-0.551433 0.0913,-1.022299 0.27393,-1.412598 0.18619,-0.390299 0.45475,-0.6875 0.80566,-0.891601 0.35091,-0.204102 0.77344,-0.306153 1.26758,-0.306153 0.46549,0 0.86295,0.116374 1.19238,0.349121 0.32943,0.232747 0.58008,0.569336 0.75195,1.009766 0.17546,0.44043 0.26319,0.968588 0.26319,1.584473 v 0.365234 h -3.75977 v -0.880859 h 2.71778 v 0 c 0,0 -0.15037,-0.807455 -0.3545,-1.058106 -0.20052,-0.254231 -0.47086,-0.381347 -0.81103,-0.381347 -0.41537,0 -0.73763,0.136068 -0.9668,0.408203 -0.22559,0.272135 -0.33838,0.657064 -0.33838,1.154785 v 0.708984 c 0,0.461914 0.12175,0.816406 0.36524,1.063477 0.24349,0.24707 0.58903,0.370605 1.03662,0.370605 0.22201,0 0.44222,-0.04476 0.66064,-0.134277 0.21843,-0.08952 0.58545,-0.140383 0.58545,-0.375977 v 0 l 0.71973,0.719727 v 0 c 0,0 -0.58545,0.470866 -0.9292,0.617676 -0.34375,0.143229 -0.68929,0.214843 -1.03662,0.214843 z" />
    <path d="m 126.27412,51.093088 h 1.0957 v 5.575195 h -1.0957 z m 3.38379,2.196777 c 0,-0.39388 -0.10205,-0.698242 -0.30616,-0.913086 -0.2041,-0.214844 -0.49056,-0.322266 -0.85937,-0.322266 -0.35807,0 -0.63558,0.09489 -0.83252,0.284668 -0.19336,0.189779 -0.29004,0.456543 -0.29004,0.800293 l -0.11279,-1.074218 c 0.17187,-0.336589 0.39567,-0.596192 0.67138,-0.778809 0.2793,-0.182617 0.58724,-0.273926 0.92383,-0.273926 0.60515,0 1.07243,0.198731 1.40186,0.596192 0.33301,0.39388 0.49951,0.952474 0.49951,1.675781 v 3.383789 h -1.0957 z" />
    <path d="m 134.66914,56.748849 c -0.50847,0 -0.94353,-0.09489 -1.30518,-0.284668 -0.35807,-0.189779 -0.632,-0.465495 -0.82178,-0.827148 -0.18978,-0.361653 -0.28467,-0.798502 -0.28467,-1.310547 v -0.918457 c 0,-0.504883 0.0949,-0.936361 0.28467,-1.294434 0.18978,-0.358073 0.46371,-0.630208 0.82178,-0.816406 0.36165,-0.189779 0.79671,-0.284668 1.30518,-0.284668 0.29003,0 0.56217,0.03581 0.8164,0.107422 0.25781,0.06803 0.48877,0.168294 0.69287,0.300781 0.20411,0.132487 0.51026,0.483399 0.51026,0.483399 v 0 l -0.78955,0.708984 v 0 c 0,0 -0.34196,-0.316894 -0.55323,-0.413574 -0.21126,-0.09668 -0.43147,-0.14502 -0.66064,-0.14502 -0.42253,0 -0.75016,0.118164 -0.98291,0.354493 -0.23275,0.236328 -0.34912,0.569336 -0.34912,0.999023 v 0.918457 c 0,0.44043 0.11458,0.780599 0.34375,1.020508 0.23275,0.239909 0.56217,0.359863 0.98828,0.359863 0.23275,0 0.45475,-0.05192 0.66601,-0.155762 0.21127,-0.103841 0.54786,-0.196045 0.54786,-0.440429 v 0 l 0.78955,0.762695 v 0 c 0,0 -0.31153,0.34554 -0.51563,0.478027 -0.2041,0.128907 -0.43506,0.227377 -0.69287,0.295411 -0.25423,0.06803 -0.52458,0.10205 -0.81103,0.10205 z" />
    <path d="m 140.17988,56.748849 c -0.51563,0 -0.95606,-0.09668 -1.32129,-0.290039 -0.36523,-0.193359 -0.64453,-0.476237 -0.83789,-0.848632 -0.18978,-0.375977 -0.28467,-0.828939 -0.28467,-1.358887 v -0.628418 c 0,-0.551433 0.0913,-1.022299 0.27393,-1.412598 0.18619,-0.390299 0.45475,-0.6875 0.80566,-0.891601 0.35091,-0.204102 0.77344,-0.306153 1.26758,-0.306153 0.46549,0 0.86295,0.116374 1.19238,0.349121 0.32943,0.232747 0.58008,0.569336 0.75195,1.009766 0.17546,0.44043 0.26319,0.968588 0.26319,1.584473 v 0.365234 h -3.75977 v -0.880859 h 2.71778 v 0 c 0,0 -0.15037,-0.807455 -0.3545,-1.058106 -0.20052,-0.254231 -0.47086,-0.381347 -0.81103,-0.381347 -0.41537,0 -0.73763,0.136068 -0.9668,0.408203 -0.22559,0.272135 -0.33838,0.657064 -0.33838,1.154785 v 0.708984 c 0,0.461914 0.12175,0.816406 0.36524,1.063477 0.24349,0.24707 0.58903,0.370605 1.03662,0.370605 0.22201,0 0.44222,-0.04476 0.66064,-0.134277 0.21843,-0.08952 0.58545,-0.140383 0.58545,-0.375977 v 0 l 0.71973,0.719727 v 0 c 0,0 -0.58545,0.470866 -0.9292,0.617676 -0.34375,0.143229 -0.68929,0.214843 -1.03662,0.214843 z" />
    <path d="m 146.93134,50.335763 c 0,-0.49414 0.11279,-0.862955 0.33838,-1.106445 0.22917,-0.24707 0.58008,-0.370605 1.05274,-0.370605 h 0.80566 v 1.041992 h -0.78418 c -0.10384,0 -0.18262,0.03939 -0.23633,0.118164 -0.0537,0.07878 -0.0806,0.180827 -0.0806,0.306152 v 6.343262 h -1.09571 z m -0.59082,0.757325 h 2.7876 v 0.93457 h -2.7876 z" />
    <path d="m 152.23798,56.748849 c -0.48339,0 -0.89697,-0.09489 -1.24072,-0.284668 -0.34375,-0.189779 -0.60693,-0.465495 -0.78955,-0.827148 -0.17903,-0.365235 -0.26855,-0.803874 -0.26855,-1.315918 V 53.4134 c 0,-0.504883 0.0895,-0.93636 0.26855,-1.294433 0.18262,-0.361654 0.4458,-0.63558 0.78955,-0.821778 0.34375,-0.189779 0.75733,-0.284668 1.24072,-0.284668 0.4834,0 0.89698,0.09489 1.24073,0.284668 0.34375,0.186198 0.60514,0.460124 0.78418,0.821778 0.18261,0.358073 0.27392,0.78955 0.27392,1.294433 v 0.923828 c 0,0.508464 -0.0913,0.943523 -0.27392,1.305176 -0.17904,0.358073 -0.44043,0.631998 -0.78418,0.821777 -0.34375,0.189779 -0.75733,0.284668 -1.24073,0.284668 z m 0,-1.041992 c 0.38314,0 0.67855,-0.119954 0.88623,-0.359863 0.21127,-0.239909 0.3169,-0.576497 0.3169,-1.009766 V 53.4134 c 0,-0.433268 -0.10563,-0.768066 -0.3169,-1.004394 -0.20768,-0.236329 -0.50309,-0.354493 -0.88623,-0.354493 -0.38313,0 -0.68033,0.118164 -0.8916,0.354493 -0.20768,0.236328 -0.31152,0.571126 -0.31152,1.004394 v 0.923828 c 0,0.433269 0.10384,0.769857 0.31152,1.009766 0.21127,0.239909 0.50847,0.359863 0.8916,0.359863 z" />
    <path d="m 156.09443,51.093088 h 1.0957 v 5.575195 h -1.0957 z m 3.06689,1.321289 c -0.0967,-0.118164 -0.21842,-0.207682 -0.36523,-0.268555 -0.14681,-0.06087 -0.3169,-0.09131 -0.51025,-0.09131 -0.34733,0 -0.61768,0.09668 -0.81104,0.29004 -0.18978,0.189778 -0.28467,0.454752 -0.28467,0.794921 l -0.11279,-1.074218 c 0.17187,-0.333008 0.39388,-0.590821 0.66601,-0.773438 0.27214,-0.186198 0.57292,-0.279297 0.90235,-0.279297 0.25423,0 0.4834,0.0376 0.6875,0.112793 0.20768,0.07162 0.38851,0.179037 0.54248,0.322266 z" />
    <path d="m 163.87177,48.858713 h 1.09571 v 7.80957 h -1.09571 z m 0.53174,6.767578 h 4.48486 v 1.041992 h -4.48486 z m 0,-3.356934 h 3.89404 v 1.041992 h -3.89404 z m 0,-3.410644 h 4.48486 v 1.041992 h -4.48486 z" />
    <path d="m 173.62031,51.093088 h 1.14404 l -2.09473,5.575195 h -0.82714 l -2.09473,-5.575195 h 1.14404 l 1.36426,3.97998 z" />
    <path d="m 178.01386,56.748849 c -0.51562,0 -0.95605,-0.09668 -1.32129,-0.290039 -0.36523,-0.193359 -0.64453,-0.476237 -0.83789,-0.848632 -0.18978,-0.375977 -0.28467,-0.828939 -0.28467,-1.358887 v -0.628418 c 0,-0.551433 0.0913,-1.022299 0.27393,-1.412598 0.1862,-0.390299 0.45475,-0.6875 0.80566,-0.891601 0.35091,-0.204102 0.77344,-0.306153 1.26758,-0.306153 0.4655,0 0.86296,0.116374 1.19239,0.349121 0.32943,0.232747 0.58008,0.569336 0.75195,1.009766 0.17545,0.44043 0.26318,0.968588 0.26318,1.584473 v 0.365234 h -3.75976 v -0.880859 h 2.71777 v 0 c 0,0 -0.15036,-0.807455 -0.35449,-1.058106 -0.20052,-0.254231 -0.47087,-0.381347 -0.81104,-0.381347 -0.41536,0 -0.73762,0.136068 -0.96679,0.408203 -0.22559,0.272135 -0.33838,0.657064 -0.33838,1.154785 v 0.708984 c 0,0.461914 0.12174,0.816406 0.36523,1.063477 0.24349,0.24707 0.58903,0.370605 1.03662,0.370605 0.22201,0 0.44222,-0.04476 0.66065,-0.134277 0.21842,-0.08952 0.58545,-0.140378 0.58545,-0.375977 v 0 l 0.71972,0.719727 v 0 c 0,0 -0.58545,0.470866 -0.9292,0.617676 -0.34375,0.143229 -0.68929,0.214843 -1.03662,0.214843 z" />
    <path d="m 181.63935,51.093088 h 1.0957 v 5.575195 h -1.0957 z m 3.0669,1.321289 c -0.0967,-0.118164 -0.21843,-0.207682 -0.36524,-0.268555 -0.14681,-0.06087 -0.31689,-0.09131 -0.51025,-0.09131 -0.34733,0 -0.61768,0.09668 -0.81104,0.29004 -0.18978,0.189778 -0.28467,0.454752 -0.28467,0.794921 l -0.11279,-1.074218 c 0.17187,-0.333008 0.39388,-0.590821 0.66602,-0.773438 0.27213,-0.186198 0.57291,-0.279297 0.90234,-0.279297 0.25423,0 0.4834,0.0376 0.6875,0.112793 0.20768,0.07162 0.38851,0.179037 0.54248,0.322266 z" />
    <path d="m 190.68964,51.093088 -2.37402,6.880371 c -0.0859,0.254231 -0.19873,0.454752 -0.33838,0.601562 -0.13965,0.150391 -0.31152,0.257813 -0.51562,0.322266 -0.20411,0.06445 -0.45476,0.09668 -0.75196,0.09668 h -0.22021 v -1.052735 h 0.22021 c 0.20411,0 0.36524,-0.04118 0.4834,-0.123535 0.12175,-0.08236 0.22738,-0.223795 0.3169,-0.424316 l 2.0625,-6.300293 z m -4.93603,0 h 1.11719 l 1.71338,4.844726 -0.60694,1.187012 z" />
    <path d="m 194.14863,56.748849 c -0.34733,0 -0.64991,-0.08236 -0.90772,-0.24707 -0.25781,-0.168294 -0.44759,-0.404622 -0.56933,-0.708984 l 0.0752,-1.165528 c 0,0.239909 0.043,0.444011 0.12891,0.612305 0.0859,0.168294 0.20947,0.2972 0.3706,0.386719 0.16471,0.08952 0.36345,0.134277 0.5962,0.134277 0.36165,0 0.64095,-0.109212 0.83789,-0.327637 0.20052,-0.222005 0.30078,-0.533528 0.30078,-0.93457 v -1.208496 c 0,-0.408203 -0.10026,-0.725098 -0.30078,-0.950684 -0.19694,-0.225585 -0.47624,-0.338378 -0.83789,-0.338378 -0.23275,0 -0.43149,0.04297 -0.5962,0.128906 -0.16113,0.08594 -0.28466,0.213053 -0.3706,0.381347 -0.0859,0.164714 -0.12891,0.363445 -0.12891,0.596192 l -0.11279,-1.074219 c 0.16829,-0.325846 0.38851,-0.576497 0.66064,-0.751953 0.27214,-0.179037 0.57471,-0.268555 0.90772,-0.268555 0.39388,0 0.73047,0.08952 1.00976,0.268555 0.28288,0.175456 0.49773,0.433268 0.64454,0.773437 0.14681,0.340169 0.22021,0.750163 0.22021,1.229981 v 1.213867 c 0,0.472656 -0.0752,0.877278 -0.22559,1.213867 -0.15039,0.336589 -0.3706,0.594401 -0.66064,0.773438 -0.29004,0.175455 -0.63737,0.263183 -1.04199,0.263183 z m -2.49756,-7.890136 h 1.0957 v 7.80957 h -1.0957 z" />
    <path d="m 199.78291,56.748849 c -0.4834,0 -0.89698,-0.09489 -1.24073,-0.284668 -0.34375,-0.189779 -0.60693,-0.465495 -0.78955,-0.827148 -0.17903,-0.365235 -0.26855,-0.803874 -0.26855,-1.315918 V 53.4134 c 0,-0.504883 0.0895,-0.93636 0.26855,-1.294433 0.18262,-0.361654 0.4458,-0.63558 0.78955,-0.821778 0.34375,-0.189779 0.75733,-0.284668 1.24073,-0.284668 0.48339,0 0.89697,0.09489 1.24072,0.284668 0.34375,0.186198 0.60514,0.460124 0.78418,0.821778 0.18261,0.358073 0.27392,0.78955 0.27392,1.294433 v 0.923828 c 0,0.508464 -0.0913,0.943523 -0.27392,1.305176 -0.17904,0.358073 -0.44043,0.631998 -0.78418,0.821777 -0.34375,0.189779 -0.75733,0.284668 -1.24072,0.284668 z m 0,-1.041992 c 0.38313,0 0.67854,-0.119954 0.88623,-0.359863 0.21126,-0.239909 0.31689,-0.576497 0.31689,-1.009766 V 53.4134 c 0,-0.433268 -0.10563,-0.768066 -0.31689,-1.004394 -0.20769,-0.236329 -0.5031,-0.354493 -0.88623,-0.354493 -0.38314,0 -0.68034,0.118164 -0.89161,0.354493 -0.20768,0.236328 -0.31152,0.571126 -0.31152,1.004394 v 0.923828 c 0,0.433269 0.10384,0.769857 0.31152,1.009766 0.21127,0.239909 0.50847,0.359863 0.89161,0.359863 z" />
    <path d="m 206.8083,48.858713 h 1.0957 v 7.80957 h -1.0957 z m -1.40186,7.90625 c -0.4082,0 -0.75732,-0.08773 -1.04736,-0.263184 -0.28646,-0.179037 -0.50489,-0.43864 -0.65528,-0.778809 -0.15039,-0.340169 -0.22558,-0.748372 -0.22558,-1.224609 v -1.22998 c 0,-0.479818 0.0734,-0.889812 0.22021,-1.229981 0.14681,-0.340169 0.35987,-0.597982 0.63916,-0.773437 0.28288,-0.179037 0.62126,-0.268555 1.01514,-0.268555 0.32943,0 0.63021,0.08594 0.90234,0.257812 0.27572,0.171875 0.49773,0.413575 0.66602,0.725098 l -0.11279,1.138672 c 0,-0.236328 -0.043,-0.438639 -0.12891,-0.606934 -0.0859,-0.168294 -0.21127,-0.29541 -0.37598,-0.381347 -0.16113,-0.08952 -0.35807,-0.134278 -0.59082,-0.134278 -0.36165,0 -0.64274,0.112793 -0.84326,0.338379 -0.19694,0.225586 -0.29541,0.542481 -0.29541,0.950684 v 1.213867 c 0,0.404623 0.0985,0.717937 0.29541,0.939942 0.20052,0.218424 0.48161,0.327636 0.84326,0.327636 0.23275,0 0.42969,-0.04476 0.59082,-0.134277 0.16471,-0.0931 0.29004,-0.225586 0.37598,-0.397461 0.0859,-0.171875 0.12891,-0.377767 0.12891,-0.617676 l 0.0752,1.17627 c -0.111,0.275716 -0.29362,0.506673 -0.54785,0.692871 -0.25065,0.186198 -0.56039,0.279297 -0.9292,0.279297 z" />
    <path d="m 213.91425,51.093088 -2.37402,6.880371 c -0.0859,0.254231 -0.19873,0.454752 -0.33838,0.601562 -0.13965,0.150391 -0.31152,0.257813 -0.51562,0.322266 -0.20411,0.06445 -0.45476,0.09668 -0.75196,0.09668 h -0.22021 v -1.052735 h 0.22021 c 0.20411,0 0.36524,-0.04118 0.4834,-0.123535 0.12175,-0.08236 0.22738,-0.223795 0.3169,-0.424316 l 2.0625,-6.300293 z m -4.93603,0 h 1.11719 l 1.71337,4.844726 -0.60693,1.187012 z" />
    <path d="m 214.71455,48.858713 h 1.0957 v 2.739257 h -1.0957 z m 1.67041,0 h 1.0957 v 2.739257 h -1.0957 z" />
  </g>
</svg>
